<?xml version="1.0" standalone="no"?>
<!DOCTYPE svg PUBLIC "-//W3C//DTD SVG 1.1//EN" "http://www.w3.org/Graphics/SVG/1.1/DTD/svg11.dtd" >
<svg xmlns="http://www.w3.org/2000/svg" xmlns:xlink="http://www.w3.org/1999/xlink" version="1.1">
<metadata>
Created by FontForge 20170731 at Mon Jan 28 20:22:21 2019
 By Aleksey,,,
Copyright (c) 2017 by Artegra. All rights reserved.
</metadata>
<defs>
<font id="ArtegraSansSemiBold" horiz-adv-x="1257" >
  <font-face 
    font-family="Artegra Sans SemiBold"
    font-weight="600"
    font-stretch="normal"
    units-per-em="2048"
    panose-1="2 0 7 3 4 0 0 2 0 4"
    ascent="1516"
    descent="-532"
    x-height="1022"
    cap-height="1434"
    bbox="-280 -785 3152 2200"
    underline-thickness="102"
    underline-position="-307"
    unicode-range="U+0020-FE65"
  />
<missing-glyph horiz-adv-x="1486" 
d="M150 0v1434h1186v-1434h-1186zM330 262l313 455l-313 455v-910zM843 717l313 -455v910zM473 1255l270 -393l270 393h-540zM1013 179l-270 392l-270 -392h540z" />
    <glyph glyph-name="ff" unicode="ff" horiz-adv-x="1584" 
d="M663 1277q-24 0 -43 -4.5t-33 -10.5t-25 -19.5t-18.5 -24t-12 -31.5t-7 -34.5t-4 -41t-2 -42.5t-0.5 -47h413q1 105 11.5 182.5t36 142.5t68 105t107 62t153.5 22q124 0 237 -35l-72 -194q-73 20 -145 20q-21 0 -39 -3t-31.5 -11.5t-24 -16t-18.5 -24.5t-13.5 -28
t-8.5 -35.5t-5 -39t-3 -45.5t-1.5 -48t-0.5 -54h292v-209h-292v-813h-251v813h-413v-813h-251v813h-197v209h197q1 117 18 198t58.5 143.5t115.5 92.5t184 30q124 0 237 -35l-72 -194q-73 20 -145 20z" />
    <glyph glyph-name="fi" unicode="fi" horiz-adv-x="1312" 
d="M518 1022h664v-1022h-251v813h-413v-813h-251v813h-197v209h197q1 119 27 209.5t82 160.5t153.5 107t233.5 37q287 0 415 -157l-170 -133q-85 81 -235 81q-138 0 -196 -69t-59 -236z" />
    <glyph glyph-name="fl" unicode="fl" horiz-adv-x="1367" 
d="M931 813h-413v-813h-251v813h-197v209h197q1 119 27 209.5t82 160.5t153.5 107t233.5 37q132 0 240 -34.5t179 -94.5v-1043q0 -41 1 -61t6.5 -46t19 -37t35.5 -11h33v-209h-129q-40 0 -71.5 8t-54 26t-38.5 36.5t-26 50t-15.5 54t-8 62t-3 61t-0.5 62.5v453zM773 1327
q-138 0 -196 -69t-59 -236h413v274q-60 31 -158 31z" />
    <glyph glyph-name="ffi" unicode="ffi" horiz-adv-x="1976" 
d="M1182 1022h664v-1022h-251v813h-413v-813h-251v813h-413v-813h-251v813h-197v209h197q1 117 18 198t58.5 143.5t115.5 92.5t184 30q124 0 237 -35l-72 -194q-73 20 -145 20q-24 0 -43 -4.5t-33 -10.5t-25 -19.5t-18.5 -24t-12 -31.5t-7 -34.5t-4 -41t-2 -42.5t-0.5 -47
h413q1 119 27 209.5t82 160.5t153.5 107t233.5 37q287 0 415 -157l-170 -133q-85 81 -235 81q-138 0 -196 -69t-59 -236z" />
    <glyph glyph-name="ffl" unicode="ffl" horiz-adv-x="2031" 
d="M1595 813h-413v-813h-251v813h-413v-813h-251v813h-197v209h197q1 117 18 198t58.5 143.5t115.5 92.5t184 30q124 0 237 -35l-72 -194q-73 20 -145 20q-24 0 -43 -4.5t-33 -10.5t-25 -19.5t-18.5 -24t-12 -31.5t-7 -34.5t-4 -41t-2 -42.5t-0.5 -47h413q1 119 27 209.5
t82 160.5t153.5 107t233.5 37q132 0 240 -34.5t179 -94.5v-1043q0 -41 1 -61t6.5 -46t19 -37t35.5 -11h33v-209h-129q-40 0 -71.5 8t-54 26t-38.5 36.5t-26 50t-15.5 54t-8 62t-3 61t-0.5 62.5v453zM1437 1327q-138 0 -196 -69t-59 -236h413v274q-60 31 -158 31z" />
    <glyph glyph-name=".notdef" horiz-adv-x="1486" 
d="M150 0v1434h1186v-1434h-1186zM330 262l313 455l-313 455v-910zM843 717l313 -455v910zM473 1255l270 -393l270 393h-540zM1013 179l-270 392l-270 -392h540z" />
    <glyph glyph-name=".null" horiz-adv-x="0" 
 />
    <glyph glyph-name="nonmarkingreturn" horiz-adv-x="682" 
 />
    <glyph glyph-name="space" unicode=" " horiz-adv-x="573" 
 />
    <glyph glyph-name="exclam" unicode="!" horiz-adv-x="637" 
d="M203 402l-20 1032h270l-20 -1032h-230zM170 138q0 62 43.5 105.5t104.5 43.5q62 0 105.5 -43.5t43.5 -105.5q0 -61 -43.5 -104.5t-105.5 -43.5t-105 43t-43 105z" />
    <glyph glyph-name="quotedbl" unicode="&#x22;" horiz-adv-x="822" 
d="M130 932l-20 502h259l-17 -502h-222zM472 932l-18 502h258l-18 -502h-222z" />
    <glyph glyph-name="numbersign" unicode="#" horiz-adv-x="1492" 
d="M917 1072l58 362h257l-58 -362h208v-226h-244l-42 -258h208v-226h-244l-58 -362h-257l58 362h-228l-58 -362h-258l58 362h-207v226h243l42 258h-208v226h244l58 362h258l-58 -362h228zM653 846l-42 -258h228l42 258h-228z" />
    <glyph glyph-name="dollar" unicode="$" horiz-adv-x="1342" 
d="M1181 1331l-132 -189q-162 96 -382 96q-263 0 -263 -167q0 -85 71.5 -132.5t233.5 -82.5q277 -58 410 -169t133 -295q0 -191 -119.5 -294t-327.5 -123v-223h-232v222q-153 11 -269 50.5t-214 113.5l132 189q209 -131 479 -131q144 0 211.5 45.5t67.5 150.5
q0 83 -75 138.5t-245 90.5q-275 57 -401.5 170.5t-126.5 279.5q0 154 110.5 261t330.5 127v223h232v-224q219 -20 376 -127z" />
    <glyph glyph-name="uni0025" unicode="%" horiz-adv-x="1662" 
d="M291 0l802 1434h285l-802 -1434h-285zM110 1147q0 133 89.5 225t227.5 92q137 0 227 -92t90 -225q0 -134 -90 -225.5t-227 -91.5q-138 0 -227.5 91.5t-89.5 225.5zM312 1147q0 -49 31 -82t84 -33t84 33t31 82t-31 82t-84 33t-84 -33t-31 -82zM918 287q0 133 89.5 225
t227.5 92q137 0 227 -92t90 -225q0 -134 -90 -225.5t-227 -91.5q-138 0 -227.5 91.5t-89.5 225.5zM1120 287q0 -49 31 -82t84 -33t84 33t31 82t-31 82t-84 33t-84 -33t-31 -82z" />
    <glyph glyph-name="ampersand" unicode="&#x26;" horiz-adv-x="1651" 
d="M683 1464q99 0 175 -30t121.5 -82t68 -118t22.5 -142q0 -252 -317 -423q12 -14 25 -28t30 -31l28 -28t33 -31t29.5 -27t32 -29t27.5 -25q36 62 67 194l270 -30q-24 -107 -60 -196t-71 -140q71 -51 182.5 -125.5t187.5 -123.5l77 -49h-416q-93 49 -182 108
q-87 -71 -177.5 -104.5t-241.5 -33.5q-96 0 -178 22t-147 65.5t-102 116t-37 166.5q0 240 271 394q-121 141 -121 338q0 177 107 284.5t296 107.5zM400 340q0 -68 54 -106t137 -38q127 0 217 76q-189 170 -266 262q-70 -38 -106 -89.5t-36 -104.5zM799 1092q0 147 -116 147
q-64 0 -99 -48t-35 -119q0 -64 20 -121.5t50 -90.5q180 93 180 232z" />
    <glyph glyph-name="quotesingle" unicode="'" horiz-adv-x="479" 
d="M130 932l-20 502h259l-17 -502h-222z" />
    <glyph glyph-name="parenleft" unicode="(" horiz-adv-x="900" 
d="M400 580q0 -95 14 -179.5t38 -147.5t54.5 -117t64.5 -91t68 -67t64.5 -47.5t54.5 -29t38 -15.5l14 -5l-80 -238q-13 3 -34.5 10t-83.5 38.5t-119 72.5t-126 117.5t-119 168.5t-84 231t-34 299t33 298.5t86 231.5t117 168t128 118t117 72t86 39l33 10l80 -238
q-9 -2 -23.5 -7.5t-57 -28t-81.5 -53t-86 -87t-81 -125.5t-57.5 -173t-23.5 -225z" />
    <glyph glyph-name="parenright" unicode=")" horiz-adv-x="900" 
d="M500 580q0 95 -14 179.5t-38 147.5t-54.5 117t-64.5 91t-68 67t-64.5 47.5t-54.5 29t-38 15.5l-14 5l80 238q13 -3 34.5 -10t83.5 -38.5t119 -72.5t126 -117.5t119 -168.5t84 -231t34 -299t-33 -298.5t-86 -231.5t-117 -168t-128 -118t-117 -72t-86 -39l-33 -10l-80 238
q9 2 23.5 7.5t57 28t81.5 53t86 87t81 125.5t57.5 173t23.5 225z" />
    <glyph glyph-name="asterisk" unicode="*" horiz-adv-x="1020" 
d="M643 636l-133 212l-133 -212l-194 158l166 181l-259 75l81 238l225 -106l-20 252h268l-20 -252l225 106l81 -238l-259 -75l166 -181z" />
    <glyph glyph-name="plus" unicode="+" horiz-adv-x="1171" 
d="M1061 794v-228h-358v-361h-235v361h-358v228h358v361h235v-361h358z" />
    <glyph glyph-name="comma" unicode="," horiz-adv-x="660" 
d="M90 -258l191 502h269l-229 -502h-231z" />
    <glyph glyph-name="hyphen" unicode="-" horiz-adv-x="906" 
d="M110 469v209h686v-209h-686z" />
    <glyph glyph-name="period" unicode="." horiz-adv-x="517" 
d="M110 138q0 62 43.5 105.5t104.5 43.5q62 0 105.5 -43.5t43.5 -105.5q0 -61 -43.5 -104.5t-105.5 -43.5t-105 43t-43 105z" />
    <glyph glyph-name="slash" unicode="/" horiz-adv-x="1155" 
d="M110 0l660 1434h275l-659 -1434h-276z" />
    <glyph glyph-name="zero" unicode="0" horiz-adv-x="1426" 
d="M713 1464q149 0 264.5 -54.5t189 -154t111.5 -235.5t38 -303t-38 -303t-111.5 -235.5t-189 -154t-264.5 -54.5t-264.5 54.5t-189 154t-111.5 235.5t-38 303t38 303t111.5 235.5t189 154t264.5 54.5zM713 1238q-91 0 -157.5 -40.5t-104 -114t-54.5 -164t-17 -202.5
t17 -202.5t54.5 -164t104 -114t157.5 -40.5t157.5 40.5t104 114t54.5 164t17 202.5t-17 202.5t-54.5 164t-104 114t-157.5 40.5z" />
    <glyph glyph-name="one" unicode="1" horiz-adv-x="826" 
d="M237 868l-177 194l414 372h202v-1434h-270v1018z" />
    <glyph glyph-name="two" unicode="2" horiz-adv-x="1276" 
d="M367 1018l-237 83q15 48 40 94t69 96t98.5 87.5t134.5 61.5t172 24q227 0 360.5 -110.5t133.5 -303.5q0 -116 -54 -217t-157 -208l-381 -400h600v-225h-1012v162q557 584 610 640q65 68 94.5 126t29.5 122q0 88 -57.5 138t-166.5 50q-50 0 -94.5 -18.5t-72 -41t-53 -59
t-35.5 -55.5t-22 -46z" />
    <glyph glyph-name="three" unicode="3" horiz-adv-x="1317" 
d="M110 255l237 83q82 -142 292 -142q158 0 228 55.5t70 150.5q0 115 -99 166t-321 51v227q189 0 284.5 52.5t95.5 164.5q0 175 -248 175q-50 0 -93.5 -12t-67.5 -25t-49 -39t-31 -34.5t-21 -31.5l-237 83q11 26 28.5 54.5t58.5 72t93 77t136.5 57.5t182.5 24
q239 0 378.5 -102.5t139.5 -298.5q0 -106 -64 -191.5t-186 -126.5q124 -28 207 -113t83 -230q0 -211 -151.5 -321.5t-416.5 -110.5q-151 0 -262.5 39.5t-172.5 100.5t-94 145z" />
    <glyph glyph-name="four" unicode="4" horiz-adv-x="1405" 
d="M1114 0h-270v325h-714v190l749 919h235v-883h181v-226h-181v-325zM459 551h385v473z" />
    <glyph glyph-name="five" unicode="5" horiz-adv-x="1355" 
d="M1118 1434v-226h-626l-19 -287q75 20 207 20q145 0 251.5 -35t170 -100.5t93.5 -151t30 -193.5q0 -82 -18.5 -153t-60 -134t-103.5 -107.5t-154.5 -70.5t-208.5 -26q-184 0 -318 46t-212 127l157 172q67 -53 163.5 -86t209.5 -33q136 0 205.5 72t69.5 193q0 254 -275 254
q-119 0 -242 -26.5t-187 -52.5l-64 -27l54 825h877z" />
    <glyph glyph-name="six" unicode="6" horiz-adv-x="1388" 
d="M1115 1401l-103 -205q-253 78 -412.5 -13t-178.5 -324q32 46 105.5 81.5t172.5 35.5q137 0 245.5 -41t176 -111t102.5 -160t35 -192t-35 -191.5t-102.5 -159.5t-176 -110.5t-245.5 -40.5q-133 0 -235.5 37.5t-167.5 107t-103 157.5t-53 199q-21 197 -1 350t69.5 266.5
t125.5 189.5t167 119.5t195 56.5t209.5 -0.5t209.5 -51.5zM988 472q0 117 -74.5 196.5t-214.5 79.5t-214.5 -79.5t-74.5 -196.5q0 -118 74 -197t215 -79q140 0 214.5 79.5t74.5 196.5z" />
    <glyph glyph-name="seven" unicode="7" horiz-adv-x="1211" 
d="M110 1208v226h991v-172l-587 -1262h-283l570 1208h-691z" />
    <glyph glyph-name="eight" unicode="8" horiz-adv-x="1348" 
d="M674 1464q249 0 390 -114t141 -308q0 -203 -182 -294q98 -46 156.5 -131t58.5 -209q0 -115 -42.5 -200.5t-120.5 -136.5t-178 -76t-223 -25t-223 25t-178 76t-120.5 136.5t-42.5 200.5q0 124 58.5 209t156.5 131q-182 91 -182 294q0 194 141 308t390 114zM968 408
q0 96 -76.5 154t-217.5 58t-217.5 -58t-76.5 -154t76.5 -154t217.5 -58t217.5 58t76.5 154zM674 1238q-121 0 -191 -52.5t-70 -143.5t70 -143.5t191 -52.5t191 52.5t70 143.5t-70 143.5t-191 52.5z" />
    <glyph glyph-name="nine" unicode="9" horiz-adv-x="1388" 
d="M273 33l103 205q253 -78 412.5 13t178.5 324q-32 -46 -105.5 -81.5t-172.5 -35.5q-137 0 -245.5 41t-176 111t-102.5 160t-35 192t35 191.5t102.5 159.5t176 110.5t245.5 40.5q133 0 235.5 -37.5t167.5 -107t103 -157.5t53 -199q21 -197 1 -350t-69.5 -266.5
t-125.5 -189.5t-167 -119.5t-195 -56.5t-209.5 0.5t-209.5 51.5zM400 962q0 -117 74.5 -196.5t214.5 -79.5t214.5 79.5t74.5 196.5q0 118 -74 197t-215 79q-140 0 -214.5 -79.5t-74.5 -196.5z" />
    <glyph glyph-name="colon" unicode=":" horiz-adv-x="517" 
d="M110 138q0 62 43.5 105.5t104.5 43.5q62 0 105.5 -43.5t43.5 -105.5q0 -61 -43.5 -104.5t-105.5 -43.5t-105 43t-43 105zM110 883q0 62 43.5 105.5t104.5 43.5q62 0 105.5 -44t43.5 -105t-43.5 -104.5t-105.5 -43.5t-105 43.5t-43 104.5z" />
    <glyph glyph-name="semicolon" unicode=";" horiz-adv-x="587" 
d="M180 883q0 62 43.5 105.5t104.5 43.5q62 0 105.5 -44t43.5 -105t-43.5 -104.5t-105.5 -43.5t-105 43.5t-43 104.5zM10 -258l191 502h269l-229 -502h-231z" />
    <glyph glyph-name="less" unicode="&#x3c;" horiz-adv-x="1169" 
d="M1039 949l-575 -293l575 -293v-270l-929 476v174l929 476v-270z" />
    <glyph glyph-name="equal" unicode="=" horiz-adv-x="1030" 
d="M920 606v-228h-810v228h810zM920 971v-228h-810v228h810z" />
    <glyph glyph-name="greater" unicode="&#x3e;" horiz-adv-x="1169" 
d="M705 656l-575 293v270l929 -476v-174l-929 -476v270z" />
    <glyph glyph-name="question" unicode="?" horiz-adv-x="1179" 
d="M301 1071l-211 117q27 53 67.5 99.5t100.5 87.5t144.5 65t184.5 24q128 0 226 -32t157.5 -88.5t89 -128.5t29.5 -157q0 -339 -399 -399v-257h-270v412q399 6 399 244q0 76 -59.5 128t-172.5 52q-181 0 -286 -167zM406 138q0 62 43.5 105.5t104.5 43.5q62 0 105.5 -43.5
t43.5 -105.5q0 -61 -43.5 -104.5t-105.5 -43.5t-105 43t-43 105z" />
    <glyph glyph-name="at" unicode="@" horiz-adv-x="1720" 
d="M1285 185q-90 0 -149.5 42t-75.5 102q-20 -83 -93 -142.5t-174 -59.5q-44 0 -88.5 11.5t-90 41t-78.5 73.5t-50 115t-9 159q11 90 45.5 160.5t78.5 111t98 66.5t97.5 34.5t83.5 8.5q156 0 294 -69q-17 -208 -19 -312q-2 -77 26.5 -126.5t93.5 -49.5q63 0 99.5 41.5
t36.5 124.5q0 131 -44 238.5t-120 177t-175.5 107.5t-211.5 38q-113 0 -212.5 -38t-175 -107.5t-119.5 -177t-44 -238.5t44 -238.5t119.5 -177t175 -107.5t212.5 -38q154 0 255.5 33.5t189.5 103.5l129 -133q-104 -90 -238.5 -135t-335.5 -45q-203 0 -373 90t-273.5 260
t-103.5 387t103.5 387t273.5 260t373 90t373 -90t273.5 -260t103.5 -387q0 -151 -85 -241.5t-240 -90.5zM663 516q-11 -102 31 -162.5t121 -60.5q144 0 173 249q5 39 8.5 85.5t5.5 73.5l1 27q-135 41 -229.5 -13t-110.5 -199z" />
    <glyph glyph-name="A" unicode="A" horiz-adv-x="1549" 
d="M477 334l-136 -334h-281l604 1434h221l604 -1434h-281l-137 334h-594zM774 1063l-205 -502h410z" />
    <glyph glyph-name="B" unicode="B" horiz-adv-x="1471" 
d="M822 0h-672v1434h672q133 0 231 -29t154 -81t82.5 -118t26.5 -147q0 -65 -21.5 -120t-56.5 -91.5t-73 -60.5t-77 -36q126 -32 199.5 -116.5t73.5 -219.5q0 -89 -32 -163.5t-95.5 -131.5t-168.5 -88.5t-243 -31.5zM420 226h402q148 0 208 50t60 149q0 98 -62.5 149
t-205.5 51h-402v-399zM420 852h402q223 0 223 178t-223 178h-402v-356z" />
    <glyph glyph-name="C" unicode="C" horiz-adv-x="1496" 
d="M384 717q0 -235 124.5 -378t363.5 -143q230 0 405 118l129 -178q-192 -166 -534 -166q-181 0 -326 56t-240 155.5t-145.5 236t-50.5 299.5t50.5 299.5t145.5 236t240 155.5t326 56q342 0 534 -166l-129 -178q-175 118 -405 118q-239 0 -363.5 -143t-124.5 -378z" />
    <glyph glyph-name="D" unicode="D" horiz-adv-x="1532" 
d="M1422 717q0 -154 -43.5 -283t-128.5 -226.5t-222 -152.5t-313 -55h-565v1434h565q176 0 313 -55t222 -153t128.5 -226.5t43.5 -282.5zM420 1208v-982h295q112 0 198 40t136 109.5t75 155.5t25 186t-25 186t-75 155.5t-136 109.5t-198 40h-295z" />
    <glyph glyph-name="E" unicode="E" horiz-adv-x="1307" 
d="M420 844h713v-226h-713v-392h757v-226h-1027v1434h1017v-226h-747v-364z" />
    <glyph glyph-name="F" unicode="F" horiz-adv-x="1297" 
d="M420 844h713v-226h-713v-618h-270v1434h1017v-226h-747v-364z" />
    <glyph glyph-name="G" unicode="G" horiz-adv-x="1587" 
d="M872 -30q-181 0 -326 56t-240 155.5t-145.5 236t-50.5 299.5q0 162 50.5 298.5t145.5 236.5t240 156t326 56q363 0 581 -182l-131 -174q-194 130 -450 130q-239 0 -363.5 -143t-124.5 -378t124.5 -378t363.5 -143q100 0 190.5 19t140.5 52v329h-311v226h565v-683
q-102 -92 -259 -130.5t-326 -38.5z" />
    <glyph glyph-name="H" unicode="H" horiz-adv-x="1523" 
d="M1103 844v590h270v-1434h-270v618h-683v-618h-270v1434h270v-590h683z" />
    <glyph glyph-name="I" unicode="I" horiz-adv-x="590" 
d="M160 0v1434h270v-1434h-270z" />
    <glyph glyph-name="J" unicode="J" horiz-adv-x="1219" 
d="M90 294l248 72q66 -170 234 -170q124 0 175.5 61.5t51.5 196.5v980h270v-980q0 -484 -487 -484q-401 0 -492 324z" />
    <glyph glyph-name="K" unicode="K" horiz-adv-x="1484" 
d="M420 839l636 595h348l-667 -623l687 -811h-328l-542 640l-134 -125v-515h-270v1434h270v-595z" />
    <glyph glyph-name="L" unicode="L" horiz-adv-x="1233" 
d="M420 1434v-1208h703v-226h-973v1434h270z" />
    <glyph glyph-name="M" unicode="M" horiz-adv-x="1884" 
d="M522 1434l420 -1014l420 1014h372v-1434h-270v1014l-418 -1014h-208l-418 1014v-1014h-270v1434h372z" />
    <glyph glyph-name="N" unicode="N" horiz-adv-x="1557" 
d="M150 0v1434h344l643 -1059v1059h270v-1434h-344l-643 1059v-1059h-270z" />
    <glyph glyph-name="O" unicode="O" horiz-adv-x="1744" 
d="M872 -30q-181 0 -326 56t-240 155.5t-145.5 236t-50.5 299.5q0 162 50.5 298.5t145.5 236.5t240 156t326 56t326 -56t240 -156t145.5 -236.5t50.5 -298.5q0 -163 -50.5 -299.5t-145.5 -236t-240 -155.5t-326 -56zM872 196q239 0 363.5 143t124.5 378t-124.5 378
t-363.5 143t-363.5 -143t-124.5 -378t124.5 -378t363.5 -143z" />
    <glyph glyph-name="P" unicode="P" horiz-adv-x="1449" 
d="M786 1208h-366v-508h366q261 0 261 254t-261 254zM420 0h-270v1434h636q253 0 393 -124t140 -356t-140 -356t-393 -124h-366v-474z" />
    <glyph glyph-name="Q" unicode="Q" horiz-adv-x="1744" 
d="M872 -30q-181 0 -326 56t-240 155.5t-145.5 236t-50.5 299.5q0 162 50.5 298.5t145.5 236.5t240 156t326 56t326 -56t240 -156t145.5 -236.5t50.5 -298.5q0 -188 -66 -340.5t-193 -251.5l196 -215h-296l-94 109q-144 -49 -309 -49zM872 196q80 0 144 16l-190 222h267
l113 -124q154 139 154 407q0 235 -124.5 378t-363.5 143t-363.5 -143t-124.5 -378t124.5 -378t363.5 -143z" />
    <glyph glyph-name="R" unicode="R" horiz-adv-x="1407" 
d="M420 0h-270v1434h607q270 0 404 -119t134 -333q0 -326 -330 -416l332 -566h-303l-310 530h-264v-530zM757 1208h-337v-452h337q141 0 203.5 53.5t62.5 172.5t-62.5 172.5t-203.5 53.5z" />
    <glyph glyph-name="S" unicode="S" horiz-adv-x="1342" 
d="M1181 1331l-132 -189q-162 96 -382 96q-263 0 -263 -167q0 -85 71.5 -132.5t233.5 -82.5q277 -58 410 -169t133 -295q0 -110 -41 -192t-116 -132t-173.5 -74t-220.5 -24q-203 0 -348 40t-263 128l132 189q209 -131 479 -131q144 0 211.5 45.5t67.5 150.5q0 83 -75 138.5
t-245 90.5q-275 57 -401.5 170.5t-126.5 279.5q0 82 31.5 151.5t94.5 124.5t168 86t241 31q169 0 289 -31t225 -102z" />
    <glyph glyph-name="T" unicode="T" horiz-adv-x="1428" 
d="M90 1434h1248v-226h-489v-1208h-270v1208h-489v226z" />
    <glyph glyph-name="U" unicode="U" horiz-adv-x="1555" 
d="M777 196q193 0 275.5 111.5t82.5 323.5v803h270v-803q0 -317 -154.5 -489t-473.5 -172q-318 0 -472.5 172t-154.5 489v803h270v-803q0 -212 82 -323.5t275 -111.5z" />
    <glyph glyph-name="V" unicode="V" horiz-adv-x="1517" 
d="M345 1434l413 -1063l414 1063h285l-584 -1434h-229l-584 1434h285z" />
    <glyph glyph-name="W" unicode="W" horiz-adv-x="2086" 
d="M630 452l266 982h294l266 -982l279 982h291l-441 -1434h-260l-282 1062l-282 -1062h-260l-441 1434h291z" />
    <glyph glyph-name="X" unicode="X" horiz-adv-x="1545" 
d="M939 748l546 -748h-314l-399 551l-398 -551h-314l545 748l-499 686h314l352 -488l353 488h314z" />
    <glyph glyph-name="Y" unicode="Y" horiz-adv-x="1484" 
d="M352 1434l390 -606l390 606h292l-547 -837v-597h-270v598l-547 836h292z" />
    <glyph glyph-name="Z" unicode="Z" horiz-adv-x="1417" 
d="M510 226h777v-226h-1157v134l777 1074h-735v226h1115v-134z" />
    <glyph glyph-name="bracketleft" unicode="[" horiz-adv-x="813" 
d="M430 1208v-1338h263v-227h-533v1791h533v-226h-263z" />
    <glyph glyph-name="backslash" unicode="\" horiz-adv-x="1140" 
d="M396 1434l624 -1434h-276l-624 1434h276z" />
    <glyph glyph-name="bracketright" unicode="]" horiz-adv-x="813" 
d="M383 -130v1338h-263v226h533v-1791h-533v227h263z" />
    <glyph glyph-name="asciicircum" unicode="^" horiz-adv-x="1142" 
d="M652 1434l380 -624h-285l-176 290l-176 -290h-285l380 624h162z" />
    <glyph glyph-name="underscore" unicode="_" horiz-adv-x="1205" 
d="M110 -318v209h985v-209h-985z" />
    <glyph glyph-name="grave" unicode="`" horiz-adv-x="714" 
d="M373 1434l251 -310h-220l-314 310h283z" />
    <glyph glyph-name="a" unicode="a" horiz-adv-x="1197" 
d="M613 833q-82 0 -173.5 -19.5t-165.5 -52.5l-95 179q178 102 434 102q135 0 223 -25.5t139 -84.5t71.5 -142t20.5 -210v-580h-251l-1 161q-77 -181 -331 -181q-177 0 -285.5 83.5t-108.5 253.5q0 76 28.5 137t79.5 101t120 68.5t149.5 39t169.5 13t179 -9.5
q0 96 -42.5 131.5t-160.5 35.5zM342 327q0 -138 182 -138q130 0 212 63.5t80 147.5v104q-43 0 -101.5 3t-124 -6.5t-120.5 -25.5t-91.5 -54.5t-36.5 -93.5z" />
    <glyph glyph-name="b" unicode="b" horiz-adv-x="1322" 
d="M130 0v1516h251v-665q45 91 145.5 141t203.5 50q154 0 269.5 -70t174 -189.5t58.5 -271.5t-58.5 -271.5t-174 -189.5t-269.5 -70q-103 0 -203.5 50t-145.5 141v-171h-251zM678 190q149 0 223 92t74 229t-74 229t-223 92t-223 -92t-74 -229t74 -229t223 -92z" />
    <glyph glyph-name="c" unicode="c" horiz-adv-x="1152" 
d="M347 511q0 -65 18.5 -121.5t55.5 -102t98.5 -72t140.5 -26.5q168 0 294 99l128 -161q-148 -147 -422 -147q-257 0 -413.5 150.5t-156.5 380.5t156.5 380.5t413.5 150.5q274 0 422 -147l-130 -159q-123 97 -292 97q-79 0 -140.5 -26.5t-98.5 -72t-55.5 -102t-18.5 -121.5z
" />
    <glyph glyph-name="d" unicode="d" horiz-adv-x="1322" 
d="M1192 1516v-1516h-251v171q-45 -91 -145.5 -141t-203.5 -50q-154 0 -269.5 70t-174 189.5t-58.5 271.5t58.5 271.5t174 189.5t269.5 70q103 0 203.5 -50t145.5 -141v665h251zM644 190q149 0 223 92t74 229t-74 229t-223 92t-223 -92t-74 -229t74 -229t223 -92z" />
    <glyph glyph-name="e" unicode="e" horiz-adv-x="1262" 
d="M630 189q192 1 318 107l152 -151q-166 -165 -470 -165q-256 0 -398 148t-142 383q0 153 60.5 271.5t184.5 189t295 70.5q267 0 411 -163.5t129 -465.5h-809q0 -24 8 -51.5t28 -58.5t49.5 -56t77.5 -41.5t106 -16.5zM361 610h538q0 31 -14 66.5t-42.5 72t-84 60.5
t-128.5 24t-128.5 -24t-84 -60.5t-42.5 -72t-14 -66.5z" />
    <glyph glyph-name="f" unicode="f" horiz-adv-x="920" 
d="M663 1327q-21 0 -39 -3t-31.5 -11.5t-24 -16t-18.5 -24.5t-13.5 -28t-8.5 -35.5t-5 -39t-3 -45.5t-1.5 -48t-0.5 -54h292v-209h-292v-813h-251v813h-197v209h197q1 105 11.5 182.5t36 142.5t68 105t107 62t153.5 22q124 0 237 -35l-72 -194q-73 20 -145 20z" />
    <glyph glyph-name="g" unicode="g" horiz-adv-x="1322" 
d="M941 1022h251v-1022q0 -532 -566 -532q-144 0 -267 35.5t-209 97.5l129 168q151 -91 347 -91q154 0 234.5 71.5t80.5 250.5v171q-45 -91 -145.5 -141t-203.5 -50q-154 0 -269.5 70t-174 189.5t-58.5 271.5t58.5 271.5t174 189.5t269.5 70q103 0 203.5 -50t145.5 -141v171
zM644 190q149 0 223 92t74 229t-74 229t-223 92t-223 -92t-74 -229t74 -229t223 -92z" />
    <glyph glyph-name="h" unicode="h" 
d="M381 547v-547h-251v1516h251v-650q21 60 70.5 101.5t104.5 58t113 16.5q215 0 336.5 -127.5t121.5 -367.5v-547h-251v547q0 135 -63 210.5t-184 75.5q-122 0 -185 -75.5t-63 -210.5z" />
    <glyph glyph-name="i" unicode="i" horiz-adv-x="554" 
d="M152 0v1022h251v-1022h-251zM130 1327q0 61 43 104t104 43t104 -43t43 -104t-43 -104t-104 -43t-104 43t-43 104z" />
    <glyph glyph-name="j" unicode="j" horiz-adv-x="579" 
d="M-170 -485l69 191q73 -29 141 -29q28 0 49.5 9.5t36 23.5t24.5 40t15 49t8 61t3.5 66t0.5 74v1022h251v-1022q0 -112 -9 -191t-32.5 -147t-64.5 -108.5t-106 -63t-156 -22.5q-131 0 -230 47zM155 1327q0 61 43 104t104 43t104 -43t43 -104t-43 -104t-104 -43t-104 43
t-43 104z" />
    <glyph glyph-name="k" unicode="k" horiz-adv-x="1190" 
d="M381 625l437 397h332l-477 -433l477 -589h-306l-347 429l-116 -104v-325h-251v1516h251v-891z" />
    <glyph glyph-name="l" unicode="l" horiz-adv-x="566" 
d="M130 360v1156h251v-1152q0 -41 1 -61t6.5 -46t19 -37t35.5 -11h33v-209h-129q-40 0 -71.5 8t-54 26t-38.5 36.5t-26 50t-15.5 54t-8 62t-3 61t-0.5 62.5z" />
    <glyph glyph-name="m" unicode="m" horiz-adv-x="1809" 
d="M130 0v1022h251v-94q26 47 94.5 80.5t142.5 33.5q117 0 202.5 -37.5t132.5 -103.5q44 59 129.5 100t184.5 41q193 0 302.5 -109.5t109.5 -336.5v-596h-251v596q0 110 -49 173.5t-150 63.5t-150 -63.5t-49 -173.5v-596h-251v596q0 110 -49 173.5t-150 63.5t-150 -63.5
t-49 -173.5v-596h-251z" />
    <glyph glyph-name="n" unicode="n" 
d="M381 547v-547h-251v1022h251v-156q21 60 70.5 101.5t104.5 58t113 16.5q215 0 336.5 -127.5t121.5 -367.5v-547h-251v547q0 135 -63 210.5t-184 75.5q-122 0 -185 -75.5t-63 -210.5z" />
    <glyph glyph-name="o" unicode="o" horiz-adv-x="1320" 
d="M1230 511q0 -231 -156.5 -381t-413.5 -150t-413.5 150.5t-156.5 380.5t156.5 380.5t413.5 150.5t413.5 -150t156.5 -381zM973 511q0 65 -18.5 121.5t-55.5 102t-98.5 72t-140.5 26.5t-140.5 -26.5t-98.5 -72t-55.5 -102t-18.5 -121.5t18.5 -121.5t55.5 -102t98.5 -72
t140.5 -26.5t140.5 26.5t98.5 72t55.5 102t18.5 121.5z" />
    <glyph glyph-name="p" unicode="p" horiz-adv-x="1322" 
d="M130 -532v1554h251v-171q45 91 145.5 141t203.5 50q154 0 269.5 -70t174 -189.5t58.5 -271.5t-58.5 -271.5t-174 -189.5t-269.5 -70q-103 0 -203.5 50t-145.5 141v-703h-251zM678 190q149 0 223 92t74 229t-74 229t-223 92t-223 -92t-74 -229t74 -229t223 -92z" />
    <glyph glyph-name="q" unicode="q" horiz-adv-x="1322" 
d="M1192 1022v-1554h-251v703q-45 -91 -145.5 -141t-203.5 -50q-154 0 -269.5 70t-174 189.5t-58.5 271.5t58.5 271.5t174 189.5t269.5 70q103 0 203.5 -50t145.5 -141v171h251zM644 190q149 0 223 92t74 229t-74 229t-223 92t-223 -92t-74 -229t74 -229t223 -92z" />
    <glyph glyph-name="r" unicode="r" horiz-adv-x="924" 
d="M884 1001l-116 -201q-54 33 -139 33q-248 0 -248 -286v-547h-251v1022h251v-156q21 60 70.5 101.5t104.5 58t113 16.5q124 0 215 -41z" />
    <glyph glyph-name="s" unicode="s" horiz-adv-x="1067" 
d="M948 941l-106 -181q-140 73 -312 73q-170 0 -170 -93q0 -46 50 -71.5t153 -45.5q89 -17 151 -34t119 -43t91 -60t53.5 -83t19.5 -113q0 -158 -117 -234t-328 -76q-140 0 -268.5 33t-213.5 87l106 181q81 -43 181 -67.5t195 -24.5q105 0 149 27.5t44 83.5q0 25 -13.5 42.5
t-46 29.5t-63.5 19.5t-87 17.5q-11 2 -17 3q-217 40 -313 117t-96 211q0 139 101 220.5t320 81.5q257 0 418 -101z" />
    <glyph glyph-name="t" unicode="t" horiz-adv-x="928" 
d="M70 813v209h197v299h251v-299h292v-209h-292v-362q0 -53 2.5 -88t11 -71t24 -56.5t43 -33.5t66.5 -13q75 0 137 29l56 -193q-102 -45 -233 -45q-106 0 -177 30t-110.5 93.5t-55 145.5t-15.5 202v362h-197z" />
    <glyph glyph-name="u" unicode="u" 
d="M876 475v547h251v-1022h-251v156q-21 -60 -70.5 -101.5t-104.5 -58t-113 -16.5q-215 0 -336.5 127.5t-121.5 367.5v547h251v-547q0 -135 63 -210.5t184 -75.5q122 0 185 75.5t63 210.5z" />
    <glyph glyph-name="v" unicode="v" horiz-adv-x="1193" 
d="M469 0l-429 1022h271l285 -737l286 737h271l-430 -1022h-254z" />
    <glyph glyph-name="w" unicode="w" horiz-adv-x="1632" 
d="M997 0l-181 671l-181 -671h-266l-329 1022h265l193 -701l191 701h254l191 -701l193 701h265l-329 -1022h-266z" />
    <glyph glyph-name="x" unicode="x" horiz-adv-x="1220" 
d="M771 531l409 -531h-308l-262 349l-262 -349h-308l409 531l-379 491h308l232 -309l232 309h308z" />
    <glyph glyph-name="y" unicode="y" horiz-adv-x="1197" 
d="M477 0l-437 1022h267l291 -727l292 727h267l-565 -1317q-14 -29 -20 -41.5t-19.5 -38t-23 -38t-25.5 -32.5t-31 -30t-36.5 -23t-44.5 -19t-52.5 -10.5t-63.5 -4.5q-56 0 -114.5 14t-97.5 35l85 188q60 -28 110 -28q14 0 25.5 1.5t22 6.5t18 8.5t15.5 14t12.5 14.5t12 19
l10 20t11 24t11.5 24z" />
    <glyph glyph-name="z" unicode="z" horiz-adv-x="1142" 
d="M110 0v125l545 688h-513v209h890v-125l-545 -688h545v-209h-922z" />
    <glyph glyph-name="braceleft" unicode="{" horiz-adv-x="892" 
d="M110 442v226q44 4 78 15.5t67.5 37t52 74t18.5 118.5q0 129 22 228.5t61.5 165.5t97.5 108.5t125.5 60.5t149.5 18v-249q-42 0 -74.5 -16t-58.5 -53.5t-39.5 -105t-13.5 -163.5q0 -269 -164 -352q164 -83 164 -352q0 -96 13.5 -163.5t39.5 -105t58.5 -53.5t74.5 -16v-249
q-82 0 -149.5 18t-125.5 60.5t-97.5 108.5t-61.5 165.5t-22 228.5q0 70 -18.5 118.5t-52 74t-67.5 37t-78 15.5z" />
    <glyph glyph-name="bar" unicode="|" horiz-adv-x="529" 
d="M130 -532v1966h269v-1966h-269z" />
    <glyph glyph-name="braceright" unicode="}" horiz-adv-x="892" 
d="M782 668v-226q-44 -4 -78 -15.5t-67.5 -37t-52 -74t-18.5 -118.5q0 -129 -22 -228.5t-61.5 -165.5t-97.5 -108.5t-125.5 -60.5t-149.5 -18v249q42 0 74.5 16t58.5 53.5t39.5 105t13.5 163.5q0 269 164 352q-164 83 -164 352q0 96 -13.5 163.5t-39.5 105t-58.5 53.5
t-74.5 16v249q82 0 149.5 -18t125.5 -60.5t97.5 -108.5t61.5 -165.5t22 -228.5q0 -70 18.5 -118.5t52 -74t67.5 -37t78 -15.5z" />
    <glyph glyph-name="asciitilde" unicode="~" horiz-adv-x="1220" 
d="M677 822q30 -36 50.5 -51t50.5 -15q39 0 56 35.5t17 75.5h259q0 -16 -2.5 -38.5t-11.5 -58t-23 -69.5t-39.5 -70t-59 -63t-84.5 -44t-112 -17q-150 0 -235 108q-30 36 -50.5 51t-50.5 15q-39 0 -56 -35.5t-17 -75.5h-259q0 16 2.5 38.5t11.5 58t23 69.5t39.5 70t59 63
t84.5 44t112 17q150 0 235 -108z" />
    <glyph glyph-name="uni00A0" unicode="&#xa0;" horiz-adv-x="573" 
 />
    <glyph glyph-name="exclamdown" unicode="&#xa1;" horiz-adv-x="557" 
d="M143 -532l20 1032h230l20 -1032h-270zM130 764q0 62 43 105t105 43t105.5 -43.5t43.5 -104.5q0 -62 -43.5 -105.5t-105.5 -43.5q-61 0 -104.5 43.5t-43.5 105.5z" />
    <glyph glyph-name="cent" unicode="&#xa2;" horiz-adv-x="1152" 
d="M347 511q0 -65 18.5 -121.5t55.5 -102t98.5 -72t140.5 -26.5q168 0 294 99l128 -161q-121 -121 -324 -142v-228h-220v233q-206 35 -327 177.5t-121 343.5t121 343.5t327 177.5v233h220v-228q202 -21 324 -142l-130 -159q-123 97 -292 97q-79 0 -140.5 -26.5t-98.5 -72
t-55.5 -102t-18.5 -121.5z" />
    <glyph glyph-name="sterling" unicode="&#xa3;" horiz-adv-x="1441" 
d="M130 591v225h147q-13 73 -13 150q0 102 31.5 189.5t95 157.5t172 110.5t250.5 40.5q102 0 188.5 -25t146.5 -68.5t100 -94t63 -108.5l-207 -102q-53 87 -122 129.5t-169 42.5q-138 0 -208.5 -73t-70.5 -199q0 -68 15 -150h464v-225h-416q17 -87 17 -151
q0 -52 -14.5 -105.5t-29.5 -80.5l-14 -28h718v-226h-1039v173q4 5 11.5 14.5t26.5 39t33 60t26 74.5t12 85q0 63 -16 145h-198z" />
    <glyph glyph-name="currency" unicode="&#xa4;" horiz-adv-x="1161" 
d="M766 1039l143 143l162 -163l-143 -142q46 -87 46 -186t-46 -185l143 -143l-162 -162l-143 142q-87 -46 -186 -46t-185 46l-143 -142l-162 162l143 143q-47 86 -47 185t47 186l-143 142l162 163l143 -143q86 47 185 47t186 -47zM385 691q0 -81 57 -138t138 -57t138 57
t57 138t-57 138t-138 57t-138 -57t-57 -138z" />
    <glyph glyph-name="yen" unicode="&#xa5;" horiz-adv-x="1444" 
d="M304 143v186h283v83h-283v186h283l-547 836h292l390 -606l390 606h292l-547 -836h283v-186h-283v-83h283v-186h-283v-143h-270v143h-283z" />
    <glyph glyph-name="brokenbar" unicode="&#xa6;" horiz-adv-x="530" 
d="M132 619v815h255v-815h-255zM130 -532v792h270v-792h-270z" />
    <glyph glyph-name="section" unicode="&#xa7;" horiz-adv-x="1342" 
d="M132 1071q0 82 31.5 151.5t94.5 124.5t168 86t241 31q169 0 289 -31t225 -102l-132 -189q-162 96 -382 96q-263 0 -263 -167q0 -85 71.5 -132.5t233.5 -82.5q277 -58 410 -169t133 -295q0 -190 -124 -298q82 -98 82 -233q0 -82 -31.5 -151.5t-94.5 -124.5t-168 -86
t-241 -31q-169 0 -289 31t-225 102l132 189q162 -96 382 -96q263 0 263 167q0 85 -71.5 132.5t-233.5 82.5q-277 58 -410 169t-133 295q0 190 123 297q-81 98 -81 234zM980 392q0 83 -75 138.5t-245 90.5q-125 25 -231 69q-67 -46 -67 -150q0 -83 75 -138.5t245 -90.5
q134 -29 231 -69q67 47 67 150z" />
    <glyph glyph-name="dieresis" unicode="&#xa8;" horiz-adv-x="958" 
d="M110 1327q0 61 43 104t104 43t104 -43t43 -104t-43 -104t-104 -43t-104 43t-43 104zM554 1327q0 61 43 104t104 43t104 -43t43 -104t-43 -104t-104 -43t-104 43t-43 104z" />
    <glyph glyph-name="copyright" unicode="&#xa9;" horiz-adv-x="1714" 
d="M668 717q0 -96 55.5 -154t140.5 -58q65 0 108 16t89 55l95 -140q-120 -118 -292 -118q-176 0 -290.5 112t-114.5 287t114.5 287t290.5 112q173 0 294 -119l-95 -140q-46 39 -90 55.5t-109 16.5q-85 0 -140.5 -58t-55.5 -154zM110 717q0 152 59 290t159.5 238.5
t238.5 159.5t290 59t290 -59t238.5 -159.5t159.5 -238.5t59 -290t-59 -290t-159.5 -238.5t-238.5 -159.5t-290 -59t-290 59t-238.5 159.5t-159.5 238.5t-59 290zM293 717q0 -115 44.5 -219t120.5 -180t180 -120.5t219 -44.5t219 44.5t180 120.5t120.5 180t44.5 219
t-44.5 219t-120.5 180t-180 120.5t-219 44.5t-219 -44.5t-180 -120.5t-120.5 -180t-44.5 -219z" />
    <glyph glyph-name="ordfeminine" unicode="&#xaa;" horiz-adv-x="787" 
d="M392 1290q-45 0 -95 -9.5t-77 -18.5l-28 -10l-60 138q12 6 35 15t91 24t134 15q175 0 255 -69.5t80 -236.5v-424h-166v102q-47 -112 -205 -112q-131 0 -213.5 61.5t-82.5 177.5q0 75 40.5 127.5t112.5 78t157.5 33.5t188.5 1q0 63 -33.5 85t-133.5 22zM226 943
q0 -38 33 -61.5t97 -23.5q205 0 205 181v18q-75 4 -136.5 0.5t-105.5 -15.5t-68.5 -36.5t-24.5 -62.5z" />
    <glyph glyph-name="guillemotleft" unicode="&#xab;" horiz-adv-x="1564" 
d="M792 959l-395 -302l395 -302v-303l-682 532v146l682 532v-303zM1434 959l-395 -302l395 -302v-303l-682 532v146l682 532v-303z" />
    <glyph glyph-name="logicalnot" unicode="&#xac;" horiz-adv-x="1220" 
d="M110 618v227h1000v-602h-270v375h-730z" />
    <glyph glyph-name="uni00AD" unicode="&#xad;" horiz-adv-x="1022" 
d="M110 524v210h802v-210h-802z" />
    <glyph glyph-name="registered" unicode="&#xae;" horiz-adv-x="1078" 
d="M483 808h-98v424h188q63 0 102.5 -36t39.5 -100q0 -47 -22 -78t-56 -44l86 -166h-104l-78 151h-58v-151zM573 1135h-90v-78h90q44 0 44 39t-44 39zM200 1015q0 -140 99.5 -239.5t239.5 -99.5t239.5 99.5t99.5 239.5t-99.5 239.5t-239.5 99.5t-239.5 -99.5t-99.5 -239.5z
M90 1015q0 186 131.5 317.5t317.5 131.5t317.5 -131.5t131.5 -317.5t-131.5 -317.5t-317.5 -131.5t-317.5 131.5t-131.5 317.5z" />
    <glyph glyph-name="macron" unicode="&#xaf;" horiz-adv-x="974" 
d="M90 1245v189h794v-189h-794z" />
    <glyph glyph-name="degree" unicode="&#xb0;" horiz-adv-x="616" 
d="M40 1196q0 111 78.5 189.5t189.5 78.5t189.5 -78.5t78.5 -189.5t-78.5 -189.5t-189.5 -78.5t-189.5 78.5t-78.5 189.5zM191 1196q0 -49 34 -83t83 -34t83 34t34 83t-34 83t-83 34t-83 -34t-34 -83z" />
    <glyph glyph-name="plusminus" unicode="&#xb1;" horiz-adv-x="1170" 
d="M1060 962v-228h-358v-361h-235v361h-357v228h357v361h235v-361h358zM1060 228v-228h-950v228h950z" />
    <glyph glyph-name="twosuperior" unicode="&#xb2;" horiz-adv-x="659" 
d="M206 1182l-146 55q2 8 6 22t24 50t47 63t78.5 49.5t114.5 22.5q123 0 191 -61t68 -164q0 -61 -36.5 -115.5t-97.5 -113.5l-129 -122h273v-154h-530v116l272 258l14.5 14.5l15 15t13 14t13.5 16.5t10 15.5t9 18t4.5 17.5t2.5 20q0 71 -93 71q-26 0 -48 -11t-35.5 -27
t-23 -32t-13.5 -27z" />
    <glyph glyph-name="threesuperior" unicode="&#xb3;" horiz-adv-x="669" 
d="M60 836l140 73q5 -6 16 -14.5t47.5 -22.5t78.5 -14q51 0 76 16.5t25 55.5q0 23 -14.5 37.5t-48.5 19.5t-56 6t-71 1h-24v154q34 0 50.5 0.5t44.5 2.5t42.5 7t30 13t22.5 21.5t7 32.5q0 28 -20 46.5t-64 18.5q-36 0 -66.5 -13t-43.5 -25l-12 -13l-140 73q3 5 9.5 14
t29.5 32t50.5 40t74 31.5t98.5 14.5q114 0 182 -53t68 -144q0 -118 -110 -165q57 -15 92 -54.5t35 -107.5q0 -101 -70 -158.5t-197 -57.5q-61 0 -112.5 13.5t-81 33t-51 39t-29.5 32.5z" />
    <glyph glyph-name="acute" unicode="&#xb4;" horiz-adv-x="714" 
d="M90 1124l251 310h283l-314 -310h-220z" />
    <glyph glyph-name="mu" unicode="&#xb5;" horiz-adv-x="1298" 
d="M649 -20q-78 0 -158 44.5t-110 131.5v-688h-251v1554h251v-527q0 -142 69.5 -224t198.5 -82t198.5 82t69.5 224v527h251v-1022h-251v156q-30 -87 -110 -131.5t-158 -44.5z" />
    <glyph glyph-name="paragraph" unicode="&#xb6;" horiz-adv-x="1528" 
d="M1418 1434v-226h-171v-1208h-270v1208h-99v-1208h-270v537h-49q-115 0 -203.5 37t-140.5 100.5t-78.5 142t-26.5 169.5t26 169.5t78.5 142t141 100t203.5 36.5h859zM608 1208h-49q-88 0 -133.5 -62t-45.5 -160t45.5 -160t133.5 -62h49v444z" />
    <glyph glyph-name="periodcentered" unicode="&#xb7;" horiz-adv-x="517" 
d="M110 726q0 62 43.5 105.5t104.5 43.5q62 0 105.5 -43.5t43.5 -105.5q0 -61 -43.5 -104.5t-105.5 -43.5t-105 43t-43 105z" />
    <glyph glyph-name="cedilla" unicode="&#xb8;" horiz-adv-x="647" 
d="M90 -459l46 117q33 -12 70 -19.5t83 -10.5t77.5 16t35.5 60q2 21 -5.5 35.5t-25.5 22t-39.5 11t-52.5 1.5t-59.5 -5t-65.5 -9l101 313h153l-62 -185q60 -1 107 -17.5t78 -61t24 -112.5q-8 -78 -55 -126t-116 -61.5t-145.5 -5t-148.5 36.5z" />
    <glyph glyph-name="onesuperior" unicode="&#xb9;" horiz-adv-x="438" 
d="M141 1116l-111 118l210 200h138v-720h-166v470z" />
    <glyph glyph-name="ordmasculine" unicode="&#xba;" horiz-adv-x="840" 
d="M420 704q-156 0 -258 99.5t-102 270.5t102 270.5t258 99.5t258 -99.5t102 -270.5t-102 -270.5t-258 -99.5zM420 858q94 0 144 57t50 159t-50 159t-144 57t-144 -57t-50 -159t50 -159t144 -57z" />
    <glyph glyph-name="guillemotright" unicode="&#xbb;" horiz-adv-x="1564" 
d="M1167 657l-395 302v303l682 -532v-146l-682 -532v303zM525 657l-395 302v303l682 -532v-146l-682 -532v303z" />
    <glyph glyph-name="onequarter" unicode="&#xbc;" horiz-adv-x="1396" 
d="M221 1116l-111 118l210 200h138v-720h-166v470zM174 0l823 1434h199l-823 -1434h-199zM1184 0h-166v142h-342v122l359 456h149v-424h102v-154h-102v-142zM876 296h142v180z" />
    <glyph glyph-name="onehalf" unicode="&#xbd;" horiz-adv-x="1472" 
d="M174 0l823 1434h199l-823 -1434h-199zM221 1116l-111 118l210 200h138v-720h-166v470zM969 468l-146 55q2 8 6 22t24 50t47 63t78.5 49.5t114.5 22.5q123 0 191 -61t68 -164q0 -61 -36.5 -115.5t-97.5 -113.5l-129 -122h273v-154h-530v116l272 258l14.5 14.5l15 15t13 14
t13.5 16.5t10 15.5t9 18t4.5 17.5t2.5 20q0 71 -93 71q-26 0 -48 -11t-35.5 -27t-23 -32t-13.5 -27z" />
    <glyph glyph-name="threequarters" unicode="&#xbe;" horiz-adv-x="1512" 
d="M290 0l823 1434h199l-823 -1434h-199zM110 836l140 73q5 -6 16 -14.5t47.5 -22.5t78.5 -14q51 0 76 16.5t25 55.5q0 23 -14.5 37.5t-48.5 19.5t-56 6t-71 1h-24v154q34 0 50.5 0.5t44.5 2.5t42.5 7t30 13t22.5 21.5t7 32.5q0 28 -20 46.5t-64 18.5q-36 0 -66.5 -13
t-43.5 -25l-12 -13l-140 73q3 5 9.5 14t29.5 32t50.5 40t74 31.5t98.5 14.5q114 0 182 -53t68 -144q0 -118 -110 -165q57 -15 92 -54.5t35 -107.5q0 -101 -70 -158.5t-197 -57.5q-61 0 -112.5 13.5t-81 33t-51 39t-29.5 32.5zM1300 0h-166v142h-342v122l359 456h149v-424
h102v-154h-102v-142zM992 296h142v180z" />
    <glyph glyph-name="questiondown" unicode="&#xbf;" horiz-adv-x="1019" 
d="M798 -159l211 -117q-27 -53 -67.5 -99.5t-100.5 -87.5t-144.5 -65t-184.5 -24q-128 0 -226 32t-157.5 88.5t-89 128.5t-29.5 157q0 339 399 399v257h270v-412q-399 -6 -399 -244q0 -76 59.5 -128t172.5 -52q181 0 286 167zM693 774q0 -62 -43.5 -105.5t-104.5 -43.5
t-105 43.5t-44 105.5q0 61 43.5 104.5t105.5 43.5q61 0 104.5 -43t43.5 -105z" />
    <glyph glyph-name="Agrave" unicode="&#xc0;" horiz-adv-x="1549" 
d="M477 334l-136 -334h-281l604 1434h221l604 -1434h-281l-137 334h-594zM774 1063l-205 -502h410zM633 1846l251 -310h-220l-314 310h283z" />
    <glyph glyph-name="Aacute" unicode="&#xc1;" horiz-adv-x="1549" 
d="M477 334l-136 -334h-281l604 1434h221l604 -1434h-281l-137 334h-594zM774 1063l-205 -502h410zM677 1536l251 310h283l-314 -310h-220z" />
    <glyph glyph-name="Acircumflex" unicode="&#xc2;" horiz-adv-x="1549" 
d="M477 334l-136 -334h-281l604 1434h221l604 -1434h-281l-137 334h-594zM774 1063l-205 -502h410zM847 1827l281 -291h-208l-146 129l-146 -129h-208l281 291h146z" />
    <glyph glyph-name="Atilde" unicode="&#xc3;" horiz-adv-x="1549" 
d="M477 334l-136 -334h-281l604 1434h221l604 -1434h-281l-137 334h-594zM774 1063l-205 -502h410zM736 1600q-50 36 -73 36q-25 0 -39 -19.5t-15 -38.5l-1 -20h-185v14t4 35t11.5 49.5t25 52t41 49.5t63.5 35t90 14q75 0 155 -64q50 -36 73 -36q25 0 39 19.5t15 39.5l1 19
h185v-14t-4 -35t-11.5 -49.5t-25 -52t-41 -49.5t-63.5 -35t-90 -14q-75 0 -155 64z" />
    <glyph glyph-name="Adieresis" unicode="&#xc4;" horiz-adv-x="1549" 
d="M477 334l-136 -334h-281l604 1434h221l604 -1434h-281l-137 334h-594zM774 1063l-205 -502h410zM405 1683q0 61 43 104t104 43t104 -43t43 -104t-43 -104t-104 -43t-104 43t-43 104zM849 1683q0 61 43 104t104 43t104 -43t43 -104t-43 -104t-104 -43t-104 43t-43 104z
" />
    <glyph glyph-name="Aring" unicode="&#xc5;" horiz-adv-x="1549" 
d="M477 334l-136 -334h-281l604 1434h221l604 -1434h-281l-137 334h-594zM774 1063l-205 -502h410zM547 1763q0 94 66.5 160.5t160.5 66.5t160.5 -66.5t66.5 -160.5t-66.5 -160.5t-160.5 -66.5t-160.5 66.5t-66.5 160.5zM696 1763q0 -32 23 -55t55 -23t55 23t23 55t-23 55
t-55 23t-55 -23t-23 -55z" />
    <glyph glyph-name="AE" unicode="&#xc6;" horiz-adv-x="2167" 
d="M1280 844h713v-226h-713v-392h757v-226h-1027v324h-426l-214 -324h-310l944 1434h1023v-226h-747v-364zM1010 971l-277 -420h277v420z" />
    <glyph glyph-name="Ccedilla" unicode="&#xc7;" horiz-adv-x="1496" 
d="M613 -459l46 117q33 -12 70 -19.5t83 -10.5t77.5 16t35.5 60q2 21 -5.5 35.5t-25.5 22t-39.5 11t-52.5 1.5t-59.5 -5t-65.5 -9l70 218q-203 24 -348 125.5t-217 258.5t-72 355q0 163 50.5 299.5t145.5 236t240 155.5t326 56q342 0 534 -166l-129 -178q-175 118 -405 118
q-239 0 -363.5 -143t-124.5 -378t124.5 -378t363.5 -143q230 0 405 118l129 -178q-185 -160 -510 -166l-27 -82q60 -1 107 -17.5t78 -61t24 -112.5q-8 -78 -55 -126t-116 -61.5t-145.5 -5t-148.5 36.5z" />
    <glyph glyph-name="Egrave" unicode="&#xc8;" horiz-adv-x="1307" 
d="M420 844h713v-226h-713v-392h757v-226h-1027v1434h1017v-226h-747v-364zM544 1846l251 -310h-220l-314 310h283z" />
    <glyph glyph-name="Eacute" unicode="&#xc9;" horiz-adv-x="1307" 
d="M420 844h713v-226h-713v-392h757v-226h-1027v1434h1017v-226h-747v-364zM539 1536l251 310h283l-314 -310h-220z" />
    <glyph glyph-name="Ecircumflex" unicode="&#xca;" horiz-adv-x="1307" 
d="M420 844h713v-226h-713v-392h757v-226h-1027v1434h1017v-226h-747v-364zM736 1827l281 -291h-208l-146 129l-146 -129h-208l281 291h146z" />
    <glyph glyph-name="Edieresis" unicode="&#xcb;" horiz-adv-x="1307" 
d="M420 844h713v-226h-713v-392h757v-226h-1027v1434h1017v-226h-747v-364zM294 1683q0 61 43 104t104 43t104 -43t43 -104t-43 -104t-104 -43t-104 43t-43 104zM738 1683q0 61 43 104t104 43t104 -43t43 -104t-43 -104t-104 -43t-104 43t-43 104z" />
    <glyph glyph-name="Igrave" unicode="&#xcc;" horiz-adv-x="596" 
d="M166 0v1434h270v-1434h-270zM163 1846l251 -310h-220l-314 310h283z" />
    <glyph glyph-name="Iacute" unicode="&#xcd;" horiz-adv-x="603" 
d="M160 0v1434h270v-1434h-270zM189 1536l251 310h283l-314 -310h-220z" />
    <glyph glyph-name="Icircumflex" unicode="&#xce;" horiz-adv-x="628" 
d="M179 0v1434h270v-1434h-270zM387 1827l281 -291h-208l-146 129l-146 -129h-208l281 291h146z" />
    <glyph glyph-name="Idieresis" unicode="&#xcf;" horiz-adv-x="658" 
d="M194 0v1434h270v-1434h-270zM-40 1683q0 61 43 104t104 43t104 -43t43 -104t-43 -104t-104 -43t-104 43t-43 104zM404 1683q0 61 43 104t104 43t104 -43t43 -104t-43 -104t-104 -43t-104 43t-43 104z" />
    <glyph glyph-name="Eth" unicode="&#xd0;" horiz-adv-x="1670" 
d="M60 604v226h228v604h565q176 0 313 -55t222 -153t128.5 -226.5t43.5 -282.5t-43.5 -283t-128.5 -226.5t-222 -152.5t-313 -55h-565v604h-228zM558 604v-378h295q112 0 198 40t136 109.5t75 155.5t25 186t-25 186t-75 155.5t-136 109.5t-198 40h-295v-378h302v-226h-302z
" />
    <glyph glyph-name="Ntilde" unicode="&#xd1;" horiz-adv-x="1557" 
d="M150 0v1434h344l643 -1059v1059h270v-1434h-344l-643 1059v-1059h-270zM740 1600q-50 36 -73 36q-25 0 -39 -19.5t-15 -38.5l-1 -20h-185v14t4 35t11.5 49.5t25 52t41 49.5t63.5 35t90 14q75 0 155 -64q50 -36 73 -36q25 0 39 19.5t15 39.5l1 19h185v-14t-4 -35
t-11.5 -49.5t-25 -52t-41 -49.5t-63.5 -35t-90 -14q-75 0 -155 64z" />
    <glyph glyph-name="Ograve" unicode="&#xd2;" horiz-adv-x="1744" 
d="M872 -30q-181 0 -326 56t-240 155.5t-145.5 236t-50.5 299.5q0 162 50.5 298.5t145.5 236.5t240 156t326 56t326 -56t240 -156t145.5 -236.5t50.5 -298.5q0 -163 -50.5 -299.5t-145.5 -236t-240 -155.5t-326 -56zM872 196q239 0 363.5 143t124.5 378t-124.5 378
t-363.5 143t-363.5 -143t-124.5 -378t124.5 -378t363.5 -143zM752 1846l251 -310h-220l-314 310h283z" />
    <glyph glyph-name="Oacute" unicode="&#xd3;" horiz-adv-x="1744" 
d="M872 -30q-181 0 -326 56t-240 155.5t-145.5 236t-50.5 299.5q0 162 50.5 298.5t145.5 236.5t240 156t326 56t326 -56t240 -156t145.5 -236.5t50.5 -298.5q0 -163 -50.5 -299.5t-145.5 -236t-240 -155.5t-326 -56zM872 196q239 0 363.5 143t124.5 378t-124.5 378
t-363.5 143t-363.5 -143t-124.5 -378t124.5 -378t363.5 -143zM768 1536l251 310h283l-314 -310h-220z" />
    <glyph glyph-name="Ocircumflex" unicode="&#xd4;" horiz-adv-x="1744" 
d="M872 -30q-181 0 -326 56t-240 155.5t-145.5 236t-50.5 299.5q0 162 50.5 298.5t145.5 236.5t240 156t326 56t326 -56t240 -156t145.5 -236.5t50.5 -298.5q0 -163 -50.5 -299.5t-145.5 -236t-240 -155.5t-326 -56zM872 196q239 0 363.5 143t124.5 378t-124.5 378
t-363.5 143t-363.5 -143t-124.5 -378t124.5 -378t363.5 -143zM954 1827l281 -291h-208l-146 129l-146 -129h-208l281 291h146z" />
    <glyph glyph-name="Otilde" unicode="&#xd5;" horiz-adv-x="1744" 
d="M872 -30q-181 0 -326 56t-240 155.5t-145.5 236t-50.5 299.5q0 162 50.5 298.5t145.5 236.5t240 156t326 56t326 -56t240 -156t145.5 -236.5t50.5 -298.5q0 -163 -50.5 -299.5t-145.5 -236t-240 -155.5t-326 -56zM872 196q239 0 363.5 143t124.5 378t-124.5 378
t-363.5 143t-363.5 -143t-124.5 -378t124.5 -378t363.5 -143zM842 1600q-50 36 -73 36q-25 0 -39 -19.5t-15 -38.5l-1 -20h-185v14t4 35t11.5 49.5t25 52t41 49.5t63.5 35t90 14q75 0 155 -64q50 -36 73 -36q25 0 39 19.5t15 39.5l1 19h185v-14t-4 -35t-11.5 -49.5t-25 -52
t-41 -49.5t-63.5 -35t-90 -14q-75 0 -155 64z" />
    <glyph glyph-name="Odieresis" unicode="&#xd6;" horiz-adv-x="1744" 
d="M872 -30q-181 0 -326 56t-240 155.5t-145.5 236t-50.5 299.5q0 162 50.5 298.5t145.5 236.5t240 156t326 56t326 -56t240 -156t145.5 -236.5t50.5 -298.5q0 -163 -50.5 -299.5t-145.5 -236t-240 -155.5t-326 -56zM872 196q239 0 363.5 143t124.5 378t-124.5 378
t-363.5 143t-363.5 -143t-124.5 -378t124.5 -378t363.5 -143zM512 1683q0 61 43 104t104 43t104 -43t43 -104t-43 -104t-104 -43t-104 43t-43 104zM956 1683q0 61 43 104t104 43t104 -43t43 -104t-43 -104t-104 -43t-104 43t-43 104z" />
    <glyph glyph-name="multiply" unicode="&#xd7;" horiz-adv-x="1109" 
d="M999 380l-161 -161l-284 283l-283 -283l-161 161l283 283l-283 284l161 161l283 -283l284 283l161 -161l-283 -284z" />
    <glyph glyph-name="Oslash" unicode="&#xd8;" horiz-adv-x="1744" 
d="M872 -30q-126 0 -238 28l-28 -59h-227l65 135q-162 94 -248 261.5t-86 381.5q0 162 50.5 298.5t145.5 236.5t240 156t326 56q120 0 233 -27l28 58h227l-65 -133q164 -95 251.5 -262.5t87.5 -382.5q0 -163 -50.5 -299.5t-145.5 -236t-240 -155.5t-326 -56zM872 196
q239 0 363.5 143t124.5 378q0 285 -172 423l-451 -930q64 -14 135 -14zM384 717q0 -282 168 -420l450 928q-65 13 -130 13q-239 0 -363.5 -143t-124.5 -378z" />
    <glyph glyph-name="Ugrave" unicode="&#xd9;" horiz-adv-x="1555" 
d="M777 196q193 0 275.5 111.5t82.5 323.5v803h270v-803q0 -317 -154.5 -489t-473.5 -172q-318 0 -472.5 172t-154.5 489v803h270v-803q0 -212 82 -323.5t275 -111.5zM665 1846l251 -310h-220l-314 310h283z" />
    <glyph glyph-name="Uacute" unicode="&#xda;" horiz-adv-x="1555" 
d="M777 196q193 0 275.5 111.5t82.5 323.5v803h270v-803q0 -317 -154.5 -489t-473.5 -172q-318 0 -472.5 172t-154.5 489v803h270v-803q0 -212 82 -323.5t275 -111.5zM637 1536l251 310h283l-314 -310h-220z" />
    <glyph glyph-name="Ucircumflex" unicode="&#xdb;" horiz-adv-x="1555" 
d="M777 196q193 0 275.5 111.5t82.5 323.5v803h270v-803q0 -317 -154.5 -489t-473.5 -172q-318 0 -472.5 172t-154.5 489v803h270v-803q0 -212 82 -323.5t275 -111.5zM850 1827l281 -291h-208l-146 129l-146 -129h-208l281 291h146z" />
    <glyph glyph-name="Udieresis" unicode="&#xdc;" horiz-adv-x="1555" 
d="M777 196q193 0 275.5 111.5t82.5 323.5v803h270v-803q0 -317 -154.5 -489t-473.5 -172q-318 0 -472.5 172t-154.5 489v803h270v-803q0 -212 82 -323.5t275 -111.5zM408 1683q0 61 43 104t104 43t104 -43t43 -104t-43 -104t-104 -43t-104 43t-43 104zM852 1683
q0 61 43 104t104 43t104 -43t43 -104t-43 -104t-104 -43t-104 43t-43 104z" />
    <glyph glyph-name="Yacute" unicode="&#xdd;" horiz-adv-x="1484" 
d="M352 1434l390 -606l390 606h292l-547 -837v-597h-270v598l-547 836h292zM609 1536l251 310h283l-314 -310h-220z" />
    <glyph glyph-name="Thorn" unicode="&#xde;" horiz-adv-x="1153" 
d="M130 0v1434h270v-282h235q98 0 180 -35t135.5 -95t83 -138t29.5 -164q0 -114 -49.5 -211t-149 -158t-229.5 -61h-235v-290h-270zM635 925h-235v-409h235q77 0 117.5 59t40.5 145q0 88 -40.5 146.5t-117.5 58.5z" />
    <glyph glyph-name="germandbls" unicode="&#xdf;" horiz-adv-x="1358" 
d="M401 861v-861h-251v861q0 117 19.5 210.5t50.5 155.5t77.5 107.5t90.5 69.5t100.5 38.5t98 18t90.5 3.5q238 0 380 -114.5t142 -298.5q0 -110 -60 -196.5t-148 -115.5q114 -40 185.5 -129.5t71.5 -220.5q0 -188 -125 -296.5t-363 -108.5q-152 0 -251 48v207
q114 -46 251 -46q118 0 177.5 55t59.5 141q0 55 -15 98t-39.5 70.5t-59 45.5t-70.5 25.5t-76 7.5h-165v209h161q103 2 159 56.5t56 149.5q0 98 -68.5 151t-202.5 53q-49 0 -87.5 -10t-75 -36.5t-60.5 -69.5t-38.5 -113.5t-14.5 -164.5z" />
    <glyph glyph-name="agrave" unicode="&#xe0;" horiz-adv-x="1197" 
d="M613 833q-82 0 -173.5 -19.5t-165.5 -52.5l-95 179q178 102 434 102q135 0 223 -25.5t139 -84.5t71.5 -142t20.5 -210v-580h-251l-1 161q-77 -181 -331 -181q-177 0 -285.5 83.5t-108.5 253.5q0 76 28.5 137t79.5 101t120 68.5t149.5 39t169.5 13t179 -9.5
q0 96 -42.5 131.5t-160.5 35.5zM342 327q0 -138 182 -138q130 0 212 63.5t80 147.5v104q-43 0 -101.5 3t-124 -6.5t-120.5 -25.5t-91.5 -54.5t-36.5 -93.5zM481 1434l251 -310h-220l-314 310h283z" />
    <glyph glyph-name="aacute" unicode="&#xe1;" horiz-adv-x="1197" 
d="M613 833q-82 0 -173.5 -19.5t-165.5 -52.5l-95 179q178 102 434 102q135 0 223 -25.5t139 -84.5t71.5 -142t20.5 -210v-580h-251l-1 161q-77 -181 -331 -181q-177 0 -285.5 83.5t-108.5 253.5q0 76 28.5 137t79.5 101t120 68.5t149.5 39t169.5 13t179 -9.5
q0 96 -42.5 131.5t-160.5 35.5zM342 327q0 -138 182 -138q130 0 212 63.5t80 147.5v104q-43 0 -101.5 3t-124 -6.5t-120.5 -25.5t-91.5 -54.5t-36.5 -93.5zM485 1124l251 310h283l-314 -310h-220z" />
    <glyph glyph-name="acircumflex" unicode="&#xe2;" horiz-adv-x="1197" 
d="M613 833q-82 0 -173.5 -19.5t-165.5 -52.5l-95 179q178 102 434 102q135 0 223 -25.5t139 -84.5t71.5 -142t20.5 -210v-580h-251l-1 161q-77 -181 -331 -181q-177 0 -285.5 83.5t-108.5 253.5q0 76 28.5 137t79.5 101t120 68.5t149.5 39t169.5 13t179 -9.5
q0 96 -42.5 131.5t-160.5 35.5zM342 327q0 -138 182 -138q130 0 212 63.5t80 147.5v104q-43 0 -101.5 3t-124 -6.5t-120.5 -25.5t-91.5 -54.5t-36.5 -93.5zM697 1434l281 -291h-208l-146 129l-146 -129h-208l281 291h146z" />
    <glyph glyph-name="atilde" unicode="&#xe3;" horiz-adv-x="1197" 
d="M613 833q-82 0 -173.5 -19.5t-165.5 -52.5l-95 179q178 102 434 102q135 0 223 -25.5t139 -84.5t71.5 -142t20.5 -210v-580h-251l-1 161q-77 -181 -331 -181q-177 0 -285.5 83.5t-108.5 253.5q0 76 28.5 137t79.5 101t120 68.5t149.5 39t169.5 13t179 -9.5
q0 96 -42.5 131.5t-160.5 35.5zM342 327q0 -138 182 -138q130 0 212 63.5t80 147.5v104q-43 0 -101.5 3t-124 -6.5t-120.5 -25.5t-91.5 -54.5t-36.5 -93.5zM593 1247q-50 36 -73 36q-25 0 -39 -19.5t-15 -39.5l-1 -19h-185v14t4 35t11.5 49.5t25 52t41 49.5t63.5 35t90 14
q75 0 155 -64q50 -36 73 -36q25 0 39 19.5t15 38.5l1 20h185v-14t-4 -35t-11.5 -49.5t-25 -52t-41 -49.5t-63.5 -35t-90 -14q-75 0 -155 64z" />
    <glyph glyph-name="adieresis" unicode="&#xe4;" horiz-adv-x="1197" 
d="M613 833q-82 0 -173.5 -19.5t-165.5 -52.5l-95 179q178 102 434 102q135 0 223 -25.5t139 -84.5t71.5 -142t20.5 -210v-580h-251l-1 161q-77 -181 -331 -181q-177 0 -285.5 83.5t-108.5 253.5q0 76 28.5 137t79.5 101t120 68.5t149.5 39t169.5 13t179 -9.5
q0 96 -42.5 131.5t-160.5 35.5zM342 327q0 -138 182 -138q130 0 212 63.5t80 147.5v104q-43 0 -101.5 3t-124 -6.5t-120.5 -25.5t-91.5 -54.5t-36.5 -93.5zM254 1327q0 61 43 104t104 43t104 -43t43 -104t-43 -104t-104 -43t-104 43t-43 104zM698 1327q0 61 43 104t104 43
t104 -43t43 -104t-43 -104t-104 -43t-104 43t-43 104z" />
    <glyph glyph-name="aring" unicode="&#xe5;" horiz-adv-x="1197" 
d="M613 833q-82 0 -173.5 -19.5t-165.5 -52.5l-95 179q178 102 434 102q135 0 223 -25.5t139 -84.5t71.5 -142t20.5 -210v-580h-251l-1 161q-77 -181 -331 -181q-177 0 -285.5 83.5t-108.5 253.5q0 76 28.5 137t79.5 101t120 68.5t149.5 39t169.5 13t179 -9.5
q0 96 -42.5 131.5t-160.5 35.5zM342 327q0 -138 182 -138q130 0 212 63.5t80 147.5v104q-43 0 -101.5 3t-124 -6.5t-120.5 -25.5t-91.5 -54.5t-36.5 -93.5zM395 1390q0 94 66.5 160.5t160.5 66.5t160.5 -66.5t66.5 -160.5t-66.5 -160.5t-160.5 -66.5t-160.5 66.5
t-66.5 160.5zM544 1390q0 -32 23 -55t55 -23t55 23t23 55t-23 55t-55 23t-55 -23t-23 -55z" />
    <glyph glyph-name="ae" unicode="&#xe6;" horiz-adv-x="1988" 
d="M613 833q-82 0 -173.5 -19.5t-165.5 -52.5l-95 179q178 102 434 102q276 0 373 -122q143 122 370 122q267 0 411 -163.5t129 -465.5h-809q0 -24 8 -51.5t28 -58.5t49.5 -56t77.5 -41.5t106 -16.5q192 1 318 107l152 -151q-166 -165 -470 -165q-266 0 -411 161
q-96 -91 -210 -126t-251 -35q-177 0 -285.5 83.5t-108.5 253.5q0 76 28.5 137t79.5 101t120 68.5t149.5 39t169.5 13t179 -9.5q0 96 -42.5 131.5t-160.5 35.5zM342 327q0 -138 182 -138q130 0 212 63.5t80 147.5v104q-43 0 -101.5 3t-124 -6.5t-120.5 -25.5t-91.5 -54.5
t-36.5 -93.5zM1087 610h538q0 31 -14 66.5t-42.5 72t-84 60.5t-128.5 24t-128.5 -24t-84 -60.5t-42.5 -72t-14 -66.5z" />
    <glyph glyph-name="ccedilla" unicode="&#xe7;" horiz-adv-x="1152" 
d="M411 -459l46 117q33 -12 70 -19.5t83 -10.5t77.5 16t35.5 60q2 21 -5.5 35.5t-25.5 22t-39.5 11t-52.5 1.5t-59.5 -5t-65.5 -9l73 229q-210 32 -334 175t-124 347q0 230 156.5 380.5t413.5 150.5q274 0 422 -147l-130 -159q-123 97 -292 97q-79 0 -140.5 -26.5t-98.5 -72
t-55.5 -102t-18.5 -121.5t18.5 -121.5t55.5 -102t98.5 -72t140.5 -26.5q168 0 294 99l128 -161q-139 -138 -384 -146l-31 -93q60 -1 107 -17.5t78 -61t24 -112.5q-8 -78 -55 -126t-116 -61.5t-145.5 -5t-148.5 36.5z" />
    <glyph glyph-name="egrave" unicode="&#xe8;" horiz-adv-x="1262" 
d="M630 189q192 1 318 107l152 -151q-166 -165 -470 -165q-256 0 -398 148t-142 383q0 153 60.5 271.5t184.5 189t295 70.5q267 0 411 -163.5t129 -465.5h-809q0 -24 8 -51.5t28 -58.5t49.5 -56t77.5 -41.5t106 -16.5zM361 610h538q0 31 -14 66.5t-42.5 72t-84 60.5
t-128.5 24t-128.5 -24t-84 -60.5t-42.5 -72t-14 -66.5zM508 1434l251 -310h-220l-314 310h283z" />
    <glyph glyph-name="eacute" unicode="&#xe9;" horiz-adv-x="1262" 
d="M630 189q192 1 318 107l152 -151q-166 -165 -470 -165q-256 0 -398 148t-142 383q0 153 60.5 271.5t184.5 189t295 70.5q267 0 411 -163.5t129 -465.5h-809q0 -24 8 -51.5t28 -58.5t49.5 -56t77.5 -41.5t106 -16.5zM361 610h538q0 31 -14 66.5t-42.5 72t-84 60.5
t-128.5 24t-128.5 -24t-84 -60.5t-42.5 -72t-14 -66.5zM510 1124l251 310h283l-314 -310h-220z" />
    <glyph glyph-name="ecircumflex" unicode="&#xea;" horiz-adv-x="1262" 
d="M630 189q192 1 318 107l152 -151q-166 -165 -470 -165q-256 0 -398 148t-142 383q0 153 60.5 271.5t184.5 189t295 70.5q267 0 411 -163.5t129 -465.5h-809q0 -24 8 -51.5t28 -58.5t49.5 -56t77.5 -41.5t106 -16.5zM361 610h538q0 31 -14 66.5t-42.5 72t-84 60.5
t-128.5 24t-128.5 -24t-84 -60.5t-42.5 -72t-14 -66.5zM703 1434l281 -291h-208l-146 129l-146 -129h-208l281 291h146z" />
    <glyph glyph-name="edieresis" unicode="&#xeb;" horiz-adv-x="1262" 
d="M630 189q192 1 318 107l152 -151q-166 -165 -470 -165q-256 0 -398 148t-142 383q0 153 60.5 271.5t184.5 189t295 70.5q267 0 411 -163.5t129 -465.5h-809q0 -24 8 -51.5t28 -58.5t49.5 -56t77.5 -41.5t106 -16.5zM361 610h538q0 31 -14 66.5t-42.5 72t-84 60.5
t-128.5 24t-128.5 -24t-84 -60.5t-42.5 -72t-14 -66.5zM261 1327q0 61 43 104t104 43t104 -43t43 -104t-43 -104t-104 -43t-104 43t-43 104zM705 1327q0 61 43 104t104 43t104 -43t43 -104t-43 -104t-104 -43t-104 43t-43 104z" />
    <glyph glyph-name="igrave" unicode="&#xec;" horiz-adv-x="528" 
d="M147 0v1022h251v-1022h-251zM133 1434l251 -310h-220l-314 310h283z" />
    <glyph glyph-name="iacute" unicode="&#xed;" horiz-adv-x="528" 
d="M130 0v1022h251v-1022h-251zM144 1124l251 310h283l-314 -310h-220z" />
    <glyph glyph-name="icircumflex" unicode="&#xee;" horiz-adv-x="568" 
d="M160 0v1022h251v-1022h-251zM357 1434l281 -291h-208l-146 129l-146 -129h-208l281 291h146z" />
    <glyph glyph-name="idieresis" unicode="&#xef;" horiz-adv-x="598" 
d="M174 0v1022h251v-1022h-251zM-70 1327q0 61 43 104t104 43t104 -43t43 -104t-43 -104t-104 -43t-104 43t-43 104zM374 1327q0 61 43 104t104 43t104 -43t43 -104t-43 -104t-104 -43t-104 43t-43 104z" />
    <glyph glyph-name="eth" unicode="&#xf0;" horiz-adv-x="1302" 
d="M631 1086l-125 156l96 78q-91 44 -207 77l73 195q59 -13 148.5 -45.5t166.5 -81.5l148 119l126 -156l-114 -91q249 -254 249 -671q0 -335 -145.5 -510.5t-424.5 -175.5q-127 0 -228.5 40.5t-167.5 112t-101 168t-35 210.5q0 152 58.5 271.5t174 189.5t269.5 70
q121 0 215.5 -54.5t143.5 -146.5q-26 223 -172 364zM642 190q149 0 224 92t75 229t-75 229t-224 92q-147 0 -221 -92t-74 -229t74 -229t221 -92z" />
    <glyph glyph-name="ntilde" unicode="&#xf1;" 
d="M381 547v-547h-251v1022h251v-156q21 60 70.5 101.5t104.5 58t113 16.5q215 0 336.5 -127.5t121.5 -367.5v-547h-251v547q0 135 -63 210.5t-184 75.5q-122 0 -185 -75.5t-63 -210.5zM590 1247q-50 36 -73 36q-25 0 -39 -19.5t-15 -39.5l-1 -19h-185v14t4 35t11.5 49.5
t25 52t41 49.5t63.5 35t90 14q75 0 155 -64q50 -36 73 -36q25 0 39 19.5t15 38.5l1 20h185v-14t-4 -35t-11.5 -49.5t-25 -52t-41 -49.5t-63.5 -35t-90 -14q-75 0 -155 64z" />
    <glyph glyph-name="ograve" unicode="&#xf2;" horiz-adv-x="1320" 
d="M1230 511q0 -231 -156.5 -381t-413.5 -150t-413.5 150.5t-156.5 380.5t156.5 380.5t413.5 150.5t413.5 -150t156.5 -381zM973 511q0 65 -18.5 121.5t-55.5 102t-98.5 72t-140.5 26.5t-140.5 -26.5t-98.5 -72t-55.5 -102t-18.5 -121.5t18.5 -121.5t55.5 -102t98.5 -72
t140.5 -26.5t140.5 26.5t98.5 72t55.5 102t18.5 121.5zM517 1434l251 -310h-220l-314 310h283z" />
    <glyph glyph-name="oacute" unicode="&#xf3;" horiz-adv-x="1320" 
d="M1230 511q0 -231 -156.5 -381t-413.5 -150t-413.5 150.5t-156.5 380.5t156.5 380.5t413.5 150.5t413.5 -150t156.5 -381zM973 511q0 65 -18.5 121.5t-55.5 102t-98.5 72t-140.5 26.5t-140.5 -26.5t-98.5 -72t-55.5 -102t-18.5 -121.5t18.5 -121.5t55.5 -102t98.5 -72
t140.5 -26.5t140.5 26.5t98.5 72t55.5 102t18.5 121.5zM545 1124l251 310h283l-314 -310h-220z" />
    <glyph glyph-name="ocircumflex" unicode="&#xf4;" horiz-adv-x="1320" 
d="M1230 511q0 -231 -156.5 -381t-413.5 -150t-413.5 150.5t-156.5 380.5t156.5 380.5t413.5 150.5t413.5 -150t156.5 -381zM973 511q0 65 -18.5 121.5t-55.5 102t-98.5 72t-140.5 26.5t-140.5 -26.5t-98.5 -72t-55.5 -102t-18.5 -121.5t18.5 -121.5t55.5 -102t98.5 -72
t140.5 -26.5t140.5 26.5t98.5 72t55.5 102t18.5 121.5zM733 1434l281 -291h-208l-146 129l-146 -129h-208l281 291h146z" />
    <glyph glyph-name="otilde" unicode="&#xf5;" horiz-adv-x="1320" 
d="M1230 511q0 -231 -156.5 -381t-413.5 -150t-413.5 150.5t-156.5 380.5t156.5 380.5t413.5 150.5t413.5 -150t156.5 -381zM973 511q0 65 -18.5 121.5t-55.5 102t-98.5 72t-140.5 26.5t-140.5 -26.5t-98.5 -72t-55.5 -102t-18.5 -121.5t18.5 -121.5t55.5 -102t98.5 -72
t140.5 -26.5t140.5 26.5t98.5 72t55.5 102t18.5 121.5zM622 1247q-50 36 -73 36q-25 0 -39 -19.5t-15 -39.5l-1 -19h-185v14t4 35t11.5 49.5t25 52t41 49.5t63.5 35t90 14q75 0 155 -64q50 -36 73 -36q25 0 39 19.5t15 38.5l1 20h185v-14t-4 -35t-11.5 -49.5t-25 -52
t-41 -49.5t-63.5 -35t-90 -14q-75 0 -155 64z" />
    <glyph glyph-name="odieresis" unicode="&#xf6;" horiz-adv-x="1320" 
d="M1230 511q0 -231 -156.5 -381t-413.5 -150t-413.5 150.5t-156.5 380.5t156.5 380.5t413.5 150.5t413.5 -150t156.5 -381zM973 511q0 65 -18.5 121.5t-55.5 102t-98.5 72t-140.5 26.5t-140.5 -26.5t-98.5 -72t-55.5 -102t-18.5 -121.5t18.5 -121.5t55.5 -102t98.5 -72
t140.5 -26.5t140.5 26.5t98.5 72t55.5 102t18.5 121.5zM291 1327q0 61 43 104t104 43t104 -43t43 -104t-43 -104t-104 -43t-104 43t-43 104zM735 1327q0 61 43 104t104 43t104 -43t43 -104t-43 -104t-104 -43t-104 43t-43 104z" />
    <glyph glyph-name="divide" unicode="&#xf7;" horiz-adv-x="1059" 
d="M110 565v229h839v-229h-839zM381 1022q0 62 43.5 105.5t104.5 43.5t105 -43.5t44 -105.5q0 -61 -43.5 -104.5t-105.5 -43.5q-61 0 -104.5 43t-43.5 105zM381 336q0 62 43.5 105.5t104.5 43.5t105 -43.5t44 -105.5q0 -61 -43.5 -104.5t-105.5 -43.5q-61 0 -104.5 43
t-43.5 105z" />
    <glyph glyph-name="oslash" unicode="&#xf8;" horiz-adv-x="1320" 
d="M1230 511q0 -231 -156.5 -381t-413.5 -150q-80 0 -154 17l-28 -58h-191l57 118q-121 69 -187.5 188t-66.5 266q0 230 156.5 380.5t413.5 150.5q80 0 154 -17l28 58h192l-58 -119q121 -69 187.5 -187.5t66.5 -265.5zM347 511q0 -161 97 -248l275 566q-38 4 -59 4
q-79 0 -140.5 -26.5t-98.5 -72t-55.5 -102t-18.5 -121.5zM973 511q0 159 -97 247l-275 -565q25 -4 59 -4q79 0 140.5 26.5t98.5 72t55.5 102t18.5 121.5z" />
    <glyph glyph-name="ugrave" unicode="&#xf9;" 
d="M876 475v547h251v-1022h-251v156q-21 -60 -70.5 -101.5t-104.5 -58t-113 -16.5q-215 0 -336.5 127.5t-121.5 367.5v547h251v-547q0 -135 63 -210.5t184 -75.5q122 0 185 75.5t63 210.5zM495 1434l251 -310h-220l-314 310h283z" />
    <glyph glyph-name="uacute" unicode="&#xfa;" 
d="M876 475v547h251v-1022h-251v156q-21 -60 -70.5 -101.5t-104.5 -58t-113 -16.5q-215 0 -336.5 127.5t-121.5 367.5v547h251v-547q0 -135 63 -210.5t184 -75.5q122 0 185 75.5t63 210.5zM501 1124l251 310h283l-314 -310h-220z" />
    <glyph glyph-name="ucircumflex" unicode="&#xfb;" 
d="M876 475v547h251v-1022h-251v156q-21 -60 -70.5 -101.5t-104.5 -58t-113 -16.5q-215 0 -336.5 127.5t-121.5 367.5v547h251v-547q0 -135 63 -210.5t184 -75.5q122 0 185 75.5t63 210.5zM701 1434l281 -291h-208l-146 129l-146 -129h-208l281 291h146z" />
    <glyph glyph-name="udieresis" unicode="&#xfc;" 
d="M876 475v547h251v-1022h-251v156q-21 -60 -70.5 -101.5t-104.5 -58t-113 -16.5q-215 0 -336.5 127.5t-121.5 367.5v547h251v-547q0 -135 63 -210.5t184 -75.5q122 0 185 75.5t63 210.5zM260 1327q0 61 43 104t104 43t104 -43t43 -104t-43 -104t-104 -43t-104 43t-43 104z
M704 1327q0 61 43 104t104 43t104 -43t43 -104t-43 -104t-104 -43t-104 43t-43 104z" />
    <glyph glyph-name="yacute" unicode="&#xfd;" horiz-adv-x="1197" 
d="M477 0l-437 1022h267l291 -727l292 727h267l-565 -1317q-14 -29 -20 -41.5t-19.5 -38t-23 -38t-25.5 -32.5t-31 -30t-36.5 -23t-44.5 -19t-52.5 -10.5t-63.5 -4.5q-56 0 -114.5 14t-97.5 35l85 188q60 -28 110 -28q14 0 25.5 1.5t22 6.5t18 8.5t15.5 14t12.5 14.5t12 19
l10 20t11 24t11.5 24zM477 1124l251 310h283l-314 -310h-220z" />
    <glyph glyph-name="thorn" unicode="&#xfe;" horiz-adv-x="1322" 
d="M130 -532v2048h251v-665q45 91 145.5 141t203.5 50q154 0 269.5 -70t174 -189.5t58.5 -271.5t-58.5 -271.5t-174 -189.5t-269.5 -70q-103 0 -203.5 50t-145.5 141v-703h-251zM678 190q149 0 223 92t74 229t-74 229t-223 92t-223 -92t-74 -229t74 -229t223 -92z" />
    <glyph glyph-name="ydieresis" unicode="&#xff;" horiz-adv-x="1197" 
d="M477 0l-437 1022h267l291 -727l292 727h267l-565 -1317q-14 -29 -20 -41.5t-19.5 -38t-23 -38t-25.5 -32.5t-31 -30t-36.5 -23t-44.5 -19t-52.5 -10.5t-63.5 -4.5q-56 0 -114.5 14t-97.5 35l85 188q60 -28 110 -28q14 0 25.5 1.5t22 6.5t18 8.5t15.5 14t12.5 14.5t12 19
l10 20t11 24t11.5 24zM229 1327q0 61 43 104t104 43t104 -43t43 -104t-43 -104t-104 -43t-104 43t-43 104zM673 1327q0 61 43 104t104 43t104 -43t43 -104t-43 -104t-104 -43t-104 43t-43 104z" />
    <glyph glyph-name="Amacron" unicode="&#x100;" horiz-adv-x="1549" 
d="M477 334l-136 -334h-281l604 1434h221l604 -1434h-281l-137 334h-594zM774 1063l-205 -502h410zM377 1535v189h794v-189h-794z" />
    <glyph glyph-name="amacron" unicode="&#x101;" horiz-adv-x="1197" 
d="M613 833q-82 0 -173.5 -19.5t-165.5 -52.5l-95 179q178 102 434 102q135 0 223 -25.5t139 -84.5t71.5 -142t20.5 -210v-580h-251l-1 161q-77 -181 -331 -181q-177 0 -285.5 83.5t-108.5 253.5q0 76 28.5 137t79.5 101t120 68.5t149.5 39t169.5 13t179 -9.5
q0 96 -42.5 131.5t-160.5 35.5zM342 327q0 -138 182 -138q130 0 212 63.5t80 147.5v104q-43 0 -101.5 3t-124 -6.5t-120.5 -25.5t-91.5 -54.5t-36.5 -93.5zM222 1245v189h794v-189h-794z" />
    <glyph glyph-name="Abreve" unicode="&#x102;" horiz-adv-x="1549" 
d="M477 334l-136 -334h-281l604 1434h221l604 -1434h-281l-137 334h-594zM774 1063l-205 -502h410zM774 1536q-84 0 -153 24.5t-111 64t-66.5 79t-33.5 78.5h182q53 -92 182 -92t182 92h182q-9 -39 -33.5 -78.5t-66.5 -79t-111 -64t-153 -24.5z" />
    <glyph glyph-name="abreve" unicode="&#x103;" horiz-adv-x="1197" 
d="M613 833q-82 0 -173.5 -19.5t-165.5 -52.5l-95 179q178 102 434 102q135 0 223 -25.5t139 -84.5t71.5 -142t20.5 -210v-580h-251l-1 161q-77 -181 -331 -181q-177 0 -285.5 83.5t-108.5 253.5q0 76 28.5 137t79.5 101t120 68.5t149.5 39t169.5 13t179 -9.5
q0 96 -42.5 131.5t-160.5 35.5zM342 327q0 -138 182 -138q130 0 212 63.5t80 147.5v104q-43 0 -101.5 3t-124 -6.5t-120.5 -25.5t-91.5 -54.5t-36.5 -93.5zM628 1188q-84 0 -153 24.5t-111 64t-66.5 79t-33.5 78.5h182q53 -92 182 -92t182 92h182q-9 -39 -33.5 -78.5
t-66.5 -79t-111 -64t-153 -24.5z" />
    <glyph glyph-name="Aogonek" unicode="&#x104;" horiz-adv-x="1601" 
d="M885 1434l604 -1434q-5 -1 -14 -4t-31.5 -15t-39.5 -26.5t-31 -40t-14 -55.5q0 -31 18.5 -53.5t45.5 -33t54 -16.5t45 -6l19 -1v-207q-41 -3 -86.5 0t-99.5 18t-96 41.5t-70.5 76t-28.5 115.5q0 45 15 82.5t34 59t42.5 37.5t35 21t18.5 7h-97l-137 334h-594l-136 -334
h-281l604 1434h221zM774 1063l-205 -502h410z" />
    <glyph glyph-name="aogonek" unicode="&#x105;" horiz-adv-x="1249" 
d="M1067 580v-580q-5 -1 -14 -4t-31.5 -15t-39.5 -26.5t-31 -40t-14 -55.5q0 -31 18.5 -53.5t45.5 -33t54 -16.5t45 -6l19 -1v-207q-41 -3 -86.5 0t-99.5 18t-96 41.5t-70.5 76t-28.5 115.5q0 45 15 82.5t34 59t42.5 37.5t35 21t18.5 7h-67l-1 161q-77 -181 -331 -181
q-177 0 -285.5 83.5t-108.5 253.5q0 76 28.5 137t79.5 101t120 68.5t149.5 39t169.5 13t179 -9.5q0 96 -42.5 131.5t-160.5 35.5q-82 0 -173.5 -19.5t-165.5 -52.5l-95 179q178 102 434 102q135 0 223 -25.5t139 -84.5t71.5 -142t20.5 -210zM342 327q0 -138 182 -138
q130 0 212 63.5t80 147.5v104q-43 0 -101.5 3t-124 -6.5t-120.5 -25.5t-91.5 -54.5t-36.5 -93.5z" />
    <glyph glyph-name="Cacute" unicode="&#x106;" horiz-adv-x="1496" 
d="M384 717q0 -235 124.5 -378t363.5 -143q230 0 405 118l129 -178q-192 -166 -534 -166q-181 0 -326 56t-240 155.5t-145.5 236t-50.5 299.5t50.5 299.5t145.5 236t240 155.5t326 56q342 0 534 -166l-129 -178q-175 118 -405 118q-239 0 -363.5 -143t-124.5 -378zM760 1536
l251 310h283l-314 -310h-220z" />
    <glyph glyph-name="cacute" unicode="&#x107;" horiz-adv-x="1152" 
d="M347 511q0 -65 18.5 -121.5t55.5 -102t98.5 -72t140.5 -26.5q168 0 294 99l128 -161q-148 -147 -422 -147q-257 0 -413.5 150.5t-156.5 380.5t156.5 380.5t413.5 150.5q274 0 422 -147l-130 -159q-123 97 -292 97q-79 0 -140.5 -26.5t-98.5 -72t-55.5 -102t-18.5 -121.5z
M542 1124l251 310h283l-314 -310h-220z" />
    <glyph glyph-name="Ccircumflex" unicode="&#x108;" horiz-adv-x="1496" 
d="M931 1827l281 -291h-208l-146 129l-146 -129h-208l281 291h146zM384 717q0 -235 124.5 -378t363.5 -143q230 0 405 118l129 -178q-192 -166 -534 -166q-181 0 -326 56t-240 155.5t-145.5 236t-50.5 299.5t50.5 299.5t145.5 236t240 155.5t326 56q342 0 534 -166
l-129 -178q-175 118 -405 118q-239 0 -363.5 -143t-124.5 -378z" />
    <glyph glyph-name="ccircumflex" unicode="&#x109;" horiz-adv-x="1152" 
d="M347 511q0 -65 18.5 -121.5t55.5 -102t98.5 -72t140.5 -26.5q168 0 294 99l128 -161q-148 -147 -422 -147q-257 0 -413.5 150.5t-156.5 380.5t156.5 380.5t413.5 150.5q274 0 422 -147l-130 -159q-123 97 -292 97q-79 0 -140.5 -26.5t-98.5 -72t-55.5 -102t-18.5 -121.5z
M708 1434l281 -291h-208l-146 129l-146 -129h-208l281 291h146z" />
    <glyph glyph-name="Cdotaccent" unicode="&#x10a;" horiz-adv-x="1496" 
d="M384 717q0 -235 124.5 -378t363.5 -143q230 0 405 118l129 -178q-192 -166 -534 -166q-181 0 -326 56t-240 155.5t-145.5 236t-50.5 299.5t50.5 299.5t145.5 236t240 155.5t326 56q342 0 534 -166l-129 -178q-175 118 -405 118q-239 0 -363.5 -143t-124.5 -378zM716 1703
q0 61 43 104t104 43t104 -43t43 -104t-43 -104t-104 -43t-104 43t-43 104z" />
    <glyph glyph-name="cdotaccent" unicode="&#x10b;" horiz-adv-x="1152" 
d="M347 511q0 -65 18.5 -121.5t55.5 -102t98.5 -72t140.5 -26.5q168 0 294 99l128 -161q-148 -147 -422 -147q-257 0 -413.5 150.5t-156.5 380.5t156.5 380.5t413.5 150.5q274 0 422 -147l-130 -159q-123 97 -292 97q-79 0 -140.5 -26.5t-98.5 -72t-55.5 -102t-18.5 -121.5z
M493 1327q0 61 43 104t104 43t104 -43t43 -104t-43 -104t-104 -43t-104 43t-43 104z" />
    <glyph glyph-name="Ccaron" unicode="&#x10c;" horiz-adv-x="1496" 
d="M384 717q0 -235 124.5 -378t363.5 -143q230 0 405 118l129 -178q-192 -166 -534 -166q-181 0 -326 56t-240 155.5t-145.5 236t-50.5 299.5t50.5 299.5t145.5 236t240 155.5t326 56q342 0 534 -166l-129 -178q-175 118 -405 118q-239 0 -363.5 -143t-124.5 -378z
M1210 1827l-281 -291h-146l-281 291h208l146 -129l146 129h208z" />
    <glyph glyph-name="ccaron" unicode="&#x10d;" horiz-adv-x="1152" 
d="M347 511q0 -65 18.5 -121.5t55.5 -102t98.5 -72t140.5 -26.5q168 0 294 99l128 -161q-148 -147 -422 -147q-257 0 -413.5 150.5t-156.5 380.5t156.5 380.5t413.5 150.5q274 0 422 -147l-130 -159q-123 97 -292 97q-79 0 -140.5 -26.5t-98.5 -72t-55.5 -102t-18.5 -121.5z
M1000 1434l-281 -291h-146l-281 291h208l146 -129l146 129h208z" />
    <glyph glyph-name="Dcaron" unicode="&#x10e;" horiz-adv-x="1532" 
d="M1422 717q0 -154 -43.5 -283t-128.5 -226.5t-222 -152.5t-313 -55h-565v1434h565q176 0 313 -55t222 -153t128.5 -226.5t43.5 -282.5zM420 1208v-982h295q112 0 198 40t136 109.5t75 155.5t25 186t-25 186t-75 155.5t-136 109.5t-198 40h-295zM978 1827l-281 -291h-146
l-281 291h208l146 -129l146 129h208z" />
    <glyph glyph-name="dcaron" unicode="&#x10f;" horiz-adv-x="1510" 
d="M1192 1516v-1516h-251v171q-45 -91 -145.5 -141t-203.5 -50q-154 0 -269.5 70t-174 189.5t-58.5 271.5t58.5 271.5t174 189.5t269.5 70q103 0 203.5 -50t145.5 -141v665h251zM644 190q149 0 223 92t74 229t-74 229t-223 92t-223 -92t-74 -229t74 -229t223 -92zM1240 1054
l91 462h269l-129 -462h-231z" />
    <glyph glyph-name="Dcroat" unicode="&#x110;" horiz-adv-x="1670" 
d="M60 604v226h228v604h565q176 0 313 -55t222 -153t128.5 -226.5t43.5 -282.5t-43.5 -283t-128.5 -226.5t-222 -152.5t-313 -55h-565v604h-228zM558 604v-378h295q112 0 198 40t136 109.5t75 155.5t25 186t-25 186t-75 155.5t-136 109.5t-198 40h-295v-378h302v-226h-302z
" />
    <glyph glyph-name="dcroat" unicode="&#x111;" horiz-adv-x="1392" 
d="M1192 1141v-1141h-251v171q-45 -91 -145.5 -141t-203.5 -50q-154 0 -269.5 70t-174 189.5t-58.5 271.5t58.5 271.5t174 189.5t269.5 70q103 0 203.5 -50t145.5 -141v290h-282v200h282v175h251v-175h190v-200h-190zM644 190q149 0 223 92t74 229t-74 229t-223 92t-223 -92
t-74 -229t74 -229t223 -92z" />
    <glyph glyph-name="Emacron" unicode="&#x112;" horiz-adv-x="1307" 
d="M420 844h713v-226h-713v-392h757v-226h-1027v1434h1017v-226h-747v-364zM267 1536v189h794v-189h-794z" />
    <glyph glyph-name="emacron" unicode="&#x113;" horiz-adv-x="1262" 
d="M630 189q192 1 318 107l152 -151q-166 -165 -470 -165q-256 0 -398 148t-142 383q0 153 60.5 271.5t184.5 189t295 70.5q267 0 411 -163.5t129 -465.5h-809q0 -24 8 -51.5t28 -58.5t49.5 -56t77.5 -41.5t106 -16.5zM361 610h538q0 31 -14 66.5t-42.5 72t-84 60.5
t-128.5 24t-128.5 -24t-84 -60.5t-42.5 -72t-14 -66.5zM233 1245v189h794v-189h-794z" />
    <glyph glyph-name="Ebreve" unicode="&#x114;" horiz-adv-x="1307" 
d="M420 844h713v-226h-713v-392h757v-226h-1027v1434h1017v-226h-747v-364zM663 1536q-84 0 -153 24.5t-111 64t-66.5 79t-33.5 78.5h182q53 -92 182 -92t182 92h182q-9 -39 -33.5 -78.5t-66.5 -79t-111 -64t-153 -24.5z" />
    <glyph glyph-name="ebreve" unicode="&#x115;" horiz-adv-x="1262" 
d="M630 189q192 1 318 107l152 -151q-166 -165 -470 -165q-256 0 -398 148t-142 383q0 153 60.5 271.5t184.5 189t295 70.5q267 0 411 -163.5t129 -465.5h-809q0 -24 8 -51.5t28 -58.5t49.5 -56t77.5 -41.5t106 -16.5zM361 610h538q0 31 -14 66.5t-42.5 72t-84 60.5
t-128.5 24t-128.5 -24t-84 -60.5t-42.5 -72t-14 -66.5zM630 1188q-84 0 -153 24.5t-111 64t-66.5 79t-33.5 78.5h182q53 -92 182 -92t182 92h182q-9 -39 -33.5 -78.5t-66.5 -79t-111 -64t-153 -24.5z" />
    <glyph glyph-name="Edotaccent" unicode="&#x116;" horiz-adv-x="1307" 
d="M420 844h713v-226h-713v-392h757v-226h-1027v1434h1017v-226h-747v-364zM516 1683q0 61 43 104t104 43t104 -43t43 -104t-43 -104t-104 -43t-104 43t-43 104z" />
    <glyph glyph-name="edotaccent" unicode="&#x117;" horiz-adv-x="1262" 
d="M630 189q192 1 318 107l152 -151q-166 -165 -470 -165q-256 0 -398 148t-142 383q0 153 60.5 271.5t184.5 189t295 70.5q267 0 411 -163.5t129 -465.5h-809q0 -24 8 -51.5t28 -58.5t49.5 -56t77.5 -41.5t106 -16.5zM361 610h538q0 31 -14 66.5t-42.5 72t-84 60.5
t-128.5 24t-128.5 -24t-84 -60.5t-42.5 -72t-14 -66.5zM483 1327q0 61 43 104t104 43t104 -43t43 -104t-43 -104t-104 -43t-104 43t-43 104z" />
    <glyph glyph-name="Eogonek" unicode="&#x118;" horiz-adv-x="1359" 
d="M1177 226v-226q-5 -1 -14 -4t-31.5 -15t-39.5 -26.5t-31 -40t-14 -55.5q0 -31 18.5 -53.5t45.5 -33t54 -16.5t45 -6l19 -1v-207q-41 -3 -86.5 0t-99.5 18t-96 41.5t-70.5 76t-28.5 115.5q0 45 15 82.5t34 59t42.5 37.5t35 21t18.5 7h-843v1434h1017v-226h-747v-364h713
v-226h-713v-392h757z" />
    <glyph glyph-name="eogonek" unicode="&#x119;" horiz-adv-x="1262" 
d="M630 189q192 1 318 107l152 -151q-112 -110 -276 -146q-13 -4 -30 -12t-40.5 -24t-39.5 -43.5t-16 -60.5q0 -31 18.5 -53.5t45.5 -33t54 -16.5t46 -6l18 -1v-207q-41 -3 -86.5 0t-99.5 18t-96 41.5t-70.5 76t-28.5 115.5q0 125 105 188q-244 8 -379 154.5t-135 375.5
q0 153 60.5 271.5t184.5 189t295 70.5q267 0 411 -163.5t129 -465.5h-809q0 -24 8 -51.5t28 -58.5t49.5 -56t77.5 -41.5t106 -16.5zM361 610h538q0 31 -14 66.5t-42.5 72t-84 60.5t-128.5 24t-128.5 -24t-84 -60.5t-42.5 -72t-14 -66.5z" />
    <glyph glyph-name="Ecaron" unicode="&#x11a;" horiz-adv-x="1307" 
d="M420 844h713v-226h-713v-392h757v-226h-1027v1434h1017v-226h-747v-364zM1017 1827l-281 -291h-146l-281 291h208l146 -129l146 129h208z" />
    <glyph glyph-name="ecaron" unicode="&#x11b;" horiz-adv-x="1262" 
d="M630 189q192 1 318 107l152 -151q-166 -165 -470 -165q-256 0 -398 148t-142 383q0 153 60.5 271.5t184.5 189t295 70.5q267 0 411 -163.5t129 -465.5h-809q0 -24 8 -51.5t28 -58.5t49.5 -56t77.5 -41.5t106 -16.5zM361 610h538q0 31 -14 66.5t-42.5 72t-84 60.5
t-128.5 24t-128.5 -24t-84 -60.5t-42.5 -72t-14 -66.5zM984 1434l-281 -291h-146l-281 291h208l146 -129l146 129h208z" />
    <glyph glyph-name="Gcircumflex" unicode="&#x11c;" horiz-adv-x="1587" 
d="M872 -30q-181 0 -326 56t-240 155.5t-145.5 236t-50.5 299.5q0 162 50.5 298.5t145.5 236.5t240 156t326 56q363 0 581 -182l-131 -174q-194 130 -450 130q-239 0 -363.5 -143t-124.5 -378t124.5 -378t363.5 -143q100 0 190.5 19t140.5 52v329h-311v226h565v-683
q-102 -92 -259 -130.5t-326 -38.5zM935 1827l281 -291h-208l-146 129l-146 -129h-208l281 291h146z" />
    <glyph glyph-name="gcircumflex" unicode="&#x11d;" horiz-adv-x="1322" 
d="M941 1022h251v-1022q0 -532 -566 -532q-144 0 -267 35.5t-209 97.5l129 168q151 -91 347 -91q154 0 234.5 71.5t80.5 250.5v171q-45 -91 -145.5 -141t-203.5 -50q-154 0 -269.5 70t-174 189.5t-58.5 271.5t58.5 271.5t174 189.5t269.5 70q103 0 203.5 -50t145.5 -141v171
zM644 190q149 0 223 92t74 229t-74 229t-223 92t-223 -92t-74 -229t74 -229t223 -92zM714 1434l281 -291h-208l-146 129l-146 -129h-208l281 291h146z" />
    <glyph glyph-name="Gbreve" unicode="&#x11e;" horiz-adv-x="1587" 
d="M872 -30q-181 0 -326 56t-240 155.5t-145.5 236t-50.5 299.5q0 162 50.5 298.5t145.5 236.5t240 156t326 56q363 0 581 -182l-131 -174q-194 130 -450 130q-239 0 -363.5 -143t-124.5 -378t124.5 -378t363.5 -143q100 0 190.5 19t140.5 52v329h-311v226h565v-683
q-102 -92 -259 -130.5t-326 -38.5zM859 1536q-84 0 -153 24.5t-111 64t-66.5 79t-33.5 78.5h182q53 -92 182 -92t182 92h182q-9 -39 -33.5 -78.5t-66.5 -79t-111 -64t-153 -24.5z" />
    <glyph glyph-name="gbreve" unicode="&#x11f;" horiz-adv-x="1322" 
d="M941 1022h251v-1022q0 -532 -566 -532q-144 0 -267 35.5t-209 97.5l129 168q151 -91 347 -91q154 0 234.5 71.5t80.5 250.5v171q-45 -91 -145.5 -141t-203.5 -50q-154 0 -269.5 70t-174 189.5t-58.5 271.5t58.5 271.5t174 189.5t269.5 70q103 0 203.5 -50t145.5 -141v171
zM644 190q149 0 223 92t74 229t-74 229t-223 92t-223 -92t-74 -229t74 -229t223 -92zM640 1188q-84 0 -153 24.5t-111 64t-66.5 79t-33.5 78.5h182q53 -92 182 -92t182 92h182q-9 -39 -33.5 -78.5t-66.5 -79t-111 -64t-153 -24.5z" />
    <glyph glyph-name="Gdotaccent" unicode="&#x120;" horiz-adv-x="1587" 
d="M872 -30q-181 0 -326 56t-240 155.5t-145.5 236t-50.5 299.5q0 162 50.5 298.5t145.5 236.5t240 156t326 56q363 0 581 -182l-131 -174q-194 130 -450 130q-239 0 -363.5 -143t-124.5 -378t124.5 -378t363.5 -143q100 0 190.5 19t140.5 52v329h-311v226h565v-683
q-102 -92 -259 -130.5t-326 -38.5zM725 1703q0 61 43 104t104 43t104 -43t43 -104t-43 -104t-104 -43t-104 43t-43 104z" />
    <glyph glyph-name="gdotaccent" unicode="&#x121;" horiz-adv-x="1322" 
d="M941 1022h251v-1022q0 -532 -566 -532q-144 0 -267 35.5t-209 97.5l129 168q151 -91 347 -91q154 0 234.5 71.5t80.5 250.5v171q-45 -91 -145.5 -141t-203.5 -50q-154 0 -269.5 70t-174 189.5t-58.5 271.5t58.5 271.5t174 189.5t269.5 70q103 0 203.5 -50t145.5 -141v171
zM644 190q149 0 223 92t74 229t-74 229t-223 92t-223 -92t-74 -229t74 -229t223 -92zM494 1327q0 61 43 104t104 43t104 -43t43 -104t-43 -104t-104 -43t-104 43t-43 104z" />
    <glyph glyph-name="Gcommaaccent" unicode="&#x122;" horiz-adv-x="1587" 
d="M872 -30q-181 0 -326 56t-240 155.5t-145.5 236t-50.5 299.5q0 162 50.5 298.5t145.5 236.5t240 156t326 56q363 0 581 -182l-131 -174q-194 130 -450 130q-239 0 -363.5 -143t-124.5 -378t124.5 -378t363.5 -143q100 0 190.5 19t140.5 52v329h-311v226h565v-683
q-102 -92 -259 -130.5t-326 -38.5zM578 -532l151 402h269l-189 -402h-231z" />
    <glyph glyph-name="gcommaaccent" unicode="&#x123;" horiz-adv-x="1322" 
d="M941 1022h251v-1022q0 -532 -566 -532q-144 0 -267 35.5t-209 97.5l129 168q151 -91 347 -91q154 0 234.5 71.5t80.5 250.5v171q-45 -91 -145.5 -141t-203.5 -50q-154 0 -269.5 70t-174 189.5t-58.5 271.5t58.5 271.5t174 189.5t269.5 70q103 0 203.5 -50t145.5 -141v171
zM644 190q149 0 223 92t74 229t-74 229t-223 92t-223 -92t-74 -229t74 -229t223 -92zM895 1516l-151 -402h-269l189 402h231z" />
    <glyph glyph-name="Hcircumflex" unicode="&#x124;" horiz-adv-x="1523" 
d="M1103 844v590h270v-1434h-270v618h-683v-618h-270v1434h270v-590h683zM834 1827l281 -291h-208l-146 129l-146 -129h-208l281 291h146z" />
    <glyph glyph-name="hcircumflex" unicode="&#x125;" 
d="M381 547v-547h-251v1516h251v-650q21 60 70.5 101.5t104.5 58t113 16.5q215 0 336.5 -127.5t121.5 -367.5v-547h-251v547q0 135 -63 210.5t-184 75.5q-122 0 -185 -75.5t-63 -210.5zM701 1827l281 -291h-208l-146 129l-146 -129h-208l281 291h146z" />
    <glyph glyph-name="Hbar" unicode="&#x126;" horiz-adv-x="1839" 
d="M90 1022v208h218v204h270v-204h683v204h270v-204h218v-208h-218v-1022h-270v618h-683v-618h-270v1022h-218zM578 844h683v178h-683v-178z" />
    <glyph glyph-name="hbar" unicode="&#x127;" horiz-adv-x="1327" 
d="M451 547v-547h-251v1141h-190v200h190v175h251v-175h282v-200h-282v-275q21 60 70.5 101.5t104.5 58t113 16.5q215 0 336.5 -127.5t121.5 -367.5v-547h-251v547q0 135 -63 210.5t-184 75.5q-122 0 -185 -75.5t-63 -210.5z" />
    <glyph glyph-name="Itilde" unicode="&#x128;" horiz-adv-x="625" 
d="M177 0v1434h270v-1434h-270zM274 1600q-50 36 -73 36q-25 0 -39 -19.5t-15 -38.5l-1 -20h-185v14t4 35t11.5 49.5t25 52t41 49.5t63.5 35t90 14q75 0 155 -64q50 -36 73 -36q25 0 39 19.5t15 39.5l1 19h185v-14t-4 -35t-11.5 -49.5t-25 -52t-41 -49.5t-63.5 -35t-90 -14
q-75 0 -155 64z" />
    <glyph glyph-name="itilde" unicode="&#x129;" horiz-adv-x="565" 
d="M244 1247q-50 36 -73 36q-25 0 -39 -19.5t-15 -39.5l-1 -19h-185v14t4 35t11.5 49.5t25 52t41 49.5t63.5 35t90 14q75 0 155 -64q50 -36 73 -36q25 0 39 19.5t15 38.5l1 20h185v-14t-4 -35t-11.5 -49.5t-25 -52t-41 -49.5t-63.5 -35t-90 -14q-75 0 -155 64zM156 0v1022
h251v-1022h-251z" />
    <glyph glyph-name="uni012A" unicode="&#x12a;" horiz-adv-x="714" 
d="M222 0v1434h270v-1434h-270zM-40 1536v189h794v-189h-794z" />
    <glyph glyph-name="imacron" unicode="&#x12b;" horiz-adv-x="654" 
d="M202 0v1022h251v-1022h-251zM-70 1245v189h794v-189h-794z" />
    <glyph glyph-name="Ibreve" unicode="&#x12c;" horiz-adv-x="648" 
d="M189 0v1434h270v-1434h-270zM324 1536q-84 0 -153 24.5t-111 64t-66.5 79t-33.5 78.5h182q53 -92 182 -92t182 92h182q-9 -39 -33.5 -78.5t-66.5 -79t-111 -64t-153 -24.5z" />
    <glyph glyph-name="uni012D" unicode="&#x12d;" horiz-adv-x="588" 
d="M169 0v1022h251v-1022h-251zM294 1188q-84 0 -153 24.5t-111 64t-66.5 79t-33.5 78.5h182q53 -92 182 -92t182 92h182q-9 -39 -33.5 -78.5t-66.5 -79t-111 -64t-153 -24.5z" />
    <glyph glyph-name="Iogonek" unicode="&#x12e;" horiz-adv-x="701" 
d="M489 1434v-1434q-5 -1 -14 -4t-31.5 -15t-39.5 -26.5t-31 -40t-14 -55.5q0 -31 18.5 -53.5t45.5 -33t54 -16.5t45 -6l19 -1v-207q-41 -3 -86.5 0t-99.5 18t-96 41.5t-70.5 76t-28.5 115.5q0 45 15 82.5t34 59t42.5 37.5t35 21t18.5 7h-86v1434h270z" />
    <glyph glyph-name="iogonek" unicode="&#x12f;" horiz-adv-x="601" 
d="M439 1022v-1022q-5 -1 -14 -4t-31.5 -15t-39.5 -26.5t-31 -40t-14 -55.5q0 -31 18.5 -53.5t45.5 -33t54 -16.5t45 -6l19 -1v-207q-41 -3 -86.5 0t-99.5 18t-96 41.5t-70.5 76t-28.5 115.5q0 45 15 82.5t34 59t42.5 37.5t35 21t18.5 7h-67v1022h251zM166 1327q0 61 43 104
t104 43t104 -43t43 -104t-43 -104t-104 -43t-104 43t-43 104z" />
    <glyph glyph-name="Idotaccent" unicode="&#x130;" horiz-adv-x="614" 
d="M172 0v1434h270v-1434h-270zM160 1683q0 61 43 104t104 43t104 -43t43 -104t-43 -104t-104 -43t-104 43t-43 104z" />
    <glyph glyph-name="dotlessi" unicode="&#x131;" horiz-adv-x="511" 
d="M130 0v1022h251v-1022h-251z" />
    <glyph glyph-name="IJ" unicode="&#x132;" horiz-adv-x="1689" 
d="M160 0v1434h270v-1434h-270zM550 294l248 72q66 -170 234 -170q124 0 175.5 61.5t51.5 196.5v980h270v-980q0 -484 -487 -484q-401 0 -492 324z" />
    <glyph glyph-name="ij" unicode="&#x133;" horiz-adv-x="1057" 
d="M152 0v1022h251v-1022h-251zM130 1327q0 61 43 104t104 43t104 -43t43 -104t-43 -104t-104 -43t-104 43t-43 104zM308 -485l69 191q73 -29 141 -29q28 0 49.5 9.5t36 23.5t24.5 40t15 49t8 61t3.5 66t0.5 74v1022h251v-1022q0 -112 -9 -191t-32.5 -147t-64.5 -108.5
t-106 -63t-156 -22.5q-131 0 -230 47zM633 1327q0 61 43 104t104 43t104 -43t43 -104t-43 -104t-104 -43t-104 43t-43 104z" />
    <glyph glyph-name="Jcircumflex" unicode="&#x134;" horiz-adv-x="1201" 
d="M90 294l248 72q66 -170 234 -170q124 0 175.5 61.5t51.5 196.5v980h270v-980q0 -484 -487 -484q-401 0 -492 324zM1010 1827l281 -291h-208l-146 129l-146 -129h-208l281 291h146z" />
    <glyph glyph-name="jcircumflex" unicode="&#x135;" horiz-adv-x="701" 
d="M440 1434l281 -291h-208l-146 129l-146 -129h-208l281 291h146zM-110 -485l69 191q73 -29 141 -29q28 0 49.5 9.5t36 23.5t24.5 40t15 49t8 61t3.5 66t0.5 74v1022h251v-1022q0 -112 -9 -191t-32.5 -147t-64.5 -108.5t-106 -63t-156 -22.5q-131 0 -230 47z" />
    <glyph glyph-name="Kcommaaccent" unicode="&#x136;" horiz-adv-x="1484" 
d="M420 839l636 595h348l-667 -623l687 -811h-328l-542 640l-134 -125v-515h-270v1434h270v-595zM447 -532l151 402h269l-189 -402h-231z" />
    <glyph glyph-name="kcommaaccent" unicode="&#x137;" horiz-adv-x="1190" 
d="M381 625l437 397h332l-477 -433l477 -589h-306l-347 429l-116 -104v-325h-251v1516h251v-891zM304 -532l151 402h269l-189 -402h-231z" />
    <glyph glyph-name="kgreenlandic" unicode="&#x138;" horiz-adv-x="1190" 
d="M381 625l437 397h332l-477 -433l477 -589h-306l-347 429l-116 -104v-325h-251v1022h251v-397z" />
    <glyph glyph-name="Lacute" unicode="&#x139;" horiz-adv-x="1233" 
d="M420 1434v-1208h703v-226h-973v1434h270zM175 1536l251 310h283l-314 -310h-220z" />
    <glyph glyph-name="lacute" unicode="&#x13a;" horiz-adv-x="538" 
d="M130 360v1156h251v-1152q0 -41 1 -61t6.5 -46t19 -37t35.5 -11h33v-209h-129q-40 0 -71.5 8t-54 26t-38.5 36.5t-26 50t-15.5 54t-8 62t-3 61t-0.5 62.5zM144 1596l251 310h283l-314 -310h-220z" />
    <glyph glyph-name="Lcommaaccent" unicode="&#x13b;" horiz-adv-x="1233" 
d="M420 1434v-1208h703v-226h-973v1434h270zM372 -532l151 402h269l-189 -402h-231z" />
    <glyph glyph-name="lcommaaccent" unicode="&#x13c;" horiz-adv-x="648" 
d="M212 360v1156h251v-1152q0 -41 1 -61t6.5 -46t19 -37t35.5 -11h33v-209h-129q-40 0 -71.5 8t-54 26t-38.5 36.5t-26 50t-15.5 54t-8 62t-3 61t-0.5 62.5zM130 -532l151 402h269l-189 -402h-231z" />
    <glyph glyph-name="Lcaron" unicode="&#x13d;" horiz-adv-x="1233" 
d="M420 1434v-1208h703v-226h-973v1434h270zM482 972l91 462h269l-129 -462h-231z" />
    <glyph glyph-name="lcaron" unicode="&#x13e;" horiz-adv-x="699" 
d="M130 360v1156h251v-1152q0 -41 1 -61t6.5 -46t19 -37t35.5 -11h33v-209h-129q-40 0 -71.5 8t-54 26t-38.5 36.5t-26 50t-15.5 54t-8 62t-3 61t-0.5 62.5zM429 1054l91 462h269l-129 -462h-231z" />
    <glyph glyph-name="Ldot" unicode="&#x13f;" horiz-adv-x="1233" 
d="M420 1434v-1208h703v-226h-973v1434h270zM705 746q0 62 43.5 105.5t104.5 43.5t105 -43.5t44 -105.5q0 -61 -43.5 -104.5t-105.5 -43.5q-61 0 -104.5 43t-43.5 105z" />
    <glyph glyph-name="ldot" unicode="&#x140;" horiz-adv-x="811" 
d="M130 360v1156h251v-1152q0 -41 1 -61t6.5 -46t19 -37t35.5 -11h33v-209h-129q-40 0 -71.5 8t-54 26t-38.5 36.5t-26 50t-15.5 54t-8 62t-3 61t-0.5 62.5zM504 802q0 62 43.5 105.5t104.5 43.5q62 0 105.5 -43.5t43.5 -105.5q0 -61 -43.5 -104.5t-105.5 -43.5t-105 43
t-43 105z" />
    <glyph glyph-name="Lslash" unicode="&#x141;" horiz-adv-x="1356" 
d="M543 687v-461h703v-226h-973v533l-213 -122v263l213 122v638h270v-484l213 122v-263z" />
    <glyph glyph-name="lslash" unicode="&#x142;" horiz-adv-x="716" 
d="M40 439v273l193 139v665h251v-485l192 139v-273l-192 -139v-394q0 -41 1 -61t6.5 -46t19 -37t35.5 -11h33v-209h-129q-40 0 -71.5 8t-54 26t-38.5 36.5t-26 50t-15.5 54t-8 62t-3 61t-0.5 62.5v218z" />
    <glyph glyph-name="Nacute" unicode="&#x143;" horiz-adv-x="1557" 
d="M150 0v1434h344l643 -1059v1059h270v-1434h-344l-643 1059v-1059h-270zM650 1536l251 310h283l-314 -310h-220z" />
    <glyph glyph-name="nacute" unicode="&#x144;" 
d="M381 547v-547h-251v1022h251v-156q21 60 70.5 101.5t104.5 58t113 16.5q215 0 336.5 -127.5t121.5 -367.5v-547h-251v547q0 135 -63 210.5t-184 75.5q-122 0 -185 -75.5t-63 -210.5zM510 1124l251 310h283l-314 -310h-220z" />
    <glyph glyph-name="Ncommaaccent" unicode="&#x145;" horiz-adv-x="1557" 
d="M150 0v1434h344l643 -1059v1059h270v-1434h-344l-643 1059v-1059h-270zM496 -532l151 402h269l-189 -402h-231z" />
    <glyph glyph-name="ncommaaccent" unicode="&#x146;" 
d="M381 547v-547h-251v1022h251v-156q21 60 70.5 101.5t104.5 58t113 16.5q215 0 336.5 -127.5t121.5 -367.5v-547h-251v547q0 135 -63 210.5t-184 75.5q-122 0 -185 -75.5t-63 -210.5zM346 -532l151 402h269l-189 -402h-231z" />
    <glyph glyph-name="Ncaron" unicode="&#x147;" horiz-adv-x="1557" 
d="M150 0v1434h344l643 -1059v1059h270v-1434h-344l-643 1059v-1059h-270zM1132 1827l-281 -291h-146l-281 291h208l146 -129l146 129h208z" />
    <glyph glyph-name="ncaron" unicode="&#x148;" 
d="M381 547v-547h-251v1022h251v-156q21 60 70.5 101.5t104.5 58t113 16.5q215 0 336.5 -127.5t121.5 -367.5v-547h-251v547q0 135 -63 210.5t-184 75.5q-122 0 -185 -75.5t-63 -210.5zM982 1434l-281 -291h-146l-281 291h208l146 -129l146 129h208z" />
    <glyph glyph-name="napostrophe" unicode="&#x149;" horiz-adv-x="1528" 
d="M652 547v-547h-251v1022h251v-156q21 60 70.5 101.5t104.5 58t113 16.5q215 0 336.5 -127.5t121.5 -367.5v-547h-251v547q0 135 -63 210.5t-184 75.5q-122 0 -185 -75.5t-63 -210.5zM130 1032l151 402h269l-189 -402h-231z" />
    <glyph glyph-name="Eng" unicode="&#x14a;" horiz-adv-x="1557" 
d="M548 -333l188 137q87 -110 214 -110q57 0 95.5 20.5t57.5 58.5t26.5 80.5t7.5 98.5v48h-74l-643 1059v-1059h-270v1434h344l643 -1059v1059h270v-1482q0 -239 -114.5 -361.5t-332.5 -122.5q-142 0 -242 47t-170 152z" />
    <glyph glyph-name="eng" unicode="&#x14b;" 
d="M529 -485l69 191q73 -29 141 -29q28 0 49.5 9.5t36 23.5t24.5 40t15 49t8 61t3.5 66t0.5 74v587q0 111 -66.5 178.5t-180.5 67.5q-115 0 -181.5 -67.5t-66.5 -178.5v-587h-251v1022h251v-156q21 60 70.5 101.5t104.5 58t113 16.5q203 0 330.5 -120t127.5 -335v-587
q0 -112 -9 -191t-32.5 -147t-64.5 -108.5t-106 -63t-156 -22.5q-131 0 -230 47z" />
    <glyph glyph-name="Omacron" unicode="&#x14c;" horiz-adv-x="1744" 
d="M872 -30q-181 0 -326 56t-240 155.5t-145.5 236t-50.5 299.5q0 162 50.5 298.5t145.5 236.5t240 156t326 56t326 -56t240 -156t145.5 -236.5t50.5 -298.5q0 -163 -50.5 -299.5t-145.5 -236t-240 -155.5t-326 -56zM872 196q239 0 363.5 143t124.5 378t-124.5 378
t-363.5 143t-363.5 -143t-124.5 -378t124.5 -378t363.5 -143zM484 1536v189h794v-189h-794z" />
    <glyph glyph-name="omacron" unicode="&#x14d;" horiz-adv-x="1320" 
d="M1230 511q0 -231 -156.5 -381t-413.5 -150t-413.5 150.5t-156.5 380.5t156.5 380.5t413.5 150.5t413.5 -150t156.5 -381zM973 511q0 65 -18.5 121.5t-55.5 102t-98.5 72t-140.5 26.5t-140.5 -26.5t-98.5 -72t-55.5 -102t-18.5 -121.5t18.5 -121.5t55.5 -102t98.5 -72
t140.5 -26.5t140.5 26.5t98.5 72t55.5 102t18.5 121.5zM263 1245v189h794v-189h-794z" />
    <glyph glyph-name="Obreve" unicode="&#x14e;" horiz-adv-x="1744" 
d="M872 -30q-181 0 -326 56t-240 155.5t-145.5 236t-50.5 299.5q0 162 50.5 298.5t145.5 236.5t240 156t326 56t326 -56t240 -156t145.5 -236.5t50.5 -298.5q0 -163 -50.5 -299.5t-145.5 -236t-240 -155.5t-326 -56zM872 196q239 0 363.5 143t124.5 378t-124.5 378
t-363.5 143t-363.5 -143t-124.5 -378t124.5 -378t363.5 -143zM881 1536q-84 0 -153 24.5t-111 64t-66.5 79t-33.5 78.5h182q53 -92 182 -92t182 92h182q-9 -39 -33.5 -78.5t-66.5 -79t-111 -64t-153 -24.5z" />
    <glyph glyph-name="obreve" unicode="&#x14f;" horiz-adv-x="1320" 
d="M1230 511q0 -231 -156.5 -381t-413.5 -150t-413.5 150.5t-156.5 380.5t156.5 380.5t413.5 150.5t413.5 -150t156.5 -381zM973 511q0 65 -18.5 121.5t-55.5 102t-98.5 72t-140.5 26.5t-140.5 -26.5t-98.5 -72t-55.5 -102t-18.5 -121.5t18.5 -121.5t55.5 -102t98.5 -72
t140.5 -26.5t140.5 26.5t98.5 72t55.5 102t18.5 121.5zM659 1188q-84 0 -153 24.5t-111 64t-66.5 79t-33.5 78.5h182q53 -92 182 -92t182 92h182q-9 -39 -33.5 -78.5t-66.5 -79t-111 -64t-153 -24.5z" />
    <glyph glyph-name="Ohungarumlaut" unicode="&#x150;" horiz-adv-x="1744" 
d="M872 -30q-181 0 -326 56t-240 155.5t-145.5 236t-50.5 299.5q0 162 50.5 298.5t145.5 236.5t240 156t326 56t326 -56t240 -156t145.5 -236.5t50.5 -298.5q0 -163 -50.5 -299.5t-145.5 -236t-240 -155.5t-326 -56zM872 196q239 0 363.5 143t124.5 378t-124.5 378
t-363.5 143t-363.5 -143t-124.5 -378t124.5 -378t363.5 -143zM607 1536l91 342h249l-149 -342h-191zM931 1536l91 342h249l-149 -342h-191z" />
    <glyph glyph-name="ohungarumlaut" unicode="&#x151;" horiz-adv-x="1320" 
d="M1230 511q0 -231 -156.5 -381t-413.5 -150t-413.5 150.5t-156.5 380.5t156.5 380.5t413.5 150.5t413.5 -150t156.5 -381zM973 511q0 65 -18.5 121.5t-55.5 102t-98.5 72t-140.5 26.5t-140.5 -26.5t-98.5 -72t-55.5 -102t-18.5 -121.5t18.5 -121.5t55.5 -102t98.5 -72
t140.5 -26.5t140.5 26.5t98.5 72t55.5 102t18.5 121.5zM405 1174l91 342h249l-149 -342h-191zM729 1174l91 342h249l-149 -342h-191z" />
    <glyph glyph-name="OE" unicode="&#x152;" horiz-adv-x="2233" 
d="M1096 1434h1017v-226h-747v-364h713v-226h-713v-392h757v-226h-1026q-117 -30 -245 -30q-181 0 -326 56t-240 155.5t-145.5 236t-50.5 299.5q0 162 50.5 298.5t145.5 236.5t240 156t326 56q127 0 244 -30zM852 1238q-239 0 -363.5 -143t-124.5 -378t124.5 -378
t363.5 -143q138 0 244 52v937q-104 53 -244 53z" />
    <glyph glyph-name="oe" unicode="&#x153;" horiz-adv-x="2145" 
d="M1513 189q192 1 318 107l152 -151q-166 -165 -470 -165q-272 0 -419 171q-160 -171 -434 -171q-257 0 -413.5 150.5t-156.5 380.5t156.5 380.5t413.5 150.5q273 0 434 -171q147 171 419 171q267 0 411 -163.5t129 -465.5h-809q0 -24 8 -51.5t28 -58.5t49.5 -56
t77.5 -41.5t106 -16.5zM973 511q0 65 -18.5 121.5t-55.5 102t-98.5 72t-140.5 26.5t-140.5 -26.5t-98.5 -72t-55.5 -102t-18.5 -121.5t18.5 -121.5t55.5 -102t98.5 -72t140.5 -26.5t140.5 26.5t98.5 72t55.5 102t18.5 121.5zM1244 610h538q0 31 -14 66.5t-42.5 72t-84 60.5
t-128.5 24t-128.5 -24t-84 -60.5t-42.5 -72t-14 -66.5z" />
    <glyph glyph-name="Racute" unicode="&#x154;" horiz-adv-x="1407" 
d="M420 0h-270v1434h607q270 0 404 -119t134 -333q0 -326 -330 -416l332 -566h-303l-310 530h-264v-530zM757 1208h-337v-452h337q141 0 203.5 53.5t62.5 172.5t-62.5 172.5t-203.5 53.5zM533 1536l251 310h283l-314 -310h-220z" />
    <glyph glyph-name="racute" unicode="&#x155;" horiz-adv-x="940" 
d="M884 1001l-116 -201q-54 33 -139 33q-248 0 -248 -286v-547h-251v1022h251v-156q21 60 70.5 101.5t104.5 58t113 16.5q124 0 215 -41zM366 1124l251 310h283l-314 -310h-220z" />
    <glyph glyph-name="Rcommaaccent" unicode="&#x156;" horiz-adv-x="1407" 
d="M420 0h-270v1434h607q270 0 404 -119t134 -333q0 -326 -330 -416l332 -566h-303l-310 530h-264v-530zM757 1208h-337v-452h337q141 0 203.5 53.5t62.5 172.5t-62.5 172.5t-203.5 53.5zM378 -532l151 402h269l-189 -402h-231z" />
    <glyph glyph-name="rcommaaccent" unicode="&#x157;" horiz-adv-x="958" 
d="M918 1001l-116 -201q-54 33 -139 33q-248 0 -248 -286v-547h-251v1022h251v-156q21 60 70.5 101.5t104.5 58t113 16.5q124 0 215 -41zM10 -532l151 402h269l-189 -402h-231z" />
    <glyph glyph-name="Rcaron" unicode="&#x158;" horiz-adv-x="1407" 
d="M420 0h-270v1434h607q270 0 404 -119t134 -333q0 -326 -330 -416l332 -566h-303l-310 530h-264v-530zM757 1208h-337v-452h337q141 0 203.5 53.5t62.5 172.5t-62.5 172.5t-203.5 53.5zM1010 1827l-281 -291h-146l-281 291h208l146 -129l146 129h208z" />
    <glyph glyph-name="rcaron" unicode="&#x159;" horiz-adv-x="924" 
d="M884 1001l-116 -201q-54 33 -139 33q-248 0 -248 -286v-547h-251v1022h251v-156q21 60 70.5 101.5t104.5 58t113 16.5q124 0 215 -41zM851 1434l-281 -291h-146l-281 291h208l146 -129l146 129h208z" />
    <glyph glyph-name="Sacute" unicode="&#x15a;" horiz-adv-x="1342" 
d="M1181 1331l-132 -189q-162 96 -382 96q-263 0 -263 -167q0 -85 71.5 -132.5t233.5 -82.5q277 -58 410 -169t133 -295q0 -110 -41 -192t-116 -132t-173.5 -74t-220.5 -24q-203 0 -348 40t-263 128l132 189q209 -131 479 -131q144 0 211.5 45.5t67.5 150.5q0 83 -75 138.5
t-245 90.5q-275 57 -401.5 170.5t-126.5 279.5q0 82 31.5 151.5t94.5 124.5t168 86t241 31q169 0 289 -31t225 -102zM562 1536l251 310h283l-314 -310h-220z" />
    <glyph glyph-name="sacute" unicode="&#x15b;" horiz-adv-x="1067" 
d="M948 941l-106 -181q-140 73 -312 73q-170 0 -170 -93q0 -46 50 -71.5t153 -45.5q89 -17 151 -34t119 -43t91 -60t53.5 -83t19.5 -113q0 -158 -117 -234t-328 -76q-140 0 -268.5 33t-213.5 87l106 181q81 -43 181 -67.5t195 -24.5q105 0 149 27.5t44 83.5q0 25 -13.5 42.5
t-46 29.5t-63.5 19.5t-87 17.5q-11 2 -17 3q-217 40 -313 117t-96 211q0 139 101 220.5t320 81.5q257 0 418 -101zM422 1124l251 310h283l-314 -310h-220z" />
    <glyph glyph-name="Scircumflex" unicode="&#x15c;" horiz-adv-x="1342" 
d="M1181 1331l-132 -189q-162 96 -382 96q-263 0 -263 -167q0 -85 71.5 -132.5t233.5 -82.5q277 -58 410 -169t133 -295q0 -110 -41 -192t-116 -132t-173.5 -74t-220.5 -24q-203 0 -348 40t-263 128l132 189q209 -131 479 -131q144 0 211.5 45.5t67.5 150.5q0 83 -75 138.5
t-245 90.5q-275 57 -401.5 170.5t-126.5 279.5q0 82 31.5 151.5t94.5 124.5t168 86t241 31q169 0 289 -31t225 -102zM742 1827l281 -291h-208l-146 129l-146 -129h-208l281 291h146z" />
    <glyph glyph-name="scircumflex" unicode="&#x15d;" horiz-adv-x="1067" 
d="M948 941l-106 -181q-140 73 -312 73q-170 0 -170 -93q0 -46 50 -71.5t153 -45.5q89 -17 151 -34t119 -43t91 -60t53.5 -83t19.5 -113q0 -158 -117 -234t-328 -76q-140 0 -268.5 33t-213.5 87l106 181q81 -43 181 -67.5t195 -24.5q105 0 149 27.5t44 83.5q0 25 -13.5 42.5
t-46 29.5t-63.5 19.5t-87 17.5q-11 2 -17 3q-217 40 -313 117t-96 211q0 139 101 220.5t320 81.5q257 0 418 -101zM609 1434l281 -291h-208l-146 129l-146 -129h-208l281 291h146z" />
    <glyph glyph-name="Scedilla" unicode="&#x15e;" horiz-adv-x="1342" 
d="M446 -459l46 117q33 -12 70 -19.5t83 -10.5t77.5 16t35.5 60q2 21 -5.5 35.5t-25.5 22t-39.5 11t-52.5 1.5t-59.5 -5t-65.5 -9l69 214q-299 20 -489 164l132 189q209 -131 479 -131q144 0 211.5 45.5t67.5 150.5q0 83 -75 138.5t-245 90.5q-275 57 -401.5 170.5
t-126.5 279.5q0 82 31.5 151.5t94.5 124.5t168 86t241 31q169 0 289 -31t225 -102l-132 -189q-162 96 -382 96q-263 0 -263 -167q0 -85 71.5 -132.5t233.5 -82.5q277 -58 410 -169t133 -295q0 -107 -38.5 -187.5t-109.5 -130.5t-165 -75.5t-210 -28.5l-27 -82
q60 -1 107 -17.5t78 -61t24 -112.5q-8 -78 -55 -126t-116 -61.5t-145.5 -5t-148.5 36.5z" />
    <glyph glyph-name="scedilla" unicode="&#x15f;" horiz-adv-x="1067" 
d="M312 -459l46 117q33 -12 70 -19.5t83 -10.5t77.5 16t35.5 60q2 21 -5.5 35.5t-25.5 22t-39.5 11t-52.5 1.5t-59.5 -5t-65.5 -9l72 225q-230 21 -378 115l106 181q81 -43 181 -67.5t195 -24.5q105 0 149 27.5t44 83.5q0 25 -13.5 42.5t-46 29.5t-63.5 19.5t-87 17.5
q-11 2 -17 3q-217 40 -313 117t-96 211q0 139 101 220.5t320 81.5q257 0 418 -101l-106 -181q-140 73 -312 73q-170 0 -170 -93q0 -46 50 -71.5t153 -45.5q89 -17 151 -34t119 -43t91 -60t53.5 -83t19.5 -113q0 -149 -104.5 -224.5t-293.5 -84.5l-31 -93q60 -1 107 -17.5
t78 -61t24 -112.5q-8 -78 -55 -126t-116 -61.5t-145.5 -5t-148.5 36.5z" />
    <glyph glyph-name="Scaron" unicode="&#x160;" horiz-adv-x="1342" 
d="M1181 1331l-132 -189q-162 96 -382 96q-263 0 -263 -167q0 -85 71.5 -132.5t233.5 -82.5q277 -58 410 -169t133 -295q0 -110 -41 -192t-116 -132t-173.5 -74t-220.5 -24q-203 0 -348 40t-263 128l132 189q209 -131 479 -131q144 0 211.5 45.5t67.5 150.5q0 83 -75 138.5
t-245 90.5q-275 57 -401.5 170.5t-126.5 279.5q0 82 31.5 151.5t94.5 124.5t168 86t241 31q169 0 289 -31t225 -102zM1022 1827l-281 -291h-146l-281 291h208l146 -129l146 129h208z" />
    <glyph glyph-name="scaron" unicode="&#x161;" horiz-adv-x="1067" 
d="M948 941l-106 -181q-140 73 -312 73q-170 0 -170 -93q0 -46 50 -71.5t153 -45.5q89 -17 151 -34t119 -43t91 -60t53.5 -83t19.5 -113q0 -158 -117 -234t-328 -76q-140 0 -268.5 33t-213.5 87l106 181q81 -43 181 -67.5t195 -24.5q105 0 149 27.5t44 83.5q0 25 -13.5 42.5
t-46 29.5t-63.5 19.5t-87 17.5q-11 2 -17 3q-217 40 -313 117t-96 211q0 139 101 220.5t320 81.5q257 0 418 -101zM887 1434l-281 -291h-146l-281 291h208l146 -129l146 129h208z" />
    <glyph glyph-name="Tcommaaccent" unicode="&#x162;" horiz-adv-x="1428" 
d="M90 1434h1248v-226h-489v-1208h-270v1208h-489v226zM427 -532l151 402h269l-189 -402h-231z" />
    <glyph glyph-name="tcommaaccent" unicode="&#x163;" horiz-adv-x="928" 
d="M70 813v209h197v299h251v-299h292v-209h-292v-362q0 -53 2.5 -88t11 -71t24 -56.5t43 -33.5t66.5 -13q75 0 137 29l56 -193q-102 -45 -233 -45q-106 0 -177 30t-110.5 93.5t-55 145.5t-15.5 202v362h-197zM293 -532l151 402h269l-189 -402h-231z" />
    <glyph glyph-name="Tcaron" unicode="&#x164;" horiz-adv-x="1428" 
d="M90 1434h1248v-226h-489v-1208h-270v1208h-489v226zM1068 1827l-281 -291h-146l-281 291h208l146 -129l146 129h208z" />
    <glyph glyph-name="tcaron" unicode="&#x165;" horiz-adv-x="1080" 
d="M70 813v209h197v299h251v-299h292v-209h-292v-362q0 -53 2.5 -88t11 -71t24 -56.5t43 -33.5t66.5 -13q75 0 137 29l56 -193q-102 -45 -233 -45q-106 0 -177 30t-110.5 93.5t-55 145.5t-15.5 202v362h-197zM810 1054l91 462h269l-129 -462h-231z" />
    <glyph glyph-name="Tbar" unicode="&#x166;" horiz-adv-x="1428" 
d="M270 734v226h309v248h-489v226h1248v-226h-489v-248h309v-226h-309v-734h-270v734h-309z" />
    <glyph glyph-name="tbar" unicode="&#x167;" horiz-adv-x="928" 
d="M70 452v209h197v152h-197v209h197v299h251v-299h292v-209h-292v-152h292v-209h-292v-1q0 -53 2.5 -88t11 -71t24 -56.5t43 -33.5t66.5 -13q75 0 137 29l56 -193q-102 -45 -233 -45q-106 0 -177 30t-110.5 93.5t-55 145.5t-15.5 202v1h-197z" />
    <glyph glyph-name="Utilde" unicode="&#x168;" horiz-adv-x="1555" 
d="M777 196q193 0 275.5 111.5t82.5 323.5v803h270v-803q0 -317 -154.5 -489t-473.5 -172q-318 0 -472.5 172t-154.5 489v803h270v-803q0 -212 82 -323.5t275 -111.5zM739 1600q-50 36 -73 36q-25 0 -39 -19.5t-15 -38.5l-1 -20h-185v14t4 35t11.5 49.5t25 52t41 49.5
t63.5 35t90 14q75 0 155 -64q50 -36 73 -36q25 0 39 19.5t15 39.5l1 19h185v-14t-4 -35t-11.5 -49.5t-25 -52t-41 -49.5t-63.5 -35t-90 -14q-75 0 -155 64z" />
    <glyph glyph-name="utilde" unicode="&#x169;" 
d="M876 475v547h251v-1022h-251v156q-21 -60 -70.5 -101.5t-104.5 -58t-113 -16.5q-215 0 -336.5 127.5t-121.5 367.5v547h251v-547q0 -135 63 -210.5t184 -75.5q122 0 185 75.5t63 210.5zM590 1247q-50 36 -73 36q-25 0 -39 -19.5t-15 -39.5l-1 -19h-185v14t4 35t11.5 49.5
t25 52t41 49.5t63.5 35t90 14q75 0 155 -64q50 -36 73 -36q25 0 39 19.5t15 38.5l1 20h185v-14t-4 -35t-11.5 -49.5t-25 -52t-41 -49.5t-63.5 -35t-90 -14q-75 0 -155 64z" />
    <glyph glyph-name="Umacron" unicode="&#x16a;" horiz-adv-x="1555" 
d="M777 196q193 0 275.5 111.5t82.5 323.5v803h270v-803q0 -317 -154.5 -489t-473.5 -172q-318 0 -472.5 172t-154.5 489v803h270v-803q0 -212 82 -323.5t275 -111.5zM380 1536v189h794v-189h-794z" />
    <glyph glyph-name="umacron" unicode="&#x16b;" 
d="M876 475v547h251v-1022h-251v156q-21 -60 -70.5 -101.5t-104.5 -58t-113 -16.5q-215 0 -336.5 127.5t-121.5 367.5v547h251v-547q0 -135 63 -210.5t184 -75.5q122 0 185 75.5t63 210.5zM231 1245v189h794v-189h-794z" />
    <glyph glyph-name="Ubreve" unicode="&#x16c;" horiz-adv-x="1555" 
d="M777 196q193 0 275.5 111.5t82.5 323.5v803h270v-803q0 -317 -154.5 -489t-473.5 -172q-318 0 -472.5 172t-154.5 489v803h270v-803q0 -212 82 -323.5t275 -111.5zM777 1536q-84 0 -153 24.5t-111 64t-66.5 79t-33.5 78.5h182q53 -92 182 -92t182 92h182
q-9 -39 -33.5 -78.5t-66.5 -79t-111 -64t-153 -24.5z" />
    <glyph glyph-name="ubreve" unicode="&#x16d;" 
d="M876 475v547h251v-1022h-251v156q-21 -60 -70.5 -101.5t-104.5 -58t-113 -16.5q-215 0 -336.5 127.5t-121.5 367.5v547h251v-547q0 -135 63 -210.5t184 -75.5q122 0 185 75.5t63 210.5zM628 1188q-84 0 -153 24.5t-111 64t-66.5 79t-33.5 78.5h182q53 -92 182 -92t182 92
h182q-9 -39 -33.5 -78.5t-66.5 -79t-111 -64t-153 -24.5z" />
    <glyph glyph-name="Uring" unicode="&#x16e;" horiz-adv-x="1555" 
d="M777 196q193 0 275.5 111.5t82.5 323.5v803h270v-803q0 -317 -154.5 -489t-473.5 -172q-318 0 -472.5 172t-154.5 489v803h270v-803q0 -212 82 -323.5t275 -111.5zM550 1763q0 94 66.5 160.5t160.5 66.5t160.5 -66.5t66.5 -160.5t-66.5 -160.5t-160.5 -66.5t-160.5 66.5
t-66.5 160.5zM699 1763q0 -32 23 -55t55 -23t55 23t23 55t-23 55t-55 23t-55 -23t-23 -55z" />
    <glyph glyph-name="uring" unicode="&#x16f;" 
d="M876 475v547h251v-1022h-251v156q-21 -60 -70.5 -101.5t-104.5 -58t-113 -16.5q-215 0 -336.5 127.5t-121.5 367.5v547h251v-547q0 -135 63 -210.5t184 -75.5q122 0 185 75.5t63 210.5zM401 1390q0 94 66.5 160.5t160.5 66.5t160.5 -66.5t66.5 -160.5t-66.5 -160.5
t-160.5 -66.5t-160.5 66.5t-66.5 160.5zM550 1390q0 -32 23 -55t55 -23t55 23t23 55t-23 55t-55 23t-55 -23t-23 -55z" />
    <glyph glyph-name="Uhungarumlaut" unicode="&#x170;" horiz-adv-x="1555" 
d="M777 196q193 0 275.5 111.5t82.5 323.5v803h270v-803q0 -317 -154.5 -489t-473.5 -172q-318 0 -472.5 172t-154.5 489v803h270v-803q0 -212 82 -323.5t275 -111.5zM493 1536l91 342h249l-149 -342h-191zM817 1536l91 342h249l-149 -342h-191z" />
    <glyph glyph-name="uhungarumlaut" unicode="&#x171;" 
d="M876 475v547h251v-1022h-251v156q-21 -60 -70.5 -101.5t-104.5 -58t-113 -16.5q-215 0 -336.5 127.5t-121.5 367.5v547h251v-547q0 -135 63 -210.5t184 -75.5q122 0 185 75.5t63 210.5zM363 1174l91 342h249l-149 -342h-191zM687 1174l91 342h249l-149 -342h-191z" />
    <glyph glyph-name="Uogonek" unicode="&#x172;" horiz-adv-x="1555" 
d="M777 196q193 0 275.5 111.5t82.5 323.5v803h270v-803q0 -275 -117 -442t-358 -207q-85 -46 -85 -123q0 -31 18.5 -53.5t45.5 -33t54 -16.5t45 -6l19 -1v-207q-41 -3 -86.5 0t-99.5 18t-96 41.5t-70.5 76t-28.5 115.5q0 114 90 178q-297 12 -441.5 183t-144.5 477v803h270
v-803q0 -212 82 -323.5t275 -111.5z" />
    <glyph glyph-name="uogonek" unicode="&#x173;" horiz-adv-x="1309" 
d="M1127 1022v-1022q-5 -1 -14 -4t-31.5 -15t-39.5 -26.5t-31 -40t-14 -55.5q0 -31 18.5 -53.5t45.5 -33t54 -16.5t45 -6l19 -1v-207q-41 -3 -86.5 0t-99.5 18t-96 41.5t-70.5 76t-28.5 115.5q0 45 15 82.5t34 59t42.5 37.5t35 21t18.5 7h-67v156q-21 -60 -70.5 -101.5
t-104.5 -58t-113 -16.5q-215 0 -336.5 127.5t-121.5 367.5v547h251v-547q0 -135 63 -210.5t184 -75.5q122 0 185 75.5t63 210.5v547h251z" />
    <glyph glyph-name="Wcircumflex" unicode="&#x174;" horiz-adv-x="2086" 
d="M630 452l266 982h294l266 -982l279 982h291l-441 -1434h-260l-282 1062l-282 -1062h-260l-441 1434h291zM1116 1827l281 -291h-208l-146 129l-146 -129h-208l281 291h146z" />
    <glyph glyph-name="wcircumflex" unicode="&#x175;" horiz-adv-x="1632" 
d="M997 0l-181 671l-181 -671h-266l-329 1022h265l193 -701l191 701h254l191 -701l193 701h265l-329 -1022h-266zM889 1434l281 -291h-208l-146 129l-146 -129h-208l281 291h146z" />
    <glyph glyph-name="Ycircumflex" unicode="&#x176;" horiz-adv-x="1484" 
d="M352 1434l390 -606l390 606h292l-547 -837v-597h-270v598l-547 836h292zM815 1827l281 -291h-208l-146 129l-146 -129h-208l281 291h146z" />
    <glyph glyph-name="ycircumflex" unicode="&#x177;" horiz-adv-x="1197" 
d="M477 0l-437 1022h267l291 -727l292 727h267l-565 -1317q-14 -29 -20 -41.5t-19.5 -38t-23 -38t-25.5 -32.5t-31 -30t-36.5 -23t-44.5 -19t-52.5 -10.5t-63.5 -4.5q-56 0 -114.5 14t-97.5 35l85 188q60 -28 110 -28q14 0 25.5 1.5t22 6.5t18 8.5t15.5 14t12.5 14.5t12 19
l10 20t11 24t11.5 24zM671 1434l281 -291h-208l-146 129l-146 -129h-208l281 291h146z" />
    <glyph glyph-name="Ydieresis" unicode="&#x178;" horiz-adv-x="1484" 
d="M352 1434l390 -606l390 606h292l-547 -837v-597h-270v598l-547 836h292zM373 1683q0 61 43 104t104 43t104 -43t43 -104t-43 -104t-104 -43t-104 43t-43 104zM817 1683q0 61 43 104t104 43t104 -43t43 -104t-43 -104t-104 -43t-104 43t-43 104z" />
    <glyph glyph-name="Zacute" unicode="&#x179;" horiz-adv-x="1417" 
d="M510 226h777v-226h-1157v134l777 1074h-735v226h1115v-134zM590 1536l251 310h283l-314 -310h-220z" />
    <glyph glyph-name="zacute" unicode="&#x17a;" horiz-adv-x="1142" 
d="M110 0v125l545 688h-513v209h890v-125l-545 -688h545v-209h-922zM439 1124l251 310h283l-314 -310h-220z" />
    <glyph glyph-name="Zdotaccent" unicode="&#x17b;" horiz-adv-x="1417" 
d="M510 226h777v-226h-1157v134l777 1074h-735v226h1115v-134zM561 1703q0 61 43 104t104 43t104 -43t43 -104t-43 -104t-104 -43t-104 43t-43 104z" />
    <glyph glyph-name="zdotaccent" unicode="&#x17c;" horiz-adv-x="1142" 
d="M110 0v125l545 688h-513v209h890v-125l-545 -688h545v-209h-922zM424 1327q0 61 43 104t104 43t104 -43t43 -104t-43 -104t-104 -43t-104 43t-43 104z" />
    <glyph glyph-name="Zcaron" unicode="&#x17d;" horiz-adv-x="1417" 
d="M510 226h777v-226h-1157v134l777 1074h-735v226h1115v-134zM1062 1827l-281 -291h-146l-281 291h208l146 -129l146 129h208z" />
    <glyph glyph-name="zcaron" unicode="&#x17e;" horiz-adv-x="1142" 
d="M110 0v125l545 688h-513v209h890v-125l-545 -688h545v-209h-922zM925 1434l-281 -291h-146l-281 291h208l146 -129l146 129h208z" />
    <glyph glyph-name="longs" unicode="&#x17f;" horiz-adv-x="783" 
d="M526 1327q-21 0 -39 -3t-31.5 -11.5t-24 -16t-18.5 -24.5t-13.5 -28t-8.5 -35.5t-5 -39t-3 -45.5t-1.5 -48t-0.5 -54v-1022h-251v1022q1 105 11.5 182.5t36 142.5t68 105t107 62t153.5 22q124 0 237 -35l-72 -194q-73 20 -145 20z" />
    <glyph glyph-name="uni0180" unicode="&#x180;" horiz-adv-x="1422" 
d="M230 1341v175h251v-175h282v-200h-282v-290q45 91 145.5 141t203.5 50q154 0 269.5 -70t174 -189.5t58.5 -271.5t-58.5 -271.5t-174 -189.5t-269.5 -70q-103 0 -203.5 50t-145.5 141v-171h-251v1141h-190v200h190zM778 190q149 0 223 92t74 229t-74 229t-223 92t-223 -92
t-74 -229t74 -229t223 -92z" />
    <glyph glyph-name="uni0181" unicode="&#x181;" horiz-adv-x="1833" 
d="M1184 0h-672v1208h-63q-17 0 -34 -6t-38 -22.5t-34 -55.5t-13 -96h-270q0 83 18 150t43.5 108.5t66 71.5t72.5 44t76 22t64 9t49 1h735q133 0 231 -29t154 -81t82.5 -118t26.5 -147q0 -65 -21.5 -120t-56.5 -91.5t-73 -60.5t-77 -36q126 -32 199.5 -116.5t73.5 -219.5
q0 -89 -32 -163.5t-95.5 -131.5t-168.5 -88.5t-243 -31.5zM782 226h402q148 0 208 50t60 149q0 98 -62.5 149t-205.5 51h-402v-399zM782 852h402q223 0 223 178t-223 178h-402v-356z" />
    <glyph glyph-name="uni0182" unicode="&#x182;" horiz-adv-x="1310" 
d="M150 1434h927v-226h-657v-344h314q237 0 351.5 -117t114.5 -315q0 -197 -114.5 -314.5t-351.5 -117.5h-584v1434zM420 226h314q196 0 196 206t-196 206h-314v-412z" />
    <glyph glyph-name="uni0183" unicode="&#x183;" horiz-adv-x="1362" 
d="M150 0v1434h924v-210h-673v-373q45 91 145.5 141t203.5 50q154 0 269.5 -70t174 -189.5t58.5 -271.5t-58.5 -271.5t-174 -189.5t-269.5 -70q-103 0 -203.5 50t-145.5 141v-171h-251zM698 832q-149 0 -223 -92t-74 -229t74 -229t223 -92t223 92t74 229t-74 229t-223 92z
" />
    <glyph glyph-name="uni0184" unicode="&#x184;" horiz-adv-x="1406" 
d="M307 1434h202v-535h351q219 0 337.5 -120t118.5 -330t-118.5 -329.5t-337.5 -119.5h-621v1034h-229zM509 226h351q88 0 137 64t49 159t-49 159t-137 64h-351v-446z" />
    <glyph glyph-name="uni0185" unicode="&#x185;" horiz-adv-x="1431" 
d="M239 0v1116h-229l297 400h183v-665q45 91 145.5 141t203.5 50q154 0 269.5 -70t174 -189.5t58.5 -271.5t-58.5 -271.5t-174 -189.5t-269.5 -70q-103 0 -203.5 50t-145.5 141v-171h-251zM787 190q149 0 223 92t74 229t-74 229t-223 92t-223 -92t-74 -229t74 -229t223 -92z
" />
    <glyph glyph-name="uni0186" unicode="&#x186;" horiz-adv-x="1496" 
d="M1112 717q0 235 -124.5 378t-363.5 143q-230 0 -405 -118l-129 178q192 166 534 166q181 0 326 -56t240 -155.5t145.5 -236t50.5 -299.5t-50.5 -299.5t-145.5 -236t-240 -155.5t-326 -56q-342 0 -534 166l129 178q175 -118 405 -118q239 0 363.5 143t124.5 378z" />
    <glyph glyph-name="uni0187" unicode="&#x187;" horiz-adv-x="1535" 
d="M384 717q0 -235 124.5 -378t363.5 -143q230 0 405 118l129 -178q-192 -166 -534 -166q-181 0 -326 56t-240 155.5t-145.5 236t-50.5 299.5q0 162 50.5 298.5t145 236t239.5 156t326 56.5q156 0 269 -44q0 51 6.5 94t26.5 88.5t52 76.5t88.5 51t131.5 20v-228
q-3 0 -9 -0.5t-20 -4.5t-25 -11.5t-20 -23.5t-9 -38v-366q-219 160 -490 160q-239 0 -363.5 -143t-124.5 -378z" />
    <glyph glyph-name="uni0188" unicode="&#x188;" horiz-adv-x="1212" 
d="M347 511q0 -65 18.5 -121.5t55.5 -102t98.5 -72t140.5 -26.5q168 0 294 99l128 -161q-148 -147 -422 -147q-257 0 -413.5 150.5t-156.5 380.5t156.5 380.5t413.5 150.5q86 0 155 -16q0 62 17 112.5t53.5 92.5t102 65.5t154.5 23.5v-244q-4 0 -10.5 -0.5t-24 -6t-30.5 -16
t-23.5 -33.5t-10.5 -54v-240q-177 107 -383 107q-79 0 -140.5 -26.5t-98.5 -72t-55.5 -102t-18.5 -121.5z" />
    <glyph glyph-name="uni0189" unicode="&#x189;" horiz-adv-x="1670" 
d="M60 604v226h228v604h565q176 0 313 -55t222 -153t128.5 -226.5t43.5 -282.5t-43.5 -283t-128.5 -226.5t-222 -152.5t-313 -55h-565v604h-228zM558 604v-378h295q112 0 198 40t136 109.5t75 155.5t25 186t-25 186t-75 155.5t-136 109.5t-198 40h-295v-378h302v-226h-302z
" />
    <glyph glyph-name="uni018A" unicode="&#x18a;" horiz-adv-x="1894" 
d="M1784 717q0 -154 -43.5 -283t-128.5 -226.5t-222 -152.5t-313 -55h-565v1208h-63q-17 0 -34 -6t-38 -22.5t-34 -55.5t-13 -96h-270q0 83 18 150t43.5 108.5t66 71.5t72.5 44t76 22t64 9t49 1h628q176 0 313 -55t222 -153t128.5 -226.5t43.5 -282.5zM782 1208v-982h295
q112 0 198 40t136 109.5t75 155.5t25 186t-25 186t-75 155.5t-136 109.5t-198 40h-295z" />
    <glyph glyph-name="uni018B" unicode="&#x18b;" horiz-adv-x="1270" 
d="M213 1434h927v-1434h-584q-237 0 -351.5 117.5t-114.5 314.5q0 198 114.5 315t351.5 117h314v344h-657v226zM556 226h314v412h-314q-196 0 -196 -206t196 -206z" />
    <glyph glyph-name="uni018C" unicode="&#x18c;" horiz-adv-x="1322" 
d="M1192 1434v-1434h-251v171q-45 -91 -145.5 -141t-203.5 -50q-154 0 -269.5 70t-174 189.5t-58.5 271.5t58.5 271.5t174 189.5t269.5 70q103 0 203.5 -50t145.5 -141v373h-673v210h924zM644 832q-149 0 -223 -92t-74 -229t74 -229t223 -92t223 92t74 229t-74 229t-223 92z
" />
    <glyph glyph-name="uni018D" unicode="&#x18d;" horiz-adv-x="1320" 
d="M1230 511q0 -214 -135.5 -359.5t-362.5 -167.5l358 -349v-167h-861v209h483l-459 447q-163 176 -163 387q0 230 156.5 380.5t413.5 150.5t413.5 -150t156.5 -381zM973 511q0 133 -85 227.5t-228 94.5t-228 -94.5t-85 -227.5t85 -227.5t228 -94.5t228 94.5t85 227.5z" />
    <glyph glyph-name="uni018E" unicode="&#x18e;" horiz-adv-x="1267" 
d="M154 844h713v364h-747v226h1017v-1434h-1027v226h757v392h-713v226z" />
    <glyph glyph-name="uni018F" unicode="&#x18f;" horiz-adv-x="1595" 
d="M799 1238q-157 0 -278 -46.5t-195 -104.5l-132 188q46 37 91.5 64t119 59t174 49t220.5 17q222 0 378.5 -97.5t232 -264t75.5 -385.5t-75.5 -385.5t-232 -264t-378.5 -97.5q-340 0 -523.5 223t-163.5 640h1084q-12 194 -113 299.5t-284 105.5zM1196 606h-795
q5 -188 105 -299t293 -111q192 0 292 111t105 299z" />
    <glyph glyph-name="uni0190" unicode="&#x190;" horiz-adv-x="1260" 
d="M989 332l181 -137q-22 -30 -45.5 -54.5t-68.5 -56.5t-98 -53t-134 -36t-177 -15q-116 0 -215.5 27t-176.5 79t-121 137.5t-44 194.5q0 130 72.5 218t176.5 127q-89 38 -152 117.5t-63 184.5q0 179 144.5 284t378.5 105q104 0 193.5 -24t149 -62t93.5 -68.5t57 -60.5
l-181 -137q-37 44 -117 85t-195 41q-123 0 -188 -42.5t-65 -120.5q0 -41 13 -72.5t32.5 -52.5t54.5 -35.5t65.5 -22t80 -11.5t84 -5t90.5 -1v-227q-76 0 -126 -2t-107.5 -9t-93 -22t-67 -38.5t-46 -61t-14.5 -87.5q0 -106 76 -159t211 -53q130 0 209.5 34t132.5 92z" />
    <glyph glyph-name="uni0191" unicode="&#x191;" horiz-adv-x="1333" 
d="M456 844h713v-226h-713v-769v-34t-3.5 -45t-10 -55t-21 -56t-35 -58.5t-53.5 -50.5t-74 -43.5t-100 -27.5t-129 -11v227q33 0 58.5 6t42 14t27.5 23t16.5 25.5t8.5 29.5t3 26.5v24.5v1590h1017v-226h-747v-364z" />
    <glyph glyph-name="florin" unicode="&#x192;" horiz-adv-x="1162" 
d="M695 795l-190 -1007q-6 -30 -11 -50.5t-19 -57t-30 -62t-45.5 -56t-65 -49.5t-88 -32t-115.5 -13h-211l31 226h186q26 0 46 9t30.5 17.5t19.5 30t10.5 27.5t6.5 30q1 6 2 8l183 979h-235l43 227h237l17 92q6 30 11 50.5t19 57t30 62t45.5 56t65 49.5t88 32t115.5 13h211
l-31 -226h-186q-26 0 -46 -9t-30.5 -17.5t-19.5 -30t-10.5 -27.5t-6.5 -30q-1 -6 -2 -8l-12 -64h243l-43 -227h-243z" />
    <glyph glyph-name="uni0193" unicode="&#x193;" horiz-adv-x="1635" 
d="M872 -30q-181 0 -326 56t-240 155.5t-145.5 236t-50.5 299.5q0 162 50.5 298.5t145.5 236.5t240 156t326 56q197 0 355 -56q50 311 378 311v-227q-32 0 -56.5 -7.5t-40.5 -18t-27 -29.5t-16.5 -33t-8.5 -38.5t-3 -36.5v-36v-11l-131 -174q-194 130 -450 130
q-239 0 -363.5 -143t-124.5 -378t124.5 -378t363.5 -143q100 0 190.5 19t140.5 52v329h-311v226h565v-683q-102 -92 -259 -130.5t-326 -38.5z" />
    <glyph glyph-name="uni0194" unicode="&#x194;" horiz-adv-x="1558" 
d="M779 -532q-49 0 -92 14.5t-79.5 44.5t-58 83.5t-21.5 124.5q0 146 117 265l-585 1434h270l449 -1158l449 1158h270l-585 -1434q117 -119 117 -265q0 -71 -21.5 -124.5t-58 -83.5t-79.5 -44.5t-92 -14.5zM779 -346q54 0 54 81q0 73 -54 124q-54 -51 -54 -124q0 -81 54 -81
z" />
    <glyph glyph-name="uni0195" unicode="&#x195;" horiz-adv-x="1982" 
d="M1364 -20q-236 0 -362 126.5t-126 368.5v72q0 135 -63 210.5t-184 75.5q-122 0 -185 -75.5t-63 -210.5v-547h-251v1516h251v-650q21 60 70.5 101.5t104.5 58t113 16.5q215 0 336.5 -127.5t121.5 -367.5v-72q0 -136 58.5 -211t178.5 -75t178.5 75t58.5 211v547h251v-547
q0 -242 -126 -368.5t-362 -126.5z" />
    <glyph glyph-name="uni0196" unicode="&#x196;" horiz-adv-x="645" 
d="M160 360v1074h270v-1070q0 -33 1 -50t6.5 -41.5t19 -35.5t35.5 -11h33v-226h-129q-62 0 -107.5 23t-69.5 56t-38 85t-17.5 95t-3.5 101z" />
    <glyph glyph-name="uni0197" unicode="&#x197;" horiz-adv-x="944" 
d="M337 875v559h270v-559h217v-228h-217v-647h-270v647h-217v228h217z" />
    <glyph glyph-name="uni0198" unicode="&#x198;" horiz-adv-x="1484" 
d="M420 839l636 595h348l-667 -623l687 -811h-328l-542 640l-134 -125v-515h-270v1083q0 181 97 266t309 85v-226q-37 0 -63.5 -8.5t-40 -20.5t-21.5 -30.5t-9.5 -31.5t-1.5 -30v-248z" />
    <glyph glyph-name="uni0199" unicode="&#x199;" horiz-adv-x="1190" 
d="M728 1489l-69 -191q-73 29 -141 29q-28 0 -49.5 -9.5t-36 -23.5t-24.5 -40t-15 -49t-8 -61t-3.5 -66t-0.5 -74v-379l437 397h332l-477 -433l477 -589h-306l-347 429l-116 -104v-325h-251v1004q0 112 9 191t32.5 147t64.5 108.5t106 63t156 22.5q131 0 230 -47z" />
    <glyph glyph-name="uni019A" unicode="&#x19a;" horiz-adv-x="711" 
d="M40 756v209h190v551h251v-551h190v-209h-190v-392q0 -41 1 -61t6.5 -46t19 -37t35.5 -11h33v-209h-129q-40 0 -71.5 8t-54 26t-38.5 36.5t-26 50t-15.5 54t-8 62t-3 61t-0.5 62.5v396h-190z" />
    <glyph glyph-name="uni019B" unicode="&#x19b;" 
d="M70 0l437 1022l-23 53l-179 -99l-102 183l198 110q-20 39 -44.5 57.5t-67.5 18.5q-50 0 -110 -28l-85 188q39 21 97.5 35t114.5 14q63 0 110 -13t80 -39.5t54 -55t43 -70.5l186 103l102 -183l-202 -112l508 -1184h-267l-292 727l-291 -727h-267z" />
    <glyph glyph-name="uni019C" unicode="&#x19c;" horiz-adv-x="1894" 
d="M1744 1434v-1434h-269v71q-24 -48 -76 -74.5t-121 -26.5q-114 0 -198 52t-132 135q-43 -81 -129.5 -134t-202.5 -53q-206 0 -336 145.5t-130 399.5v919h270v-919q0 -162 46 -240.5t150 -78.5t150 78.5t46 240.5v919h270v-919q0 -162 46 -240.5t150 -78.5t150 78.5
t46 240.5v919h270z" />
    <glyph glyph-name="uni019D" unicode="&#x19d;" horiz-adv-x="1593" 
d="M186 1434h344l643 -1059v1059h270v-1434h-344l-643 1059v-1210v-34t-3.5 -45t-10 -55t-21 -56t-35 -58.5t-53.5 -50.5t-74 -43.5t-100 -27.5t-129 -11v227q33 0 58.5 6t42 14t27.5 23t16.5 25.5t8.5 29.5t3 26.5v24.5v1590z" />
    <glyph glyph-name="uni019E" unicode="&#x19e;" 
d="M381 547v-547h-251v1022h251v-156q21 60 70.5 101.5t104.5 58t113 16.5q215 0 336.5 -127.5t121.5 -367.5v-1079h-251v1079q0 135 -63 210.5t-184 75.5q-122 0 -185 -75.5t-63 -210.5z" />
    <glyph glyph-name="uni019F" unicode="&#x19f;" horiz-adv-x="1744" 
d="M872 -30q-181 0 -326 56t-240 155.5t-145.5 236t-50.5 299.5q0 162 50.5 298.5t145.5 236.5t240 156t326 56t326 -56t240 -156t145.5 -236.5t50.5 -298.5q0 -163 -50.5 -299.5t-145.5 -236t-240 -155.5t-326 -56zM872 1238q-209 0 -330.5 -110t-149.5 -298h960
q-28 188 -149.5 298t-330.5 110zM872 196q209 0 330.5 110t149.5 298h-960q28 -188 149.5 -298t330.5 -110z" />
    <glyph glyph-name="Ohorn" unicode="&#x1a0;" horiz-adv-x="1773" 
d="M872 -30q-181 0 -326 56t-240 155.5t-145.5 236t-50.5 299.5q0 162 50.5 298.5t145.5 236.5t240 156t326 56q197 0 353 -67q26 2 51 9.5t54 24.5t46.5 52t17.5 85h269q0 -247 -200 -344q171 -200 171 -507q0 -163 -50.5 -299.5t-145.5 -236t-240 -155.5t-326 -56z
M872 196q239 0 363.5 143t124.5 378t-124.5 378t-363.5 143t-363.5 -143t-124.5 -378t124.5 -378t363.5 -143z" />
    <glyph glyph-name="ohorn" unicode="&#x1a1;" horiz-adv-x="1364" 
d="M1230 511q0 -231 -156.5 -381t-413.5 -150t-413.5 150.5t-156.5 380.5t156.5 380.5t413.5 150.5q155 0 279 -59q65 10 99.5 53.5t34.5 135.5h251q0 -262 -188 -354q94 -131 94 -307zM973 511q0 65 -18.5 121.5t-55.5 102t-98.5 72t-140.5 26.5t-140.5 -26.5t-98.5 -72
t-55.5 -102t-18.5 -121.5t18.5 -121.5t55.5 -102t98.5 -72t140.5 -26.5t140.5 26.5t98.5 72t55.5 102t18.5 121.5z" />
    <glyph glyph-name="uni01A2" unicode="&#x1a2;" horiz-adv-x="2267" 
d="M852 -30q-181 0 -326 56t-240 155.5t-145.5 236t-50.5 299.5q0 162 50.5 298.5t145.5 236.5t240 156t326 56q302 0 499 -153q84 85 165.5 119t183.5 34q194 0 315.5 -125.5t121.5 -358.5v-980h-270v980q0 109 -46.5 183.5t-130.5 74.5q-52 0 -96.5 -21t-92.5 -72
q113 -182 113 -428q0 -163 -50.5 -299.5t-145.5 -236t-240 -155.5t-326 -56zM852 196q239 0 363.5 143t124.5 378t-124.5 378t-363.5 143t-363.5 -143t-124.5 -378t124.5 -378t363.5 -143z" />
    <glyph glyph-name="uni01A3" unicode="&#x1a3;" horiz-adv-x="1853" 
d="M1230 511q0 -231 -156.5 -381t-413.5 -150t-413.5 150.5t-156.5 380.5t156.5 380.5t413.5 150.5q185 0 324 -83q135 83 331 83q213 0 310.5 -129.5t97.5 -402.5v-1042h-251v1042q0 145 -42 234t-135 89q-72 0 -144 -36q79 -125 79 -286zM973 511q0 65 -18.5 121.5
t-55.5 102t-98.5 72t-140.5 26.5t-140.5 -26.5t-98.5 -72t-55.5 -102t-18.5 -121.5t18.5 -121.5t55.5 -102t98.5 -72t140.5 -26.5t140.5 26.5t98.5 72t55.5 102t18.5 121.5z" />
    <glyph glyph-name="uni01A4" unicode="&#x1a4;" horiz-adv-x="1811" 
d="M782 0h-270v1208h-63q-17 0 -34 -6t-38 -22.5t-34 -55.5t-13 -96h-270q0 83 18 150t43.5 108.5t66 71.5t72.5 44t76 22t64 9t49 1h699q253 0 393 -124t140 -356t-140 -356t-393 -124h-366v-474zM1148 1208h-366v-508h366q261 0 261 254t-261 254z" />
    <glyph glyph-name="uni01A5" unicode="&#x1a5;" horiz-adv-x="1364" 
d="M130 -532v1554h251v-171q45 91 145.5 141t203.5 50q97 0 185 -30q16 52 42 95.5t67.5 84.5t105.5 64.5t144 23.5v-236q-45 0 -78.5 -17t-50.5 -44.5t-25.5 -53t-10.5 -51.5q123 -145 123 -367q0 -152 -58.5 -271.5t-174 -189.5t-269.5 -70q-103 0 -203.5 50t-145.5 141
v-703h-251zM678 190q149 0 223 92t74 229t-74 229t-223 92t-223 -92t-74 -229t74 -229t223 -92z" />
    <glyph glyph-name="uni01A6" unicode="&#x1a6;" horiz-adv-x="1407" 
d="M420 0h-270v1434h270v-186h337q270 0 404 -119t134 -333q0 -326 -330 -416l332 -566h-303l-310 530h-264v-344zM757 1022h-337v-452h337q141 0 203.5 53.5t62.5 172.5t-62.5 172.5t-203.5 53.5z" />
    <glyph glyph-name="uni01A7" unicode="&#x1a7;" horiz-adv-x="1302" 
d="M273 1142l-132 189q105 71 225 102t289 31q136 0 241 -31t168 -86t94.5 -124.5t31.5 -151.5q0 -166 -126.5 -279.5t-401.5 -170.5q-170 -35 -245 -90.5t-75 -138.5q0 -105 67.5 -150.5t211.5 -45.5q270 0 479 131l132 -189q-118 -88 -263 -128t-348 -40q-122 0 -220.5 24
t-173.5 74t-116 132t-41 192q0 184 133 295t410 169q162 35 233.5 82.5t71.5 132.5q0 167 -263 167q-220 0 -382 -96z" />
    <glyph glyph-name="uni01A8" unicode="&#x1a8;" horiz-adv-x="1067" 
d="M225 760l-106 181q161 101 418 101q219 0 320 -81.5t101 -220.5q0 -134 -96 -211t-313 -117q-137 -26 -173 -42q-54 -24 -54 -70q0 -56 44 -83.5t149 -27.5q95 0 195 24.5t181 67.5l106 -181q-85 -54 -213.5 -87t-268.5 -33q-211 0 -328 76t-117 234q0 64 19.5 113
t53.5 83t91 60t119 43t151 34q103 20 153 45.5t50 71.5q0 93 -170 93q-172 0 -312 -73z" />
    <glyph glyph-name="uni01A9" unicode="&#x1a9;" horiz-adv-x="1331" 
d="M158 1434h1043v-226h-657l338 -490l-339 -492h658v-226h-1051v134l416 584l-408 584v132z" />
    <glyph glyph-name="uni01AA" unicode="&#x1aa;" horiz-adv-x="694" 
d="M258 360v760q-73 15 -120.5 72.5t-47.5 133.5q0 88 61 149t148 61q88 0 149 -61t61 -149v-962q0 -41 1 -61t6.5 -46t19 -37t35.5 -11h33v-209h-129q-40 0 -71.5 8t-54 26t-38.5 36.5t-26 50t-15.5 54t-8 62t-3 61t-0.5 62.5zM245 1326q0 -22 15.5 -38t38.5 -16t38.5 16
t15.5 38t-15.5 38t-38.5 16t-38.5 -16t-15.5 -38z" />
    <glyph glyph-name="uni01AB" unicode="&#x1ab;" horiz-adv-x="929" 
d="M70 813v209h197v299h251v-299h292v-209h-292v-362q0 -53 2.5 -88t11 -71t24 -56.5t43 -33.5t66.5 -13q97 0 194 38v-271q0 -17 -1 -33.5t-9 -51.5t-22 -64t-44.5 -64t-71 -58.5t-106.5 -40t-148 -16.5v198q80 0 129.5 32.5t49.5 97.5v24q-110 0 -183.5 30t-113.5 93.5
t-56 145.5t-16 202v362h-197z" />
    <glyph glyph-name="uni01AC" unicode="&#x1ac;" horiz-adv-x="1428" 
d="M489 1434h849v-226h-489v-1208h-270v1208h-90q-129 0 -129 -200h-270q0 88 18.5 157.5t45 113.5t68 75.5t74.5 46.5t78 23t65.5 9t49.5 1z" />
    <glyph glyph-name="uni01AD" unicode="&#x1ad;" horiz-adv-x="928" 
d="M70 813v209h197q0 32 1 55t9 70t22 80.5t44 75t71 68t107 45t148 18.5v-248q-36 0 -63.5 -7.5t-43.5 -22.5t-25.5 -29t-13 -37t-4.5 -35t-1 -33h292v-209h-292v-362q0 -53 2.5 -88t11 -71t24 -56.5t43 -33.5t66.5 -13q75 0 137 29l56 -193q-102 -45 -233 -45
q-106 0 -177 30t-110.5 93.5t-55 145.5t-15.5 202v362h-197z" />
    <glyph glyph-name="uni01AE" unicode="&#x1ae;" horiz-adv-x="1428" 
d="M90 1434h1248v-226h-489v-1208q0 -28 1 -42.5t9 -41t24 -40.5t49 -25.5t80 -11.5v-226q-70 0 -129 10t-100.5 25.5t-75 41t-54.5 48.5t-36 56t-22 56t-11 56.5t-4.5 49t-0.5 41.5v3v1208h-489v226z" />
    <glyph glyph-name="Uhorn" unicode="&#x1af;" horiz-adv-x="1615" 
d="M777 196q193 0 275.5 111.5t82.5 323.5v803h162q15 0 24.5 1t29.5 9.5t32 24t22 48.5t10 80h270q0 -306 -280 -387v-579q0 -317 -154.5 -489t-473.5 -172q-318 0 -472.5 172t-154.5 489v803h270v-803q0 -212 82 -323.5t275 -111.5z" />
    <glyph glyph-name="uhorn" unicode="&#x1b0;" horiz-adv-x="1496" 
d="M876 475v547h251q14 0 23.5 1t30 8.5t33 22t23 45.5t10.5 74h239q0 -80 -24.5 -142.5t-61.5 -98.5t-87 -59t-94.5 -31t-91.5 -8v-834h-251v156q-21 -60 -70.5 -101.5t-104.5 -58t-113 -16.5q-215 0 -336.5 127.5t-121.5 367.5v547h251v-547q0 -135 63 -210.5t184 -75.5
q122 0 185 75.5t63 210.5z" />
    <glyph glyph-name="uni01B1" unicode="&#x1b1;" horiz-adv-x="1776" 
d="M888 -30q-170 0 -310 48.5t-233.5 135t-144 205.5t-50.5 260q0 191 118.5 356.5t291.5 232.5h-364v226h623v-206q-184 -95 -291.5 -249.5t-107.5 -339.5q0 -206 121 -324.5t347 -118.5t347 118.5t121 324.5q0 185 -107.5 339.5t-291.5 249.5v206h623v-226h-364
q173 -67 291.5 -232.5t118.5 -356.5q0 -141 -50.5 -260t-144 -205.5t-233.5 -135t-310 -48.5z" />
    <glyph glyph-name="uni01B2" unicode="&#x1b2;" horiz-adv-x="1268" 
d="M347 1434l391 -997q110 262 158.5 412.5t48.5 237.5q0 46 -33.5 66.5t-100.5 20.5v260q193 0 295 -92t102 -256q0 -146 -88 -393.5t-290 -692.5h-196l-574 1434h287z" />
    <glyph glyph-name="uni01B3" unicode="&#x1b3;" horiz-adv-x="1482" 
d="M742 828l228 355q53 84 73 108q95 114 274 137q49 6 105 6v-270q-61 0 -102.5 -8t-71 -28.5t-44 -37t-40.5 -53.5l-287 -439v-598h-270v597l-547 837h292z" />
    <glyph glyph-name="uni01B4" unicode="&#x1b4;" horiz-adv-x="1229" 
d="M598 295l177 445q60 155 152 218.5t262 63.5v-229q-42 0 -74 -9t-51 -26.5t-29.5 -32t-19.5 -35.5l-423 -985q-14 -29 -20 -41.5t-19.5 -38t-23 -38t-25.5 -32.5t-31 -30t-36.5 -23t-44.5 -19t-52.5 -10.5t-63.5 -4.5q-56 0 -114.5 14t-97.5 35l85 188q60 -28 110 -28
q14 0 25.5 1.5t22 6.5t18 8.5t15.5 14t12.5 14.5t12 19l10 20t11 24t11.5 24l80 191l-437 1022h267z" />
    <glyph glyph-name="uni01B5" unicode="&#x1b5;" horiz-adv-x="1417" 
d="M510 226h777v-226h-1157v134l349 483h-175v225h338l265 366h-735v226h1115v-134l-332 -458h178v-225h-340z" />
    <glyph glyph-name="uni01B6" unicode="&#x1b6;" horiz-adv-x="1142" 
d="M110 0v125l233 295h-121v209h287l146 184h-513v209h890v-125l-213 -268h120v-209h-285l-167 -211h545v-209h-922z" />
    <glyph glyph-name="uni01B7" unicode="&#x1b7;" horiz-adv-x="1283" 
d="M110 222l164 163q122 -189 357 -189q144 0 208 68.5t64 200.5q0 127 -103 191.5t-325 64.5v186l274 300h-570v227h919v-190l-310 -341q385 -87 385 -438q0 -232 -137 -363.5t-405 -131.5q-200 0 -328 70t-193 182z" />
    <glyph glyph-name="uni01B8" unicode="&#x1b8;" horiz-adv-x="1243" 
d="M989 385l164 -163q-41 -49 -80.5 -85.5t-103.5 -78.5t-150 -65t-187 -23q-134 0 -238.5 37.5t-170 104.5t-99.5 156.5t-34 196.5q0 351 385 438l-310 341v190h919v-227h-570l274 -300v-186q-222 0 -325 -64.5t-103 -191.5q0 -128 69.5 -198.5t202.5 -70.5q63 0 118 16
t99 45.5t75 58.5t65 69z" />
    <glyph glyph-name="uni01B9" unicode="&#x1b9;" horiz-adv-x="1209" 
d="M1003 -191l116 -173q-52 -67 -172 -117.5t-296 -50.5q-165 0 -290 54t-198 166.5t-73 271.5q0 96 27 174.5t70 131t102.5 92t118.5 60.5t124 33l-363 426v145h882v-209h-552l324 -379v-156q-255 0 -368.5 -75.5t-113.5 -242.5q0 -133 77 -208t233 -75q233 0 352 132z" />
    <glyph glyph-name="uni01BA" unicode="&#x1ba;" horiz-adv-x="1141" 
d="M490 -392q-126 0 -126 -79q0 -97 175 -97q80 0 145 20v-209q-66 -20 -145 -20q-192 0 -298.5 81.5t-106.5 227.5q0 132 92 208.5t264 76.5q158 0 234 50t76 173q0 66 -20 112t-56 74.5t-98.5 44.5t-133 21.5t-174.5 5.5v156l324 359h-552v209h882v-145l-363 -406
q48 -10 82.5 -18t84 -25t84.5 -37.5t73.5 -53.5t62.5 -73t39.5 -97.5t15.5 -126.5q0 -93 -28.5 -166.5t-78 -123t-121 -81.5t-154 -46.5t-179.5 -14.5z" />
    <glyph glyph-name="uni01BB" unicode="&#x1bb;" horiz-adv-x="1276" 
d="M276 552v226h445l23 24q65 68 95 126.5t30 121.5q0 87 -58 137.5t-167 50.5q-50 0 -94.5 -18.5t-72 -41t-53 -59t-35.5 -55.5t-22 -46l-237 83q15 48 40 94t69 96t98.5 87.5t134.5 61.5t172 24q227 0 360.5 -110.5t133.5 -303.5q0 -139 -86 -272h94v-226h-289l-311 -327
h600v-225h-1012v162q200 210 372 390h-230z" />
    <glyph glyph-name="uni01BC" unicode="&#x1bc;" horiz-adv-x="1398" 
d="M289 1208h-179v226h1072v-226h-627l-19 -287q75 20 207 20q145 0 251.5 -35t170 -100.5t93.5 -151t30 -193.5q0 -82 -18.5 -153t-60 -134t-103.5 -107.5t-154.5 -70.5t-208.5 -26q-184 0 -318 46t-212 127l157 172q67 -53 163.5 -86t209.5 -33q136 0 205.5 72t69.5 193
q0 254 -275 254q-119 0 -242 -26.5t-187 -52.5l-64 -27z" />
    <glyph glyph-name="uni01BD" unicode="&#x1bd;" horiz-adv-x="1026" 
d="M890 1022v-209h-453l-11 -153q38 11 96 11q217 0 325.5 -89t108.5 -254q0 -160 -110 -254t-324 -94q-136 0 -238.5 35.5t-153.5 77.5l117 177q110 -81 275 -81q78 0 130.5 32t52.5 107q0 34 -11 59.5t-27.5 39.5t-42 22t-49 10.5t-53.5 2.5q-87 0 -176 -17t-134 -35
l-46 -17l31 420h-127v209h820z" />
    <glyph glyph-name="uni01BE" unicode="&#x1be;" horiz-adv-x="1179" 
d="M90 236l211 117q105 -167 286 -167q113 0 172.5 52t59.5 128q0 238 -399 244v190h-201v156h201v66h270v-66h201v-156h-201v-35q399 -60 399 -399q0 -85 -29.5 -157t-89 -128.5t-157.5 -88.5t-226 -32q-100 0 -184.5 24t-144.5 65t-100.5 87.5t-67.5 99.5z" />
    <glyph glyph-name="uni01BF" unicode="&#x1bf;" horiz-adv-x="1132" 
d="M130 -532v1554h251v-99q30 52 95 85.5t136 33.5q197 0 313.5 -122.5t116.5 -323.5q0 -114 -40.5 -209.5t-106 -160t-154 -113t-177.5 -75t-183 -38.5v-532h-251zM592 832q-47 0 -83 -13t-66 -43.5t-46 -87t-16 -138.5v-381q108 18 199.5 73t151 148.5t59.5 205.5
q0 45 -9 83.5t-29.5 74.5t-61.5 57t-99 21z" />
    <glyph glyph-name="uni01C0" unicode="&#x1c0;" horiz-adv-x="530" 
d="M130 0v1434h270v-1434h-270z" />
    <glyph glyph-name="uni01C1" unicode="&#x1c1;" horiz-adv-x="952" 
d="M552 0v1434h270v-1434h-270zM130 0v1434h270v-1434h-270z" />
    <glyph glyph-name="uni01C2" unicode="&#x1c2;" horiz-adv-x="1056" 
d="M110 424v227h283v144h-283v227h283v412h270v-412h283v-227h-283v-144h283v-227h-283v-424h-270v424h-283z" />
    <glyph glyph-name="uni01C3" unicode="&#x1c3;" horiz-adv-x="557" 
d="M163 402l-20 1032h270l-20 -1032h-230zM130 138q0 62 43.5 105.5t104.5 43.5q62 0 105.5 -43.5t43.5 -105.5q0 -61 -43.5 -104.5t-105.5 -43.5t-105 43t-43 105z" />
    <glyph glyph-name="uni01C4" unicode="&#x1c4;" horiz-adv-x="2717" 
d="M1402 717q0 -154 -43.5 -283t-128.5 -226.5t-222 -152.5t-313 -55h-565v1434h565q176 0 313 -55t222 -153t128.5 -226.5t43.5 -282.5zM400 1208v-982h295q112 0 198 40t136 109.5t75 155.5t25 186t-25 186t-75 155.5t-136 109.5t-198 40h-295zM1830 226h777v-226h-1157
v134l777 1074h-735v226h1115v-134zM2382 1827l-281 -291h-146l-281 291h208l146 -129l146 129h208z" />
    <glyph glyph-name="uni01C5" unicode="&#x1c5;" horiz-adv-x="2507" 
d="M1402 717q0 -154 -43.5 -283t-128.5 -226.5t-222 -152.5t-313 -55h-565v1434h565q176 0 313 -55t222 -153t128.5 -226.5t43.5 -282.5zM400 1208v-982h295q112 0 198 40t136 109.5t75 155.5t25 186t-25 186t-75 155.5t-136 109.5t-198 40h-295zM1475 0v125l545 688h-513
v209h890v-125l-545 -688h545v-209h-922zM2290 1434l-281 -291h-146l-281 291h208l146 -129l146 129h208z" />
    <glyph glyph-name="uni01C6" unicode="&#x1c6;" horiz-adv-x="2360" 
d="M1192 1516v-1516h-251v171q-45 -91 -145.5 -141t-203.5 -50q-154 0 -269.5 70t-174 189.5t-58.5 271.5t58.5 271.5t174 189.5t269.5 70q103 0 203.5 -50t145.5 -141v665h251zM644 190q149 0 223 92t74 229t-74 229t-223 92t-223 -92t-74 -229t74 -229t223 -92zM1328 0
v125l545 688h-513v209h890v-125l-545 -688h545v-209h-922zM2143 1434l-281 -291h-146l-281 291h208l146 -129l146 129h208z" />
    <glyph glyph-name="uni01C7" unicode="&#x1c7;" horiz-adv-x="2272" 
d="M400 1434v-1208h703v-226h-973v1434h270zM1163 294l248 72q66 -170 234 -170q124 0 175.5 61.5t51.5 196.5v980h270v-980q0 -484 -487 -484q-401 0 -492 324z" />
    <glyph glyph-name="uni01C8" unicode="&#x1c8;" horiz-adv-x="1716" 
d="M400 1434v-1208h703v-226h-973v1434h270zM967 -485l69 191q72 -29 141 -29q28 0 49.5 9.5t36 23.5t24.5 40t15 49t8 61t3.5 66t0.5 74v1022h251v-1022q0 -112 -9 -191t-32.5 -147t-64.5 -108.5t-106 -63t-156 -22.5q-131 0 -230 47zM1292 1327q0 61 43 104t104 43
t104 -43t43 -104t-43 -104t-104 -43t-104 43t-43 104z" />
    <glyph glyph-name="uni01C9" unicode="&#x1c9;" horiz-adv-x="1042" 
d="M130 360v1156h251v-1152q0 -41 1 -61t6.5 -46t19 -37t35.5 -11h33v-209h-129q-40 0 -71.5 8t-54 26t-38.5 36.5t-26 50t-15.5 54t-8 62t-3 61t-0.5 62.5zM293 -485l69 191q72 -29 141 -29q28 0 49.5 9.5t36 23.5t24.5 40t15 49t8 61t3.5 66t0.5 74v1022h251v-1022
q0 -112 -9 -191t-32.5 -147t-64.5 -108.5t-106 -63t-156 -22.5q-131 0 -230 47zM618 1327q0 61 43 104t104 43t104 -43t43 -104t-43 -104t-104 -43t-104 43t-43 104z" />
    <glyph glyph-name="uni01CA" unicode="&#x1ca;" horiz-adv-x="2630" 
d="M150 0v1434h344l643 -1059v1059h270v-1434h-344l-643 1059v-1059h-270zM1501 294l248 72q66 -170 234 -170q124 0 175.5 61.5t51.5 196.5v980h270v-980q0 -484 -487 -484q-401 0 -492 324z" />
    <glyph glyph-name="uni01CB" unicode="&#x1cb;" horiz-adv-x="2124" 
d="M150 0v1434h344l643 -1059v1059h270v-1434h-344l-643 1059v-1059h-270zM1355 -485l69 191q72 -29 141 -29q28 0 49.5 9.5t36 23.5t24.5 40t15 49t8 61t3.5 66t0.5 74v1022h251v-1022q0 -112 -9 -191t-32.5 -147t-64.5 -108.5t-106 -63t-156 -22.5q-131 0 -230 47z
M1680 1327q0 61 43 104t104 43t104 -43t43 -104t-43 -104t-104 -43t-104 43t-43 104z" />
    <glyph glyph-name="uni01CC" unicode="&#x1cc;" horiz-adv-x="1795" 
d="M381 547v-547h-251v1022h251v-156q21 60 70.5 101.5t104.5 58t113 16.5q215 0 336.5 -127.5t121.5 -367.5v-547h-251v547q0 135 -63 210.5t-184 75.5q-122 0 -185 -75.5t-63 -210.5zM1046 -485l69 191q73 -29 141 -29q28 0 49.5 9.5t36 23.5t24.5 40t15 49t8 61t3.5 66
t0.5 74v1022h251v-1022q0 -112 -9 -191t-32.5 -147t-64.5 -108.5t-106 -63t-156 -22.5q-131 0 -230 47zM1371 1327q0 61 43 104t104 43t104 -43t43 -104t-43 -104t-104 -43t-104 43t-43 104z" />
    <glyph glyph-name="uni01CD" unicode="&#x1cd;" horiz-adv-x="1549" 
d="M477 334l-136 -334h-281l604 1434h221l604 -1434h-281l-137 334h-594zM774 1063l-205 -502h410zM1128 1827l-281 -291h-146l-281 291h208l146 -129l146 129h208z" />
    <glyph glyph-name="uni01CE" unicode="&#x1ce;" horiz-adv-x="1197" 
d="M613 833q-82 0 -173.5 -19.5t-165.5 -52.5l-95 179q178 102 434 102q135 0 223 -25.5t139 -84.5t71.5 -142t20.5 -210v-580h-251l-1 161q-77 -181 -331 -181q-177 0 -285.5 83.5t-108.5 253.5q0 76 28.5 137t79.5 101t120 68.5t149.5 39t169.5 13t179 -9.5
q0 96 -42.5 131.5t-160.5 35.5zM342 327q0 -138 182 -138q130 0 212 63.5t80 147.5v104q-43 0 -101.5 3t-124 -6.5t-120.5 -25.5t-91.5 -54.5t-36.5 -93.5zM962 1434l-281 -291h-146l-281 291h208l146 -129l146 129h208z" />
    <glyph glyph-name="uni01CF" unicode="&#x1cf;" horiz-adv-x="628" 
d="M178 0v1434h270v-1434h-270zM668 1827l-281 -291h-146l-281 291h208l146 -129l146 129h208z" />
    <glyph glyph-name="uni01D0" unicode="&#x1d0;" horiz-adv-x="568" 
d="M159 0v1022h251v-1022h-251zM638 1434l-281 -291h-146l-281 291h208l146 -129l146 129h208z" />
    <glyph glyph-name="uni01D1" unicode="&#x1d1;" horiz-adv-x="1744" 
d="M872 -30q-181 0 -326 56t-240 155.5t-145.5 236t-50.5 299.5q0 162 50.5 298.5t145.5 236.5t240 156t326 56t326 -56t240 -156t145.5 -236.5t50.5 -298.5q0 -163 -50.5 -299.5t-145.5 -236t-240 -155.5t-326 -56zM872 196q239 0 363.5 143t124.5 378t-124.5 378
t-363.5 143t-363.5 -143t-124.5 -378t124.5 -378t363.5 -143zM1235 1827l-281 -291h-146l-281 291h208l146 -129l146 129h208z" />
    <glyph glyph-name="uni01D2" unicode="&#x1d2;" horiz-adv-x="1320" 
d="M1230 511q0 -231 -156.5 -381t-413.5 -150t-413.5 150.5t-156.5 380.5t156.5 380.5t413.5 150.5t413.5 -150t156.5 -381zM973 511q0 65 -18.5 121.5t-55.5 102t-98.5 72t-140.5 26.5t-140.5 -26.5t-98.5 -72t-55.5 -102t-18.5 -121.5t18.5 -121.5t55.5 -102t98.5 -72
t140.5 -26.5t140.5 26.5t98.5 72t55.5 102t18.5 121.5zM1014 1434l-281 -291h-146l-281 291h208l146 -129l146 129h208z" />
    <glyph glyph-name="uni01D3" unicode="&#x1d3;" horiz-adv-x="1555" 
d="M777 196q193 0 275.5 111.5t82.5 323.5v803h270v-803q0 -317 -154.5 -489t-473.5 -172q-318 0 -472.5 172t-154.5 489v803h270v-803q0 -212 82 -323.5t275 -111.5zM1131 1827l-281 -291h-146l-281 291h208l146 -129l146 129h208z" />
    <glyph glyph-name="uni01D4" unicode="&#x1d4;" 
d="M876 475v547h251v-1022h-251v156q-21 -60 -70.5 -101.5t-104.5 -58t-113 -16.5q-215 0 -336.5 127.5t-121.5 367.5v547h251v-547q0 -135 63 -210.5t184 -75.5q122 0 185 75.5t63 210.5zM982 1434l-281 -291h-146l-281 291h208l146 -129l146 129h208z" />
    <glyph glyph-name="uni01D5" unicode="&#x1d5;" horiz-adv-x="1555" 
d="M777 196q193 0 275.5 111.5t82.5 323.5v803h270v-803q0 -317 -154.5 -489t-473.5 -172q-318 0 -472.5 172t-154.5 489v803h270v-803q0 -212 82 -323.5t275 -111.5zM407 1683q0 61 43 104t104 43t104 -43t43 -104t-43 -104t-104 -43t-104 43t-43 104zM851 1683
q0 61 43 104t104 43t104 -43t43 -104t-43 -104t-104 -43t-104 43t-43 104zM379 1892v189h794v-189h-794z" />
    <glyph glyph-name="uni01D6" unicode="&#x1d6;" 
d="M876 475v547h251v-1022h-251v156q-21 -60 -70.5 -101.5t-104.5 -58t-113 -16.5q-215 0 -336.5 127.5t-121.5 367.5v547h251v-547q0 -135 63 -210.5t184 -75.5q122 0 185 75.5t63 210.5zM259 1327q0 61 43 104t104 43t104 -43t43 -104t-43 -104t-104 -43t-104 43t-43 104z
M703 1327q0 61 43 104t104 43t104 -43t43 -104t-43 -104t-104 -43t-104 43t-43 104zM231 1536v189h794v-189h-794z" />
    <glyph glyph-name="uni01D7" unicode="&#x1d7;" horiz-adv-x="1555" 
d="M777 196q193 0 275.5 111.5t82.5 323.5v803h270v-803q0 -317 -154.5 -489t-473.5 -172q-318 0 -472.5 172t-154.5 489v803h270v-803q0 -212 82 -323.5t275 -111.5zM408 1683q0 61 43 104t104 43t104 -43t43 -104t-43 -104t-104 -43t-104 43t-43 104zM852 1683
q0 61 43 104t104 43t104 -43t43 -104t-43 -104t-104 -43t-104 43t-43 104zM653 1890l251 310h283l-314 -310h-220z" />
    <glyph glyph-name="uni01D8" unicode="&#x1d8;" 
d="M876 475v547h251v-1022h-251v156q-21 -60 -70.5 -101.5t-104.5 -58t-113 -16.5q-215 0 -336.5 127.5t-121.5 367.5v547h251v-547q0 -135 63 -210.5t184 -75.5q122 0 185 75.5t63 210.5zM260 1327q0 61 43 104t104 43t104 -43t43 -104t-43 -104t-104 -43t-104 43t-43 104z
M704 1327q0 61 43 104t104 43t104 -43t43 -104t-43 -104t-104 -43t-104 43t-43 104zM505 1534l251 310h283l-314 -310h-220z" />
    <glyph glyph-name="uni01D9" unicode="&#x1d9;" horiz-adv-x="1555" 
d="M777 196q193 0 275.5 111.5t82.5 323.5v803h270v-803q0 -317 -154.5 -489t-473.5 -172q-318 0 -472.5 172t-154.5 489v803h270v-803q0 -212 82 -323.5t275 -111.5zM408 1683q0 61 43 104t104 43t104 -43t43 -104t-43 -104t-104 -43t-104 43t-43 104zM852 1683
q0 61 43 104t104 43t104 -43t43 -104t-43 -104t-104 -43t-104 43t-43 104z" />
    <glyph glyph-name="uni01DA" unicode="&#x1da;" 
d="M876 475v547h251v-1022h-251v156q-21 -60 -70.5 -101.5t-104.5 -58t-113 -16.5q-215 0 -336.5 127.5t-121.5 367.5v547h251v-547q0 -135 63 -210.5t184 -75.5q122 0 185 75.5t63 210.5zM259 1327q0 61 43 104t104 43t104 -43t43 -104t-43 -104t-104 -43t-104 43t-43 104z
M703 1327q0 61 43 104t104 43t104 -43t43 -104t-43 -104t-104 -43t-104 43t-43 104z" />
    <glyph glyph-name="uni01DB" unicode="&#x1db;" horiz-adv-x="1555" 
d="M777 196q193 0 275.5 111.5t82.5 323.5v803h270v-803q0 -317 -154.5 -489t-473.5 -172q-318 0 -472.5 172t-154.5 489v803h270v-803q0 -212 82 -323.5t275 -111.5zM642 2200l251 -310h-220l-314 310h283zM408 1683q0 61 43 104t104 43t104 -43t43 -104t-43 -104t-104 -43
t-104 43t-43 104zM852 1683q0 61 43 104t104 43t104 -43t43 -104t-43 -104t-104 -43t-104 43t-43 104z" />
    <glyph glyph-name="uni01DC" unicode="&#x1dc;" 
d="M876 475v547h251v-1022h-251v156q-21 -60 -70.5 -101.5t-104.5 -58t-113 -16.5q-215 0 -336.5 127.5t-121.5 367.5v547h251v-547q0 -135 63 -210.5t184 -75.5q122 0 185 75.5t63 210.5zM493 1844l251 -310h-220l-314 310h283zM259 1327q0 61 43 104t104 43t104 -43
t43 -104t-43 -104t-104 -43t-104 43t-43 104zM703 1327q0 61 43 104t104 43t104 -43t43 -104t-43 -104t-104 -43t-104 43t-43 104z" />
    <glyph glyph-name="uni01DD" unicode="&#x1dd;" horiz-adv-x="1262" 
d="M632 833q-192 -1 -318 -107l-152 151q166 165 470 165q256 0 398 -148t142 -383q0 -153 -60.5 -271.5t-184.5 -189t-295 -70.5q-267 0 -411 163.5t-129 465.5h809q0 24 -8 51.5t-28 58.5t-49.5 56t-77.5 41.5t-106 16.5zM901 412h-538q0 -31 14 -66.5t42.5 -72t84 -60.5
t128.5 -24t128.5 24t84 60.5t42.5 72t14 66.5z" />
    <glyph glyph-name="uni01DE" unicode="&#x1de;" horiz-adv-x="1549" 
d="M477 334l-136 -334h-281l604 1434h221l604 -1434h-281l-137 334h-594zM774 1063l-205 -502h410zM405 1683q0 61 43 104t104 43t104 -43t43 -104t-43 -104t-104 -43t-104 43t-43 104zM849 1683q0 61 43 104t104 43t104 -43t43 -104t-43 -104t-104 -43t-104 43t-43 104z
M377 1892v189h794v-189h-794z" />
    <glyph glyph-name="uni01DF" unicode="&#x1df;" horiz-adv-x="1197" 
d="M613 833q-82 0 -173.5 -19.5t-165.5 -52.5l-95 179q178 102 434 102q135 0 223 -25.5t139 -84.5t71.5 -142t20.5 -210v-580h-251l-1 161q-77 -181 -331 -181q-177 0 -285.5 83.5t-108.5 253.5q0 76 28.5 137t79.5 101t120 68.5t149.5 39t169.5 13t179 -9.5
q0 96 -42.5 131.5t-160.5 35.5zM342 327q0 -138 182 -138q130 0 212 63.5t80 147.5v104q-43 0 -101.5 3t-124 -6.5t-120.5 -25.5t-91.5 -54.5t-36.5 -93.5zM254 1327q0 61 43 104t104 43t104 -43t43 -104t-43 -104t-104 -43t-104 43t-43 104zM698 1327q0 61 43 104t104 43
t104 -43t43 -104t-43 -104t-104 -43t-104 43t-43 104zM226 1536v189h794v-189h-794z" />
    <glyph glyph-name="uni01E0" unicode="&#x1e0;" horiz-adv-x="1549" 
d="M477 334l-136 -334h-281l604 1434h221l604 -1434h-281l-137 334h-594zM774 1063l-205 -502h410zM627 1683q0 61 43 104t104 43t104 -43t43 -104t-43 -104t-104 -43t-104 43t-43 104zM377 1892v189h794v-189h-794z" />
    <glyph glyph-name="uni01E1" unicode="&#x1e1;" horiz-adv-x="1197" 
d="M613 833q-82 0 -173.5 -19.5t-165.5 -52.5l-95 179q178 102 434 102q135 0 223 -25.5t139 -84.5t71.5 -142t20.5 -210v-580h-251l-1 161q-77 -181 -331 -181q-177 0 -285.5 83.5t-108.5 253.5q0 76 28.5 137t79.5 101t120 68.5t149.5 39t169.5 13t179 -9.5
q0 96 -42.5 131.5t-160.5 35.5zM342 327q0 -138 182 -138q130 0 212 63.5t80 147.5v104q-43 0 -101.5 3t-124 -6.5t-120.5 -25.5t-91.5 -54.5t-36.5 -93.5zM463 1327q0 61 43 104t104 43t104 -43t43 -104t-43 -104t-104 -43t-104 43t-43 104zM213 1536v189h794v-189h-794z
" />
    <glyph glyph-name="uni01E2" unicode="&#x1e2;" horiz-adv-x="2167" 
d="M1280 844h713v-226h-713v-392h757v-226h-1027v324h-426l-214 -324h-310l944 1434h1023v-226h-747v-364zM1010 971l-277 -420h277v420zM1002 1536v189h794v-189h-794z" />
    <glyph glyph-name="uni01E3" unicode="&#x1e3;" horiz-adv-x="1988" 
d="M613 833q-82 0 -173.5 -19.5t-165.5 -52.5l-95 179q178 102 434 102q276 0 373 -122q143 122 370 122q267 0 411 -163.5t129 -465.5h-809q0 -24 8 -51.5t28 -58.5t49.5 -56t77.5 -41.5t106 -16.5q192 1 318 107l152 -151q-166 -165 -470 -165q-266 0 -411 161
q-96 -91 -210 -126t-251 -35q-177 0 -285.5 83.5t-108.5 253.5q0 76 28.5 137t79.5 101t120 68.5t149.5 39t169.5 13t179 -9.5q0 96 -42.5 131.5t-160.5 35.5zM342 327q0 -138 182 -138q130 0 212 63.5t80 147.5v104q-43 0 -101.5 3t-124 -6.5t-120.5 -25.5t-91.5 -54.5
t-36.5 -93.5zM1087 610h538q0 31 -14 66.5t-42.5 72t-84 60.5t-128.5 24t-128.5 -24t-84 -60.5t-42.5 -72t-14 -66.5zM589 1245v189h794v-189h-794z" />
    <glyph glyph-name="uni01E4" unicode="&#x1e4;" horiz-adv-x="1702" 
d="M872 -30q-181 0 -326 56t-240 155.5t-145.5 236t-50.5 299.5q0 162 50.5 298.5t145.5 236.5t240 156t326 56q363 0 581 -182l-131 -174q-194 130 -450 130q-239 0 -363.5 -143t-124.5 -378t124.5 -378t363.5 -143q100 0 190.5 19t140.5 52v65h-311v186h311v78h-311v226
h565v-304h155v-186h-155v-193q-102 -92 -259 -130.5t-326 -38.5z" />
    <glyph glyph-name="uni01E5" unicode="&#x1e5;" horiz-adv-x="1343" 
d="M680 -234v170h258q3 30 3 64v171q-45 -91 -145.5 -141t-203.5 -50q-154 0 -269.5 70t-174 189.5t-58.5 271.5t58.5 271.5t174 189.5t269.5 70q103 0 203.5 -50t145.5 -141v171h251v-1022q0 -32 -3 -64h174v-170h-207q-108 -298 -530 -298q-144 0 -267 35.5t-209 97.5
l129 168q151 -91 347 -91q175 0 249 88h-195zM644 190q149 0 223 92t74 229t-74 229t-223 92t-223 -92t-74 -229t74 -229t223 -92z" />
    <glyph glyph-name="Gcaron" unicode="&#x1e6;" horiz-adv-x="1587" 
d="M872 -30q-181 0 -326 56t-240 155.5t-145.5 236t-50.5 299.5q0 162 50.5 298.5t145.5 236.5t240 156t326 56q363 0 581 -182l-131 -174q-194 130 -450 130q-239 0 -363.5 -143t-124.5 -378t124.5 -378t363.5 -143q100 0 190.5 19t140.5 52v329h-311v226h565v-683
q-102 -92 -259 -130.5t-326 -38.5zM1222 1827l-281 -291h-146l-281 291h208l146 -129l146 129h208z" />
    <glyph glyph-name="gcaron" unicode="&#x1e7;" horiz-adv-x="1322" 
d="M941 1022h251v-1022q0 -532 -566 -532q-144 0 -267 35.5t-209 97.5l129 168q151 -91 347 -91q154 0 234.5 71.5t80.5 250.5v171q-45 -91 -145.5 -141t-203.5 -50q-154 0 -269.5 70t-174 189.5t-58.5 271.5t58.5 271.5t174 189.5t269.5 70q103 0 203.5 -50t145.5 -141v171
zM644 190q149 0 223 92t74 229t-74 229t-223 92t-223 -92t-74 -229t74 -229t223 -92zM995 1434l-281 -291h-146l-281 291h208l146 -129l146 129h208z" />
    <glyph glyph-name="uni01E8" unicode="&#x1e8;" horiz-adv-x="1484" 
d="M420 839l636 595h348l-667 -623l687 -811h-328l-542 640l-134 -125v-515h-270v1434h270v-595zM1055 1827l-281 -291h-146l-281 291h208l146 -129l146 129h208z" />
    <glyph glyph-name="uni01E9" unicode="&#x1e9;" horiz-adv-x="1190" 
d="M381 625l437 397h332l-477 -433l477 -589h-306l-347 429l-116 -104v-325h-251v1516h251v-891zM928 1827l-281 -291h-146l-281 291h208l146 -129l146 129h208z" />
    <glyph glyph-name="uni01EA" unicode="&#x1ea;" horiz-adv-x="1744" 
d="M1117 0h-2l-2 -1q-13 -4 -30 -12t-40.5 -24t-39.5 -43.5t-16 -60.5q0 -31 18.5 -53.5t45.5 -33t54 -16.5t45 -6l19 -1v-207q-41 -3 -86.5 0t-99.5 18t-96 41.5t-70.5 76t-28.5 115.5q0 114 89 177h-5q-181 0 -326 56t-240 155.5t-145.5 236t-50.5 299.5q0 162 50.5 298.5
t145.5 236.5t240 156t326 56t326 -56t240 -156t145.5 -236.5t50.5 -298.5q0 -270 -134.5 -461t-382.5 -256zM872 196q239 0 363.5 143t124.5 378t-124.5 378t-363.5 143t-363.5 -143t-124.5 -378t124.5 -378t363.5 -143z" />
    <glyph glyph-name="uni01EB" unicode="&#x1eb;" horiz-adv-x="1320" 
d="M1230 511q0 -190 -108 -328t-295 -183q-11 -4 -20.5 -7.5t-31 -16t-36.5 -27t-27 -38.5t-12 -52q0 -31 18.5 -53.5t45.5 -33t54 -16.5t46 -6l18 -1v-207q-41 -3 -86.5 0t-99.5 18t-96 41.5t-70.5 76t-28.5 115.5q0 124 107 189q-235 16 -376.5 163.5t-141.5 365.5
q0 230 156.5 380.5t413.5 150.5t413.5 -150t156.5 -381zM973 511q0 65 -18.5 121.5t-55.5 102t-98.5 72t-140.5 26.5t-140.5 -26.5t-98.5 -72t-55.5 -102t-18.5 -121.5t18.5 -121.5t55.5 -102t98.5 -72t140.5 -26.5t140.5 26.5t98.5 72t55.5 102t18.5 121.5z" />
    <glyph glyph-name="uni01EC" unicode="&#x1ec;" horiz-adv-x="1744" 
d="M1117 0q-5 -1 -14 -4t-31.5 -15t-39.5 -26.5t-31 -40t-14 -55.5q0 -31 18.5 -53.5t45.5 -33t54 -16.5t45 -6l19 -1v-207q-41 -3 -86.5 0t-99.5 18t-96 41.5t-70.5 76t-28.5 115.5q0 114 89 177h-5q-181 0 -326 56t-240 155.5t-145.5 236t-50.5 299.5q0 162 50.5 298.5
t145.5 236.5t240 156t326 56t326 -56t240 -156t145.5 -236.5t50.5 -298.5q0 -270 -134.5 -461t-382.5 -256zM872 196q239 0 363.5 143t124.5 378t-124.5 378t-363.5 143t-363.5 -143t-124.5 -378t124.5 -378t363.5 -143zM484 1536v189h794v-189h-794z" />
    <glyph glyph-name="uni01ED" unicode="&#x1ed;" horiz-adv-x="1320" 
d="M1230 511q0 -190 -107.5 -327.5t-293.5 -183.5q-12 -4 -25.5 -10t-41 -22t-45 -44.5t-17.5 -64.5q0 -31 18.5 -53.5t45.5 -33t54 -16.5t46 -6l18 -1v-207q-41 -3 -86.5 0t-99.5 18t-96 41.5t-70.5 76t-28.5 115.5q0 124 107 189q-235 16 -376.5 163.5t-141.5 365.5
q0 230 156.5 380.5t413.5 150.5t413.5 -150t156.5 -381zM973 511q0 65 -18.5 121.5t-55.5 102t-98.5 72t-140.5 26.5t-140.5 -26.5t-98.5 -72t-55.5 -102t-18.5 -121.5t18.5 -121.5t55.5 -102t98.5 -72t140.5 -26.5t140.5 26.5t98.5 72t55.5 102t18.5 121.5zM263 1245v189
h794v-189h-794z" />
    <glyph glyph-name="uni01EE" unicode="&#x1ee;" horiz-adv-x="1243" 
d="M90 222l164 163q122 -189 357 -189q144 0 208 68.5t64 200.5q0 127 -103 191.5t-325 64.5v186l274 300h-570v227h919v-190l-310 -341q385 -87 385 -438q0 -232 -137 -363.5t-405 -131.5q-200 0 -328 70t-193 182zM975 1835l-281 -291h-146l-281 291h208l146 -129l146 129
h208z" />
    <glyph glyph-name="uni01EF" unicode="&#x1ef;" horiz-adv-x="1209" 
d="M90 -364l116 173q119 -132 352 -132q156 0 233 75t77 208q0 167 -113.5 242.5t-368.5 75.5v156l324 379h-552v209h882v-145l-363 -426q65 -12 124 -33t118.5 -60.5t102.5 -92t70 -131t27 -174.5q0 -159 -73 -271.5t-198 -166.5t-290 -54q-176 0 -296 50.5t-172 117.5z
M958 1434l-281 -291h-146l-281 291h208l146 -129l146 129h208z" />
    <glyph glyph-name="uni01F0" unicode="&#x1f0;" horiz-adv-x="606" 
d="M-170 -485l69 191q73 -29 141 -29q28 0 49.5 9.5t36 23.5t24.5 40t15 49t8 61t3.5 66t0.5 74v1022h251v-1022q0 -112 -9 -191t-32.5 -147t-64.5 -108.5t-106 -63t-156 -22.5q-131 0 -230 47zM656 1434l-281 -291h-146l-281 291h208l146 -129l146 129h208z" />
    <glyph glyph-name="uni01F1" unicode="&#x1f1;" horiz-adv-x="2662" 
d="M1402 717q0 -154 -43.5 -283t-128.5 -226.5t-222 -152.5t-313 -55h-565v1434h565q176 0 313 -55t222 -153t128.5 -226.5t43.5 -282.5zM400 1208v-982h295q112 0 198 40t136 109.5t75 155.5t25 186t-25 186t-75 155.5t-136 109.5t-198 40h-295zM1775 226h777v-226h-1157
v134l777 1074h-735v226h1115v-134z" />
    <glyph glyph-name="uni01F2" unicode="&#x1f2;" horiz-adv-x="2533" 
d="M1402 717q0 -154 -43.5 -283t-128.5 -226.5t-222 -152.5t-313 -55h-565v1434h565q176 0 313 -55t222 -153t128.5 -226.5t43.5 -282.5zM400 1208v-982h295q112 0 198 40t136 109.5t75 155.5t25 186t-25 186t-75 155.5t-136 109.5t-198 40h-295zM1501 0v125l545 688h-513
v209h890v-125l-545 -688h545v-209h-922z" />
    <glyph glyph-name="uni01F3" unicode="&#x1f3;" horiz-adv-x="2358" 
d="M1192 1516v-1516h-251v171q-45 -91 -145.5 -141t-203.5 -50q-154 0 -269.5 70t-174 189.5t-58.5 271.5t58.5 271.5t174 189.5t269.5 70q103 0 203.5 -50t145.5 -141v665h251zM644 190q149 0 223 92t74 229t-74 229t-223 92t-223 -92t-74 -229t74 -229t223 -92zM1326 0
v125l545 688h-513v209h890v-125l-545 -688h545v-209h-922z" />
    <glyph glyph-name="uni01F4" unicode="&#x1f4;" horiz-adv-x="1587" 
d="M872 -30q-181 0 -326 56t-240 155.5t-145.5 236t-50.5 299.5q0 162 50.5 298.5t145.5 236.5t240 156t326 56q363 0 581 -182l-131 -174q-194 130 -450 130q-239 0 -363.5 -143t-124.5 -378t124.5 -378t363.5 -143q100 0 190.5 19t140.5 52v329h-311v226h565v-683
q-102 -92 -259 -130.5t-326 -38.5zM768 1536l251 310h283l-314 -310h-220z" />
    <glyph glyph-name="uni01F5" unicode="&#x1f5;" horiz-adv-x="1322" 
d="M941 1022h251v-1022q0 -532 -566 -532q-144 0 -267 35.5t-209 97.5l129 168q151 -91 347 -91q154 0 234.5 71.5t80.5 250.5v171q-45 -91 -145.5 -141t-203.5 -50q-154 0 -269.5 70t-174 189.5t-58.5 271.5t58.5 271.5t174 189.5t269.5 70q103 0 203.5 -50t145.5 -141v171
zM644 190q149 0 223 92t74 229t-74 229t-223 92t-223 -92t-74 -229t74 -229t223 -92zM490 1124l251 310h283l-314 -310h-220z" />
    <glyph glyph-name="uni01F6" unicode="&#x1f6;" horiz-adv-x="2208" 
d="M1083 844v590h270v-959q0 -136 58.5 -211t178.5 -75t178.5 75t58.5 211v547h251v-547q0 -242 -126 -368.5t-362 -126.5q-250 0 -378.5 126t-128.5 369v143h-683v-618h-270v1434h270v-590h683z" />
    <glyph glyph-name="uni01F7" unicode="&#x1f7;" horiz-adv-x="1176" 
d="M130 0v1434h270v-83q40 62 103.5 97.5t137.5 35.5q207 0 326 -129t119 -342q0 -120 -41.5 -221t-109 -169.5t-159 -120t-184.5 -79.5t-192 -41v-382h-270zM611 1258q-211 0 -211 -314v-360q80 10 153.5 44t132.5 87t94.5 130.5t35.5 167.5q0 245 -205 245z" />
    <glyph glyph-name="uni01F8" unicode="&#x1f8;" horiz-adv-x="1557" 
d="M150 0v1434h344l643 -1059v1059h270v-1434h-344l-643 1059v-1059h-270zM666 1846l251 -310h-220l-314 310h283z" />
    <glyph glyph-name="uni01F9" unicode="&#x1f9;" 
d="M381 547v-547h-251v1022h251v-156q21 60 70.5 101.5t104.5 58t113 16.5q215 0 336.5 -127.5t121.5 -367.5v-547h-251v547q0 135 -63 210.5t-184 75.5q-122 0 -185 -75.5t-63 -210.5zM525 1434l251 -310h-220l-314 310h283z" />
    <glyph glyph-name="Aringacute" unicode="&#x1fa;" horiz-adv-x="1549" 
d="M548 1762q0 86 57 151l217 239h283l-208 -200q48 -31 76 -81t28 -109q0 -94 -66.5 -160t-160.5 -66t-160 66t-66 160zM696 1762q0 -32 23 -55t55 -23t55 23t23 55t-23 55t-55 23t-55 -23t-23 -55zM477 334l-136 -334h-281l604 1434h221l604 -1434h-281l-137 334h-594z
M774 1063l-205 -502h410z" />
    <glyph glyph-name="aringacute" unicode="&#x1fb;" horiz-adv-x="1197" 
d="M380 1389q0 86 57 151l217 239h283l-208 -200q48 -31 76 -81t28 -109q0 -94 -66.5 -160t-160.5 -66t-160 66t-66 160zM528 1389q0 -32 23 -55t55 -23t55 23t23 55t-23 55t-55 23t-55 -23t-23 -55zM613 833q-82 0 -173.5 -19.5t-165.5 -52.5l-95 179q178 102 434 102
q135 0 223 -25.5t139 -84.5t71.5 -142t20.5 -210v-580h-251l-1 161q-77 -181 -331 -181q-177 0 -285.5 83.5t-108.5 253.5q0 76 28.5 137t79.5 101t120 68.5t149.5 39t169.5 13t179 -9.5q0 96 -42.5 131.5t-160.5 35.5zM342 327q0 -138 182 -138q130 0 212 63.5t80 147.5
v104q-43 0 -101.5 3t-124 -6.5t-120.5 -25.5t-91.5 -54.5t-36.5 -93.5z" />
    <glyph glyph-name="AEacute" unicode="&#x1fc;" horiz-adv-x="2167" 
d="M1280 844h713v-226h-713v-392h757v-226h-1027v324h-426l-214 -324h-310l944 1434h1023v-226h-747v-364zM1010 971l-277 -420h277v420zM1067 1536l251 310h283l-314 -310h-220z" />
    <glyph glyph-name="aeacute" unicode="&#x1fd;" horiz-adv-x="1988" 
d="M613 833q-82 0 -173.5 -19.5t-165.5 -52.5l-95 179q178 102 434 102q276 0 373 -122q143 122 370 122q267 0 411 -163.5t129 -465.5h-809q0 -24 8 -51.5t28 -58.5t49.5 -56t77.5 -41.5t106 -16.5q192 1 318 107l152 -151q-166 -165 -470 -165q-266 0 -411 161
q-96 -91 -210 -126t-251 -35q-177 0 -285.5 83.5t-108.5 253.5q0 76 28.5 137t79.5 101t120 68.5t149.5 39t169.5 13t179 -9.5q0 96 -42.5 131.5t-160.5 35.5zM342 327q0 -138 182 -138q130 0 212 63.5t80 147.5v104q-43 0 -101.5 3t-124 -6.5t-120.5 -25.5t-91.5 -54.5
t-36.5 -93.5zM1087 610h538q0 31 -14 66.5t-42.5 72t-84 60.5t-128.5 24t-128.5 -24t-84 -60.5t-42.5 -72t-14 -66.5zM890 1124l251 310h283l-314 -310h-220z" />
    <glyph glyph-name="Oslashacute" unicode="&#x1fe;" horiz-adv-x="1744" 
d="M782 1536l251 310h283l-314 -310h-220zM872 -30q-126 0 -238 28l-28 -59h-227l65 135q-162 94 -248 261.5t-86 381.5q0 162 50.5 298.5t145.5 236.5t240 156t326 56q120 0 233 -27l28 58h227l-65 -133q164 -95 251.5 -262.5t87.5 -382.5q0 -163 -50.5 -299.5t-145.5 -236
t-240 -155.5t-326 -56zM872 196q239 0 363.5 143t124.5 378q0 285 -172 423l-451 -930q64 -14 135 -14zM384 717q0 -282 168 -420l450 928q-65 13 -130 13q-239 0 -363.5 -143t-124.5 -378z" />
    <glyph glyph-name="oslashacute" unicode="&#x1ff;" horiz-adv-x="1320" 
d="M547 1124l251 310h283l-314 -310h-220zM1230 511q0 -231 -156.5 -381t-413.5 -150q-80 0 -154 17l-28 -58h-191l57 118q-121 69 -187.5 188t-66.5 266q0 230 156.5 380.5t413.5 150.5q80 0 154 -17l28 58h192l-58 -119q121 -69 187.5 -187.5t66.5 -265.5zM347 511
q0 -161 97 -248l275 566q-38 4 -59 4q-79 0 -140.5 -26.5t-98.5 -72t-55.5 -102t-18.5 -121.5zM973 511q0 159 -97 247l-275 -565q25 -4 59 -4q79 0 140.5 26.5t98.5 72t55.5 102t18.5 121.5z" />
    <glyph glyph-name="uni0200" unicode="&#x200;" horiz-adv-x="1549" 
d="M477 334l-136 -334h-281l604 1434h221l604 -1434h-281l-137 334h-594zM774 1063l-205 -502h410zM462 1846l251 -310h-220l-314 310h283zM810 1846l251 -310h-220l-314 310h283z" />
    <glyph glyph-name="uni0201" unicode="&#x201;" horiz-adv-x="1197" 
d="M613 833q-82 0 -173.5 -19.5t-165.5 -52.5l-95 179q178 102 434 102q135 0 223 -25.5t139 -84.5t71.5 -142t20.5 -210v-580h-251l-1 161q-77 -181 -331 -181q-177 0 -285.5 83.5t-108.5 253.5q0 76 28.5 137t79.5 101t120 68.5t149.5 39t169.5 13t179 -9.5
q0 96 -42.5 131.5t-160.5 35.5zM342 327q0 -138 182 -138q130 0 212 63.5t80 147.5v104q-43 0 -101.5 3t-124 -6.5t-120.5 -25.5t-91.5 -54.5t-36.5 -93.5zM287 1434l251 -310h-220l-314 310h283zM635 1434l251 -310h-220l-314 310h283z" />
    <glyph glyph-name="uni0202" unicode="&#x202;" horiz-adv-x="1549" 
d="M477 334l-136 -334h-281l604 1434h221l604 -1434h-281l-137 334h-594zM774 1063l-205 -502h410zM774 1782q84 0 153 -24.5t111 -64t66.5 -79t33.5 -78.5h-182q-53 92 -182 92t-182 -92h-182q9 39 33.5 78.5t66.5 79t111 64t153 24.5z" />
    <glyph glyph-name="uni0203" unicode="&#x203;" horiz-adv-x="1197" 
d="M613 833q-82 0 -173.5 -19.5t-165.5 -52.5l-95 179q178 102 434 102q135 0 223 -25.5t139 -84.5t71.5 -142t20.5 -210v-580h-251l-1 161q-77 -181 -331 -181q-177 0 -285.5 83.5t-108.5 253.5q0 76 28.5 137t79.5 101t120 68.5t149.5 39t169.5 13t179 -9.5
q0 96 -42.5 131.5t-160.5 35.5zM342 327q0 -138 182 -138q130 0 212 63.5t80 147.5v104q-43 0 -101.5 3t-124 -6.5t-120.5 -25.5t-91.5 -54.5t-36.5 -93.5zM612 1434q84 0 153 -24.5t111 -64t66.5 -79t33.5 -78.5h-182q-53 92 -182 92t-182 -92h-182q9 39 33.5 78.5t66.5 79
t111 64t153 24.5z" />
    <glyph glyph-name="uni0204" unicode="&#x204;" horiz-adv-x="1308" 
d="M421 844h713v-226h-713v-392h757v-226h-1027v1434h1017v-226h-747v-364zM363 1846l251 -310h-220l-314 310h283zM711 1846l251 -310h-220l-314 310h283z" />
    <glyph glyph-name="uni0205" unicode="&#x205;" horiz-adv-x="1262" 
d="M630 189q192 1 318 107l152 -151q-166 -165 -470 -165q-256 0 -398 148t-142 383q0 153 60.5 271.5t184.5 189t295 70.5q267 0 411 -163.5t129 -465.5h-809q0 -24 8 -51.5t28 -58.5t49.5 -56t77.5 -41.5t106 -16.5zM361 610h538q0 31 -14 66.5t-42.5 72t-84 60.5
t-128.5 24t-128.5 -24t-84 -60.5t-42.5 -72t-14 -66.5zM317 1434l251 -310h-220l-314 310h283zM665 1434l251 -310h-220l-314 310h283z" />
    <glyph glyph-name="uni0206" unicode="&#x206;" horiz-adv-x="1307" 
d="M420 844h713v-226h-713v-392h757v-226h-1027v1434h1017v-226h-747v-364zM663 1782q84 0 153 -24.5t111 -64t66.5 -79t33.5 -78.5h-182q-53 92 -182 92t-182 -92h-182q9 39 33.5 78.5t66.5 79t111 64t153 24.5z" />
    <glyph glyph-name="uni0207" unicode="&#x207;" horiz-adv-x="1262" 
d="M630 189q192 1 318 107l152 -151q-166 -165 -470 -165q-256 0 -398 148t-142 383q0 153 60.5 271.5t184.5 189t295 70.5q267 0 411 -163.5t129 -465.5h-809q0 -24 8 -51.5t28 -58.5t49.5 -56t77.5 -41.5t106 -16.5zM361 610h538q0 31 -14 66.5t-42.5 72t-84 60.5
t-128.5 24t-128.5 -24t-84 -60.5t-42.5 -72t-14 -66.5zM630 1434q84 0 153 -24.5t111 -64t66.5 -79t33.5 -78.5h-182q-53 92 -182 92t-182 -92h-182q9 39 33.5 78.5t66.5 79t111 64t153 24.5z" />
    <glyph glyph-name="uni0208" unicode="&#x208;" horiz-adv-x="662" 
d="M193 0v1434h270v-1434h-270zM23 1846l251 -310h-220l-314 310h283zM371 1846l251 -310h-220l-314 310h283z" />
    <glyph glyph-name="uni0209" unicode="&#x209;" horiz-adv-x="632" 
d="M198 0v1022h251v-1022h-251zM23 1434l251 -310h-220l-314 310h283zM371 1434l251 -310h-220l-314 310h283z" />
    <glyph glyph-name="uni020A" unicode="&#x20a;" horiz-adv-x="648" 
d="M189 0v1434h270v-1434h-270zM324 1782q84 0 153 -24.5t111 -64t66.5 -79t33.5 -78.5h-182q-53 92 -182 92t-182 -92h-182q9 39 33.5 78.5t66.5 79t111 64t153 24.5z" />
    <glyph glyph-name="uni020B" unicode="&#x20b;" horiz-adv-x="588" 
d="M169 0v1022h251v-1022h-251zM294 1434q84 0 153 -24.5t111 -64t66.5 -79t33.5 -78.5h-182q-53 92 -182 92t-182 -92h-182q9 39 33.5 78.5t66.5 79t111 64t153 24.5z" />
    <glyph glyph-name="uni020C" unicode="&#x20c;" horiz-adv-x="1744" 
d="M872 -30q-181 0 -326 56t-240 155.5t-145.5 236t-50.5 299.5q0 162 50.5 298.5t145.5 236.5t240 156t326 56t326 -56t240 -156t145.5 -236.5t50.5 -298.5q0 -163 -50.5 -299.5t-145.5 -236t-240 -155.5t-326 -56zM872 196q239 0 363.5 143t124.5 378t-124.5 378
t-363.5 143t-363.5 -143t-124.5 -378t124.5 -378t363.5 -143zM562 1846l251 -310h-220l-314 310h283zM910 1846l251 -310h-220l-314 310h283z" />
    <glyph glyph-name="uni020D" unicode="&#x20d;" horiz-adv-x="1320" 
d="M1230 511q0 -231 -156.5 -381t-413.5 -150t-413.5 150.5t-156.5 380.5t156.5 380.5t413.5 150.5t413.5 -150t156.5 -381zM973 511q0 65 -18.5 121.5t-55.5 102t-98.5 72t-140.5 26.5t-140.5 -26.5t-98.5 -72t-55.5 -102t-18.5 -121.5t18.5 -121.5t55.5 -102t98.5 -72
t140.5 -26.5t140.5 26.5t98.5 72t55.5 102t18.5 121.5zM335 1434l251 -310h-220l-314 310h283zM683 1434l251 -310h-220l-314 310h283z" />
    <glyph glyph-name="uni020E" unicode="&#x20e;" horiz-adv-x="1744" 
d="M872 -30q-181 0 -326 56t-240 155.5t-145.5 236t-50.5 299.5q0 162 50.5 298.5t145.5 236.5t240 156t326 56t326 -56t240 -156t145.5 -236.5t50.5 -298.5q0 -163 -50.5 -299.5t-145.5 -236t-240 -155.5t-326 -56zM872 196q239 0 363.5 143t124.5 378t-124.5 378
t-363.5 143t-363.5 -143t-124.5 -378t124.5 -378t363.5 -143zM881 1782q84 0 153 -24.5t111 -64t66.5 -79t33.5 -78.5h-182q-53 92 -182 92t-182 -92h-182q9 39 33.5 78.5t66.5 79t111 64t153 24.5z" />
    <glyph glyph-name="uni020F" unicode="&#x20f;" horiz-adv-x="1320" 
d="M1230 511q0 -231 -156.5 -381t-413.5 -150t-413.5 150.5t-156.5 380.5t156.5 380.5t413.5 150.5t413.5 -150t156.5 -381zM973 511q0 65 -18.5 121.5t-55.5 102t-98.5 72t-140.5 26.5t-140.5 -26.5t-98.5 -72t-55.5 -102t-18.5 -121.5t18.5 -121.5t55.5 -102t98.5 -72
t140.5 -26.5t140.5 26.5t98.5 72t55.5 102t18.5 121.5zM659 1434q84 0 153 -24.5t111 -64t66.5 -79t33.5 -78.5h-182q-53 92 -182 92t-182 -92h-182q9 39 33.5 78.5t66.5 79t111 64t153 24.5z" />
    <glyph glyph-name="uni0210" unicode="&#x210;" horiz-adv-x="1407" 
d="M420 0h-270v1434h607q270 0 404 -119t134 -333q0 -326 -330 -416l332 -566h-303l-310 530h-264v-530zM757 1208h-337v-452h337q141 0 203.5 53.5t62.5 172.5t-62.5 172.5t-203.5 53.5zM332 1846l251 -310h-220l-314 310h283zM680 1846l251 -310h-220l-314 310h283z" />
    <glyph glyph-name="uni0211" unicode="&#x211;" horiz-adv-x="924" 
d="M884 1001l-116 -201q-54 33 -139 33q-248 0 -248 -286v-547h-251v1022h251v-156q21 60 70.5 101.5t104.5 58t113 16.5q124 0 215 -41zM187 1434l251 -310h-220l-314 310h283zM535 1434l251 -310h-220l-314 310h283z" />
    <glyph glyph-name="uni0212" unicode="&#x212;" horiz-adv-x="1407" 
d="M420 0h-270v1434h607q270 0 404 -119t134 -333q0 -326 -330 -416l332 -566h-303l-310 530h-264v-530zM757 1208h-337v-452h337q141 0 203.5 53.5t62.5 172.5t-62.5 172.5t-203.5 53.5zM642 1782q84 0 153 -24.5t111 -64t66.5 -79t33.5 -78.5h-182q-53 92 -182 92
t-182 -92h-182q9 39 33.5 78.5t66.5 79t111 64t153 24.5z" />
    <glyph glyph-name="uni0213" unicode="&#x213;" horiz-adv-x="932" 
d="M892 1001l-116 -201q-54 33 -139 33q-248 0 -248 -286v-547h-251v1022h251v-156q21 60 70.5 101.5t104.5 58t113 16.5q124 0 215 -41zM494 1434q84 0 153 -24.5t111 -64t66.5 -79t33.5 -78.5h-182q-53 92 -182 92t-182 -92h-182q9 39 33.5 78.5t66.5 79t111 64t153 24.5z
" />
    <glyph glyph-name="uni0214" unicode="&#x214;" horiz-adv-x="1555" 
d="M777 196q193 0 275.5 111.5t82.5 323.5v803h270v-803q0 -317 -154.5 -489t-473.5 -172q-318 0 -472.5 172t-154.5 489v803h270v-803q0 -212 82 -323.5t275 -111.5zM471 1846l251 -310h-220l-314 310h283zM819 1846l251 -310h-220l-314 310h283z" />
    <glyph glyph-name="uni0215" unicode="&#x215;" 
d="M876 475v547h251v-1022h-251v156q-21 -60 -70.5 -101.5t-104.5 -58t-113 -16.5q-215 0 -336.5 127.5t-121.5 367.5v547h251v-547q0 -135 63 -210.5t184 -75.5q122 0 185 75.5t63 210.5zM314 1434l251 -310h-220l-314 310h283zM662 1434l251 -310h-220l-314 310h283z" />
    <glyph glyph-name="uni0216" unicode="&#x216;" horiz-adv-x="1555" 
d="M777 196q193 0 275.5 111.5t82.5 323.5v803h270v-803q0 -317 -154.5 -489t-473.5 -172q-318 0 -472.5 172t-154.5 489v803h270v-803q0 -212 82 -323.5t275 -111.5zM777 1782q84 0 153 -24.5t111 -64t66.5 -79t33.5 -78.5h-182q-53 92 -182 92t-182 -92h-182
q9 39 33.5 78.5t66.5 79t111 64t153 24.5z" />
    <glyph glyph-name="uni0217" unicode="&#x217;" 
d="M876 475v547h251v-1022h-251v156q-21 -60 -70.5 -101.5t-104.5 -58t-113 -16.5q-215 0 -336.5 127.5t-121.5 367.5v547h251v-547q0 -135 63 -210.5t184 -75.5q122 0 185 75.5t63 210.5zM628 1434q84 0 153 -24.5t111 -64t66.5 -79t33.5 -78.5h-182q-53 92 -182 92
t-182 -92h-182q9 39 33.5 78.5t66.5 79t111 64t153 24.5z" />
    <glyph glyph-name="Scommaaccent" unicode="&#x218;" horiz-adv-x="1342" 
d="M1181 1331l-132 -189q-162 96 -382 96q-263 0 -263 -167q0 -85 71.5 -132.5t233.5 -82.5q277 -58 410 -169t133 -295q0 -110 -41 -192t-116 -132t-173.5 -74t-220.5 -24q-203 0 -348 40t-263 128l132 189q209 -131 479 -131q144 0 211.5 45.5t67.5 150.5q0 83 -75 138.5
t-245 90.5q-275 57 -401.5 170.5t-126.5 279.5q0 82 31.5 151.5t94.5 124.5t168 86t241 31q169 0 289 -31t225 -102zM386 -532l151 402h269l-189 -402h-231z" />
    <glyph glyph-name="scommaaccent" unicode="&#x219;" horiz-adv-x="1067" 
d="M948 941l-106 -181q-140 73 -312 73q-170 0 -170 -93q0 -46 50 -71.5t153 -45.5q89 -17 151 -34t119 -43t91 -60t53.5 -83t19.5 -113q0 -158 -117 -234t-328 -76q-140 0 -268.5 33t-213.5 87l106 181q81 -43 181 -67.5t195 -24.5q105 0 149 27.5t44 83.5q0 25 -13.5 42.5
t-46 29.5t-63.5 19.5t-87 17.5q-11 2 -17 3q-217 40 -313 117t-96 211q0 139 101 220.5t320 81.5q257 0 418 -101zM236 -532l151 402h269l-189 -402h-231z" />
    <glyph glyph-name="uni021A" unicode="&#x21a;" horiz-adv-x="1428" 
d="M90 1434h1248v-226h-489v-1208h-270v1208h-489v226zM428 -532l151 402h269l-189 -402h-231z" />
    <glyph glyph-name="uni021B" unicode="&#x21b;" horiz-adv-x="928" 
d="M70 813v209h197v299h251v-299h292v-209h-292v-362q0 -53 2.5 -88t11 -71t24 -56.5t43 -33.5t66.5 -13q75 0 137 29l56 -193q-102 -45 -233 -45q-106 0 -177 30t-110.5 93.5t-55 145.5t-15.5 202v362h-197zM314 -532l151 402h269l-189 -402h-231z" />
    <glyph glyph-name="uni021C" unicode="&#x21c;" horiz-adv-x="1152" 
d="M160 -169l-29 226q313 0 487 85.5t174 251.5q0 136 -93 181.5t-304 29.5l-21 226q403 54 403 260q0 73 -51 110t-145 37t-162 -53t-104 -140l-225 76q143 343 490 343q218 0 342.5 -98t124.5 -255q0 -74 -24.5 -136.5t-66 -105t-89.5 -71.5t-102 -47q115 -3 206 -107
t91 -253q0 -97 -30.5 -178t-82 -138t-124.5 -101t-151.5 -70.5t-170.5 -43.5t-174 -23t-169 -6z" />
    <glyph glyph-name="uni021D" unicode="&#x21d;" horiz-adv-x="1021" 
d="M169 -269l-24 210q126 10 221 30t167 53t109 83t37 116q0 39 -19 64.5t-48.5 38t-75.5 16.5t-90 1t-102 -10l-16 208q145 22 209 50q114 50 114 143q0 40 -35 69.5t-103 29.5q-151 0 -245 -131l-178 113q162 227 422 227q173 0 281.5 -78.5t108.5 -206.5
q0 -93 -57.5 -167.5t-131.5 -102.5q87 -19 151 -92.5t66 -167.5q1 -82 -29 -152.5t-80 -120t-117.5 -89t-138.5 -64.5t-146 -41t-136.5 -22.5t-113.5 -6.5z" />
    <glyph glyph-name="uni021E" unicode="&#x21e;" horiz-adv-x="1523" 
d="M1103 844v590h270v-1434h-270v618h-683v-618h-270v1434h270v-590h683zM1115 1827l-281 -291h-146l-281 291h208l146 -129l146 129h208z" />
    <glyph glyph-name="uni021F" unicode="&#x21f;" 
d="M381 547v-547h-251v1516h251v-650q21 60 70.5 101.5t104.5 58t113 16.5q215 0 336.5 -127.5t121.5 -367.5v-547h-251v547q0 135 -63 210.5t-184 75.5q-122 0 -185 -75.5t-63 -210.5zM982 1827l-281 -291h-146l-281 291h208l146 -129l146 129h208z" />
    <glyph glyph-name="uni0220" unicode="&#x220;" 
d="M381 999v-999h-251v1434h251v-156q21 60 70.5 101.5t104.5 58t113 16.5q203 0 330.5 -120t127.5 -335v-1531h-251v1531q0 111 -66.5 178.5t-180.5 67.5q-115 0 -181.5 -67.5t-66.5 -178.5z" />
    <glyph glyph-name="uni0221" unicode="&#x221;" horiz-adv-x="1347" 
d="M941 1516h251v-1411q46 33 112 33q116 0 174.5 -63.5t58.5 -147.5q0 -104 -66 -174t-198 -70q-99 0 -164 51q-8 -15 -17.5 -37t-14.5 -36l-5 -14l-191 98q33 92 85 166q-25 61 -25 149v111q-45 -91 -145.5 -141t-203.5 -50q-154 0 -269.5 70t-174 189.5t-58.5 271.5
t58.5 271.5t174 189.5t269.5 70q103 0 203.5 -50t145.5 -141v665zM644 190q149 0 223 92t74 229t-74 229t-223 92t-223 -92t-74 -229t74 -229t223 -92zM1273 -142q38 0 58.5 17.5t20.5 47.5q0 21 -15.5 30.5t-34.5 9.5q-66 0 -98 -59q2 -20 21.5 -33t47.5 -13z" />
    <glyph glyph-name="uni0222" unicode="&#x222;" horiz-adv-x="1240" 
d="M620 -30q-250 0 -390 129t-140 353q0 116 57 218.5t162 163.5q-76 48 -120.5 134t-44.5 191q0 217 145 389l221 -139q-96 -109 -96 -250q0 -108 54 -166.5t152 -58.5t152 58.5t54 166.5q0 141 -96 250l221 139q145 -172 145 -389q0 -105 -44.5 -191t-120.5 -134
q105 -61 162 -163.5t57 -218.5q0 -224 -140 -353t-390 -129zM620 196q127 0 193.5 70t66.5 186t-66.5 186t-193.5 70t-193.5 -70t-66.5 -186t66.5 -186t193.5 -70z" />
    <glyph glyph-name="uni0223" unicode="&#x223;" horiz-adv-x="1028" 
d="M514 749q71 0 105.5 39t34.5 102q0 58 -19.5 101.5t-59.5 91.5l186 122q71 -58 107.5 -141.5t36.5 -163.5q0 -73 -32 -139.5t-90 -114.5q75 -48 115 -123t40 -159q0 -177 -110.5 -280.5t-313.5 -103.5t-313.5 103.5t-110.5 280.5q0 84 40 159t115 123q-58 48 -90 114.5
t-32 139.5q0 80 36.5 163.5t107.5 141.5l186 -122q-40 -48 -59.5 -91.5t-19.5 -101.5q0 -63 34.5 -102t105.5 -39zM514 540q-86 0 -129.5 -48.5t-43.5 -127.5t43.5 -127.5t129.5 -48.5t129.5 48.5t43.5 127.5t-43.5 127.5t-129.5 48.5z" />
    <glyph glyph-name="uni0224" unicode="&#x224;" horiz-adv-x="1470" 
d="M510 226h777v-226h1q-5 -1 -14 -4t-31.5 -15t-39.5 -26.5t-31 -40t-14 -55.5q0 -31 18.5 -53.5t45.5 -33t54 -16.5t46 -6l18 -1v-207q-41 -3 -86.5 0t-99.5 18t-96 41.5t-70.5 76t-28.5 115.5q0 45 15 82.5t34 59t42.5 37.5t35 21t18.5 7h-974v134l777 1074h-735v226
h1115v-134z" />
    <glyph glyph-name="uni0225" unicode="&#x225;" horiz-adv-x="1194" 
d="M1032 209v-209q-5 -1 -14 -4t-31.5 -15t-39.5 -26.5t-31 -40t-14 -55.5q0 -31 18.5 -53.5t45.5 -33t54 -16.5t46 -6l18 -1v-207q-41 -3 -86.5 0t-99.5 18t-96 41.5t-70.5 76t-28.5 115.5q0 45 15 82.5t34 59t42.5 37.5t35 21t18.5 7h-738v125l545 688h-513v209h890v-125
l-545 -688h545z" />
    <glyph glyph-name="uni0226" unicode="&#x226;" horiz-adv-x="1549" 
d="M477 334l-136 -334h-281l604 1434h221l604 -1434h-281l-137 334h-594zM774 1063l-205 -502h410zM627 1683q0 61 43 104t104 43t104 -43t43 -104t-43 -104t-104 -43t-104 43t-43 104z" />
    <glyph glyph-name="uni0227" unicode="&#x227;" horiz-adv-x="1197" 
d="M613 833q-82 0 -173.5 -19.5t-165.5 -52.5l-95 179q178 102 434 102q135 0 223 -25.5t139 -84.5t71.5 -142t20.5 -210v-580h-251l-1 161q-77 -181 -331 -181q-177 0 -285.5 83.5t-108.5 253.5q0 76 28.5 137t79.5 101t120 68.5t149.5 39t169.5 13t179 -9.5
q0 96 -42.5 131.5t-160.5 35.5zM342 327q0 -138 182 -138q130 0 212 63.5t80 147.5v104q-43 0 -101.5 3t-124 -6.5t-120.5 -25.5t-91.5 -54.5t-36.5 -93.5zM463 1327q0 61 43 104t104 43t104 -43t43 -104t-43 -104t-104 -43t-104 43t-43 104z" />
    <glyph glyph-name="uni0228" unicode="&#x228;" horiz-adv-x="1307" 
d="M447 -459l46 117q33 -12 70 -19.5t83 -10.5t77.5 16t35.5 60q2 21 -5.5 35.5t-25.5 22t-39.5 11t-52.5 1.5t-59.5 -5t-65.5 -9l77 240h-438v1434h1017v-226h-747v-364h713v-226h-713v-392h757v-226h-437l-37 -112q60 -1 107 -17.5t78 -61t24 -112.5q-8 -78 -55 -126
t-116 -61.5t-145.5 -5t-148.5 36.5z" />
    <glyph glyph-name="uni0229" unicode="&#x229;" horiz-adv-x="1262" 
d="M422 -459l46 117q33 -12 70 -19.5t83 -10.5t77.5 16t35.5 60q2 21 -5.5 35.5t-25.5 22t-39.5 11t-52.5 1.5t-59.5 -5t-65.5 -9l72 224q-149 14 -256 86.5t-159.5 185t-52.5 255.5q0 153 60.5 271.5t184.5 189t295 70.5q267 0 411 -163.5t129 -465.5h-809q0 -24 8 -51.5
t28 -58.5t49.5 -56t77.5 -41.5t106 -16.5q192 1 318 107l152 -151q-146 -145 -391 -162l-31 -95q60 -1 107 -17.5t78 -61t24 -112.5q-8 -78 -55 -126t-116 -61.5t-145.5 -5t-148.5 36.5zM361 610h538q0 31 -14 66.5t-42.5 72t-84 60.5t-128.5 24t-128.5 -24t-84 -60.5
t-42.5 -72t-14 -66.5z" />
    <glyph glyph-name="uni022A" unicode="&#x22a;" horiz-adv-x="1744" 
d="M872 -30q-181 0 -326 56t-240 155.5t-145.5 236t-50.5 299.5q0 162 50.5 298.5t145.5 236.5t240 156t326 56t326 -56t240 -156t145.5 -236.5t50.5 -298.5q0 -163 -50.5 -299.5t-145.5 -236t-240 -155.5t-326 -56zM872 196q239 0 363.5 143t124.5 378t-124.5 378
t-363.5 143t-363.5 -143t-124.5 -378t124.5 -378t363.5 -143zM512 1683q0 61 43 104t104 43t104 -43t43 -104t-43 -104t-104 -43t-104 43t-43 104zM956 1683q0 61 43 104t104 43t104 -43t43 -104t-43 -104t-104 -43t-104 43t-43 104zM484 1892v189h794v-189h-794z" />
    <glyph glyph-name="uni022B" unicode="&#x22b;" horiz-adv-x="1320" 
d="M1230 511q0 -231 -156.5 -381t-413.5 -150t-413.5 150.5t-156.5 380.5t156.5 380.5t413.5 150.5t413.5 -150t156.5 -381zM973 511q0 65 -18.5 121.5t-55.5 102t-98.5 72t-140.5 26.5t-140.5 -26.5t-98.5 -72t-55.5 -102t-18.5 -121.5t18.5 -121.5t55.5 -102t98.5 -72
t140.5 -26.5t140.5 26.5t98.5 72t55.5 102t18.5 121.5zM291 1327q0 61 43 104t104 43t104 -43t43 -104t-43 -104t-104 -43t-104 43t-43 104zM735 1327q0 61 43 104t104 43t104 -43t43 -104t-43 -104t-104 -43t-104 43t-43 104zM263 1536v189h794v-189h-794z" />
    <glyph glyph-name="uni022C" unicode="&#x22c;" horiz-adv-x="1744" 
d="M872 -30q-181 0 -326 56t-240 155.5t-145.5 236t-50.5 299.5q0 162 50.5 298.5t145.5 236.5t240 156t326 56t326 -56t240 -156t145.5 -236.5t50.5 -298.5q0 -163 -50.5 -299.5t-145.5 -236t-240 -155.5t-326 -56zM872 196q239 0 363.5 143t124.5 378t-124.5 378
t-363.5 143t-363.5 -143t-124.5 -378t124.5 -378t363.5 -143zM843 1600q-50 36 -73 36q-25 0 -39 -19.5t-15 -38.5l-1 -20h-185v14t4 35t11.5 49.5t25 52t41 49.5t63.5 35t90 14q75 0 155 -64q50 -36 73 -36q25 0 39 19.5t15 39.5l1 19h185v-14t-4 -35t-11.5 -49.5t-25 -52
t-41 -49.5t-63.5 -35t-90 -14q-75 0 -155 64zM484 1857v189h794v-189h-794z" />
    <glyph glyph-name="uni022D" unicode="&#x22d;" horiz-adv-x="1320" 
d="M1230 511q0 -231 -156.5 -381t-413.5 -150t-413.5 150.5t-156.5 380.5t156.5 380.5t413.5 150.5t413.5 -150t156.5 -381zM973 511q0 65 -18.5 121.5t-55.5 102t-98.5 72t-140.5 26.5t-140.5 -26.5t-98.5 -72t-55.5 -102t-18.5 -121.5t18.5 -121.5t55.5 -102t98.5 -72
t140.5 -26.5t140.5 26.5t98.5 72t55.5 102t18.5 121.5zM613 1247q-50 36 -73 36q-25 0 -39 -19.5t-15 -39.5l-1 -19h-185v14t4 35t11.5 49.5t25 52t41 49.5t63.5 35t90 14q75 0 155 -64q50 -36 73 -36q25 0 39 19.5t15 38.5l1 20h185v-14t-4 -35t-11.5 -49.5t-25 -52
t-41 -49.5t-63.5 -35t-90 -14q-75 0 -155 64zM254 1504v189h794v-189h-794z" />
    <glyph glyph-name="uni022E" unicode="&#x22e;" horiz-adv-x="1744" 
d="M872 -30q-181 0 -326 56t-240 155.5t-145.5 236t-50.5 299.5q0 162 50.5 298.5t145.5 236.5t240 156t326 56t326 -56t240 -156t145.5 -236.5t50.5 -298.5q0 -163 -50.5 -299.5t-145.5 -236t-240 -155.5t-326 -56zM872 196q239 0 363.5 143t124.5 378t-124.5 378
t-363.5 143t-363.5 -143t-124.5 -378t124.5 -378t363.5 -143zM734 1683q0 61 43 104t104 43t104 -43t43 -104t-43 -104t-104 -43t-104 43t-43 104z" />
    <glyph glyph-name="uni022F" unicode="&#x22f;" horiz-adv-x="1320" 
d="M1230 511q0 -231 -156.5 -381t-413.5 -150t-413.5 150.5t-156.5 380.5t156.5 380.5t413.5 150.5t413.5 -150t156.5 -381zM973 511q0 65 -18.5 121.5t-55.5 102t-98.5 72t-140.5 26.5t-140.5 -26.5t-98.5 -72t-55.5 -102t-18.5 -121.5t18.5 -121.5t55.5 -102t98.5 -72
t140.5 -26.5t140.5 26.5t98.5 72t55.5 102t18.5 121.5zM513 1327q0 61 43 104t104 43t104 -43t43 -104t-43 -104t-104 -43t-104 43t-43 104z" />
    <glyph glyph-name="uni0230" unicode="&#x230;" horiz-adv-x="1744" 
d="M872 -30q-181 0 -326 56t-240 155.5t-145.5 236t-50.5 299.5q0 162 50.5 298.5t145.5 236.5t240 156t326 56t326 -56t240 -156t145.5 -236.5t50.5 -298.5q0 -163 -50.5 -299.5t-145.5 -236t-240 -155.5t-326 -56zM872 196q239 0 363.5 143t124.5 378t-124.5 378
t-363.5 143t-363.5 -143t-124.5 -378t124.5 -378t363.5 -143zM734 1683q0 61 43 104t104 43t104 -43t43 -104t-43 -104t-104 -43t-104 43t-43 104zM485 1892v189h794v-189h-794z" />
    <glyph glyph-name="uni0231" unicode="&#x231;" horiz-adv-x="1320" 
d="M1230 511q0 -231 -156.5 -381t-413.5 -150t-413.5 150.5t-156.5 380.5t156.5 380.5t413.5 150.5t413.5 -150t156.5 -381zM973 511q0 65 -18.5 121.5t-55.5 102t-98.5 72t-140.5 26.5t-140.5 -26.5t-98.5 -72t-55.5 -102t-18.5 -121.5t18.5 -121.5t55.5 -102t98.5 -72
t140.5 -26.5t140.5 26.5t98.5 72t55.5 102t18.5 121.5zM518 1327q0 61 43 104t104 43t104 -43t43 -104t-43 -104t-104 -43t-104 43t-43 104zM269 1536v189h794v-189h-794z" />
    <glyph glyph-name="uni0232" unicode="&#x232;" horiz-adv-x="1484" 
d="M352 1434l390 -606l390 606h292l-547 -837v-597h-270v598l-547 836h292zM345 1536v189h794v-189h-794z" />
    <glyph glyph-name="uni0233" unicode="&#x233;" horiz-adv-x="1197" 
d="M477 0l-437 1022h267l291 -727l292 727h267l-565 -1317q-14 -29 -20 -41.5t-19.5 -38t-23 -38t-25.5 -32.5t-31 -30t-36.5 -23t-44.5 -19t-52.5 -10.5t-63.5 -4.5q-56 0 -114.5 14t-97.5 35l85 188q60 -28 110 -28q14 0 25.5 1.5t22 6.5t18 8.5t15.5 14t12.5 14.5t12 19
l10 20t11 24t11.5 24zM201 1245v189h794v-189h-794z" />
    <glyph glyph-name="uni0234" unicode="&#x234;" horiz-adv-x="826" 
d="M553 425q116 0 174.5 -63.5t58.5 -147.5q0 -104 -66 -174t-198 -70q-99 0 -164 51q-8 -15 -17.5 -37t-14.5 -36l-5 -14l-191 98q33 92 85 166q-25 61 -25 149v1169h251v-1124q46 33 112 33zM522 145q38 0 58.5 17.5t20.5 47.5q0 21 -15.5 30.5t-34.5 9.5q-66 0 -98 -59
q2 -20 21.5 -33t47.5 -13z" />
    <glyph glyph-name="uni0235" unicode="&#x235;" horiz-adv-x="1262" 
d="M381 547v-547h-251v1022h251v-156q21 60 70.5 101.5t104.5 58t113 16.5q215 0 336.5 -127.5t121.5 -367.5v-442q46 33 112 33q116 0 174.5 -63.5t58.5 -147.5q0 -104 -66 -174t-198 -70q-99 0 -164 51q-8 -15 -17.5 -37t-14.5 -36l-5 -14l-191 98q33 92 85 166
q-25 61 -25 149v487q0 135 -63 210.5t-184 75.5q-122 0 -185 -75.5t-63 -210.5zM1208 -142q38 0 58.5 17.5t20.5 47.5q0 21 -15.5 30.5t-34.5 9.5q-66 0 -98 -59q2 -20 21.5 -33t47.5 -13z" />
    <glyph glyph-name="uni0236" unicode="&#x236;" horiz-adv-x="933" 
d="M630 425q116 0 174.5 -63.5t58.5 -147.5q0 -104 -66 -174t-198 -70q-99 0 -164 51q-8 -15 -17.5 -37t-14.5 -36l-5 -14l-191 98q33 92 85 166q-25 61 -25 149v466h-197v209h197v299h251v-299h292v-209h-292v-421q46 33 112 33zM599 145q38 0 58.5 17.5t20.5 47.5
q0 21 -15.5 30.5t-34.5 9.5q-66 0 -98 -59q2 -20 21.5 -33t47.5 -13z" />
    <glyph glyph-name="uni0237" unicode="&#x237;" horiz-adv-x="558" 
d="M-170 -485l69 191q73 -29 141 -29q28 0 49.5 9.5t36 23.5t24.5 40t15 49t8 61t3.5 66t0.5 74v1022h251v-1022q0 -112 -9 -191t-32.5 -147t-64.5 -108.5t-106 -63t-156 -22.5q-131 0 -230 47z" />
    <glyph glyph-name="uni0238" unicode="&#x238;" horiz-adv-x="2133" 
d="M941 851v665h251v-665q45 91 145.5 141t203.5 50q154 0 269.5 -70t174 -189.5t58.5 -271.5t-58.5 -271.5t-174 -189.5t-269.5 -70q-103 0 -203.5 50t-145.5 141v-171h-251v171q-45 -91 -145.5 -141t-203.5 -50q-154 0 -269.5 70t-174 189.5t-58.5 271.5t58.5 271.5
t174 189.5t269.5 70q103 0 203.5 -50t145.5 -141zM1489 190q149 0 223 92t74 229t-74 229t-223 92t-223 -92t-74 -229t74 -229t223 -92zM644 190q149 0 223 92t74 229t-74 229t-223 92t-223 -92t-74 -229t74 -229t223 -92z" />
    <glyph glyph-name="uni0239" unicode="&#x239;" horiz-adv-x="2133" 
d="M941 -532v703q-45 -91 -145.5 -141t-203.5 -50q-154 0 -269.5 70t-174 189.5t-58.5 271.5t58.5 271.5t174 189.5t269.5 70q103 0 203.5 -50t145.5 -141v171h251v-171q45 91 145.5 141t203.5 50q154 0 269.5 -70t174 -189.5t58.5 -271.5t-58.5 -271.5t-174 -189.5
t-269.5 -70q-103 0 -203.5 50t-145.5 141v-703h-251zM1489 832q-149 0 -223 -92t-74 -229t74 -229t223 -92t223 92t74 229t-74 229t-223 92zM644 832q-149 0 -223 -92t-74 -229t74 -229t223 -92t223 92t74 229t-74 229t-223 92z" />
    <glyph glyph-name="uni023A" unicode="&#x23a;" horiz-adv-x="1549" 
d="M477 334l-136 -334h-281l604 1434h221l68 -162l163 406h180l-251 -625l444 -1053h-281l-137 334h-315l-232 -579h-180l232 579h-99zM774 1063l-205 -502h98l155 384zM979 561l-67 162l-65 -162h132z" />
    <glyph glyph-name="uni023B" unicode="&#x23b;" horiz-adv-x="1496" 
d="M1041 1453l90 225h180l-106 -264q113 -41 201 -116l-129 -178q-77 51 -159 79l-395 -986q70 -17 149 -17q230 0 405 118l129 -178q-192 -166 -534 -166q-124 0 -236 28l-97 -243h-180l120 300q-179 90 -274 263t-95 399q0 163 50.5 299.5t145.5 236t240 155.5t326 56
q98 0 169 -11zM384 717q0 -143 47 -255.5t140 -179.5l382 952q-52 4 -81 4q-239 0 -363.5 -143t-124.5 -378z" />
    <glyph glyph-name="uni023C" unicode="&#x23c;" horiz-adv-x="1152" 
d="M263 -158l85 214q-122 68 -190 187.5t-68 267.5q0 230 156.5 380.5t413.5 150.5q40 0 78 -3l61 152h190l-75 -189q95 -35 168 -107l-130 -159q-56 42 -117 67l-242 -609q26 -5 67 -5q168 0 294 99l128 -161q-148 -147 -422 -147q-77 0 -146 15l-60 -153h-191zM347 511
q0 -151 87 -238l222 560q-78 -1 -139 -27.5t-97 -72t-54.5 -102t-18.5 -120.5z" />
    <glyph glyph-name="uni023D" unicode="&#x23d;" horiz-adv-x="1381" 
d="M568 652v-426h703v-226h-973v652h-268v226h268v556h270v-556h268v-226h-268z" />
    <glyph glyph-name="uni023E" unicode="&#x23e;" horiz-adv-x="1398" 
d="M90 1434h825l98 244h180l-98 -244h243v-226h-334l-155 -387v-821h-270v148l-158 -393h-180l338 842v611h-489v226z" />
    <glyph glyph-name="uni023F" unicode="&#x23f;" horiz-adv-x="1072" 
d="M953 941l-106 -181q-140 73 -312 73q-170 0 -170 -93q0 -46 50 -71.5t153 -45.5q89 -17 151 -34t119 -43t91 -60t53.5 -83t19.5 -113q0 -158 -117 -234t-328 -76q-139 0 -273 34q3 -105 69.5 -168t186.5 -63q184 0 294 122l151 -144q-60 -81 -173 -137.5t-272 -55.5
q-110 0 -196 29.5t-139.5 79t-86 118t-42.5 144.5t-1 161l106 181q81 -43 181 -67.5t195 -24.5q105 0 149 27.5t44 83.5q0 25 -13.5 42.5t-46 29.5t-63.5 19.5t-87 17.5q-11 2 -17 3q-217 40 -313 117t-96 211q0 139 101 220.5t320 81.5q257 0 418 -101z" />
    <glyph glyph-name="uni0240" unicode="&#x240;" horiz-adv-x="1142" 
d="M110 0v125l545 688h-513v209h890v-125l-545 -688h545v-209h-708q7 -100 73 -158.5t182 -58.5q184 0 294 122l151 -144q-60 -81 -173 -137.5t-272 -55.5q-120 0 -211 34.5t-145.5 95t-82 136t-30.5 166.5z" />
    <glyph glyph-name="uni0241" unicode="&#x241;" horiz-adv-x="1179" 
d="M301 1071l-211 117q27 53 67.5 99.5t100.5 87.5t144.5 65t184.5 24q128 0 226 -32t157.5 -88.5t89 -128.5t29.5 -157q0 -339 -399 -399v-659h-270v814q399 6 399 244q0 76 -59.5 128t-172.5 52q-181 0 -286 -167z" />
    <glyph glyph-name="uni0242" unicode="&#x242;" horiz-adv-x="1179" 
d="M301 649l-211 117q27 53 67.5 99.5t100.5 87.5t144.5 65t184.5 24q128 0 226 -32t157.5 -88.5t89 -128.5t29.5 -157q0 -339 -399 -399v-769h-270v924q399 6 399 244q0 76 -59.5 128t-172.5 52q-181 0 -286 -167z" />
    <glyph glyph-name="uni0243" unicode="&#x243;" horiz-adv-x="1543" 
d="M30 341v166h192v927h672q133 0 231 -29t154 -81t82.5 -118t26.5 -147q0 -65 -21.5 -120t-56.5 -91.5t-73 -60.5t-77 -36q126 -32 199.5 -116.5t73.5 -219.5q0 -89 -32 -163.5t-95.5 -131.5t-168.5 -88.5t-243 -31.5h-672v341h-192zM492 852h402q223 0 223 178t-223 178
h-402v-356zM492 226h402q148 0 208 50t60 149q0 98 -62.5 149t-205.5 51h-402v-118h192v-166h-192v-115z" />
    <glyph glyph-name="uni0244" unicode="&#x244;" horiz-adv-x="1859" 
d="M90 666v226h212v542h270v-542h715v542h270v-542h212v-226h-212v-35q0 -317 -154.5 -489t-473.5 -172q-318 0 -472.5 172t-154.5 489v35h-212zM929 196q193 0 275.5 111.5t82.5 323.5v35h-715v-35q0 -212 82 -323.5t275 -111.5z" />
    <glyph glyph-name="uni0245" unicode="&#x245;" horiz-adv-x="1549" 
d="M1208 0l-434 1063l-433 -1063h-281l604 1434h221l604 -1434h-281z" />
    <glyph glyph-name="uni0246" unicode="&#x246;" horiz-adv-x="1337" 
d="M1177 1678l-98 -244h88v-226h-179l-146 -364h291v-226h-382l-157 -392h583v-226h-674l-98 -245h-180l98 245h-173v1434h749l98 244h180zM420 844h242l146 364h-388v-364zM420 618v-378l151 378h-151z" />
    <glyph glyph-name="uni0247" unicode="&#x247;" horiz-adv-x="1262" 
d="M630 189q192 1 318 107l152 -151q-166 -165 -470 -165q-60 0 -113 9l-58 -147h-191l80 201q-126 65 -192 187.5t-66 280.5q0 153 60.5 271.5t184.5 189t295 70.5q55 0 111 -8l63 157h190l-84 -211q135 -69 202.5 -213t57.5 -354h-485l-88 -223q10 -1 33 -1zM361 610h212
l88 222q-10 1 -31 1q-73 0 -128.5 -24t-84 -60.5t-42.5 -72t-14 -66.5zM899 610q0 35 -18.5 78.5t-55.5 77.5l-62 -156h136zM361 413q0 -34 18 -77t54 -78l62 155h-134z" />
    <glyph glyph-name="uni0248" unicode="&#x248;" horiz-adv-x="1358" 
d="M90 294l248 72q66 -170 234 -170q124 0 175.5 61.5t51.5 196.5v280h-259v226h259v474h270v-474h259v-226h-259v-280q0 -484 -487 -484q-401 0 -492 324z" />
    <glyph glyph-name="uni0249" unicode="&#x249;" horiz-adv-x="777" 
d="M-70 -485l69 191q73 -29 141 -29q28 0 49.5 9.5t36 23.5t24.5 40t15 49t8 61t3.5 66t0.5 74v516h-239v209h239v297h251v-297h239v-209h-239v-516q0 -112 -9 -191t-32.5 -147t-64.5 -108.5t-106 -63t-156 -22.5q-131 0 -230 47zM255 1327q0 61 43 104t104 43t104 -43
t43 -104t-43 -104t-104 -43t-104 43t-43 104z" />
    <glyph glyph-name="uni024A" unicode="&#x24a;" horiz-adv-x="1791" 
d="M852 -30q-181 0 -326 56t-240 155.5t-145.5 236t-50.5 299.5q0 162 50.5 298.5t145.5 236.5t240 156t326 56t326 -56t240 -156t145.5 -236.5t50.5 -298.5v-568q0 -46 0.5 -74t3.5 -66t8 -61t15 -49t24.5 -40t36 -23.5t49.5 -9.5q69 0 141 29l69 -191q-99 -47 -230 -47
q-112 0 -184.5 31.5t-112.5 100t-55 158t-16 225.5q-198 -162 -511 -162zM852 196q239 0 363.5 143t124.5 378t-124.5 378t-363.5 143t-363.5 -143t-124.5 -378t124.5 -378t363.5 -143z" />
    <glyph glyph-name="uni024B" unicode="&#x24b;" horiz-adv-x="1369" 
d="M1192 1022v-1022q0 -46 0.5 -74t3.5 -66t8 -61t15 -49t24.5 -40t36 -23.5t49.5 -9.5q69 0 141 29l69 -191q-99 -47 -230 -47q-91 0 -156 22.5t-106 63t-64.5 108.5t-32.5 147t-9 191v171q-45 -91 -145.5 -141t-203.5 -50q-154 0 -269.5 70t-174 189.5t-58.5 271.5
t58.5 271.5t174 189.5t269.5 70q103 0 203.5 -50t145.5 -141v171h251zM644 190q149 0 223 92t74 229t-74 229t-223 92t-223 -92t-74 -229t74 -229t223 -92z" />
    <glyph glyph-name="uni024C" unicode="&#x24c;" horiz-adv-x="1548" 
d="M30 530v226h261v678h607q270 0 404 -119t134 -333q0 -326 -330 -416l332 -566h-303l-310 530h-264v-530h-270v530h-261zM898 1208h-337v-452h337q141 0 203.5 53.5t62.5 172.5t-62.5 172.5t-203.5 53.5z" />
    <glyph glyph-name="uni024D" unicode="&#x24d;" horiz-adv-x="1006" 
d="M10 369v209h202v444h251v-156q21 60 70.5 101.5t104.5 58t113 16.5q124 0 215 -41l-116 -201q-54 33 -139 33q-233 0 -248 -255h202v-209h-202v-369h-251v369h-202z" />
    <glyph glyph-name="uni024E" unicode="&#x24e;" horiz-adv-x="1484" 
d="M137 933v226h103l-180 275h292l177 -275h426l177 275h292l-180 -275h103v-226h-251l-219 -336v-597h-270v598l-219 335h-251zM674 933l68 -105l67 105h-135z" />
    <glyph glyph-name="uni024F" unicode="&#x24f;" horiz-adv-x="1270" 
d="M40 441v209h196l-159 372h267l149 -372h284l150 372h267l-160 -372h196v-209h-286l-315 -736q-14 -29 -20 -41.5t-19.5 -38t-23 -38t-25.5 -32.5t-31 -30t-36.5 -23t-44.5 -19t-52.5 -10.5t-63.5 -4.5q-56 0 -114.5 14t-97.5 35l85 188q60 -28 110 -28q14 0 25.5 1.5
t22 6.5t18 8.5t15.5 14t12.5 14.5t12 19l10 20t11 24t11.5 24l80 191l-189 441h-285zM576 441l59 -146l58 146h-117z" />
    <glyph glyph-name="uni0250" unicode="&#x250;" horiz-adv-x="1197" 
d="M584 189q82 0 173.5 19.5t165.5 52.5l95 -179q-178 -102 -434 -102q-135 0 -223 25.5t-139 84.5t-71.5 142t-20.5 210v580h251l1 -161q77 181 331 181q177 0 285.5 -83.5t108.5 -253.5q0 -76 -28.5 -137t-79.5 -101t-120 -68.5t-149.5 -39t-169.5 -13t-179 9.5
q0 -96 42.5 -131.5t160.5 -35.5zM855 695q0 138 -182 138q-130 0 -212 -63.5t-80 -147.5v-104q43 0 101.5 -3t124 6.5t120.5 25.5t91.5 54.5t36.5 93.5z" />
    <glyph glyph-name="uni0251" unicode="&#x251;" horiz-adv-x="1322" 
d="M941 1022h251v-1022h-251v171q-45 -91 -145.5 -141t-203.5 -50q-154 0 -269.5 70t-174 189.5t-58.5 271.5t58.5 271.5t174 189.5t269.5 70q103 0 203.5 -50t145.5 -141v171zM644 190q149 0 223 92t74 229t-74 229t-223 92t-223 -92t-74 -229t74 -229t223 -92z" />
    <glyph glyph-name="uni0252" unicode="&#x252;" horiz-adv-x="1322" 
d="M130 1022h251v-171q45 91 145.5 141t203.5 50q154 0 269.5 -70t174 -189.5t58.5 -271.5t-58.5 -271.5t-174 -189.5t-269.5 -70q-103 0 -203.5 50t-145.5 141v-171h-251v1022zM678 190q149 0 223 92t74 229t-74 229t-223 92t-223 -92t-74 -229t74 -229t223 -92z" />
    <glyph glyph-name="uni0253" unicode="&#x253;" horiz-adv-x="1322" 
d="M381 1004v-153q45 91 145.5 141t203.5 50q154 0 269.5 -70t174 -189.5t58.5 -271.5t-58.5 -271.5t-174 -189.5t-269.5 -70q-103 0 -203.5 50t-145.5 141v-171h-251v1004q0 112 9 191t32.5 147t64.5 108.5t106 63t156 22.5q131 0 230 -47l-69 -191q-73 29 -141 29
q-28 0 -49.5 -9.5t-36 -23.5t-24.5 -40t-15 -49t-8 -61t-3.5 -66t-0.5 -74zM678 190q149 0 223 92t74 229t-74 229t-223 92t-223 -92t-74 -229t74 -229t223 -92z" />
    <glyph glyph-name="uni0254" unicode="&#x254;" horiz-adv-x="1152" 
d="M805 511q0 65 -18.5 121.5t-55.5 102t-98.5 72t-140.5 26.5q-169 0 -292 -97l-130 159q148 147 422 147q257 0 413.5 -150.5t156.5 -380.5t-156.5 -380.5t-413.5 -150.5q-274 0 -422 147l128 161q126 -99 294 -99q79 0 140.5 26.5t98.5 72t55.5 102t18.5 121.5z" />
    <glyph glyph-name="uni0255" unicode="&#x255;" horiz-adv-x="1145" 
d="M327 511q0 -116 54 -198q167 192 395 192q57 0 108 -13t95 -40t70 -75t26 -111q0 -136 -116 -211t-319 -75q-119 0 -224 36q-28 -57 -51 -120t-31 -98l-9 -34l-181 64q29 134 104 283q-86 72 -132 175t-46 225q0 230 156.5 380.5t413.5 150.5q274 0 422 -147l-130 -159
q-123 97 -292 97q-79 0 -140.5 -26.5t-98.5 -72t-55.5 -102t-18.5 -121.5zM774 317q-128 0 -235 -116q45 -12 101 -12q229 0 229 77q0 51 -95 51z" />
    <glyph glyph-name="uni0256" unicode="&#x256;" horiz-adv-x="1349" 
d="M1470 -294l69 -191q-99 -47 -230 -47q-91 0 -156 22.5t-106 63t-64.5 108.5t-32.5 147t-9 191v171q-45 -91 -145.5 -141t-203.5 -50q-154 0 -269.5 70t-174 189.5t-58.5 271.5t58.5 271.5t174 189.5t269.5 70q103 0 203.5 -50t145.5 -141v665h251v-1516q0 -46 0.5 -74
t3.5 -66t8 -61t15 -49t24.5 -40t36 -23.5t49.5 -9.5q69 0 141 29zM644 190q149 0 223 92t74 229t-74 229t-223 92t-223 -92t-74 -229t74 -229t223 -92z" />
    <glyph glyph-name="uni0257" unicode="&#x257;" horiz-adv-x="1399" 
d="M1192 0h-251v171q-45 -91 -145.5 -141t-203.5 -50q-154 0 -269.5 70t-174 189.5t-58.5 271.5t58.5 271.5t174 189.5t269.5 70q103 0 203.5 -50t145.5 -141v153q0 112 9 191t32.5 147t64.5 108.5t106 63t156 22.5q131 0 230 -47l-69 -191q-72 29 -141 29q-28 0 -49.5 -9.5
t-36 -23.5t-24.5 -40t-15 -49t-8 -61t-3.5 -66t-0.5 -74v-1004zM644 190q149 0 223 92t74 229t-74 229t-223 92t-223 -92t-74 -229t74 -229t223 -92z" />
    <glyph glyph-name="uni0258" unicode="&#x258;" horiz-adv-x="1262" 
d="M632 189q58 0 106 16.5t77.5 41.5t49.5 56t28 58.5t8 51.5h-809q-15 302 129 465.5t411 163.5q171 0 295 -70.5t184.5 -189t60.5 -271.5q0 -235 -142 -383t-398 -148q-304 0 -470 165l152 151q126 -106 318 -107zM363 610h538q0 31 -14 66.5t-42.5 72t-84 60.5t-128.5 24
t-128.5 -24t-84 -60.5t-42.5 -72t-14 -66.5z" />
    <glyph glyph-name="uni0259" unicode="&#x259;" horiz-adv-x="1262" 
d="M632 833q-192 -1 -318 -107l-152 151q166 165 470 165q256 0 398 -148t142 -383q0 -153 -60.5 -271.5t-184.5 -189t-295 -70.5q-267 0 -411 163.5t-129 465.5h809q0 24 -8 51.5t-28 58.5t-49.5 56t-77.5 41.5t-106 16.5zM901 412h-538q0 -31 14 -66.5t42.5 -72t84 -60.5
t128.5 -24t128.5 24t84 60.5t42.5 72t14 66.5z" />
    <glyph glyph-name="uni025A" unicode="&#x25a;" horiz-adv-x="1579" 
d="M620 833q-198 -1 -318 -107l-157 145q94 92 209.5 131.5t265.5 39.5q177 0 309 -91t187 -244l319 52q-11 -18 -20.5 -41.5t-16 -53t-3.5 -55t16.5 -46.5t45 -27.5t82.5 1.5v-242q-7 -1 -18.5 -2.5t-44.5 -2t-63 4t-65.5 18.5t-60.5 37.5t-40 66t-11 98.5l-86 -14
q-4 -230 -144 -375.5t-386 -145.5q-239 0 -381 144t-149 415l787 130q-5 24 -18 48.5t-40.5 52.5t-79 45.5t-119.5 17.5zM899 460l-538 -88q3 -22 11.5 -44t28 -48t46.5 -45.5t72 -32.5t101 -13q71 0 126 23t87.5 62t49 86t16.5 100z" />
    <glyph glyph-name="uni025B" unicode="&#x25b;" horiz-adv-x="1095" 
d="M854 270l151 -156q-139 -134 -463 -134q-97 0 -177.5 19t-143 57.5t-97 103t-34.5 149.5q0 82 48.5 139t125.5 82q-71 31 -108 90t-37 120q0 99 60 169t153.5 101.5t209.5 31.5q270 0 421 -134l-151 -156q-45 36 -118.5 58.5t-151.5 22.5q-87 0 -129.5 -25.5t-42.5 -67.5
q0 -62 74.5 -87.5t265.5 -25.5v-209q-201 0 -285 -23.5t-84 -85.5q0 -57 51.5 -88.5t149.5 -31.5q188 0 312 81z" />
    <glyph glyph-name="uni025C" unicode="&#x25c;" horiz-adv-x="1095" 
d="M90 114l151 156q124 -81 312 -81q98 0 149.5 31.5t51.5 88.5q0 62 -84 85.5t-285 23.5v209q191 0 265.5 25.5t74.5 87.5q0 42 -42.5 67.5t-129.5 25.5q-78 0 -151.5 -22.5t-118.5 -58.5l-151 156q151 134 421 134q116 0 209.5 -31.5t153.5 -101.5t60 -169q0 -61 -37 -120
t-108 -90q77 -25 125.5 -82t48.5 -139q0 -85 -34.5 -149.5t-97 -103t-143 -57.5t-177.5 -19q-324 0 -463 134z" />
    <glyph glyph-name="uni025D" unicode="&#x25d;" horiz-adv-x="1334" 
d="M90 114l151 156q124 -81 312 -81q98 0 149.5 31.5t51.5 88.5q0 62 -84 85.5t-285 23.5v209q191 0 265.5 25.5t74.5 87.5q0 42 -42.5 67.5t-129.5 25.5q-78 0 -151.5 -22.5t-118.5 -58.5l-151 156q151 134 421 134q111 0 202 -29.5t152 -94t68 -155.5l275 44
q-11 -18 -20.5 -41.5t-16 -53t-3.5 -55t16.5 -46.5t45 -27.5t82.5 1.5v-242q-7 -1 -18.5 -2.5t-44.5 -2t-63 4t-65.5 18.5t-60.5 37.5t-40 66t-11 98.5l-220 -33q77 -25 125.5 -82t48.5 -139q0 -85 -34.5 -149.5t-97 -103t-143 -57.5t-177.5 -19q-324 0 -463 134z" />
    <glyph glyph-name="uni025E" unicode="&#x25e;" horiz-adv-x="1147" 
d="M90 511q0 245 138.5 388t387.5 143q184 0 295.5 -81t111.5 -225q0 -88 -51.5 -139t-117.5 -67q203 -40 203 -231q0 -81 -32.5 -142.5t-91.5 -100t-139 -57.5t-178 -19q-249 0 -387.5 143t-138.5 388zM341 511q0 -322 275 -322q190 0 190 110q0 27 -7.5 46t-26.5 32
t-42 20.5t-63 12t-79.5 5.5t-101.5 1v209q165 0 225.5 23.5t60.5 87.5q0 97 -156 97q-275 0 -275 -322z" />
    <glyph glyph-name="uni025F" unicode="&#x25f;" horiz-adv-x="671" 
d="M-180 -485l69 191q73 -29 141 -29q28 0 49.5 9.5t36 23.5t24.5 40t15 49t8 61t3.5 66t0.5 74h-213v209h213v813h251v-813h213v-209h-213q0 -112 -9 -191t-32.5 -147t-64.5 -108.5t-106 -63t-156 -22.5q-131 0 -230 47z" />
    <glyph glyph-name="uni0260" unicode="&#x260;" horiz-adv-x="1369" 
d="M1192 1004v-1004q0 -532 -566 -532q-144 0 -267 35.5t-209 97.5l129 168q151 -91 347 -91q154 0 234.5 71.5t80.5 250.5v171q-45 -91 -145.5 -141t-203.5 -50q-154 0 -269.5 70t-174 189.5t-58.5 271.5t58.5 271.5t174 189.5t269.5 70q103 0 203.5 -50t145.5 -141v153
q0 112 9 191t32.5 147t64.5 108.5t106 63t156 22.5q131 0 230 -47l-69 -191q-72 29 -141 29q-28 0 -49.5 -9.5t-36 -23.5t-24.5 -40t-15 -49t-8 -61t-3.5 -66t-0.5 -74zM644 190q149 0 223 92t74 229t-74 229t-223 92t-223 -92t-74 -229t74 -229t223 -92z" />
    <glyph glyph-name="uni0261" unicode="&#x261;" horiz-adv-x="1322" 
d="M941 1022h251v-1022q0 -532 -566 -532q-144 0 -267 35.5t-209 97.5l129 168q151 -91 347 -91q154 0 234.5 71.5t80.5 250.5v171q-45 -91 -145.5 -141t-203.5 -50q-154 0 -269.5 70t-174 189.5t-58.5 271.5t58.5 271.5t174 189.5t269.5 70q103 0 203.5 -50t145.5 -141v171
zM644 190q149 0 223 92t74 229t-74 229t-223 92t-223 -92t-74 -229t74 -229t223 -92z" />
    <glyph glyph-name="uni0262" unicode="&#x262;" horiz-adv-x="1214" 
d="M668 397v209h436v-488q-165 -138 -455 -138q-162 0 -287.5 60.5t-198.5 182t-73 288.5t73 288.5t198.5 182t287.5 60.5q265 0 439 -132l-114 -174q-76 52 -152 74.5t-173 22.5q-86 0 -154 -33t-111 -107.5t-43 -181.5t43 -181.5t111 -107.5t154 -33q79 0 125 9t99 33v166
h-205z" />
    <glyph glyph-name="uni0263" unicode="&#x263;" horiz-adv-x="1394" 
d="M305 1022l392 -859l392 859h265l-496 -1022q113 -153 113 -274q0 -124 -74.5 -191t-199.5 -67t-199.5 67t-74.5 191q0 121 113 274l-496 1022h265zM697 -120q-25 -27 -46.5 -70.5t-21.5 -83.5q0 -35 18 -54.5t50 -19.5t50 19.5t18 54.5q0 40 -21.5 83.5t-46.5 70.5z" />
    <glyph glyph-name="uni0264" unicode="&#x264;" horiz-adv-x="1282" 
d="M641 -106q-118 0 -192 59.5t-74 171.5q0 90 95 191l-430 706h277l324 -565l324 565h277l-430 -706q95 -101 95 -191q0 -112 -74 -171.5t-192 -59.5zM641 66q26 0 36.5 19t10.5 40q0 40 -47 85q-47 -45 -47 -85q0 -21 10.5 -40t36.5 -19z" />
    <glyph glyph-name="uni0265" unicode="&#x265;" 
d="M876 475v547h251v-1554h-251v688q-21 -60 -70.5 -101.5t-104.5 -58t-113 -16.5q-215 0 -336.5 127.5t-121.5 367.5v547h251v-547q0 -135 63 -210.5t184 -75.5q122 0 185 75.5t63 210.5z" />
    <glyph glyph-name="uni0266" unicode="&#x266;" 
d="M381 547v-547h-251v1004q0 112 9 191t32.5 147t64.5 108.5t106 63t156 22.5q131 0 230 -47l-69 -191q-73 29 -141 29q-28 0 -49.5 -9.5t-36 -23.5t-24.5 -40t-15 -49t-8 -61t-3.5 -66t-0.5 -74v-138q21 60 70.5 101.5t104.5 58t113 16.5q215 0 336.5 -127.5t121.5 -367.5
v-547h-251v547q0 135 -63 210.5t-184 75.5q-122 0 -185 -75.5t-63 -210.5z" />
    <glyph glyph-name="uni0267" unicode="&#x267;" 
d="M381 547v-547h-251v1004q0 112 9 191t32.5 147t64.5 108.5t106 63t156 22.5q131 0 230 -47l-69 -191q-73 29 -141 29q-28 0 -49.5 -9.5t-36 -23.5t-24.5 -40t-15 -49t-8 -61t-3.5 -66t-0.5 -74v-138q21 60 70.5 101.5t104.5 58t113 16.5q215 0 336.5 -127.5t121.5 -367.5
v-547q0 -112 -9 -191t-32.5 -147t-64.5 -108.5t-106 -63t-156 -22.5q-131 0 -230 47l69 191q73 -29 141 -29q28 0 49.5 9.5t36 23.5t24.5 40t15 49t8 61t3.5 66t0.5 74v547q0 135 -63 210.5t-184 75.5q-122 0 -185 -75.5t-63 -210.5z" />
    <glyph glyph-name="uni0268" unicode="&#x268;" horiz-adv-x="727" 
d="M40 490v209h198v323h251v-323h198v-209h-198v-490h-251v490h-198zM216 1327q0 61 43 104t104 43t104 -43t43 -104t-43 -104t-104 -43t-104 43t-43 104z" />
    <glyph glyph-name="uni0269" unicode="&#x269;" horiz-adv-x="585" 
d="M130 360v662h270v-658q0 -33 1 -50t6.5 -41.5t19 -35.5t35.5 -11h33v-226h-129q-62 0 -107.5 23t-69.5 56t-38 85t-17.5 95t-3.5 101z" />
    <glyph glyph-name="uni026A" unicode="&#x26a;" horiz-adv-x="530" 
d="M130 0v1022h270v-1022h-270z" />
    <glyph glyph-name="uni026B" unicode="&#x26b;" horiz-adv-x="785" 
d="M267 1043v473h251v-571q19 5 29 24.5t11 36.5l1 16h185v-14t-4 -34t-11 -48.5t-23.5 -52t-39.5 -49t-61.5 -35.5t-86.5 -16v-409q0 -41 1 -61t6.5 -46t19 -37t35.5 -11h33v-209h-129q-40 0 -71.5 8t-54 26t-38.5 36.5t-26 50t-15.5 54t-8 62t-3 61t-0.5 62.5v511
q-19 -5 -29.5 -24t-11.5 -35v-17h-185v14t4 34t11 48t23.5 51.5t39.5 49t61.5 35.5t86.5 16z" />
    <glyph glyph-name="uni026C" unicode="&#x26c;" horiz-adv-x="836" 
d="M367 1087v429h251v-759h178v-209h-178v-184q0 -41 1 -61t6.5 -46t19 -37t35.5 -11h33v-209h-129q-40 0 -71.5 8t-54 26t-38.5 36.5t-26 50t-15.5 54t-8 62t-3 61t-0.5 62.5v188h-21q-67 0 -128.5 28t-104.5 91t-43 149q0 129 80.5 200t216.5 71zM367 757v121
q-84 0 -84 -62q0 -24 16.5 -41.5t46.5 -17.5h21z" />
    <glyph glyph-name="uni026D" unicode="&#x26d;" horiz-adv-x="558" 
d="M130 0v1516h251v-1516q0 -46 0.5 -74t3.5 -66t8 -61t15 -49t24.5 -40t36 -23.5t49.5 -9.5q68 0 141 29l69 -191q-99 -47 -230 -47q-91 0 -156 22.5t-106 63t-64.5 108.5t-32.5 147t-9 191z" />
    <glyph glyph-name="uni026E" unicode="&#x26e;" horiz-adv-x="1432" 
d="M313 -364l116 173q119 -132 352 -132q156 0 233 75t77 208q0 167 -113.5 242.5t-368.5 75.5v156l324 379h-552v-449q0 -41 1 -61t6.5 -46t19 -37t35.5 -11h33v-209h-129q-40 0 -71.5 8t-54 26t-38.5 36.5t-26 50t-15.5 54t-8 62t-3 61t-0.5 62.5v1156h251v-494h882v-145
l-363 -426q65 -12 124 -33t118.5 -60.5t102.5 -92t70 -131t27 -174.5q0 -159 -73 -271.5t-198 -166.5t-290 -54q-176 0 -296 50.5t-172 117.5z" />
    <glyph glyph-name="uni026F" unicode="&#x26f;" horiz-adv-x="1809" 
d="M1679 1022v-1022h-251v94q-26 -47 -94.5 -80.5t-142.5 -33.5q-117 0 -202.5 37.5t-132.5 103.5q-44 -59 -129.5 -100t-184.5 -41q-193 0 -302.5 109.5t-109.5 336.5v596h251v-596q0 -110 49 -173.5t150 -63.5t150 63.5t49 173.5v596h251v-596q0 -110 49 -173.5t150 -63.5
t150 63.5t49 173.5v596h251z" />
    <glyph glyph-name="uni0270" unicode="&#x270;" horiz-adv-x="1809" 
d="M1679 1022v-1554h-251v626q-26 -47 -94.5 -80.5t-142.5 -33.5q-117 0 -202.5 37.5t-132.5 103.5q-44 -59 -129.5 -100t-184.5 -41q-193 0 -302.5 109.5t-109.5 336.5v596h251v-596q0 -108 52 -172.5t147 -64.5t147 64.5t52 172.5v596h251v-596q0 -108 52 -172.5
t147 -64.5t147 64.5t52 172.5v596h251z" />
    <glyph glyph-name="uni0271" unicode="&#x271;" horiz-adv-x="1809" 
d="M130 0v1022h251v-94q26 47 94.5 80.5t142.5 33.5q117 0 202.5 -37.5t132.5 -103.5q44 59 129.5 100t184.5 41q193 0 302.5 -109.5t109.5 -336.5v-1128h-251v1128q0 108 -52 172.5t-147 64.5t-147 -64.5t-52 -172.5v-596h-251v596q0 108 -52 172.5t-147 64.5t-147 -64.5
t-52 -172.5v-596h-251z" />
    <glyph glyph-name="uni0272" unicode="&#x272;" horiz-adv-x="1304" 
d="M428 547v-547q0 -112 -9 -191t-32.5 -147t-64.5 -108.5t-106 -63t-156 -22.5q-131 0 -230 47l69 191q73 -29 141 -29q28 0 49.5 9.5t36 23.5t24.5 40t15 49t8 61t3.5 66t0.5 74v1022h251v-156q21 60 70.5 101.5t104.5 58t113 16.5q215 0 336.5 -127.5t121.5 -367.5v-547
h-251v547q0 135 -63 210.5t-184 75.5q-122 0 -185 -75.5t-63 -210.5z" />
    <glyph glyph-name="uni0273" unicode="&#x273;" horiz-adv-x="1304" 
d="M876 0v547q0 135 -63 210.5t-184 75.5q-122 0 -185 -75.5t-63 -210.5v-547h-251v1022h251v-156q21 60 70.5 101.5t104.5 58t113 16.5q215 0 336.5 -127.5t121.5 -367.5v-547q0 -46 0.5 -74t3.5 -66t8 -61t15 -49t24.5 -40t36 -23.5t49.5 -9.5q68 0 141 29l69 -191
q-99 -47 -230 -47q-91 0 -156 22.5t-106 63t-64.5 108.5t-32.5 147t-9 191z" />
    <glyph glyph-name="uni0274" unicode="&#x274;" horiz-adv-x="1217" 
d="M130 0v1022h276l430 -634v634h251v-1022h-276l-430 634v-634h-251z" />
    <glyph glyph-name="uni0275" unicode="&#x275;" horiz-adv-x="1320" 
d="M1230 511q0 -231 -156.5 -381t-413.5 -150t-413.5 150.5t-156.5 380.5t156.5 380.5t413.5 150.5t413.5 -150t156.5 -381zM660 833q-123 0 -198.5 -60t-101.5 -158h600q-27 98 -102 158t-198 60zM660 189q123 0 197.5 59.5t101.5 157.5h-599q26 -98 101.5 -157.5
t198.5 -59.5z" />
    <glyph glyph-name="uni0276" unicode="&#x276;" horiz-adv-x="1643" 
d="M830 1022h723v-209h-472v-182h449v-209h-449v-213h472v-209h-722q-82 -20 -171 -20q-257 0 -413.5 150.5t-156.5 380.5t156.5 380.5t413.5 150.5q88 0 170 -20zM660 833q-79 0 -140.5 -26.5t-98.5 -72t-55.5 -102t-18.5 -121.5t18.5 -121.5t55.5 -102t98.5 -72
t140.5 -26.5q99 0 170 41v562q-71 41 -170 41z" />
    <glyph glyph-name="uni0277" unicode="&#x277;" horiz-adv-x="1512" 
d="M756 1042q106 0 199.5 -17.5t180.5 -59.5t149.5 -105.5t99.5 -163t37 -225.5q0 -241 -110.5 -366t-288.5 -125q-109 0 -177 68t-90 170q-22 -102 -90 -170t-177 -68q-178 0 -288.5 125t-110.5 366q0 126 37 225.5t99.5 163t149.5 105.5t180.5 59.5t199.5 17.5zM756 833
q-197 0 -305.5 -92t-108.5 -270q0 -47 7 -92.5t22 -90t45.5 -72t72.5 -27.5q43 0 72 34t43.5 99.5t20 138.5t5.5 175h252q0 -102 5.5 -175t20 -138.5t43.5 -99.5t72 -34q42 0 72.5 27.5t45.5 72t22 90t7 92.5q0 178 -108.5 270t-305.5 92z" />
    <glyph glyph-name="uni0278" unicode="&#x278;" horiz-adv-x="1447" 
d="M849 -20v-512h-251v512q-92 4 -180.5 40t-162.5 99.5t-119.5 165.5t-45.5 226q0 123 45.5 225t119.5 166t162.5 100t180.5 40v474h251v-474q92 -4 180.5 -40t162.5 -100t119.5 -166t45.5 -225q0 -124 -45.5 -226t-119.5 -165.5t-162.5 -99.5t-180.5 -40zM1106 511
q0 140 -75.5 228t-181.5 94v-644q108 13 182.5 98t74.5 224zM341 511q0 -139 74.5 -224t182.5 -98v644q-106 -6 -181.5 -94t-75.5 -228z" />
    <glyph glyph-name="uni0279" unicode="&#x279;" horiz-adv-x="954" 
d="M70 21l116 201q54 -33 139 -33q248 0 248 286v547h251v-1022h-251v156q-21 -60 -70.5 -101.5t-104.5 -58t-113 -16.5q-124 0 -215 41z" />
    <glyph glyph-name="uni027A" unicode="&#x27a;" horiz-adv-x="954" 
d="M70 21l116 201q54 -33 139 -33q248 0 248 286v1041h251v-1516h-251v156q-21 -60 -70.5 -101.5t-104.5 -58t-113 -16.5q-124 0 -215 41z" />
    <glyph glyph-name="uni027B" unicode="&#x27b;" horiz-adv-x="1001" 
d="M573 1022h251v-1022q0 -46 0.5 -74t3.5 -66t8 -61t15 -49t24.5 -40t36 -23.5t49.5 -9.5q69 0 141 29l69 -191q-99 -47 -230 -47q-91 0 -156 22.5t-106 63t-64.5 108.5t-32.5 147t-9 191v156q-21 -60 -70.5 -101.5t-104.5 -58t-113 -16.5q-124 0 -215 41l116 201
q54 -33 139 -33q248 0 248 286v547z" />
    <glyph glyph-name="uni027C" unicode="&#x27c;" horiz-adv-x="924" 
d="M884 1001l-116 -201q-54 33 -139 33q-248 0 -248 -286v-1079h-251v1554h251v-156q21 60 70.5 101.5t104.5 58t113 16.5q124 0 215 -41z" />
    <glyph glyph-name="uni027D" unicode="&#x27d;" horiz-adv-x="924" 
d="M884 1001l-116 -201q-54 33 -139 33q-248 0 -248 -286v-547q0 -55 6 -90.5t19 -53t27 -24t35 -6.5q66 0 139 82l128 -190q-113 -139 -291 -139q-75 0 -128.5 18t-97.5 63t-66 130t-22 210v1022h251v-156q21 60 70.5 101.5t104.5 58t113 16.5q124 0 215 -41z" />
    <glyph glyph-name="uni027E" unicode="&#x27e;" horiz-adv-x="905" 
d="M865 1005l-89 -207q-56 25 -118 25q-118 0 -197.5 -81.5t-79.5 -231.5v-510h-251v510q0 123 42.5 225t115 168.5t168 102.5t202.5 36q108 0 207 -37z" />
    <glyph glyph-name="uni027F" unicode="&#x27f;" horiz-adv-x="935" 
d="M159 798l-89 207q99 37 207 37q107 0 202.5 -36t168 -102.5t115 -168.5t42.5 -225v-1042h-251v1042q0 150 -79.5 231.5t-197.5 81.5q-62 0 -118 -25z" />
    <glyph glyph-name="uni0280" unicode="&#x280;" horiz-adv-x="1128" 
d="M380 0h-250v1022h512q168 0 268.5 -96t100.5 -246q0 -122 -64 -196.5t-157 -105.5l268 -378h-283l-238 339h-157v-339zM642 813h-262v-265h262q53 0 85.5 37.5t32.5 94.5t-32.5 95t-85.5 38z" />
    <glyph glyph-name="uni0281" unicode="&#x281;" horiz-adv-x="1128" 
d="M130 1022h250v-339h157l238 339h283l-268 -378q93 -31 157 -105.5t64 -196.5q0 -150 -100.5 -246t-268.5 -96h-512v1022zM380 209h262q53 0 85.5 38t32.5 95t-32.5 94.5t-85.5 37.5h-262v-265z" />
    <glyph glyph-name="uni0282" unicode="&#x282;" horiz-adv-x="1029" 
d="M70 0v303q146 -68 248.5 -91t195.5 -23q105 0 149 27.5t44 83.5q0 25 -13.5 42.5t-46 29.5t-63.5 19.5t-87 17.5q-11 2 -17 3q-217 40 -313 117t-96 211q0 139 101 220.5t320 81.5q257 0 418 -101l-106 -181q-140 73 -312 73q-170 0 -170 -93q0 -46 50 -71.5t153 -45.5
q89 -17 151 -34t119 -43t91 -60t53.5 -83t19.5 -113q0 -158 -117 -234t-328 -76q-90 0 -193 20q0 -46 0.5 -74t3.5 -66t8 -61t15 -49t24.5 -40t36 -23.5t49.5 -9.5q68 0 141 29l69 -191q-99 -47 -230 -47q-91 0 -156 22.5t-106 63t-64.5 108.5t-32.5 147t-9 191z" />
    <glyph glyph-name="uni0283" unicode="&#x283;" horiz-adv-x="725" 
d="M100 -324q28 0 49.5 9.5t36 23.5t24.5 40t15 49t8 61t3.5 66t0.5 74v1005q0 112 9 191t32.5 147t64.5 108.5t106 63t156 22.5q131 0 230 -47l-69 -191q-72 29 -141 29q-28 0 -49.5 -9.5t-36 -23.5t-24.5 -40t-15 -49t-8 -61t-3.5 -66t-0.5 -74v-1005q0 -112 -9 -191
t-32.5 -147t-64.5 -108.5t-106 -63t-156 -22.5q-131 0 -230 47l69 191q73 -29 141 -29z" />
    <glyph glyph-name="uni0284" unicode="&#x284;" horiz-adv-x="765" 
d="M120 -324q28 0 49.5 9.5t36 23.5t24.5 40t15 49t8 61t3.5 66t0.5 74v1h-231v226h231v778q0 112 9 191t32.5 147t64.5 108.5t106 63t156 22.5q131 0 230 -47l-69 -191q-72 29 -141 29q-28 0 -49.5 -9.5t-36 -23.5t-24.5 -40t-15 -49t-8 -61t-3.5 -66t-0.5 -74v-778h230
v-226h-230v-1q0 -112 -9 -191t-32.5 -147t-64.5 -108.5t-106 -63t-156 -22.5q-131 0 -230 47l69 191q73 -29 141 -29z" />
    <glyph glyph-name="uni0285" unicode="&#x285;" horiz-adv-x="755" 
d="M715 -323q69 0 141 29l69 -191q-99 -47 -230 -47q-91 0 -156 22.5t-106 63t-64.5 108.5t-32.5 147t-9 191v510q0 46 -0.5 74t-3.5 66t-8 61t-15 49t-24.5 40t-36 23.5t-49.5 9.5q-68 0 -141 -29l-69 191q99 47 230 47q91 0 156 -22.5t106 -63t64.5 -108.5t32.5 -147
t9 -191v-510q0 -46 0.5 -74t3.5 -66t8 -61t15 -49t24.5 -40t36 -23.5t49.5 -9.5z" />
    <glyph glyph-name="uni0286" unicode="&#x286;" horiz-adv-x="768" 
d="M493 425q116 0 174.5 -63.5t58.5 -147.5q0 -104 -66 -174t-198 -70q-99 0 -164 51q-8 -15 -17.5 -37t-14.5 -36l-5 -14l-191 98q33 92 85 166q-25 61 -25 149v657q0 112 9 191t32.5 147t64.5 108.5t106 63t156 22.5q131 0 230 -47l-69 -191q-73 29 -141 29
q-28 0 -49.5 -9.5t-36 -23.5t-24.5 -40t-15 -49t-8 -61t-3.5 -66t-0.5 -74v-612q46 33 112 33zM462 145q38 0 58.5 17.5t20.5 47.5q0 21 -15.5 30.5t-34.5 9.5q-66 0 -98 -59q2 -20 21.5 -33t47.5 -13z" />
    <glyph glyph-name="uni0287" unicode="&#x287;" horiz-adv-x="838" 
d="M768 508v-209h-197v-299h-251v299h-292v209h292v362q0 53 -2.5 88t-11 71t-24 56.5t-43 33.5t-66.5 13q-75 0 -137 -29l-56 193q102 45 233 45q106 0 177 -30t110.5 -93.5t55 -145.5t15.5 -202v-362h197z" />
    <glyph glyph-name="uni0288" unicode="&#x288;" horiz-adv-x="928" 
d="M70 813v209h197v299h251v-299h292v-209h-292v-874q0 -53 2.5 -88t11 -71t24 -56.5t43 -33.5t66.5 -13q75 0 137 29l56 -193q-102 -45 -233 -45q-106 0 -177 30t-110.5 93.5t-55 145.5t-15.5 202v874h-197z" />
    <glyph glyph-name="uni0289" unicode="&#x289;" horiz-adv-x="1429" 
d="M40 458v209h176v355h251v-355h495v355h251v-355h176v-209h-176v-458h-251v156q-21 -60 -70.5 -101.5t-104.5 -58t-113 -16.5q-211 0 -332.5 123t-125.5 355h-176zM714 189q117 0 180.5 71t67.5 198h-495q4 -127 67 -198t180 -71z" />
    <glyph glyph-name="uni028A" unicode="&#x28a;" horiz-adv-x="1348" 
d="M674 189q155 0 244 83.5t89 222.5q0 120 -71.5 220.5t-193.5 169.5v137h468v-209h-171q92 -44 155.5 -135t63.5 -203q0 -119 -45.5 -214.5t-125 -156t-185 -92.5t-228.5 -32t-228.5 32t-185 92.5t-125 156t-45.5 214.5q0 112 63.5 203t155.5 135h-171v209h468v-137
q-122 -69 -193.5 -169.5t-71.5 -220.5q0 -139 89 -222.5t244 -83.5z" />
    </font>
</defs>
</svg>
