<?xml version="1.0" standalone="no"?>
<!DOCTYPE svg PUBLIC "-//W3C//DTD SVG 1.1//EN" "http://www.w3.org/Graphics/SVG/1.1/DTD/svg11.dtd" >
<svg xmlns="http://www.w3.org/2000/svg" xmlns:xlink="http://www.w3.org/1999/xlink" version="1.1">
<metadata>
Created by FontForge 20170731 at Mon Jan 28 20:22:15 2019
 By Aleksey,,,
Copyright (c) 2017 by Artegra. All rights reserved.
</metadata>
<defs>
<font id="ArtegraSansLight" horiz-adv-x="1176" >
  <font-face 
    font-family="Artegra Sans Light"
    font-weight="300"
    font-stretch="normal"
    units-per-em="2048"
    panose-1="2 0 5 3 4 0 0 2 0 3"
    ascent="1516"
    descent="-532"
    x-height="998"
    cap-height="1434"
    bbox="-220 -598 2862 2099"
    underline-thickness="102"
    underline-position="-307"
    unicode-range="U+0020-FE65"
  />
<missing-glyph horiz-adv-x="1490" 
d="M1317 1434v-1434h-1144v1434h1144zM797 717l430 -593v1186zM693 717l-430 593v-1186zM342 1344l403 -556l402 556h-805zM745 645l-403 -555h805z" />
    <glyph glyph-name="ff" unicode="ff" horiz-adv-x="1453" 
d="M1013 998h309v-104h-309v-894h-120v894h-469v-894h-120v894h-211v104h211v75q0 71 6.5 125.5t25.5 109t52 89.5t89 57t133 22q82 0 141 -23l-37 -94q-45 13 -104 13q-56 0 -93.5 -19.5t-57.5 -61t-27.5 -92.5t-7.5 -126v-75h469v75q0 94 8 162.5t29.5 128t58 95.5
t95 56.5t139.5 20.5q101 0 167 -34l-37 -94q-63 24 -130 24q-48 0 -83 -10t-58 -33.5t-37 -50.5t-21 -72t-9 -87t-2 -106v-75z" />
    <glyph glyph-name="fi" unicode="fi" horiz-adv-x="1166" 
d="M1013 998v-998h-120v894h-469v-894h-120v894h-211v104h211v75q0 232 90 347.5t303 115.5q116 0 197 -39.5t119 -95.5l-76 -63q-32 39 -93 66.5t-147 27.5q-82 0 -136.5 -23.5t-84 -72.5t-41 -111t-11.5 -152v-75h589z" />
    <glyph glyph-name="fl" unicode="fl" horiz-adv-x="1224" 
d="M1013 1430v-1210q0 -20 0.5 -30.5t1.5 -26.5t4.5 -24.5t9 -17.5t15 -13t22.5 -4h45v-104h-45q-36 0 -63.5 7.5t-45.5 18t-30.5 30t-19 35t-10 42t-4 43t-0.5 44.5v674h-469v-894h-120v894h-211v104h211v75q0 232 90 347.5t303 115.5q114 0 193.5 -31.5t122.5 -74.5z
M697 1432q-82 0 -136.5 -23.5t-84 -72.5t-41 -111t-11.5 -152v-75h469v380q-76 54 -196 54z" />
    <glyph glyph-name="ffi" unicode="ffi" horiz-adv-x="1755" 
d="M1602 998v-998h-120v894h-469v-894h-120v894h-469v-894h-120v894h-211v104h211v75q0 71 6.5 125.5t25.5 109t52 89.5t89 57t133 22q82 0 141 -23l-37 -94q-45 13 -104 13q-56 0 -93.5 -19.5t-57.5 -61t-27.5 -92.5t-7.5 -126v-75h469v75q0 232 90 347.5t303 115.5
q116 0 197 -39.5t119 -95.5l-76 -63q-32 39 -93 66.5t-147 27.5q-82 0 -136.5 -23.5t-84 -72.5t-41 -111t-11.5 -152v-75h589z" />
    <glyph glyph-name="ffl" unicode="ffl" horiz-adv-x="1813" 
d="M424 1073v-75h469v75q0 232 90 347.5t303 115.5q114 0 193.5 -31.5t122.5 -74.5v-1210q0 -20 0.5 -30.5t1.5 -26.5t4.5 -24.5t9 -17.5t15 -13t22.5 -4h45v-104h-45q-36 0 -63.5 7.5t-45.5 18t-30.5 30t-19 35t-10 42t-4 43t-0.5 44.5v674h-469v-894h-120v894h-469v-894
h-120v894h-211v104h211v75q0 71 6.5 125.5t25.5 109t52 89.5t89 57t133 22q82 0 141 -23l-37 -94q-45 13 -104 13q-56 0 -93.5 -19.5t-57.5 -61t-27.5 -92.5t-7.5 -126zM1286 1432q-82 0 -136.5 -23.5t-84 -72.5t-41 -111t-11.5 -152v-75h469v380q-76 54 -196 54z" />
    <glyph glyph-name=".notdef" horiz-adv-x="1490" 
d="M1317 1434v-1434h-1144v1434h1144zM797 717l430 -593v1186zM693 717l-430 593v-1186zM342 1344l403 -556l402 556h-805zM745 645l-403 -555h805z" />
    <glyph glyph-name=".null" horiz-adv-x="0" 
 />
    <glyph glyph-name="nonmarkingreturn" horiz-adv-x="682" 
 />
    <glyph glyph-name="space" unicode=" " horiz-adv-x="573" 
 />
    <glyph glyph-name="exclam" unicode="!" horiz-adv-x="566" 
d="M230 316l-10 1118h126l-10 -1118h-106zM193 80q0 38 26.5 64t63.5 26t63.5 -26t26.5 -64t-26.5 -64t-63.5 -26t-63.5 26t-26.5 64z" />
    <glyph glyph-name="quotedbl" unicode="&#x22;" horiz-adv-x="657" 
d="M151 1018l-18 416h143l-15 -416h-110zM397 1018l-15 416h142l-15 -416h-112z" />
    <glyph glyph-name="numbersign" unicode="#" horiz-adv-x="1376" 
d="M133 436v116h242l53 330h-220v116h238l70 436h123l-70 -436h326l70 436h123l-70 -436h225v-116h-243l-53 -330h221v-116h-239l-69 -436h-123l69 436h-326l-69 -436h-123l69 436h-224zM551 882l-53 -330h326l53 330h-326z" />
    <glyph glyph-name="dollar" unicode="$" horiz-adv-x="1263" 
d="M1080 1334l-65 -96q-158 100 -399 100q-75 0 -136.5 -14t-109.5 -43t-74.5 -78t-26.5 -115q0 -106 86.5 -171.5t290.5 -111.5q134 -30 224.5 -65.5t155.5 -86.5t94.5 -120.5t29.5 -163.5q0 -125 -63.5 -213t-166 -129.5t-235.5 -45.5v-192h-116v194q-150 10 -267.5 51.5
t-188.5 104.5l65 96q88 -64 211 -101.5t266 -37.5q178 0 271.5 68.5t93.5 204.5q0 129 -84.5 198t-310.5 116q-251 54 -368.5 154.5t-117.5 250.5q0 163 110.5 259t319.5 106v190h116v-191q252 -11 395 -118z" />
    <glyph glyph-name="uni0025" unicode="%" horiz-adv-x="1452" 
d="M1195 1434l-803 -1434h-135l803 1434h135zM133 1160q0 120 80 202t204 82t204 -82t80 -202t-80 -202t-204 -82t-204 82t-80 202zM241 1160q0 -75 48.5 -125.5t127.5 -50.5t127.5 50.5t48.5 125.5t-48.5 125.5t-127.5 50.5t-127.5 -50.5t-48.5 -125.5zM751 274
q0 120 80 202t204 82t204 -82t80 -202t-80 -202t-204 -82t-204 82t-80 202zM859 274q0 -75 48.5 -125.5t127.5 -50.5t127.5 50.5t48.5 125.5t-48.5 125.5t-127.5 50.5t-127.5 -50.5t-48.5 -125.5z" />
    <glyph glyph-name="ampersand" unicode="&#x26;" horiz-adv-x="1470" 
d="M632 1454q143 0 221 -76.5t78 -209.5q0 -176 -194 -327l-136 -100q215 -285 372 -425q50 107 88 301l119 -15q-37 -221 -111 -363q58 -51 137.5 -111t129.5 -94l51 -34h-200q-85 59 -185 141q-153 -161 -404 -161q-82 0 -156 20t-136.5 59.5t-102.5 105t-48 150.5
q-6 64 7.5 122t36 99.5t66 87t78 74t92.5 71.5q-121 177 -121 342q0 164 86.5 253.5t231.5 89.5zM281 315q15 -107 106 -163t207 -56q203 0 315 118q-95 82 -205.5 207t-203.5 250q-100 -74 -131 -104q-102 -101 -90 -234zM538 837l124 90q143 110 143 241q0 80 -43.5 125
t-129.5 45q-33 0 -64.5 -11.5t-61.5 -36t-48 -71t-18 -108.5q0 -64 25.5 -137.5t72.5 -136.5z" />
    <glyph glyph-name="quotesingle" unicode="'" horiz-adv-x="409" 
d="M151 1018l-18 416h143l-14 -416h-111z" />
    <glyph glyph-name="parenleft" unicode="(" horiz-adv-x="820" 
d="M279 588q0 -112 14.5 -210.5t39.5 -171t57 -135t67.5 -104.5t71 -75.5t67.5 -52.5t57 -31.5t39 -17.5l15 -4l-40 -114q-7 2 -18 5.5t-46.5 19.5t-69.5 37t-80 60t-86 86.5t-80.5 119t-69 154t-46.5 195t-18 239.5t17.5 239.5t47.5 195.5t68.5 154t81 119t85 86t81 60.5
t68.5 37t48 19.5l17 5l40 -114q-5 -1 -15 -4.5t-39 -17t-57.5 -32t-67 -52.5t-71.5 -75.5t-67 -104t-57.5 -135t-38.5 -171t-15 -210.5z" />
    <glyph glyph-name="parenright" unicode=")" horiz-adv-x="820" 
d="M541 588q0 112 -14.5 210.5t-39.5 171t-57 135t-67.5 104.5t-71 75.5t-67.5 52.5t-57 31.5t-39 17.5l-15 4l40 114q7 -2 18 -5.5t46.5 -19.5t69.5 -37t80 -60t86 -86.5t80.5 -119t69 -154t46.5 -195t18 -239.5t-17.5 -239.5t-47.5 -195.5t-68.5 -154t-81 -119t-85 -86
t-81 -60.5t-68.5 -37t-48 -19.5l-17 -5l-40 114q5 1 15 4.5t39 17t57.5 32t67 52.5t71.5 75.5t67 104t57.5 135t38.5 171t15 210.5z" />
    <glyph glyph-name="asterisk" unicode="*" horiz-adv-x="934" 
d="M632 745l-165 232l-165 -232l-93 75l175 221l-271 85l38 116l260 -93l-4 285h120l-4 -285l260 93l38 -116l-271 -85l175 -221z" />
    <glyph glyph-name="plus" unicode="+" horiz-adv-x="1198" 
d="M1065 760v-116h-408v-408h-116v408h-408v116h408v408h116v-408h408z" />
    <glyph glyph-name="comma" unicode="," horiz-adv-x="555" 
d="M113 -205l158 415h151l-190 -415h-119z" />
    <glyph glyph-name="hyphen" unicode="-" horiz-adv-x="894" 
d="M133 491v104h628v-104h-628z" />
    <glyph glyph-name="period" unicode="." horiz-adv-x="446" 
d="M133 80q0 38 26.5 64t63.5 26t63.5 -26t26.5 -64t-26.5 -64t-63.5 -26t-63.5 26t-26.5 64z" />
    <glyph glyph-name="slash" unicode="/" horiz-adv-x="1053" 
d="M133 0l659 1434h128l-659 -1434h-128z" />
    <glyph glyph-name="zero" unicode="0" horiz-adv-x="1374" 
d="M133 717q0 126 21 236t65 202.5t108.5 158.5t156 103t203.5 37t203.5 -37t156 -103t108.5 -158.5t65 -202.5t21 -236t-21 -236t-65 -202.5t-108.5 -158.5t-156 -103t-203.5 -37t-203.5 37t-156 103t-108.5 158.5t-65 202.5t-21 236zM261 717q0 -128 24 -236.5
t73.5 -196.5t133.5 -138t195 -50t195 50t133.5 138t73.5 196.5t24 236.5t-24 236.5t-73.5 196.5t-133.5 138t-195 50t-195 -50t-133.5 -138t-73.5 -196.5t-24 -236.5z" />
    <glyph glyph-name="one" unicode="1" horiz-adv-x="703" 
d="M169 1024l-86 90l350 320h97v-1434h-126v1239z" />
    <glyph glyph-name="two" unicode="2" horiz-adv-x="1236" 
d="M290 1113l-119 39q7 19 16.5 38.5t29.5 51t43.5 58.5t61 56.5t80 50t101 34t124.5 13.5q197 0 314.5 -96.5t117.5 -265.5q0 -106 -52.5 -198t-170.5 -227l-505 -551h752v-116h-930v92l609 671q96 107 133.5 180.5t37.5 148.5q0 110 -74.5 178t-231.5 68q-63 0 -118 -18.5
t-90 -43.5t-64 -59.5t-42 -57.5t-23 -46z" />
    <glyph glyph-name="three" unicode="3" horiz-adv-x="1221" 
d="M133 209l120 38q3 -6 10 -16.5t34 -36.5t61.5 -45.5t96.5 -36t135 -16.5q184 0 278 76t94 222q0 72 -27 125t-69 83t-106.5 48t-126 23.5t-140.5 5.5v116q38 0 73 2t80 9.5t82 19.5t74.5 34t63.5 51t42 71.5t16 95.5q0 117 -84 188.5t-250 71.5q-66 0 -122 -15.5
t-88.5 -38t-56 -44.5t-31.5 -38l-9 -15l-120 38q2 5 5.5 13t19.5 32t35.5 45.5t55 48t77.5 45.5t103 32t131 13q205 0 332.5 -98t127.5 -278q0 -74 -28 -136t-68 -97.5t-79.5 -60t-67.5 -33.5l-28 -9q43 -8 83.5 -23.5t82.5 -43.5t73 -65.5t50.5 -93t19.5 -122.5
q0 -202 -136 -308t-362 -106q-78 0 -145 12.5t-112.5 33t-82 44.5t-58 48.5t-35.5 45t-19 32.5z" />
    <glyph glyph-name="four" unicode="4" horiz-adv-x="1347" 
d="M1008 0h-126v386h-729v100l729 948h126v-931h206v-117h-206v-386zM314 503h568v739z" />
    <glyph glyph-name="five" unicode="5" horiz-adv-x="1284" 
d="M1041 1434v-116h-674l-26 -464q117 66 309 66q120 0 213 -36.5t151 -101t87.5 -149t29.5 -183.5t-29.5 -183.5t-87.5 -149t-151 -101t-213 -36.5q-73 0 -138.5 9.5t-112 25t-86.5 34t-65 37t-42.5 34t-25.5 24.5l-7 10l77 90q5 -6 16 -16t48.5 -35.5t80 -45t112 -35.5
t143.5 -16q91 0 160 27t111 75.5t63 112t21 139.5t-21 139.5t-63 112t-111 75.5t-160 27q-76 0 -149.5 -12.5t-124 -30.5t-90.5 -36t-59 -31l-19 -12l44 752h789z" />
    <glyph glyph-name="six" unicode="6" horiz-adv-x="1303" 
d="M1019 1408l-57 -105q-68 27 -137 34.5t-134 -5.5t-125 -44t-111 -84t-89 -122.5t-61.5 -162.5t-27.5 -201q55 110 159 166t221 56q109 0 196 -31.5t141.5 -80.5t90.5 -114t50.5 -127.5t14.5 -125.5t-14.5 -126t-50.5 -128.5t-90.5 -114.5t-141.5 -80.5t-196 -31.5
q-82 0 -151.5 19t-117.5 49t-86.5 73t-61.5 85t-40 92t-24 87t-12 76q-22 197 1.5 364.5t83 283t146 197t189.5 116.5t214.5 32.5t220.5 -46.5zM1024 461q0 70 -20.5 132.5t-62.5 115.5t-115 84t-169 31t-169 -31t-115 -84t-62.5 -115.5t-20.5 -132.5q0 -71 20.5 -134
t62.5 -116t115 -84t169 -31t169 31t115 84t62.5 116t20.5 134z" />
    <glyph glyph-name="seven" unicode="7" horiz-adv-x="1183" 
d="M133 1318v116h917v-87l-633 -1347h-131l618 1318h-771z" />
    <glyph glyph-name="eight" unicode="8" horiz-adv-x="1276" 
d="M638 1454q206 0 337 -103.5t131 -281.5q0 -109 -63.5 -192.5t-158.5 -123.5q114 -41 186.5 -135t72.5 -220q0 -103 -41 -184.5t-111.5 -131.5t-160.5 -76t-192 -26t-192 26t-160.5 76t-111.5 131.5t-41 184.5q0 126 72.5 220t186.5 135q-95 40 -158.5 123.5t-63.5 192.5
q0 178 131 281.5t337 103.5zM1017 398q0 137 -107.5 215.5t-271.5 78.5t-271.5 -78.5t-107.5 -215.5q0 -138 108 -220t271 -82t271 82t108 220zM638 1338q-149 0 -245.5 -71.5t-96.5 -197.5t96 -193.5t246 -67.5t246 67.5t96 193.5t-96.5 197.5t-245.5 71.5z" />
    <glyph glyph-name="nine" unicode="9" horiz-adv-x="1303" 
d="M284 26l57 105q68 -27 137 -34.5t134 5.5t125 44t111 84t89 122.5t61.5 162.5t27.5 201q-55 -110 -159 -166t-221 -56q-109 0 -196 31.5t-141.5 80.5t-90.5 114t-50.5 127.5t-14.5 125.5t14.5 126t50.5 128.5t90.5 114.5t141.5 80.5t196 31.5q82 0 151.5 -19t117.5 -49
t86.5 -73t61.5 -85t40 -92t24 -87t12 -76q22 -197 -1.5 -364.5t-83 -283t-146 -197t-189.5 -116.5t-214.5 -32.5t-220.5 46.5zM279 973q0 -70 20.5 -132.5t62.5 -115.5t115 -84t169 -31t169 31t115 84t62.5 115.5t20.5 132.5q0 71 -20.5 134t-62.5 116t-115 84t-169 31
t-169 -31t-115 -84t-62.5 -116t-20.5 -134z" />
    <glyph glyph-name="colon" unicode=":" horiz-adv-x="446" 
d="M133 80q0 38 26.5 64t63.5 26t63.5 -26t26.5 -64t-26.5 -64t-63.5 -26t-63.5 26t-26.5 64zM133 918q0 38 26.5 64t63.5 26t63.5 -26t26.5 -64t-26.5 -64t-63.5 -26t-63.5 26t-26.5 64z" />
    <glyph glyph-name="semicolon" unicode=";" horiz-adv-x="498" 
d="M33 -205l158 415h151l-190 -415h-119zM185 918q0 38 26.5 64t63.5 26t63.5 -26t26.5 -64t-26.5 -64t-63.5 -26t-63.5 26t-26.5 64z" />
    <glyph glyph-name="less" unicode="&#x3c;" horiz-adv-x="1196" 
d="M1043 94l-910 467v90l910 467v-136l-745 -376l745 -376v-136z" />
    <glyph glyph-name="equal" unicode="=" horiz-adv-x="1047" 
d="M133 501v116h781v-116h-781zM133 785v116h781v-116h-781z" />
    <glyph glyph-name="greater" unicode="&#x3e;" horiz-adv-x="1196" 
d="M1063 561l-910 -467v136l745 376l-745 376v136l910 -467v-90z" />
    <glyph glyph-name="question" unicode="?" horiz-adv-x="1142" 
d="M436 80q0 38 26 64t64 26t64 -26t26 -64t-26 -64t-64 -26t-64 26t-26 64zM216 1145l-103 62q13 24 30 48.5t56.5 62.5t85.5 66t119 49t156 21q97 0 176.5 -21.5t133 -57.5t90 -85.5t53 -104t16.5 -113.5q0 -72 -21.5 -134t-70 -119.5t-137 -98.5t-211.5 -58v-346h-126
v437q206 7 323 86t117 233q0 122 -88.5 194t-254.5 72q-225 0 -344 -193z" />
    <glyph glyph-name="at" unicode="@" horiz-adv-x="1712" 
d="M1313 48l86 -89q-196 -179 -543 -179q-217 0 -382 94t-253 261t-88 382t88 382t253 261t382 94t382 -94t253 -261t88 -382q0 -147 -76.5 -238.5t-219.5 -91.5q-49 0 -88.5 18.5t-60.5 44.5t-35 52.5t-18 45.5l-4 18q-11 -40 -32 -79t-55 -78.5t-87.5 -64t-117.5 -24.5
q-56 0 -109 18.5t-100 56t-76 105.5t-29 157q0 190 122.5 319.5t306.5 129.5q155 0 281 -60q-1 -26 -11 -144.5t-10 -179.5q0 -219 120 -219q87 0 130 58t43 156q0 183 -69.5 322t-206 218.5t-321.5 79.5q-278 0 -437.5 -171t-159.5 -449q0 -279 159.5 -450t437.5 -171
q283 0 457 152zM900 790q-138 0 -221 -94.5t-83 -237.5q0 -105 55 -163.5t136 -58.5q209 0 247 326q5 41 10 93t7 83l2 32q-49 20 -153 20z" />
    <glyph glyph-name="A" unicode="A" horiz-adv-x="1490" 
d="M408 455l-191 -455h-134l607 1434h110l607 -1434h-134l-191 455h-674zM745 1255l-288 -684h576z" />
    <glyph glyph-name="B" unicode="B" horiz-adv-x="1386" 
d="M782 0h-609v1434h609q198 0 310 -105t112 -266q0 -122 -61 -198.5t-152 -113.5q50 -19 92.5 -46t83 -68t63.5 -100.5t23 -132.5q0 -85 -30 -158t-87 -128t-148 -86.5t-206 -31.5zM299 116h483q166 0 254.5 73.5t88.5 214.5q0 138 -94 213t-249 75h-483v-576zM299 808h483
q130 0 212 64.5t82 190.5q0 129 -76.5 192t-217.5 63h-483v-510z" />
    <glyph glyph-name="C" unicode="C" horiz-adv-x="1410" 
d="M263 717q0 -128 37.5 -239t108 -197t182.5 -135.5t252 -49.5q230 0 385 104l69 -97q-167 -123 -454 -123q-165 0 -300 57.5t-224 157t-137.5 234t-48.5 288.5t48.5 288.5t137.5 234t224 157t300 57.5q287 0 454 -123l-69 -97q-155 104 -385 104q-140 0 -252 -49.5
t-182.5 -135.5t-108 -197t-37.5 -239z" />
    <glyph glyph-name="D" unicode="D" horiz-adv-x="1442" 
d="M1309 717q0 -123 -26 -230t-81 -197t-137 -154t-199 -100t-261 -36h-432v1434h432q179 0 316 -55t220.5 -153t125.5 -226.5t42 -282.5zM299 1318v-1202h306q154 0 267.5 46t179.5 129.5t97.5 189.5t31.5 236t-31.5 236t-97.5 189.5t-179.5 129.5t-267.5 46h-306z" />
    <glyph glyph-name="E" unicode="E" horiz-adv-x="1276" 
d="M299 791h756v-116h-756v-559h824v-116h-950v1434h940v-116h-814v-527z" />
    <glyph glyph-name="F" unicode="F" horiz-adv-x="1266" 
d="M299 791h756v-116h-756v-675h-126v1434h940v-116h-814v-527z" />
    <glyph glyph-name="G" unicode="G" horiz-adv-x="1541" 
d="M843 96q133 0 242 33.5t177 87.5v448h-382v116h508v-630q-207 -171 -545 -171q-165 0 -300 57.5t-224 157t-137.5 234t-48.5 288.5t48.5 288.5t137.5 234t224 157t300 57.5q169 0 305.5 -45t226.5 -124l-70 -86q-180 139 -462 139q-140 0 -252 -49.5t-182.5 -135.5
t-108 -197t-37.5 -239t37.5 -239t108 -197t182.5 -135.5t252 -49.5z" />
    <glyph glyph-name="H" unicode="H" horiz-adv-x="1425" 
d="M1126 792v642h126v-1434h-126v676h-827v-676h-126v1434h126v-642h827z" />
    <glyph glyph-name="I" unicode="I" horiz-adv-x="492" 
d="M183 0v1434h126v-1434h-126z" />
    <glyph glyph-name="J" unicode="J" horiz-adv-x="1096" 
d="M113 219l117 38q87 -161 279 -161q162 0 225 85.5t63 256.5v996h126v-996q0 -458 -414 -458q-87 0 -158 21.5t-117 58t-75 75.5t-46 84z" />
    <glyph glyph-name="K" unicode="K" horiz-adv-x="1337" 
d="M299 685l766 749h162l-631 -616l658 -818h-148l-592 737l-215 -209v-528h-126v1434h126v-749z" />
    <glyph glyph-name="L" unicode="L" horiz-adv-x="1170" 
d="M299 1434v-1318h738v-116h-864v1434h126z" />
    <glyph glyph-name="M" unicode="M" horiz-adv-x="1750" 
d="M1577 1434v-1434h-126v1231l-516 -1231h-120l-516 1230v-1230h-126v1434h173l529 -1263l529 1263h173z" />
    <glyph glyph-name="N" unicode="N" horiz-adv-x="1437" 
d="M173 0v1434h150l815 -1252v1252h126v-1434h-151l-814 1252v-1252h-126z" />
    <glyph glyph-name="O" unicode="O" horiz-adv-x="1686" 
d="M843 -20q-165 0 -300 57.5t-224 157t-137.5 234t-48.5 288.5t48.5 288.5t137.5 234t224 157t300 57.5t300 -57.5t224 -157t137.5 -234t48.5 -288.5t-48.5 -288.5t-137.5 -234t-224 -157t-300 -57.5zM843 1338q-140 0 -252 -49.5t-182.5 -135.5t-108 -197t-37.5 -239
t37.5 -239t108 -197t182.5 -135.5t252 -49.5t252 49.5t182.5 135.5t108 197t37.5 239t-37.5 239t-108 197t-182.5 135.5t-252 49.5z" />
    <glyph glyph-name="P" unicode="P" horiz-adv-x="1374" 
d="M769 1318h-470v-625h470q151 0 237.5 83.5t86.5 228.5q0 146 -86.5 229.5t-237.5 83.5zM299 0h-126v1434h596q199 0 325.5 -114.5t126.5 -314.5q0 -199 -126.5 -313.5t-325.5 -114.5h-470v-577z" />
    <glyph glyph-name="Q" unicode="Q" horiz-adv-x="1686" 
d="M843 -20q-165 0 -300 57.5t-224 157t-137.5 234t-48.5 288.5t48.5 288.5t137.5 234t224 157t300 57.5t300 -57.5t224 -157t137.5 -234t48.5 -288.5q0 -189 -70.5 -345.5t-201.5 -255.5l163 -186h-162l-104 123q-148 -73 -335 -73zM843 1338q-140 0 -252 -49.5
t-182.5 -135.5t-108 -197t-37.5 -239t37.5 -239t108 -197t182.5 -135.5t252 -49.5q143 0 256 51l-173 207h147l127 -146q109 83 166 216.5t57 292.5q0 128 -37.5 239t-108 197t-182.5 135.5t-252 49.5z" />
    <glyph glyph-name="R" unicode="R" horiz-adv-x="1353" 
d="M299 0h-126v1434h641q185 0 294.5 -115.5t109.5 -292.5q0 -161 -99 -272.5t-265 -130.5l366 -623h-138l-363 618h-420v-618zM814 1318h-515v-584h515q135 0 205.5 82t70.5 210t-70.5 210t-205.5 82z" />
    <glyph glyph-name="S" unicode="S" horiz-adv-x="1263" 
d="M1080 1334l-65 -96q-158 100 -399 100q-75 0 -136.5 -14t-109.5 -43t-74.5 -78t-26.5 -115q0 -106 86.5 -171.5t290.5 -111.5q134 -30 224.5 -65.5t155.5 -86.5t94.5 -120.5t29.5 -163.5q0 -79 -25.5 -143.5t-70.5 -109.5t-107.5 -76t-135.5 -45.5t-156 -14.5
q-178 0 -319 43t-223 116l65 96q88 -64 211 -101.5t266 -37.5q178 0 271.5 68.5t93.5 204.5q0 129 -84.5 198t-310.5 116q-251 54 -368.5 154.5t-117.5 250.5q0 172 123 269t354 97q303 0 464 -120z" />
    <glyph glyph-name="T" unicode="T" horiz-adv-x="1372" 
d="M113 1434h1146v-116h-510v-1318h-126v1318h-510v116z" />
    <glyph glyph-name="U" unicode="U" horiz-adv-x="1468" 
d="M734 96q206 0 320.5 135.5t114.5 362.5v840h126v-840q0 -144 -41.5 -260t-116 -193.5t-177.5 -119t-226 -41.5t-226 41.5t-177.5 119t-116 193.5t-41.5 260v840h126v-840q0 -227 114.5 -362.5t320.5 -135.5z" />
    <glyph glyph-name="V" unicode="V" horiz-adv-x="1430" 
d="M217 1434l498 -1255l498 1255h134l-577 -1434h-110l-577 1434h134z" />
    <glyph glyph-name="W" unicode="W" horiz-adv-x="2006" 
d="M1923 1434l-451 -1434h-117l-352 1224l-352 -1224h-117l-451 1434h140l369 -1197l344 1197h134l344 -1197l369 1197h140z" />
    <glyph glyph-name="X" unicode="X" horiz-adv-x="1431" 
d="M798 750l550 -750h-157l-476 649l-475 -649h-157l550 750l-500 684h157l425 -583l426 583h157z" />
    <glyph glyph-name="Y" unicode="Y" horiz-adv-x="1408" 
d="M233 1434l471 -705l471 705h150l-558 -836v-598h-126v598l-558 836h150z" />
    <glyph glyph-name="Z" unicode="Z" horiz-adv-x="1384" 
d="M338 116h883v-116h-1068v71l893 1247h-866v116h1051v-71z" />
    <glyph glyph-name="bracketleft" unicode="[" horiz-adv-x="763" 
d="M309 1317v-1524h311v-116h-437v1757h437v-117h-311z" />
    <glyph glyph-name="backslash" unicode="\" horiz-adv-x="1073" 
d="M271 1434l659 -1434h-128l-659 1434h128z" />
    <glyph glyph-name="bracketright" unicode="]" horiz-adv-x="763" 
d="M454 -207v1524h-311v117h437v-1757h-437v116h311z" />
    <glyph glyph-name="asciicircum" unicode="^" horiz-adv-x="1024" 
d="M550 1434l341 -568h-120l-259 415l-259 -415h-120l341 568h76z" />
    <glyph glyph-name="underscore" unicode="_" horiz-adv-x="1174" 
d="M133 -238v104h908v-104h-908z" />
    <glyph glyph-name="grave" unicode="`" horiz-adv-x="622" 
d="M287 1434l222 -281h-141l-255 281h174z" />
    <glyph glyph-name="a" unicode="a" horiz-adv-x="1126" 
d="M594 914q-72 0 -168.5 -22.5t-165.5 -57.5l-50 94q76 42 178 66t206 24q95 0 162.5 -20t109.5 -54.5t66 -92t32.5 -121t8.5 -153.5v-577h-120v225q-35 -114 -133.5 -179.5t-235.5 -65.5q-78 0 -143.5 18.5t-117.5 55.5t-81 99t-29 143q0 70 27.5 126.5t72.5 94
t107.5 64.5t129 41t140.5 20t138 5t125 -7q0 149 -56.5 211.5t-202.5 62.5zM237 296q0 -104 69 -158t188 -54q160 0 259.5 101t99.5 252v111q-63 5 -126.5 5t-135.5 -6t-133 -24.5t-112 -46.5t-80 -74t-29 -106z" />
    <glyph glyph-name="b" unicode="b" horiz-adv-x="1256" 
d="M273 0h-120v1516h120v-735q41 97 144.5 167t228.5 70q219 0 358 -144.5t139 -374.5t-139 -374.5t-358 -144.5q-125 0 -228.5 70t-144.5 167v-217zM646 914q-170 0 -271.5 -117t-101.5 -298t101.5 -298t271.5 -117t271.5 117t101.5 298t-101.5 298t-271.5 117z" />
    <glyph glyph-name="c" unicode="c" horiz-adv-x="1084" 
d="M237 499q0 -185 103 -300t286 -115q169 0 298 104l67 -84q-150 -124 -365 -124q-227 0 -370 146t-143 373t143 373t370 146q215 0 365 -124l-67 -84q-129 104 -298 104q-183 0 -286 -115t-103 -300z" />
    <glyph glyph-name="d" unicode="d" horiz-adv-x="1256" 
d="M1103 0h-120v217q-41 -97 -144.5 -167t-228.5 -70q-219 0 -358 144.5t-139 374.5t139 374.5t358 144.5q125 0 228.5 -70t144.5 -167v735h120v-1516zM610 914q-170 0 -271.5 -117t-101.5 -298t101.5 -298t271.5 -117t271.5 117t101.5 298t-101.5 298t-271.5 117z" />
    <glyph glyph-name="e" unicode="e" horiz-adv-x="1175" 
d="M587 84q211 0 332 118l80 -78q-150 -144 -412 -144q-223 0 -348.5 141t-125.5 378t125.5 378t348.5 141q108 0 195.5 -35t151 -104.5t97 -179.5t30.5 -252h-820q2 -73 23 -136.5t61 -115t107.5 -81.5t154.5 -30zM241 551h692q-2 76 -22.5 140.5t-61 115t-107.5 79
t-155 28.5t-155 -28.5t-107.5 -79t-61 -115t-22.5 -140.5z" />
    <glyph glyph-name="f" unicode="f" horiz-adv-x="864" 
d="M424 998h309v-104h-309v-894h-120v894h-211v104h211v75q0 94 8 162.5t29.5 128t58 95.5t95 56.5t139.5 20.5q101 0 167 -34l-37 -94q-63 24 -130 24q-48 0 -83 -10t-58 -33.5t-37 -50.5t-21 -72t-9 -87t-2 -106v-75z" />
    <glyph glyph-name="g" unicode="g" horiz-adv-x="1256" 
d="M983 998h120v-998q0 -123 -27.5 -217.5t-72.5 -153t-110 -96t-132.5 -51.5t-146.5 -14q-259 0 -401 110l68 84q143 -90 333 -90q369 0 369 428v217q-41 -97 -144.5 -167t-228.5 -70q-219 0 -358 144.5t-139 374.5t139 374.5t358 144.5q125 0 228.5 -70t144.5 -167v217z
M610 914q-170 0 -271.5 -117t-101.5 -298t101.5 -298t271.5 -117t271.5 117t101.5 298t-101.5 298t-271.5 117z" />
    <glyph glyph-name="h" unicode="h" 
d="M273 556v-556h-120v1516h120v-705q33 93 119 150t196 57q212 0 323.5 -120.5t111.5 -341.5v-556h-120v556q0 168 -76.5 263t-238.5 95t-238.5 -95t-76.5 -263z" />
    <glyph glyph-name="i" unicode="i" horiz-adv-x="478" 
d="M179 0v998h120v-998h-120zM153 1287q0 35 25.5 60.5t60.5 25.5t60.5 -25.5t25.5 -60.5t-25.5 -60.5t-60.5 -25.5t-60.5 25.5t-25.5 60.5z" />
    <glyph glyph-name="j" unicode="j" horiz-adv-x="480" 
d="M-147 -506l34 98q60 -20 117 -20q37 0 65 10.5t46.5 25t31.5 44t19.5 53.5t10 68.5t4 73.5t0.5 82v1069h120v-1069q0 -95 -6.5 -162t-25 -127t-51 -95.5t-86 -56t-128.5 -20.5q-92 0 -151 26zM155 1287q0 35 25.5 60.5t60.5 25.5t60.5 -25.5t25.5 -60.5t-25.5 -60.5
t-60.5 -25.5t-60.5 25.5t-25.5 60.5z" />
    <glyph glyph-name="k" unicode="k" horiz-adv-x="1065" 
d="M273 516l537 482h167l-447 -401l472 -597h-144l-412 521l-173 -154v-367h-120v1516h120v-1000z" />
    <glyph glyph-name="l" unicode="l" horiz-adv-x="484" 
d="M153 220v1296h120v-1296q0 -20 0.5 -30.5t1.5 -26.5t4.5 -24.5t9 -17.5t15 -13t22.5 -4h45v-104h-45q-36 0 -63.5 7.5t-45.5 18t-30.5 30t-19 35t-10 42t-4 43t-0.5 44.5z" />
    <glyph glyph-name="m" unicode="m" horiz-adv-x="1770" 
d="M153 0v998h120v-167q25 78 100 132.5t176 54.5q269 0 359 -227q12 39 35.5 75.5t60.5 72t93.5 57.5t123.5 22q192 0 294 -116t102 -347v-555h-120v555q0 165 -67 262t-209 97q-143 0 -209.5 -97t-66.5 -262v-555h-120v555q0 165 -67 262t-209 97q-143 0 -209.5 -97
t-66.5 -262v-555h-120z" />
    <glyph glyph-name="n" unicode="n" 
d="M153 998h120v-187q33 93 119 150t196 57q212 0 323.5 -120.5t111.5 -341.5v-556h-120v556q0 168 -76.5 263t-238.5 95t-238.5 -95t-76.5 -263v-556h-120v998z" />
    <glyph glyph-name="o" unicode="o" horiz-adv-x="1252" 
d="M113 499q0 227 143 373t370 146t370 -146t143 -373t-143 -373t-370 -146t-370 146t-143 373zM1015 499q0 185 -103 300t-286 115t-286 -115t-103 -300t103 -300t286 -115t286 115t103 300z" />
    <glyph glyph-name="p" unicode="p" horiz-adv-x="1256" 
d="M153 998h120v-217q41 97 144.5 167t228.5 70q219 0 358 -144.5t139 -374.5t-139 -374.5t-358 -144.5q-125 0 -228.5 70t-144.5 167v-749h-120v1530zM646 84q170 0 271.5 117t101.5 298t-101.5 298t-271.5 117t-271.5 -117t-101.5 -298t101.5 -298t271.5 -117z" />
    <glyph glyph-name="q" unicode="q" horiz-adv-x="1256" 
d="M983 998h120v-1530h-120v749q-41 -97 -144.5 -167t-228.5 -70q-219 0 -358 144.5t-139 374.5t139 374.5t358 144.5q125 0 228.5 -70t144.5 -167v217zM610 84q170 0 271.5 117t101.5 298t-101.5 298t-271.5 117t-271.5 -117t-101.5 -298t101.5 -298t271.5 -117z" />
    <glyph glyph-name="r" unicode="r" horiz-adv-x="863" 
d="M153 998h120v-187q33 93 119 150t196 57q121 0 212 -41l-59 -93q-63 30 -153 30q-162 0 -238.5 -95t-76.5 -263v-556h-120v998z" />
    <glyph glyph-name="s" unicode="s" horiz-adv-x="984" 
d="M843 928l-59 -91q-136 77 -301 77q-118 0 -185.5 -40t-67.5 -120q0 -75 63 -116t214 -69q204 -39 294 -109.5t90 -201.5q0 -134 -100.5 -206t-291.5 -72q-126 0 -232.5 29t-173.5 77l59 91q156 -93 347 -93q272 0 272 174q0 87 -63 131t-222 74q-205 39 -290.5 108.5
t-85.5 182.5q0 118 94.5 191t278.5 73q218 0 360 -90z" />
    <glyph glyph-name="t" unicode="t" horiz-adv-x="856" 
d="M93 894v104h211v299h120v-299h309v-104h-309v-451q0 -54 1 -88.5t5.5 -76.5t12.5 -68t22.5 -52.5t35 -41t50.5 -23.5t69 -9q58 0 112 18l31 -98q-57 -24 -143 -24q-98 0 -160.5 28t-96.5 90t-46.5 142t-12.5 203v451h-211z" />
    <glyph glyph-name="u" unicode="u" 
d="M1023 0h-120v187q-33 -93 -119 -150t-196 -57q-212 0 -323.5 120.5t-111.5 341.5v556h120v-556q0 -168 76.5 -263t238.5 -95t238.5 95t76.5 263v556h120v-998z" />
    <glyph glyph-name="v" unicode="v" horiz-adv-x="1084" 
d="M479 0l-416 998h130l349 -856l349 856h130l-416 -998h-126z" />
    <glyph glyph-name="w" unicode="w" horiz-adv-x="1534" 
d="M1025 0l-258 812l-258 -812h-120l-326 998h128l256 -833l265 833h110l265 -833l256 833h128l-326 -998h-120z" />
    <glyph glyph-name="x" unicode="x" horiz-adv-x="1114" 
d="M633 526l418 -526h-147l-347 437l-347 -437h-147l417 526l-374 472h147l304 -383l304 383h147z" />
    <glyph glyph-name="y" unicode="y" horiz-adv-x="1084" 
d="M481 0l-418 998h130l349 -856l349 856h130l-539 -1287q-21 -49 -34 -76.5t-37 -64.5t-47 -55.5t-59 -32.5t-79 -14q-97 0 -163 36l46 92q55 -25 107 -25q14 0 26.5 3t22.5 6t20 11.5t17 13.5t15.5 19t13 20.5t13 24.5t12 25.5t13 29.5t12.5 30z" />
    <glyph glyph-name="z" unicode="z" horiz-adv-x="1093" 
d="M133 0v61l649 833h-613v104h791v-60l-649 -834h649v-104h-827z" />
    <glyph glyph-name="braceleft" unicode="{" horiz-adv-x="878" 
d="M319 594q206 -87 206 -416q0 -154 63 -251t157 -97v-116q-156 0 -251 124.5t-95 333.5q0 97 -18 164.5t-55 107.5t-82 60.5t-111 32.5v114q66 12 111 32.5t82 60.5t55 107.5t18 164.5q0 209 95 333.5t251 124.5v-116q-94 0 -157 -97t-63 -251q0 -329 -206 -416z" />
    <glyph glyph-name="bar" unicode="|" horiz-adv-x="432" 
d="M153 -532v1966h126v-1966h-126z" />
    <glyph glyph-name="braceright" unicode="}" horiz-adv-x="878" 
d="M559 594q-206 87 -206 416q0 154 -63 251t-157 97v116q156 0 251 -124.5t95 -333.5q0 -97 18 -164.5t55 -107.5t82 -60.5t111 -32.5v-114q-66 -12 -111 -32.5t-82 -60.5t-55 -107.5t-18 -164.5q0 -209 -95 -333.5t-251 -124.5v116q94 0 157 97t63 251q0 329 206 416z" />
    <glyph glyph-name="asciitilde" unicode="~" horiz-adv-x="1079" 
d="M359 795q-44 0 -69.5 -32.5t-29.5 -64.5l-4 -32h-123q0 5 0.5 14t5.5 34t13 48t25.5 51t40 48t59.5 34t82 14q72 0 119 -26.5t88 -77.5q3 -3 15.5 -19.5t15 -19.5t13.5 -15.5t15 -15t14.5 -11.5t17 -10.5t17.5 -6t22 -5.5t24 -1q28 0 48.5 13.5t30.5 32t16 37.5t7 32
l1 14h123q0 -5 -0.5 -14t-5.5 -34t-13 -48t-25.5 -51t-40 -48t-59.5 -34t-82 -14q-73 0 -120 26.5t-87 77.5q-3 3 -15.5 19.5t-15 19.5t-13.5 15.5t-15 15t-14.5 11.5t-17 10.5t-17.5 6t-22 5.5t-24 1z" />
    <glyph glyph-name="uni00A0" unicode="&#xa0;" horiz-adv-x="573" 
 />
    <glyph glyph-name="exclamdown" unicode="&#xa1;" horiz-adv-x="486" 
d="M296 586l10 -1118h-126l10 1118h106zM333 822q0 -38 -26.5 -64t-63.5 -26t-63.5 26t-26.5 64t26.5 64t63.5 26t63.5 -26t26.5 -64z" />
    <glyph glyph-name="cent" unicode="&#xa2;" horiz-adv-x="1084" 
d="M237 499q0 -185 103 -300t286 -115q169 0 298 104l67 -84q-136 -113 -323 -123v-201h-110v204q-200 22 -322.5 164t-122.5 351t122 351t323 164v204h110v-201q185 -10 323 -123l-67 -84q-129 104 -298 104q-183 0 -286 -115t-103 -300z" />
    <glyph glyph-name="sterling" unicode="&#xa3;" horiz-adv-x="1356" 
d="M153 649v116h139q-25 150 -25 209q0 66 15 130.5t51.5 129t90.5 112.5t139 78t191 30q83 0 154.5 -18t118 -44t84.5 -61.5t58 -64.5t34 -60l-102 -57q-98 189 -347 189q-171 0 -266 -103.5t-95 -260.5q0 -35 6.5 -87.5t12.5 -86.5l6 -35h508v-116h-488q5 -25 15 -77
t13 -71.5t6.5 -51t3.5 -59.5q0 -76 -29.5 -150t-72.5 -124h815v-116h-970v93q5 6 13.5 17t30 44.5t38 67.5t30 82.5t13.5 92.5q0 80 -32 252h-159z" />
    <glyph glyph-name="currency" unicode="&#xa4;" horiz-adv-x="1083" 
d="M542 1114q125 0 227 -75l122 122l79 -80l-122 -122q76 -100 76 -227t-76 -228l122 -121l-78 -79l-122 122q-102 -76 -229 -75q-126 0 -227 74l-122 -122l-79 80l121 122q-75 101 -74 227q0 126 75 228l-121 122l78 79l122 -123q101 76 228 76zM266 732q0 -115 81 -196
t196 -81t196 81t81 196t-81 196t-196 81t-196 -81t-81 -196z" />
    <glyph glyph-name="yen" unicode="&#xa5;" horiz-adv-x="1368" 
d="M288 266v114h333v104h-333v114h333l-558 836h150l471 -705l471 705h150l-558 -836h333v-114h-333v-104h333v-114h-333v-266h-126v266h-333z" />
    <glyph glyph-name="brokenbar" unicode="&#xa6;" horiz-adv-x="432" 
d="M153 658v776h126v-776h-126zM153 -532v777h126v-777h-126z" />
    <glyph glyph-name="section" unicode="&#xa7;" horiz-adv-x="1263" 
d="M139 1088q0 172 123 269t354 97q303 0 464 -120l-65 -96q-158 100 -399 100q-75 0 -136.5 -14t-109.5 -43t-74.5 -78t-26.5 -115q0 -106 86.5 -171.5t290.5 -111.5q134 -30 224.5 -65.5t155.5 -86.5t94.5 -120.5t29.5 -163.5q0 -186 -138 -290q112 -99 112 -245
q0 -172 -123 -269t-354 -97q-303 0 -464 120l65 96q158 -100 399 -100q75 0 136.5 14t109.5 43t74.5 78t26.5 115q0 106 -86.5 171.5t-290.5 111.5q-134 30 -224.5 65.5t-155.5 86.5t-94.5 120.5t-29.5 163.5q0 186 137 289q-111 98 -111 246zM1020 369q0 129 -84.5 198
t-310.5 116q-158 33 -268 89q-114 -69 -114 -219q0 -129 84.5 -198t310.5 -116q165 -37 267 -89q115 69 115 219z" />
    <glyph glyph-name="dieresis" unicode="&#xa8;" horiz-adv-x="780" 
d="M133 1287q0 35 25.5 60.5t60.5 25.5t60.5 -25.5t25.5 -60.5t-25.5 -60.5t-60.5 -25.5t-60.5 25.5t-25.5 60.5zM475 1287q0 35 25.5 60.5t60.5 25.5t60.5 -25.5t25.5 -60.5t-25.5 -60.5t-60.5 -25.5t-60.5 25.5t-25.5 60.5z" />
    <glyph glyph-name="copyright" unicode="&#xa9;" horiz-adv-x="1740" 
d="M597 717q0 -130 73.5 -215.5t205.5 -85.5q66 0 113 19t95 61l72 -77q-62 -56 -128 -82t-152 -26q-172 0 -286.5 116t-114.5 290t114.5 290t286.5 116q86 0 152 -26t128 -82l-72 -77q-48 42 -95 61t-113 19q-132 0 -205.5 -85.5t-73.5 -215.5zM133 717q0 150 58.5 286.5
t157 235t235 157t286.5 58.5t286.5 -58.5t235 -157t157 -235t58.5 -286.5t-58.5 -286.5t-157 -235t-235 -157t-286.5 -58.5t-286.5 58.5t-235 157t-157 235t-58.5 286.5zM248 717q0 -126 49 -241t132.5 -198.5t198.5 -132.5t241 -49t241 49t198.5 132.5t132.5 198.5t49 241
t-49 241t-132.5 198.5t-198.5 132.5t-241 49t-241 -49t-198.5 -132.5t-132.5 -198.5t-49 -241z" />
    <glyph glyph-name="ordfeminine" unicode="&#xaa;" horiz-adv-x="716" 
d="M364 1334q-49 0 -97.5 -12t-72.5 -24l-25 -11l-47 102q10 6 30 15t83 24.5t129 15.5q162 0 227 -68t65 -238v-424h-113v128q-50 -138 -215 -138q-119 0 -193.5 61.5t-74.5 177.5q0 76 40 129t107 78t154 34.5t180 -1.5q0 88 -37.5 119.5t-139.5 31.5zM173 943
q0 -63 40 -96t115 -33q104 0 159.5 59.5t55.5 165.5v51q-75 6 -142 1t-118 -18.5t-80.5 -46.5t-29.5 -83z" />
    <glyph glyph-name="guillemotleft" unicode="&#xab;" horiz-adv-x="1388" 
d="M133 632l624 487v-147l-470 -366l470 -366v-147l-624 487v52zM611 632l624 487v-147l-470 -366l470 -366v-147l-624 487v52z" />
    <glyph glyph-name="logicalnot" unicode="&#xac;" horiz-adv-x="1219" 
d="M133 691v116h953v-516h-126v400h-827z" />
    <glyph glyph-name="uni00AD" unicode="&#xad;" horiz-adv-x="1028" 
d="M133 573v116h762v-116h-762z" />
    <glyph glyph-name="registered" unicode="&#xae;" horiz-adv-x="1110" 
d="M471 782h-66v470h182q64 0 101 -42t37 -100q0 -47 -27 -85.5t-72 -50.5l113 -192h-74l-106 186h-88v-186zM587 1190h-116v-160h116q38 0 55 23t17 57t-17 57t-55 23zM113 1012q0 183 129.5 312.5t312.5 129.5t312.5 -129.5t129.5 -312.5t-129.5 -312.5t-312.5 -129.5
t-312.5 129.5t-129.5 312.5zM181 1012q0 -154 109.5 -263.5t263.5 -109.5t263.5 109.5t109.5 263.5t-109.5 263.5t-263.5 109.5t-263.5 -109.5t-109.5 -263.5z" />
    <glyph glyph-name="macron" unicode="&#xaf;" horiz-adv-x="912" 
d="M113 1330v104h686v-104h-686z" />
    <glyph glyph-name="degree" unicode="&#xb0;" horiz-adv-x="582" 
d="M63 1225q0 95 66.5 162t160.5 67q95 0 162 -67t67 -162t-67 -161t-162 -66t-161 66t-66 161zM156 1225q0 -55 39 -94.5t95 -39.5t95 39.5t39 94.5t-39 94.5t-95 39.5t-95 -39.5t-39 -94.5z" />
    <glyph glyph-name="plusminus" unicode="&#xb1;" horiz-adv-x="1198" 
d="M1065 890v-116h-408v-408h-116v408h-408v116h408v408h116v-408h408zM1065 263v-116h-932v116h932z" />
    <glyph glyph-name="twosuperior" unicode="&#xb2;" horiz-adv-x="596" 
d="M164 1210l-104 43q65 191 246 191q99 0 159.5 -56t60.5 -153q0 -31 -8.5 -60.5t-28.5 -60.5t-34.5 -49.5t-42.5 -51.5l-168 -189h292v-110h-472v77q249 282 262 297q77 91 77 147q0 44 -24 71.5t-73 27.5q-33 0 -59 -13t-43 -36.5t-24.5 -38.5t-15.5 -36z" />
    <glyph glyph-name="threesuperior" unicode="&#xb3;" horiz-adv-x="611" 
d="M60 828l98 53q45 -67 150 -67q130 0 130 109q0 64 -50.5 85t-160.5 21v110q90 0 142 28t52 85q0 82 -113 82q-87 0 -128 -79l-98 53q9 20 24.5 40.5t41.5 43.5t68 37.5t92 14.5q108 0 167 -52t59 -140q0 -56 -27 -99t-75 -66q53 -15 86 -57t33 -107q0 -112 -67 -165.5
t-176 -53.5q-59 0 -107 14t-76 35.5t-43 39.5t-22 35z" />
    <glyph glyph-name="acute" unicode="&#xb4;" horiz-adv-x="622" 
d="M113 1153l222 281h174l-255 -281h-141z" />
    <glyph glyph-name="mu" unicode="&#xb5;" 
d="M588 -20q-108 0 -191 56t-124 151v-719h-120v1530h120v-556q0 -161 85 -259.5t230 -98.5t230 98.5t85 259.5v556h120v-998h-120v187q-41 -95 -124 -151t-191 -56z" />
    <glyph glyph-name="paragraph" unicode="&#xb6;" horiz-adv-x="1256" 
d="M509 1434h614v-116h-119v-1318h-126v1318h-106v-1318h-126v648h-137q-97 0 -171 32t-117.5 88t-65.5 125t-22 148t22 148t65.5 125t117.5 88t171 32zM646 1318h-137q-70 0 -120 -23t-77 -64t-39 -87.5t-12 -102.5t12 -102.5t39 -87.5t77 -64t120 -23h137v554z" />
    <glyph glyph-name="periodcentered" unicode="&#xb7;" horiz-adv-x="446" 
d="M133 660q0 38 26.5 64t63.5 26t63.5 -26t26.5 -64t-26.5 -64t-63.5 -26t-63.5 26t-26.5 64z" />
    <glyph glyph-name="cedilla" unicode="&#xb8;" horiz-adv-x="613" 
d="M113 -405l39 73q31 -14 68 -22.5t76 -9t67.5 20t34.5 60.5q5 35 -12.5 56t-55 26.5t-72 4.5t-81.5 -6l84 238h99l-56 -161q93 2 148 -38t47 -122q-7 -72 -53 -113t-107 -48t-122.5 4t-103.5 37z" />
    <glyph glyph-name="onesuperior" unicode="&#xb9;" horiz-adv-x="360" 
d="M110 1171l-80 84l191 179h79v-720h-113v530z" />
    <glyph glyph-name="ordmasculine" unicode="&#xba;" horiz-adv-x="788" 
d="M394 704q-162 0 -248 100t-86 270t86 270t248 100t248 -100t86 -270t-86 -270t-248 -100zM394 814q221 0 221 260t-221 260t-221 -260t221 -260z" />
    <glyph glyph-name="guillemotright" unicode="&#xbb;" horiz-adv-x="1388" 
d="M631 1119l624 -487v-52l-624 -487v147l470 366l-470 366v147zM153 1119l624 -487v-52l-624 -487v147l470 366l-470 366v147z" />
    <glyph glyph-name="onequarter" unicode="&#xbc;" horiz-adv-x="1367" 
d="M187 0l823 1434h133l-823 -1434h-133zM213 1171l-80 84l191 179h79v-720h-113v530zM1131 0h-113v165h-343v83l356 472h100v-445h103v-110h-103v-165zM833 275h185v246z" />
    <glyph glyph-name="onehalf" unicode="&#xbd;" horiz-adv-x="1439" 
d="M187 0l823 1434h133l-823 -1434h-133zM213 1171l-80 84l191 179h79v-720h-113v530zM934 496l-104 43q65 191 246 191q99 0 159.5 -56t60.5 -153q0 -31 -8.5 -60.5t-28.5 -60.5t-34.5 -49.5t-42.5 -51.5l-168 -189h292v-110h-472v77q249 282 262 297q77 91 77 147
q0 44 -24 71.5t-73 27.5q-33 0 -59 -13t-43 -36.5t-24.5 -38.5t-15.5 -36z" />
    <glyph glyph-name="threequarters" unicode="&#xbe;" horiz-adv-x="1471" 
d="M301 0l823 1434h133l-823 -1434h-133zM133 828l98 53q45 -67 150 -67q130 0 130 109q0 64 -50.5 85t-160.5 21v110q90 0 142 28t52 85q0 82 -113 82q-87 0 -128 -79l-98 53q9 20 24.5 40.5t41.5 43.5t68 37.5t92 14.5q108 0 167 -52t59 -140q0 -56 -27 -99t-75 -66
q53 -15 86 -57t33 -107q0 -112 -67 -165.5t-176 -53.5q-59 0 -107 14t-76 35.5t-43 39.5t-22 35zM1235 0h-113v165h-343v83l356 472h100v-445h103v-110h-103v-165zM937 275h185v246z" />
    <glyph glyph-name="questiondown" unicode="&#xbf;" horiz-adv-x="982" 
d="M626 822q0 -38 -26 -64t-64 -26t-64 26t-26 64t26 64t64 26t64 -26t26 -64zM846 -243l103 -62q-13 -24 -30 -48.5t-56.5 -62.5t-85.5 -66t-119 -49t-156 -21q-97 0 -176.5 21.5t-133 57.5t-90 85.5t-53 104t-16.5 113.5q0 72 21.5 134t70 119.5t137 98.5t211.5 58v346
h126v-437q-206 -7 -323 -86t-117 -233q0 -122 88.5 -194t254.5 -72q225 0 344 193z" />
    <glyph glyph-name="Agrave" unicode="&#xc0;" horiz-adv-x="1490" 
d="M408 455l-191 -455h-134l607 1434h110l607 -1434h-134l-191 455h-674zM745 1255l-288 -684h576zM587 1817l222 -281h-141l-255 281h174z" />
    <glyph glyph-name="Aacute" unicode="&#xc1;" horiz-adv-x="1490" 
d="M408 455l-191 -455h-134l607 1434h110l607 -1434h-134l-191 455h-674zM745 1255l-288 -684h576zM677 1536l222 281h174l-255 -281h-141z" />
    <glyph glyph-name="Acircumflex" unicode="&#xc2;" horiz-adv-x="1490" 
d="M408 455l-191 -455h-134l607 1434h110l607 -1434h-134l-191 455h-674zM745 1255l-288 -684h576zM769 1847l252 -311h-107l-169 185l-169 -185h-107l252 311h48z" />
    <glyph glyph-name="Atilde" unicode="&#xc3;" horiz-adv-x="1490" 
d="M408 455l-191 -455h-134l607 1434h110l607 -1434h-134l-191 455h-674zM745 1255l-288 -684h576zM706 1619q-2 2 -8.5 9t-8.5 9t-7.5 8t-8 7.5t-7.5 5.5t-8.5 5.5t-8.5 4t-10 3t-10 0.5q-23 0 -35.5 -20.5t-13.5 -41.5l-1 -21h-116q0 8 0.5 21t9 46t24 58.5t50 46.5
t82.5 21q12 0 24 -1.5t21 -3.5t19 -6.5t16.5 -7t16 -9.5t13.5 -10t12.5 -11.5l11 -11t11 -11.5t10.5 -11t8.5 -9t8.5 -9t7.5 -8t8 -7.5t7.5 -5.5t8.5 -5.5t8.5 -4t10 -3t10 -0.5q23 0 35.5 21t13.5 41l1 21h116q0 -8 -0.5 -21t-9 -46t-24 -58.5t-50 -46.5t-82.5 -21
q-12 0 -24 1.5t-21 3.5t-19 6.5t-16.5 7t-16 9.5t-13.5 10t-12.5 11.5l-11 11t-11 11.5t-10.5 11z" />
    <glyph glyph-name="Adieresis" unicode="&#xc4;" horiz-adv-x="1490" 
d="M408 455l-191 -455h-134l607 1434h110l607 -1434h-134l-191 455h-674zM745 1255l-288 -684h576zM488 1642q0 35 25.5 60.5t60.5 25.5t60.5 -25.5t25.5 -60.5t-25.5 -60.5t-60.5 -25.5t-60.5 25.5t-25.5 60.5zM830 1642q0 35 25.5 60.5t60.5 25.5t60.5 -25.5t25.5 -60.5
t-25.5 -60.5t-60.5 -25.5t-60.5 25.5t-25.5 60.5z" />
    <glyph glyph-name="Aring" unicode="&#xc5;" horiz-adv-x="1490" 
d="M408 455l-191 -455h-134l607 1434h110l607 -1434h-134l-191 455h-674zM745 1255l-288 -684h576zM565 1715q0 74 53 127t127 53t127 -53t53 -127q0 -73 -53 -126t-127 -53t-127 52.5t-53 126.5zM649 1715q0 -40 28 -68t68 -28t68 28t28 68t-28 68t-68 28t-68 -28t-28 -68z
" />
    <glyph glyph-name="AE" unicode="&#xc6;" horiz-adv-x="2152" 
d="M1175 791h756v-116h-756v-559h824v-116h-950v521h-467l-351 -521h-148l963 1434h933v-116h-804v-527zM1049 1218l-390 -581h390v581z" />
    <glyph glyph-name="Ccedilla" unicode="&#xc7;" horiz-adv-x="1410" 
d="M636 -405l39 73q31 -14 68 -22.5t76 -9t67.5 20t34.5 60.5q5 35 -12.5 56t-55 26.5t-72 4.5t-81.5 -6l65 186q-294 26 -463 230.5t-169 502.5q0 154 48.5 288.5t137.5 234t224 157t300 57.5q287 0 454 -123l-69 -97q-155 104 -385 104q-140 0 -252 -49.5t-182.5 -135.5
t-108 -197t-37.5 -239t37.5 -239t108 -197t182.5 -135.5t252 -49.5q230 0 385 104l69 -97q-162 -118 -434 -123l-36 -105q93 2 148 -38t47 -122q-7 -72 -53 -113t-107 -48t-122.5 4t-103.5 37z" />
    <glyph glyph-name="Egrave" unicode="&#xc8;" horiz-adv-x="1276" 
d="M299 791h756v-116h-756v-559h824v-116h-950v1434h940v-116h-814v-527zM509 1817l222 -281h-141l-255 281h174z" />
    <glyph glyph-name="Eacute" unicode="&#xc9;" horiz-adv-x="1276" 
d="M299 791h756v-116h-756v-559h824v-116h-950v1434h940v-116h-814v-527zM560 1536l222 281h174l-255 -281h-141z" />
    <glyph glyph-name="Ecircumflex" unicode="&#xca;" horiz-adv-x="1276" 
d="M299 791h756v-116h-756v-559h824v-116h-950v1434h940v-116h-814v-527zM671 1847l252 -311h-107l-169 185l-169 -185h-107l252 311h48z" />
    <glyph glyph-name="Edieresis" unicode="&#xcb;" horiz-adv-x="1276" 
d="M299 791h756v-116h-756v-559h824v-116h-950v1434h940v-116h-814v-527zM391 1642q0 35 25.5 60.5t60.5 25.5t60.5 -25.5t25.5 -60.5t-25.5 -60.5t-60.5 -25.5t-60.5 25.5t-25.5 60.5zM733 1642q0 35 25.5 60.5t60.5 25.5t60.5 -25.5t25.5 -60.5t-25.5 -60.5t-60.5 -25.5
t-60.5 25.5t-25.5 60.5z" />
    <glyph glyph-name="Igrave" unicode="&#xcc;" horiz-adv-x="516" 
d="M194 0v1434h126v-1434h-126zM111 1817l222 -281h-141l-255 281h174z" />
    <glyph glyph-name="Iacute" unicode="&#xcd;" horiz-adv-x="496" 
d="M188 0v1434h126v-1434h-126zM183 1536l222 281h174l-255 -281h-141z" />
    <glyph glyph-name="Icircumflex" unicode="&#xce;" horiz-adv-x="532" 
d="M203 0v1434h126v-1434h-126zM290 1847l252 -311h-107l-169 185l-169 -185h-107l252 311h48z" />
    <glyph glyph-name="Idieresis" unicode="&#xcf;" horiz-adv-x="494" 
d="M184 0v1434h126v-1434h-126zM-10 1622q0 35 25.5 60.5t60.5 25.5t60.5 -25.5t25.5 -60.5t-25.5 -60.5t-60.5 -25.5t-60.5 25.5t-25.5 60.5zM332 1622q0 35 25.5 60.5t60.5 25.5t60.5 -25.5t25.5 -60.5t-25.5 -60.5t-60.5 -25.5t-60.5 25.5t-25.5 60.5z" />
    <glyph glyph-name="Eth" unicode="&#xd0;" horiz-adv-x="1562" 
d="M83 659v116h210v659h432q179 0 316 -55t220.5 -153t125.5 -226.5t42 -282.5q0 -123 -26 -230t-81 -197t-137 -154t-199 -100t-261 -36h-432v659h-210zM419 659v-543h306q154 0 267.5 46t179.5 129.5t97.5 189.5t31.5 236t-31.5 236t-97.5 189.5t-179.5 129.5t-267.5 46
h-306v-543h297v-116h-297z" />
    <glyph glyph-name="Ntilde" unicode="&#xd1;" horiz-adv-x="1437" 
d="M173 0v1434h150l815 -1252v1252h126v-1434h-151l-814 1252v-1252h-126zM679 1619q-2 2 -8.5 9t-8.5 9t-7.5 8t-8 7.5t-7.5 5.5t-8.5 5.5t-8.5 4t-10 3t-10 0.5q-23 0 -35.5 -20.5t-13.5 -41.5l-1 -21h-116q0 8 0.5 21t9 46t24 58.5t50 46.5t82.5 21q12 0 24 -1.5t21 -3.5
t19 -6.5t16.5 -7t16 -9.5t13.5 -10t12.5 -11.5l11 -11t11 -11.5t10.5 -11t8.5 -9t8.5 -9t7.5 -8t8 -7.5t7.5 -5.5t8.5 -5.5t8.5 -4t10 -3t10 -0.5q23 0 35.5 21t13.5 41l1 21h116q0 -8 -0.5 -21t-9 -46t-24 -58.5t-50 -46.5t-82.5 -21q-12 0 -24 1.5t-21 3.5t-19 6.5
t-16.5 7t-16 9.5t-13.5 10t-12.5 11.5l-11 11t-11 11.5t-10.5 11z" />
    <glyph glyph-name="Ograve" unicode="&#xd2;" horiz-adv-x="1686" 
d="M843 -20q-165 0 -300 57.5t-224 157t-137.5 234t-48.5 288.5t48.5 288.5t137.5 234t224 157t300 57.5t300 -57.5t224 -157t137.5 -234t48.5 -288.5t-48.5 -288.5t-137.5 -234t-224 -157t-300 -57.5zM843 1338q-140 0 -252 -49.5t-182.5 -135.5t-108 -197t-37.5 -239
t37.5 -239t108 -197t182.5 -135.5t252 -49.5t252 49.5t182.5 135.5t108 197t37.5 239t-37.5 239t-108 197t-182.5 135.5t-252 49.5zM699 1817l222 -281h-141l-255 281h174z" />
    <glyph glyph-name="Oacute" unicode="&#xd3;" horiz-adv-x="1686" 
d="M843 -20q-165 0 -300 57.5t-224 157t-137.5 234t-48.5 288.5t48.5 288.5t137.5 234t224 157t300 57.5t300 -57.5t224 -157t137.5 -234t48.5 -288.5t-48.5 -288.5t-137.5 -234t-224 -157t-300 -57.5zM843 1338q-140 0 -252 -49.5t-182.5 -135.5t-108 -197t-37.5 -239
t37.5 -239t108 -197t182.5 -135.5t252 -49.5t252 49.5t182.5 135.5t108 197t37.5 239t-37.5 239t-108 197t-182.5 135.5t-252 49.5zM775 1536l222 281h174l-255 -281h-141z" />
    <glyph glyph-name="Ocircumflex" unicode="&#xd4;" horiz-adv-x="1686" 
d="M843 -20q-165 0 -300 57.5t-224 157t-137.5 234t-48.5 288.5t48.5 288.5t137.5 234t224 157t300 57.5t300 -57.5t224 -157t137.5 -234t48.5 -288.5t-48.5 -288.5t-137.5 -234t-224 -157t-300 -57.5zM843 1338q-140 0 -252 -49.5t-182.5 -135.5t-108 -197t-37.5 -239
t37.5 -239t108 -197t182.5 -135.5t252 -49.5t252 49.5t182.5 135.5t108 197t37.5 239t-37.5 239t-108 197t-182.5 135.5t-252 49.5zM867 1847l252 -311h-107l-169 185l-169 -185h-107l252 311h48z" />
    <glyph glyph-name="Otilde" unicode="&#xd5;" horiz-adv-x="1686" 
d="M843 -20q-165 0 -300 57.5t-224 157t-137.5 234t-48.5 288.5t48.5 288.5t137.5 234t224 157t300 57.5t300 -57.5t224 -157t137.5 -234t48.5 -288.5t-48.5 -288.5t-137.5 -234t-224 -157t-300 -57.5zM843 1338q-140 0 -252 -49.5t-182.5 -135.5t-108 -197t-37.5 -239
t37.5 -239t108 -197t182.5 -135.5t252 -49.5t252 49.5t182.5 135.5t108 197t37.5 239t-37.5 239t-108 197t-182.5 135.5t-252 49.5zM804 1619q-2 2 -8.5 9t-8.5 9t-7.5 8t-8 7.5t-7.5 5.5t-8.5 5.5t-8.5 4t-10 3t-10 0.5q-23 0 -35.5 -20.5t-13.5 -41.5l-1 -21h-116
q0 8 0.5 21t9 46t24 58.5t50 46.5t82.5 21q12 0 24 -1.5t21 -3.5t19 -6.5t16.5 -7t16 -9.5t13.5 -10t12.5 -11.5l11 -11t11 -11.5t10.5 -11t8.5 -9t8.5 -9t7.5 -8t8 -7.5t7.5 -5.5t8.5 -5.5t8.5 -4t10 -3t10 -0.5q23 0 35.5 21t13.5 41l1 21h116q0 -8 -0.5 -21t-9 -46
t-24 -58.5t-50 -46.5t-82.5 -21q-12 0 -24 1.5t-21 3.5t-19 6.5t-16.5 7t-16 9.5t-13.5 10t-12.5 11.5l-11 11t-11 11.5t-10.5 11z" />
    <glyph glyph-name="Odieresis" unicode="&#xd6;" horiz-adv-x="1686" 
d="M843 -20q-165 0 -300 57.5t-224 157t-137.5 234t-48.5 288.5t48.5 288.5t137.5 234t224 157t300 57.5t300 -57.5t224 -157t137.5 -234t48.5 -288.5t-48.5 -288.5t-137.5 -234t-224 -157t-300 -57.5zM843 1338q-140 0 -252 -49.5t-182.5 -135.5t-108 -197t-37.5 -239
t37.5 -239t108 -197t182.5 -135.5t252 -49.5t252 49.5t182.5 135.5t108 197t37.5 239t-37.5 239t-108 197t-182.5 135.5t-252 49.5zM586 1642q0 35 25.5 60.5t60.5 25.5t60.5 -25.5t25.5 -60.5t-25.5 -60.5t-60.5 -25.5t-60.5 25.5t-25.5 60.5zM928 1642q0 35 25.5 60.5
t60.5 25.5t60.5 -25.5t25.5 -60.5t-25.5 -60.5t-60.5 -25.5t-60.5 25.5t-25.5 60.5z" />
    <glyph glyph-name="multiply" unicode="&#xd7;" horiz-adv-x="1107" 
d="M642 666l332 -331l-89 -90l-332 332l-330 -331l-90 89l331 331l-331 331l90 89l330 -331l332 332l89 -89z" />
    <glyph glyph-name="Oslash" unicode="&#xd8;" horiz-adv-x="1686" 
d="M843 -20q-145 0 -273 46l-43 -87h-137l69 140q-156 94 -241 262.5t-85 375.5q0 154 48.5 288.5t137.5 234t224 157t300 57.5q144 0 268 -45l43 86h135l-68 -138q159 -94 245.5 -262.5t86.5 -377.5q0 -154 -48.5 -288.5t-137.5 -234t-224 -157t-300 -57.5zM843 96
q140 0 252 49.5t182.5 135.5t108 197t37.5 239q0 170 -65.5 310.5t-189.5 221.5l-546 -1116q100 -37 221 -37zM843 1338q-140 0 -252 -49.5t-182.5 -135.5t-108 -197t-37.5 -239q0 -169 64 -308.5t186 -220.5l546 1114q-100 36 -216 36z" />
    <glyph glyph-name="Ugrave" unicode="&#xd9;" horiz-adv-x="1468" 
d="M734 96q206 0 320.5 135.5t114.5 362.5v840h126v-840q0 -144 -41.5 -260t-116 -193.5t-177.5 -119t-226 -41.5t-226 41.5t-177.5 119t-116 193.5t-41.5 260v840h126v-840q0 -227 114.5 -362.5t320.5 -135.5zM610 1817l222 -281h-141l-255 281h174z" />
    <glyph glyph-name="Uacute" unicode="&#xda;" horiz-adv-x="1468" 
d="M734 96q206 0 320.5 135.5t114.5 362.5v840h126v-840q0 -144 -41.5 -260t-116 -193.5t-177.5 -119t-226 -41.5t-226 41.5t-177.5 119t-116 193.5t-41.5 260v840h126v-840q0 -227 114.5 -362.5t320.5 -135.5zM644 1536l222 281h174l-255 -281h-141z" />
    <glyph glyph-name="Ucircumflex" unicode="&#xdb;" horiz-adv-x="1468" 
d="M734 96q206 0 320.5 135.5t114.5 362.5v840h126v-840q0 -144 -41.5 -260t-116 -193.5t-177.5 -119t-226 -41.5t-226 41.5t-177.5 119t-116 193.5t-41.5 260v840h126v-840q0 -227 114.5 -362.5t320.5 -135.5zM757 1847l252 -311h-107l-169 185l-169 -185h-107l252 311h48z
" />
    <glyph glyph-name="Udieresis" unicode="&#xdc;" horiz-adv-x="1468" 
d="M734 96q206 0 320.5 135.5t114.5 362.5v840h126v-840q0 -144 -41.5 -260t-116 -193.5t-177.5 -119t-226 -41.5t-226 41.5t-177.5 119t-116 193.5t-41.5 260v840h126v-840q0 -227 114.5 -362.5t320.5 -135.5zM477 1642q0 35 25.5 60.5t60.5 25.5t60.5 -25.5t25.5 -60.5
t-25.5 -60.5t-60.5 -25.5t-60.5 25.5t-25.5 60.5zM819 1642q0 35 25.5 60.5t60.5 25.5t60.5 -25.5t25.5 -60.5t-25.5 -60.5t-60.5 -25.5t-60.5 25.5t-25.5 60.5z" />
    <glyph glyph-name="Yacute" unicode="&#xdd;" horiz-adv-x="1408" 
d="M233 1434l471 -705l471 705h150l-558 -836v-598h-126v598l-558 836h150zM616 1536l222 281h174l-255 -281h-141z" />
    <glyph glyph-name="Thorn" unicode="&#xde;" horiz-adv-x="1041" 
d="M153 0v1434h126v-317h264q99 0 174.5 -32.5t120.5 -89t67.5 -127t22.5 -151.5t-22.5 -151t-67.5 -127t-120.5 -89.5t-174.5 -32.5h-264v-317h-126zM543 1001h-264v-568h264q71 0 123.5 24.5t81 66t41.5 89.5t13 104t-13 104.5t-41.5 90t-81 65.5t-123.5 24z" />
    <glyph glyph-name="germandbls" unicode="&#xdf;" horiz-adv-x="1297" 
d="M437 48v122q134 -74 301 -74q133 0 216.5 76t83.5 218q0 152 -84.5 228.5t-242.5 76.5h-196v116h194q118 0 193.5 62t75.5 189q0 128 -89.5 202t-245.5 74q-28 0 -46 -1t-48.5 -5t-52 -12t-49.5 -24.5t-47 -38.5t-39.5 -57t-33 -78.5t-20.5 -104t-8 -132.5v-885h-126v885
q0 114 18.5 205.5t46 150t71 101t81.5 63.5t91 33t85 14t77 2q213 0 337 -111t124 -281q0 -106 -58 -185t-143 -114q121 -43 191 -142t70 -231q0 -187 -111.5 -298.5t-314.5 -111.5q-204 0 -301 68z" />
    <glyph glyph-name="agrave" unicode="&#xe0;" horiz-adv-x="1126" 
d="M594 914q-72 0 -168.5 -22.5t-165.5 -57.5l-50 94q76 42 178 66t206 24q95 0 162.5 -20t109.5 -54.5t66 -92t32.5 -121t8.5 -153.5v-577h-120v225q-35 -114 -133.5 -179.5t-235.5 -65.5q-78 0 -143.5 18.5t-117.5 55.5t-81 99t-29 143q0 70 27.5 126.5t72.5 94
t107.5 64.5t129 41t140.5 20t138 5t125 -7q0 149 -56.5 211.5t-202.5 62.5zM237 296q0 -104 69 -158t188 -54q160 0 259.5 101t99.5 252v111q-63 5 -126.5 5t-135.5 -6t-133 -24.5t-112 -46.5t-80 -74t-29 -106zM430 1434l222 -281h-141l-255 281h174z" />
    <glyph glyph-name="aacute" unicode="&#xe1;" horiz-adv-x="1126" 
d="M594 914q-72 0 -168.5 -22.5t-165.5 -57.5l-50 94q76 42 178 66t206 24q95 0 162.5 -20t109.5 -54.5t66 -92t32.5 -121t8.5 -153.5v-577h-120v225q-35 -114 -133.5 -179.5t-235.5 -65.5q-78 0 -143.5 18.5t-117.5 55.5t-81 99t-29 143q0 70 27.5 126.5t72.5 94
t107.5 64.5t129 41t140.5 20t138 5t125 -7q0 149 -56.5 211.5t-202.5 62.5zM237 296q0 -104 69 -158t188 -54q160 0 259.5 101t99.5 252v111q-63 5 -126.5 5t-135.5 -6t-133 -24.5t-112 -46.5t-80 -74t-29 -106zM485 1153l222 281h174l-255 -281h-141z" />
    <glyph glyph-name="acircumflex" unicode="&#xe2;" horiz-adv-x="1126" 
d="M594 914q-72 0 -168.5 -22.5t-165.5 -57.5l-50 94q76 42 178 66t206 24q95 0 162.5 -20t109.5 -54.5t66 -92t32.5 -121t8.5 -153.5v-577h-120v225q-35 -114 -133.5 -179.5t-235.5 -65.5q-78 0 -143.5 18.5t-117.5 55.5t-81 99t-29 143q0 70 27.5 126.5t72.5 94
t107.5 64.5t129 41t140.5 20t138 5t125 -7q0 149 -56.5 211.5t-202.5 62.5zM237 296q0 -104 69 -158t188 -54q160 0 259.5 101t99.5 252v111q-63 5 -126.5 5t-135.5 -6t-133 -24.5t-112 -46.5t-80 -74t-29 -106zM609 1434l252 -311h-107l-169 185l-169 -185h-107l252 311h48
z" />
    <glyph glyph-name="atilde" unicode="&#xe3;" horiz-adv-x="1126" 
d="M594 914q-72 0 -168.5 -22.5t-165.5 -57.5l-50 94q76 42 178 66t206 24q95 0 162.5 -20t109.5 -54.5t66 -92t32.5 -121t8.5 -153.5v-577h-120v225q-35 -114 -133.5 -179.5t-235.5 -65.5q-78 0 -143.5 18.5t-117.5 55.5t-81 99t-29 143q0 70 27.5 126.5t72.5 94
t107.5 64.5t129 41t140.5 20t138 5t125 -7q0 149 -56.5 211.5t-202.5 62.5zM237 296q0 -104 69 -158t188 -54q160 0 259.5 101t99.5 252v111q-63 5 -126.5 5t-135.5 -6t-133 -24.5t-112 -46.5t-80 -74t-29 -106zM531 1272q-2 2 -8.5 9t-8.5 9t-7.5 8t-8 7.5t-7.5 5.5
t-8.5 5.5t-8.5 4t-10 3t-10 0.5q-23 0 -35.5 -21t-13.5 -41l-1 -21h-116q0 8 0.5 21t9 46t24 58.5t50 46.5t82.5 21q12 0 24 -1.5t21 -3.5t19 -6.5t16.5 -7t16 -9.5t13.5 -10t12.5 -11.5l11 -11t11 -11.5t10.5 -11t8.5 -9t8.5 -9t7.5 -8t8 -7.5t7.5 -5.5t8.5 -5.5t8.5 -4
t10 -3t10 -0.5q23 0 35.5 20.5t13.5 41.5l1 21h116q0 -8 -0.5 -21t-9 -46t-24 -58.5t-50 -46.5t-82.5 -21q-12 0 -24 1.5t-21 3.5t-19 6.5t-16.5 7t-16 9.5t-13.5 10t-12.5 11.5l-11 11t-11 11.5t-10.5 11z" />
    <glyph glyph-name="adieresis" unicode="&#xe4;" horiz-adv-x="1126" 
d="M594 914q-72 0 -168.5 -22.5t-165.5 -57.5l-50 94q76 42 178 66t206 24q95 0 162.5 -20t109.5 -54.5t66 -92t32.5 -121t8.5 -153.5v-577h-120v225q-35 -114 -133.5 -179.5t-235.5 -65.5q-78 0 -143.5 18.5t-117.5 55.5t-81 99t-29 143q0 70 27.5 126.5t72.5 94
t107.5 64.5t129 41t140.5 20t138 5t125 -7q0 149 -56.5 211.5t-202.5 62.5zM237 296q0 -104 69 -158t188 -54q160 0 259.5 101t99.5 252v111q-63 5 -126.5 5t-135.5 -6t-133 -24.5t-112 -46.5t-80 -74t-29 -106zM324 1287q0 35 25.5 60.5t60.5 25.5t60.5 -25.5t25.5 -60.5
t-25.5 -60.5t-60.5 -25.5t-60.5 25.5t-25.5 60.5zM666 1287q0 35 25.5 60.5t60.5 25.5t60.5 -25.5t25.5 -60.5t-25.5 -60.5t-60.5 -25.5t-60.5 25.5t-25.5 60.5z" />
    <glyph glyph-name="aring" unicode="&#xe5;" horiz-adv-x="1126" 
d="M594 914q-72 0 -168.5 -22.5t-165.5 -57.5l-50 94q76 42 178 66t206 24q95 0 162.5 -20t109.5 -54.5t66 -92t32.5 -121t8.5 -153.5v-577h-120v225q-35 -114 -133.5 -179.5t-235.5 -65.5q-78 0 -143.5 18.5t-117.5 55.5t-81 99t-29 143q0 70 27.5 126.5t72.5 94
t107.5 64.5t129 41t140.5 20t138 5t125 -7q0 149 -56.5 211.5t-202.5 62.5zM237 296q0 -104 69 -158t188 -54q160 0 259.5 101t99.5 252v111q-63 5 -126.5 5t-135.5 -6t-133 -24.5t-112 -46.5t-80 -74t-29 -106zM409 1314q0 74 53 127t127 53t127 -53t53 -127
q0 -73 -53 -126t-127 -53t-127 52.5t-53 126.5zM493 1314q0 -40 28 -68t68 -28t68 28t28 68t-28 68t-68 28t-68 -28t-28 -68z" />
    <glyph glyph-name="ae" unicode="&#xe6;" horiz-adv-x="1915" 
d="M1327 84q211 0 332 118l80 -78q-150 -144 -412 -144q-144 0 -248.5 60t-162.5 171q-151 -231 -432 -231q-78 0 -143.5 18.5t-117.5 55.5t-81 99t-29 143q0 70 27.5 126.5t72.5 94t107.5 64.5t129 41t140.5 20t138 5t125 -7q0 149 -56.5 211.5t-202.5 62.5
q-72 0 -168.5 -22.5t-165.5 -57.5l-50 94q76 42 178 66t206 24q150 0 231.5 -47.5t115.5 -141.5q127 189 386 189q108 0 195.5 -35t151 -104.5t97 -179.5t30.5 -252h-820q2 -73 23 -136.5t61 -115t107.5 -81.5t154.5 -30zM237 296q0 -104 69 -158t188 -54q160 0 259.5 101
t99.5 252v111q-63 5 -126.5 5t-135.5 -6t-133 -24.5t-112 -46.5t-80 -74t-29 -106zM981 551h692q-2 76 -22.5 140.5t-61 115t-107.5 79t-155 28.5t-155 -28.5t-107.5 -79t-61 -115t-22.5 -140.5z" />
    <glyph glyph-name="ccedilla" unicode="&#xe7;" horiz-adv-x="1084" 
d="M430 -405l39 73q31 -14 68 -22.5t76 -9t67.5 20t34.5 60.5q5 35 -12.5 56t-55 26.5t-72 4.5t-81.5 -6l65 186q-201 22 -323.5 163.5t-122.5 351.5q0 227 143 373t370 146q215 0 365 -124l-67 -84q-129 104 -298 104q-183 0 -286 -115t-103 -300t103 -300t286 -115
q169 0 298 104l67 -84q-140 -116 -334 -123l-36 -106q93 2 148 -38t47 -122q-7 -72 -53 -113t-107 -48t-122.5 4t-103.5 37z" />
    <glyph glyph-name="egrave" unicode="&#xe8;" horiz-adv-x="1175" 
d="M587 84q211 0 332 118l80 -78q-150 -144 -412 -144q-223 0 -348.5 141t-125.5 378t125.5 378t348.5 141q108 0 195.5 -35t151 -104.5t97 -179.5t30.5 -252h-820q2 -73 23 -136.5t61 -115t107.5 -81.5t154.5 -30zM241 551h692q-2 76 -22.5 140.5t-61 115t-107.5 79
t-155 28.5t-155 -28.5t-107.5 -79t-61 -115t-22.5 -140.5zM448 1434l222 -281h-141l-255 281h174z" />
    <glyph glyph-name="eacute" unicode="&#xe9;" horiz-adv-x="1175" 
d="M587 84q211 0 332 118l80 -78q-150 -144 -412 -144q-223 0 -348.5 141t-125.5 378t125.5 378t348.5 141q108 0 195.5 -35t151 -104.5t97 -179.5t30.5 -252h-820q2 -73 23 -136.5t61 -115t107.5 -81.5t154.5 -30zM241 551h692q-2 76 -22.5 140.5t-61 115t-107.5 79
t-155 28.5t-155 -28.5t-107.5 -79t-61 -115t-22.5 -140.5zM514 1153l222 281h174l-255 -281h-141z" />
    <glyph glyph-name="ecircumflex" unicode="&#xea;" horiz-adv-x="1175" 
d="M587 84q211 0 332 118l80 -78q-150 -144 -412 -144q-223 0 -348.5 141t-125.5 378t125.5 378t348.5 141q108 0 195.5 -35t151 -104.5t97 -179.5t30.5 -252h-820q2 -73 23 -136.5t61 -115t107.5 -81.5t154.5 -30zM241 551h692q-2 76 -22.5 140.5t-61 115t-107.5 79
t-155 28.5t-155 -28.5t-107.5 -79t-61 -115t-22.5 -140.5zM617 1434l252 -311h-107l-169 185l-169 -185h-107l252 311h48z" />
    <glyph glyph-name="edieresis" unicode="&#xeb;" horiz-adv-x="1175" 
d="M587 84q211 0 332 118l80 -78q-150 -144 -412 -144q-223 0 -348.5 141t-125.5 378t125.5 378t348.5 141q108 0 195.5 -35t151 -104.5t97 -179.5t30.5 -252h-820q2 -73 23 -136.5t61 -115t107.5 -81.5t154.5 -30zM241 551h692q-2 76 -22.5 140.5t-61 115t-107.5 79
t-155 28.5t-155 -28.5t-107.5 -79t-61 -115t-22.5 -140.5zM335 1287q0 35 25.5 60.5t60.5 25.5t60.5 -25.5t25.5 -60.5t-25.5 -60.5t-60.5 -25.5t-60.5 25.5t-25.5 60.5zM677 1287q0 35 25.5 60.5t60.5 25.5t60.5 -25.5t25.5 -60.5t-25.5 -60.5t-60.5 -25.5t-60.5 25.5
t-25.5 60.5z" />
    <glyph glyph-name="igrave" unicode="&#xec;" horiz-adv-x="436" 
d="M155 0v998h120v-998h-120zM61 1434l222 -281h-141l-255 281h174z" />
    <glyph glyph-name="iacute" unicode="&#xed;" horiz-adv-x="436" 
d="M161 0v998h120v-998h-120zM153 1153l222 281h174l-255 -281h-141z" />
    <glyph glyph-name="icircumflex" unicode="&#xee;" horiz-adv-x="472" 
d="M176 0v998h120v-998h-120zM260 1434l252 -311h-107l-169 185l-169 -185h-107l252 311h48z" />
    <glyph glyph-name="idieresis" unicode="&#xef;" horiz-adv-x="434" 
d="M157 0v998h120v-998h-120zM-40 1287q0 35 25.5 60.5t60.5 25.5t60.5 -25.5t25.5 -60.5t-25.5 -60.5t-60.5 -25.5t-60.5 25.5t-25.5 60.5zM302 1287q0 35 25.5 60.5t60.5 25.5t60.5 -25.5t25.5 -60.5t-25.5 -60.5t-60.5 -25.5t-60.5 25.5t-25.5 60.5z" />
    <glyph glyph-name="eth" unicode="&#xf0;" horiz-adv-x="1243" 
d="M635 1136l-60 84l163 119q-116 89 -286 118l28 99q199 -27 345 -153l163 120l61 -84l-150 -110q119 -141 172.5 -353.5t31.5 -476.5q-15 -235 -149.5 -377t-343.5 -142q-219 0 -358 144.5t-139 374.5t139 374.5t358 144.5q122 0 230 -71t161 -201q-32 343 -187 521z
M610 914q-170 0 -271.5 -117t-101.5 -298t101.5 -298t271.5 -117t271.5 117t101.5 298t-101.5 298t-271.5 117z" />
    <glyph glyph-name="ntilde" unicode="&#xf1;" 
d="M153 998h120v-187q33 93 119 150t196 57q212 0 323.5 -120.5t111.5 -341.5v-556h-120v556q0 168 -76.5 263t-238.5 95t-238.5 -95t-76.5 -263v-556h-120v998zM549 1272q-2 2 -8.5 9t-8.5 9t-7.5 8t-8 7.5t-7.5 5.5t-8.5 5.5t-8.5 4t-10 3t-10 0.5q-23 0 -35.5 -21
t-13.5 -41l-1 -21h-116q0 8 0.5 21t9 46t24 58.5t50 46.5t82.5 21q12 0 24 -1.5t21 -3.5t19 -6.5t16.5 -7t16 -9.5t13.5 -10t12.5 -11.5l11 -11t11 -11.5t10.5 -11t8.5 -9t8.5 -9t7.5 -8t8 -7.5t7.5 -5.5t8.5 -5.5t8.5 -4t10 -3t10 -0.5q23 0 35.5 20.5t13.5 41.5l1 21h116
q0 -8 -0.5 -21t-9 -46t-24 -58.5t-50 -46.5t-82.5 -21q-12 0 -24 1.5t-21 3.5t-19 6.5t-16.5 7t-16 9.5t-13.5 10t-12.5 11.5l-11 11t-11 11.5t-10.5 11z" />
    <glyph glyph-name="ograve" unicode="&#xf2;" horiz-adv-x="1252" 
d="M113 499q0 227 143 373t370 146t370 -146t143 -373t-143 -373t-370 -146t-370 146t-143 373zM1015 499q0 185 -103 300t-286 115t-286 -115t-103 -300t103 -300t286 -115t286 115t103 300zM481 1434l222 -281h-141l-255 281h174z" />
    <glyph glyph-name="oacute" unicode="&#xf3;" horiz-adv-x="1252" 
d="M113 499q0 227 143 373t370 146t370 -146t143 -373t-143 -373t-370 -146t-370 146t-143 373zM1015 499q0 185 -103 300t-286 115t-286 -115t-103 -300t103 -300t286 -115t286 115t103 300zM556 1153l222 281h174l-255 -281h-141z" />
    <glyph glyph-name="ocircumflex" unicode="&#xf4;" horiz-adv-x="1252" 
d="M113 499q0 227 143 373t370 146t370 -146t143 -373t-143 -373t-370 -146t-370 146t-143 373zM1015 499q0 185 -103 300t-286 115t-286 -115t-103 -300t103 -300t286 -115t286 115t103 300zM649 1434l252 -311h-107l-169 185l-169 -185h-107l252 311h48z" />
    <glyph glyph-name="otilde" unicode="&#xf5;" horiz-adv-x="1252" 
d="M113 499q0 227 143 373t370 146t370 -146t143 -373t-143 -373t-370 -146t-370 146t-143 373zM1015 499q0 185 -103 300t-286 115t-286 -115t-103 -300t103 -300t286 -115t286 115t103 300zM587 1272q-2 2 -8.5 9t-8.5 9t-7.5 8t-8 7.5t-7.5 5.5t-8.5 5.5t-8.5 4t-10 3
t-10 0.5q-23 0 -35.5 -21t-13.5 -41l-1 -21h-116q0 8 0.5 21t9 46t24 58.5t50 46.5t82.5 21q12 0 24 -1.5t21 -3.5t19 -6.5t16.5 -7t16 -9.5t13.5 -10t12.5 -11.5l11 -11t11 -11.5t10.5 -11t8.5 -9t8.5 -9t7.5 -8t8 -7.5t7.5 -5.5t8.5 -5.5t8.5 -4t10 -3t10 -0.5
q23 0 35.5 20.5t13.5 41.5l1 21h116q0 -8 -0.5 -21t-9 -46t-24 -58.5t-50 -46.5t-82.5 -21q-12 0 -24 1.5t-21 3.5t-19 6.5t-16.5 7t-16 9.5t-13.5 10t-12.5 11.5l-11 11t-11 11.5t-10.5 11z" />
    <glyph glyph-name="odieresis" unicode="&#xf6;" horiz-adv-x="1252" 
d="M113 499q0 227 143 373t370 146t370 -146t143 -373t-143 -373t-370 -146t-370 146t-143 373zM1015 499q0 185 -103 300t-286 115t-286 -115t-103 -300t103 -300t286 -115t286 115t103 300zM368 1287q0 35 25.5 60.5t60.5 25.5t60.5 -25.5t25.5 -60.5t-25.5 -60.5
t-60.5 -25.5t-60.5 25.5t-25.5 60.5zM710 1287q0 35 25.5 60.5t60.5 25.5t60.5 -25.5t25.5 -60.5t-25.5 -60.5t-60.5 -25.5t-60.5 25.5t-25.5 60.5z" />
    <glyph glyph-name="divide" unicode="&#xf7;" horiz-adv-x="978" 
d="M133 605v116h712v-116h-712zM395 901q0 39 27.5 66.5t66.5 27.5t66.5 -27.5t27.5 -66.5t-27.5 -66.5t-66.5 -27.5t-66.5 27.5t-27.5 66.5zM395 425q0 39 27.5 66.5t66.5 27.5t66.5 -27.5t27.5 -66.5t-27.5 -66.5t-66.5 -27.5t-66.5 27.5t-27.5 66.5z" />
    <glyph glyph-name="oslash" unicode="&#xf8;" horiz-adv-x="1252" 
d="M113 499q0 227 143 373t370 146q90 0 176 -27l24 48h133l-49 -99q108 -67 168.5 -182t60.5 -259q0 -227 -143 -373t-370 -146q-91 0 -177 27l-23 -48h-132l48 98q-108 67 -168.5 182.5t-60.5 259.5zM626 914q-183 0 -286 -115t-103 -300q0 -112 39 -201.5t114 -143.5
l365 742q-64 18 -129 18zM1015 499q0 112 -39.5 201t-113.5 143l-366 -741q58 -18 130 -18q183 0 286 115t103 300z" />
    <glyph glyph-name="ugrave" unicode="&#xf9;" 
d="M1023 0h-120v187q-33 -93 -119 -150t-196 -57q-212 0 -323.5 120.5t-111.5 341.5v556h120v-556q0 -168 76.5 -263t238.5 -95t238.5 95t76.5 263v556h120v-998zM444 1434l222 -281h-141l-255 281h174z" />
    <glyph glyph-name="uacute" unicode="&#xfa;" 
d="M1023 0h-120v187q-33 -93 -119 -150t-196 -57q-212 0 -323.5 120.5t-111.5 341.5v556h120v-556q0 -168 76.5 -263t238.5 -95t238.5 95t76.5 263v556h120v-998zM500 1153l222 281h174l-255 -281h-141z" />
    <glyph glyph-name="ucircumflex" unicode="&#xfb;" 
d="M1023 0h-120v187q-33 -93 -119 -150t-196 -57q-212 0 -323.5 120.5t-111.5 341.5v556h120v-556q0 -168 76.5 -263t238.5 -95t238.5 95t76.5 263v556h120v-998zM612 1434l252 -311h-107l-169 185l-169 -185h-107l252 311h48z" />
    <glyph glyph-name="udieresis" unicode="&#xfc;" 
d="M1023 0h-120v187q-33 -93 -119 -150t-196 -57q-212 0 -323.5 120.5t-111.5 341.5v556h120v-556q0 -168 76.5 -263t238.5 -95t238.5 95t76.5 263v556h120v-998zM331 1287q0 35 25.5 60.5t60.5 25.5t60.5 -25.5t25.5 -60.5t-25.5 -60.5t-60.5 -25.5t-60.5 25.5t-25.5 60.5z
M673 1287q0 35 25.5 60.5t60.5 25.5t60.5 -25.5t25.5 -60.5t-25.5 -60.5t-60.5 -25.5t-60.5 25.5t-25.5 60.5z" />
    <glyph glyph-name="yacute" unicode="&#xfd;" horiz-adv-x="1084" 
d="M481 0l-418 998h130l349 -856l349 856h130l-539 -1287q-21 -49 -34 -76.5t-37 -64.5t-47 -55.5t-59 -32.5t-79 -14q-97 0 -163 36l46 92q55 -25 107 -25q14 0 26.5 3t22.5 6t20 11.5t17 13.5t15.5 19t13 20.5t13 24.5t12 25.5t13 29.5t12.5 30zM454 1153l222 281h174
l-255 -281h-141z" />
    <glyph glyph-name="thorn" unicode="&#xfe;" horiz-adv-x="1256" 
d="M273 -532h-120v2048h120v-735q41 97 144.5 167t228.5 70q219 0 358 -144.5t139 -374.5t-139 -374.5t-358 -144.5q-125 0 -228.5 70t-144.5 167v-749zM646 914q-170 0 -271.5 -117t-101.5 -298t101.5 -298t271.5 -117t271.5 117t101.5 298t-101.5 298t-271.5 117z" />
    <glyph glyph-name="ydieresis" unicode="&#xff;" horiz-adv-x="1084" 
d="M481 0l-418 998h130l349 -856l349 856h130l-539 -1287q-21 -49 -34 -76.5t-37 -64.5t-47 -55.5t-59 -32.5t-79 -14q-97 0 -163 36l46 92q55 -25 107 -25q14 0 26.5 3t22.5 6t20 11.5t17 13.5t15.5 19t13 20.5t13 24.5t12 25.5t13 29.5t12.5 30zM285 1287q0 35 25.5 60.5
t60.5 25.5t60.5 -25.5t25.5 -60.5t-25.5 -60.5t-60.5 -25.5t-60.5 25.5t-25.5 60.5zM627 1287q0 35 25.5 60.5t60.5 25.5t60.5 -25.5t25.5 -60.5t-25.5 -60.5t-60.5 -25.5t-60.5 25.5t-25.5 60.5z" />
    <glyph glyph-name="Amacron" unicode="&#x100;" horiz-adv-x="1490" 
d="M408 455l-191 -455h-134l607 1434h110l607 -1434h-134l-191 455h-674zM745 1255l-288 -684h576zM402 1536v104h686v-104h-686z" />
    <glyph glyph-name="amacron" unicode="&#x101;" horiz-adv-x="1126" 
d="M594 914q-72 0 -168.5 -22.5t-165.5 -57.5l-50 94q76 42 178 66t206 24q95 0 162.5 -20t109.5 -54.5t66 -92t32.5 -121t8.5 -153.5v-577h-120v225q-35 -114 -133.5 -179.5t-235.5 -65.5q-78 0 -143.5 18.5t-117.5 55.5t-81 99t-29 143q0 70 27.5 126.5t72.5 94
t107.5 64.5t129 41t140.5 20t138 5t125 -7q0 149 -56.5 211.5t-202.5 62.5zM237 296q0 -104 69 -158t188 -54q160 0 259.5 101t99.5 252v111q-63 5 -126.5 5t-135.5 -6t-133 -24.5t-112 -46.5t-80 -74t-29 -106zM239 1330v104h686v-104h-686z" />
    <glyph glyph-name="Abreve" unicode="&#x102;" horiz-adv-x="1490" 
d="M408 455l-191 -455h-134l607 1434h110l607 -1434h-134l-191 455h-674zM745 1255l-288 -684h576zM745 1647q167 0 219 131h100q-22 -105 -107.5 -163.5t-211.5 -58.5t-211.5 58.5t-107.5 163.5h100q52 -131 219 -131z" />
    <glyph glyph-name="abreve" unicode="&#x103;" horiz-adv-x="1126" 
d="M594 914q-72 0 -168.5 -22.5t-165.5 -57.5l-50 94q76 42 178 66t206 24q95 0 162.5 -20t109.5 -54.5t66 -92t32.5 -121t8.5 -153.5v-577h-120v225q-35 -114 -133.5 -179.5t-235.5 -65.5q-78 0 -143.5 18.5t-117.5 55.5t-81 99t-29 143q0 70 27.5 126.5t72.5 94
t107.5 64.5t129 41t140.5 20t138 5t125 -7q0 149 -56.5 211.5t-202.5 62.5zM237 296q0 -104 69 -158t188 -54q160 0 259.5 101t99.5 252v111q-63 5 -126.5 5t-135.5 -6t-133 -24.5t-112 -46.5t-80 -74t-29 -106zM594 1303q167 0 219 131h100q-22 -105 -107.5 -163.5
t-211.5 -58.5t-211.5 58.5t-107.5 163.5h100q52 -131 219 -131z" />
    <glyph glyph-name="Aogonek" unicode="&#x104;" horiz-adv-x="1490" 
d="M408 455l-191 -455h-134l607 1434h110l607 -1434q-7 -1 -18.5 -4t-41.5 -15.5t-53.5 -29.5t-43 -47.5t-21.5 -67.5q-2 -43 24.5 -67.5t56.5 -30t67 -3.5v-110q-39 -5 -77 0t-72.5 21t-59 41t-35.5 64t-2 87q8 44 33 77.5t57 51t50 24t31 9.5h-29l-191 455h-674zM745 1255
l-288 -684h576z" />
    <glyph glyph-name="aogonek" unicode="&#x105;" horiz-adv-x="1126" 
d="M594 914q-72 0 -168.5 -22.5t-165.5 -57.5l-50 94q76 42 178 66t206 24q95 0 162.5 -20t109.5 -54.5t66 -92t32.5 -121t8.5 -153.5v-577q-14 -3 -35.5 -10.5t-56.5 -25t-59.5 -51t-26.5 -77.5q-2 -43 24.5 -67.5t56.5 -30t67 -3.5v-110q-39 -5 -77 0t-72.5 21t-59 41
t-35.5 64t-2 87q8 44 33 77.5t57 51t50 24t31 9.5h-15v225q-35 -114 -133.5 -179.5t-235.5 -65.5q-78 0 -143.5 18.5t-117.5 55.5t-81 99t-29 143q0 70 27.5 126.5t72.5 94t107.5 64.5t129 41t140.5 20t138 5t125 -7q0 149 -56.5 211.5t-202.5 62.5zM237 296q0 -104 69 -158
t188 -54q160 0 259.5 101t99.5 252v111q-63 5 -126.5 5t-135.5 -6t-133 -24.5t-112 -46.5t-80 -74t-29 -106z" />
    <glyph glyph-name="Cacute" unicode="&#x106;" horiz-adv-x="1410" 
d="M263 717q0 -128 37.5 -239t108 -197t182.5 -135.5t252 -49.5q230 0 385 104l69 -97q-167 -123 -454 -123q-165 0 -300 57.5t-224 157t-137.5 234t-48.5 288.5t48.5 288.5t137.5 234t224 157t300 57.5q287 0 454 -123l-69 -97q-155 104 -385 104q-140 0 -252 -49.5
t-182.5 -135.5t-108 -197t-37.5 -239zM777 1536l222 281h174l-255 -281h-141z" />
    <glyph glyph-name="cacute" unicode="&#x107;" horiz-adv-x="1084" 
d="M237 499q0 -185 103 -300t286 -115q169 0 298 104l67 -84q-150 -124 -365 -124q-227 0 -370 146t-143 373t143 373t370 146q215 0 365 -124l-67 -84q-129 104 -298 104q-183 0 -286 -115t-103 -300zM551 1153l222 281h174l-255 -281h-141z" />
    <glyph glyph-name="Ccircumflex" unicode="&#x108;" horiz-adv-x="1410" 
d="M263 717q0 -128 37.5 -239t108 -197t182.5 -135.5t252 -49.5q230 0 385 104l69 -97q-167 -123 -454 -123q-165 0 -300 57.5t-224 157t-137.5 234t-48.5 288.5t48.5 288.5t137.5 234t224 157t300 57.5q287 0 454 -123l-69 -97q-155 104 -385 104q-140 0 -252 -49.5
t-182.5 -135.5t-108 -197t-37.5 -239zM868 1847l252 -311h-107l-169 185l-169 -185h-107l252 311h48z" />
    <glyph glyph-name="ccircumflex" unicode="&#x109;" horiz-adv-x="1084" 
d="M237 499q0 -185 103 -300t286 -115q169 0 298 104l67 -84q-150 -124 -365 -124q-227 0 -370 146t-143 373t143 373t370 146q215 0 365 -124l-67 -84q-129 104 -298 104q-183 0 -286 -115t-103 -300zM631 1434l252 -311h-107l-169 185l-169 -185h-107l252 311h48z" />
    <glyph glyph-name="Cdotaccent" unicode="&#x10a;" horiz-adv-x="1410" 
d="M263 717q0 -128 37.5 -239t108 -197t182.5 -135.5t252 -49.5q230 0 385 104l69 -97q-167 -123 -454 -123q-165 0 -300 57.5t-224 157t-137.5 234t-48.5 288.5t48.5 288.5t137.5 234t224 157t300 57.5q287 0 454 -123l-69 -97q-155 104 -385 104q-140 0 -252 -49.5
t-182.5 -135.5t-108 -197t-37.5 -239zM748 1642q0 35 25.5 60.5t60.5 25.5t60.5 -25.5t25.5 -60.5t-25.5 -60.5t-60.5 -25.5t-60.5 25.5t-25.5 60.5z" />
    <glyph glyph-name="cdotaccent" unicode="&#x10b;" horiz-adv-x="1084" 
d="M237 499q0 -185 103 -300t286 -115q169 0 298 104l67 -84q-150 -124 -365 -124q-227 0 -370 146t-143 373t143 373t370 146q215 0 365 -124l-67 -84q-129 104 -298 104q-183 0 -286 -115t-103 -300zM540 1287q0 35 25.5 60.5t60.5 25.5t60.5 -25.5t25.5 -60.5
t-25.5 -60.5t-60.5 -25.5t-60.5 25.5t-25.5 60.5z" />
    <glyph glyph-name="Ccaron" unicode="&#x10c;" horiz-adv-x="1410" 
d="M263 717q0 -128 37.5 -239t108 -197t182.5 -135.5t252 -49.5q230 0 385 104l69 -97q-167 -123 -454 -123q-165 0 -300 57.5t-224 157t-137.5 234t-48.5 288.5t48.5 288.5t137.5 234t224 157t300 57.5q287 0 454 -123l-69 -97q-155 104 -385 104q-140 0 -252 -49.5
t-182.5 -135.5t-108 -197t-37.5 -239zM1119 1847l-252 -311h-48l-252 311h107l169 -185l169 185h107z" />
    <glyph glyph-name="ccaron" unicode="&#x10d;" horiz-adv-x="1084" 
d="M237 499q0 -185 103 -300t286 -115q169 0 298 104l67 -84q-150 -124 -365 -124q-227 0 -370 146t-143 373t143 373t370 146q215 0 365 -124l-67 -84q-129 104 -298 104q-183 0 -286 -115t-103 -300zM898 1434l-252 -311h-48l-252 311h107l169 -185l169 185h107z" />
    <glyph glyph-name="Dcaron" unicode="&#x10e;" horiz-adv-x="1442" 
d="M1309 717q0 -123 -26 -230t-81 -197t-137 -154t-199 -100t-261 -36h-432v1434h432q179 0 316 -55t220.5 -153t125.5 -226.5t42 -282.5zM299 1318v-1202h306q154 0 267.5 46t179.5 129.5t97.5 189.5t31.5 236t-31.5 236t-97.5 189.5t-179.5 129.5t-267.5 46h-306z
M852 1847l-252 -311h-48l-252 311h107l169 -185l169 185h107z" />
    <glyph glyph-name="dcaron" unicode="&#x10f;" horiz-adv-x="1328" 
d="M1103 0h-120v217q-41 -97 -144.5 -167t-228.5 -70q-219 0 -358 144.5t-139 374.5t139 374.5t358 144.5q125 0 228.5 -70t144.5 -167v735h120v-1516zM610 914q-170 0 -271.5 -117t-101.5 -298t101.5 -298t271.5 -117t271.5 117t101.5 298t-101.5 298t-271.5 117z
M1160 1100l97 416h141l-129 -416h-109z" />
    <glyph glyph-name="Dcroat" unicode="&#x110;" horiz-adv-x="1562" 
d="M83 659v116h210v659h432q179 0 316 -55t220.5 -153t125.5 -226.5t42 -282.5q0 -123 -26 -230t-81 -197t-137 -154t-199 -100t-261 -36h-432v659h-210zM419 659v-543h306q154 0 267.5 46t179.5 129.5t97.5 189.5t31.5 236t-31.5 236t-97.5 189.5t-179.5 129.5t-267.5 46
h-306v-543h297v-116h-297z" />
    <glyph glyph-name="dcroat" unicode="&#x111;" horiz-adv-x="1321" 
d="M1103 0h-120v217q-41 -97 -144.5 -167t-228.5 -70q-219 0 -358 144.5t-139 374.5t139 374.5t358 144.5q125 0 228.5 -70t144.5 -167v391h-282v104h282v240h120v-240h185v-104h-185v-1172zM610 914q-170 0 -271.5 -117t-101.5 -298t101.5 -298t271.5 -117t271.5 117
t101.5 298t-101.5 298t-271.5 117z" />
    <glyph glyph-name="Emacron" unicode="&#x112;" horiz-adv-x="1276" 
d="M299 791h756v-116h-756v-559h824v-116h-950v1434h940v-116h-814v-527zM305 1536v104h686v-104h-686z" />
    <glyph glyph-name="emacron" unicode="&#x113;" horiz-adv-x="1175" 
d="M587 84q211 0 332 118l80 -78q-150 -144 -412 -144q-223 0 -348.5 141t-125.5 378t125.5 378t348.5 141q108 0 195.5 -35t151 -104.5t97 -179.5t30.5 -252h-820q2 -73 23 -136.5t61 -115t107.5 -81.5t154.5 -30zM241 551h692q-2 76 -22.5 140.5t-61 115t-107.5 79
t-155 28.5t-155 -28.5t-107.5 -79t-61 -115t-22.5 -140.5zM249 1330v104h686v-104h-686z" />
    <glyph glyph-name="Ebreve" unicode="&#x114;" horiz-adv-x="1276" 
d="M299 791h756v-116h-756v-559h824v-116h-950v1434h940v-116h-814v-527zM648 1647q167 0 219 131h100q-22 -105 -107.5 -163.5t-211.5 -58.5t-211.5 58.5t-107.5 163.5h100q52 -131 219 -131z" />
    <glyph glyph-name="ebreve" unicode="&#x115;" horiz-adv-x="1175" 
d="M587 84q211 0 332 118l80 -78q-150 -144 -412 -144q-223 0 -348.5 141t-125.5 378t125.5 378t348.5 141q108 0 195.5 -35t151 -104.5t97 -179.5t30.5 -252h-820q2 -73 23 -136.5t61 -115t107.5 -81.5t154.5 -30zM241 551h692q-2 76 -22.5 140.5t-61 115t-107.5 79
t-155 28.5t-155 -28.5t-107.5 -79t-61 -115t-22.5 -140.5zM592 1303q167 0 219 131h100q-22 -105 -107.5 -163.5t-211.5 -58.5t-211.5 58.5t-107.5 163.5h100q52 -131 219 -131z" />
    <glyph glyph-name="Edotaccent" unicode="&#x116;" horiz-adv-x="1276" 
d="M299 791h756v-116h-756v-559h824v-116h-950v1434h940v-116h-814v-527zM562 1642q0 35 25.5 60.5t60.5 25.5t60.5 -25.5t25.5 -60.5t-25.5 -60.5t-60.5 -25.5t-60.5 25.5t-25.5 60.5z" />
    <glyph glyph-name="edotaccent" unicode="&#x117;" horiz-adv-x="1175" 
d="M587 84q211 0 332 118l80 -78q-150 -144 -412 -144q-223 0 -348.5 141t-125.5 378t125.5 378t348.5 141q108 0 195.5 -35t151 -104.5t97 -179.5t30.5 -252h-820q2 -73 23 -136.5t61 -115t107.5 -81.5t154.5 -30zM241 551h692q-2 76 -22.5 140.5t-61 115t-107.5 79
t-155 28.5t-155 -28.5t-107.5 -79t-61 -115t-22.5 -140.5zM506 1287q0 35 25.5 60.5t60.5 25.5t60.5 -25.5t25.5 -60.5t-25.5 -60.5t-60.5 -25.5t-60.5 25.5t-25.5 60.5z" />
    <glyph glyph-name="Eogonek" unicode="&#x118;" horiz-adv-x="1276" 
d="M1123 116v-116q-7 -1 -18.5 -4t-41.5 -15.5t-53.5 -29.5t-43 -47.5t-21.5 -67.5q-2 -43 24.5 -67.5t56.5 -30t67 -3.5v-110q-39 -5 -77 0t-72.5 21t-59 41t-35.5 64t-2 87q8 44 33 77.5t57 51t50 24t31 9.5h-845v1434h940v-116h-814v-527h756v-116h-756v-559h824z" />
    <glyph glyph-name="eogonek" unicode="&#x119;" horiz-adv-x="1175" 
d="M587 84q211 0 332 118l80 -78q-99 -95 -246 -127q-21 -5 -42.5 -14.5t-51 -28t-49 -49.5t-21.5 -69q-2 -43 24.5 -67.5t56.5 -30t67 -3.5v-110q-39 -5 -77 0t-72.5 21t-59 41t-35.5 64t-2 87q17 95 115 142h-19q-223 0 -348.5 141t-125.5 378t125.5 378t348.5 141
q108 0 195.5 -35t151 -104.5t97 -179.5t30.5 -252h-820q2 -73 23 -136.5t61 -115t107.5 -81.5t154.5 -30zM241 551h692q-2 76 -22.5 140.5t-61 115t-107.5 79t-155 28.5t-155 -28.5t-107.5 -79t-61 -115t-22.5 -140.5z" />
    <glyph glyph-name="Ecaron" unicode="&#x11a;" horiz-adv-x="1276" 
d="M299 791h756v-116h-756v-559h824v-116h-950v1434h940v-116h-814v-527zM924 1847l-252 -311h-48l-252 311h107l169 -185l169 185h107z" />
    <glyph glyph-name="ecaron" unicode="&#x11b;" horiz-adv-x="1175" 
d="M587 84q211 0 332 118l80 -78q-150 -144 -412 -144q-223 0 -348.5 141t-125.5 378t125.5 378t348.5 141q108 0 195.5 -35t151 -104.5t97 -179.5t30.5 -252h-820q2 -73 23 -136.5t61 -115t107.5 -81.5t154.5 -30zM241 551h692q-2 76 -22.5 140.5t-61 115t-107.5 79
t-155 28.5t-155 -28.5t-107.5 -79t-61 -115t-22.5 -140.5zM868 1434l-252 -311h-48l-252 311h107l169 -185l169 185h107z" />
    <glyph glyph-name="Gcircumflex" unicode="&#x11c;" horiz-adv-x="1541" 
d="M843 96q133 0 242 33.5t177 87.5v448h-382v116h508v-630q-207 -171 -545 -171q-165 0 -300 57.5t-224 157t-137.5 234t-48.5 288.5t48.5 288.5t137.5 234t224 157t300 57.5q169 0 305.5 -45t226.5 -124l-70 -86q-180 139 -462 139q-140 0 -252 -49.5t-182.5 -135.5
t-108 -197t-37.5 -239t37.5 -239t108 -197t182.5 -135.5t252 -49.5zM876 1847l252 -311h-107l-169 185l-169 -185h-107l252 311h48z" />
    <glyph glyph-name="gcircumflex" unicode="&#x11d;" horiz-adv-x="1256" 
d="M983 998h120v-998q0 -123 -27.5 -217.5t-72.5 -153t-110 -96t-132.5 -51.5t-146.5 -14q-259 0 -401 110l68 84q143 -90 333 -90q369 0 369 428v217q-41 -97 -144.5 -167t-228.5 -70q-219 0 -358 144.5t-139 374.5t139 374.5t358 144.5q125 0 228.5 -70t144.5 -167v217z
M610 914q-170 0 -271.5 -117t-101.5 -298t101.5 -298t271.5 -117t271.5 117t101.5 298t-101.5 298t-271.5 117zM632 1434l252 -311h-107l-169 185l-169 -185h-107l252 311h48z" />
    <glyph glyph-name="Gbreve" unicode="&#x11e;" horiz-adv-x="1541" 
d="M843 96q133 0 242 33.5t177 87.5v448h-382v116h508v-630q-207 -171 -545 -171q-165 0 -300 57.5t-224 157t-137.5 234t-48.5 288.5t48.5 288.5t137.5 234t224 157t300 57.5q169 0 305.5 -45t226.5 -124l-70 -86q-180 139 -462 139q-140 0 -252 -49.5t-182.5 -135.5
t-108 -197t-37.5 -239t37.5 -239t108 -197t182.5 -135.5t252 -49.5zM854 1647q167 0 219 131h100q-22 -105 -107.5 -163.5t-211.5 -58.5t-211.5 58.5t-107.5 163.5h100q52 -131 219 -131z" />
    <glyph glyph-name="gbreve" unicode="&#x11f;" horiz-adv-x="1256" 
d="M983 998h120v-998q0 -123 -27.5 -217.5t-72.5 -153t-110 -96t-132.5 -51.5t-146.5 -14q-259 0 -401 110l68 84q143 -90 333 -90q369 0 369 428v217q-41 -97 -144.5 -167t-228.5 -70q-219 0 -358 144.5t-139 374.5t139 374.5t358 144.5q125 0 228.5 -70t144.5 -167v217z
M610 914q-170 0 -271.5 -117t-101.5 -298t101.5 -298t271.5 -117t271.5 117t101.5 298t-101.5 298t-271.5 117zM609 1303q167 0 219 131h100q-22 -105 -107.5 -163.5t-211.5 -58.5t-211.5 58.5t-107.5 163.5h100q52 -131 219 -131z" />
    <glyph glyph-name="Gdotaccent" unicode="&#x120;" horiz-adv-x="1541" 
d="M843 96q133 0 242 33.5t177 87.5v448h-382v116h508v-630q-207 -171 -545 -171q-165 0 -300 57.5t-224 157t-137.5 234t-48.5 288.5t48.5 288.5t137.5 234t224 157t300 57.5q169 0 305.5 -45t226.5 -124l-70 -86q-180 139 -462 139q-140 0 -252 -49.5t-182.5 -135.5
t-108 -197t-37.5 -239t37.5 -239t108 -197t182.5 -135.5t252 -49.5zM771 1642q0 35 25.5 60.5t60.5 25.5t60.5 -25.5t25.5 -60.5t-25.5 -60.5t-60.5 -25.5t-60.5 25.5t-25.5 60.5z" />
    <glyph glyph-name="gdotaccent" unicode="&#x121;" horiz-adv-x="1256" 
d="M983 998h120v-998q0 -123 -27.5 -217.5t-72.5 -153t-110 -96t-132.5 -51.5t-146.5 -14q-259 0 -401 110l68 84q143 -90 333 -90q369 0 369 428v217q-41 -97 -144.5 -167t-228.5 -70q-219 0 -358 144.5t-139 374.5t139 374.5t358 144.5q125 0 228.5 -70t144.5 -167v217z
M610 914q-170 0 -271.5 -117t-101.5 -298t101.5 -298t271.5 -117t271.5 117t101.5 298t-101.5 298t-271.5 117zM522 1287q0 35 25.5 60.5t60.5 25.5t60.5 -25.5t25.5 -60.5t-25.5 -60.5t-60.5 -25.5t-60.5 25.5t-25.5 60.5z" />
    <glyph glyph-name="Gcommaaccent" unicode="&#x122;" horiz-adv-x="1541" 
d="M843 96q133 0 242 33.5t177 87.5v448h-382v116h508v-630q-207 -171 -545 -171q-165 0 -300 57.5t-224 157t-137.5 234t-48.5 288.5t48.5 288.5t137.5 234t224 157t300 57.5q169 0 305.5 -45t226.5 -124l-70 -86q-180 139 -462 139q-140 0 -252 -49.5t-182.5 -135.5
t-108 -197t-37.5 -239t37.5 -239t108 -197t182.5 -135.5t252 -49.5zM609 -532l158 416h150l-189 -416h-119z" />
    <glyph glyph-name="gcommaaccent" unicode="&#x123;" horiz-adv-x="1256" 
d="M983 998h120v-998q0 -123 -27.5 -217.5t-72.5 -153t-110 -96t-132.5 -51.5t-146.5 -14q-259 0 -401 110l68 84q143 -90 333 -90q369 0 369 428v217q-41 -97 -144.5 -167t-228.5 -70q-219 0 -358 144.5t-139 374.5t139 374.5t358 144.5q125 0 228.5 -70t144.5 -167v217z
M610 914q-170 0 -271.5 -117t-101.5 -298t101.5 -298t271.5 -117t271.5 117t101.5 298t-101.5 298t-271.5 117zM840 1516l-158 -416h-150l189 416h119z" />
    <glyph glyph-name="Hcircumflex" unicode="&#x124;" horiz-adv-x="1425" 
d="M1126 792v642h126v-1434h-126v676h-827v-676h-126v1434h126v-642h827zM736 1847l252 -311h-107l-169 185l-169 -185h-107l252 311h48z" />
    <glyph glyph-name="hcircumflex" unicode="&#x125;" 
d="M273 556v-556h-120v1516h120v-705q33 93 119 150t196 57q212 0 323.5 -120.5t111.5 -341.5v-556h-120v556q0 168 -76.5 263t-238.5 95t-238.5 -95t-76.5 -263zM612 1847l252 -311h-107l-169 185l-169 -185h-107l252 311h48z" />
    <glyph glyph-name="Hbar" unicode="&#x126;" horiz-adv-x="1647" 
d="M113 1028v113h171v293h126v-293h827v293h126v-293h171v-113h-171v-1028h-126v676h-827v-676h-126v1028h-171zM410 792h827v236h-827v-236z" />
    <glyph glyph-name="hbar" unicode="&#x127;" horiz-adv-x="1241" 
d="M338 556v-556h-120v1172h-185v104h185v240h120v-240h282v-104h-282v-361q33 93 119 150t196 57q212 0 323.5 -120.5t111.5 -341.5v-556h-120v556q0 168 -76.5 263t-238.5 95t-238.5 -95t-76.5 -263z" />
    <glyph glyph-name="Itilde" unicode="&#x128;" horiz-adv-x="546" 
d="M210 0v1434h126v-1434h-126zM234 1619q-2 2 -8.5 9t-8.5 9t-7.5 8t-8 7.5t-7.5 5.5t-8.5 5.5t-8.5 4t-10 3t-10 0.5q-23 0 -35.5 -20.5t-13.5 -41.5l-1 -21h-116q0 8 0.5 21t9 46t24 58.5t50 46.5t82.5 21q12 0 24 -1.5t21 -3.5t19 -6.5t16.5 -7t16 -9.5t13.5 -10
t12.5 -11.5l11 -11t11 -11.5t10.5 -11t8.5 -9t8.5 -9t7.5 -8t8 -7.5t7.5 -5.5t8.5 -5.5t8.5 -4t10 -3t10 -0.5q23 0 35.5 21t13.5 41l1 21h116q0 -8 -0.5 -21t-9 -46t-24 -58.5t-50 -46.5t-82.5 -21q-12 0 -24 1.5t-21 3.5t-19 6.5t-16.5 7t-16 9.5t-13.5 10t-12.5 11.5
l-11 11t-11 11.5t-10.5 11z" />
    <glyph glyph-name="itilde" unicode="&#x129;" horiz-adv-x="486" 
d="M204 1272q-2 2 -8.5 9t-8.5 9t-7.5 8t-8 7.5t-7.5 5.5t-8.5 5.5t-8.5 4t-10 3t-10 0.5q-23 0 -35.5 -21t-13.5 -41l-1 -21h-116q0 8 0.5 21t9 46t24 58.5t50 46.5t82.5 21q12 0 24 -1.5t21 -3.5t19 -6.5t16.5 -7t16 -9.5t13.5 -10t12.5 -11.5l11 -11t11 -11.5t10.5 -11
t8.5 -9t8.5 -9t7.5 -8t8 -7.5t7.5 -5.5t8.5 -5.5t8.5 -4t10 -3t10 -0.5q23 0 35.5 20.5t13.5 41.5l1 21h116q0 -8 -0.5 -21t-9 -46t-24 -58.5t-50 -46.5t-82.5 -21q-12 0 -24 1.5t-21 3.5t-19 6.5t-16.5 7t-16 9.5t-13.5 10t-12.5 11.5l-11 11t-11 11.5t-10.5 11zM183 0v998
h120v-998h-120z" />
    <glyph glyph-name="uni012A" unicode="&#x12a;" horiz-adv-x="566" 
d="M220 0v1434h126v-1434h-126zM-60 1536v104h686v-104h-686z" />
    <glyph glyph-name="imacron" unicode="&#x12b;" horiz-adv-x="506" 
d="M193 0v998h120v-998h-120zM-90 1330v104h686v-104h-686z" />
    <glyph glyph-name="Ibreve" unicode="&#x12c;" horiz-adv-x="518" 
d="M196 0v1434h126v-1434h-126zM259 1647q167 0 219 131h100q-22 -105 -107.5 -163.5t-211.5 -58.5t-211.5 58.5t-107.5 163.5h100q52 -131 219 -131z" />
    <glyph glyph-name="uni012D" unicode="&#x12d;" horiz-adv-x="458" 
d="M169 0v998h120v-998h-120zM229 1303q167 0 219 131h100q-22 -105 -107.5 -163.5t-211.5 -58.5t-211.5 58.5t-107.5 163.5h100q52 -131 219 -131z" />
    <glyph glyph-name="Iogonek" unicode="&#x12e;" horiz-adv-x="503" 
d="M194 0v1434h126v-1434q-14 -3 -35.5 -10.5t-56.5 -25t-59.5 -51t-26.5 -77.5q-2 -43 24.5 -67.5t56.5 -30t67 -3.5v-110q-39 -5 -77 0t-72.5 21t-59 41t-35.5 64t-2 87q8 44 33 77.5t57 51t50 24t31 9.5h-21z" />
    <glyph glyph-name="iogonek" unicode="&#x12f;" horiz-adv-x="482" 
d="M303 998v-998q-7 -1 -18.5 -4t-41.5 -15.5t-53.5 -29.5t-43 -47.5t-21.5 -67.5q-2 -43 24.5 -67.5t56.5 -30t67 -3.5v-110q-39 -5 -77 0t-72.5 21t-59 41t-35.5 64t-2 87q8 44 33 77.5t57 51t50 24t31 9.5h-15v998h120zM157 1287q0 35 25.5 60.5t60.5 25.5t60.5 -25.5
t25.5 -60.5t-25.5 -60.5t-60.5 -25.5t-60.5 25.5t-25.5 60.5z" />
    <glyph glyph-name="Idotaccent" unicode="&#x130;" horiz-adv-x="538" 
d="M206 0v1434h126v-1434h-126zM183 1642q0 35 25.5 60.5t60.5 25.5t60.5 -25.5t25.5 -60.5t-25.5 -60.5t-60.5 -25.5t-60.5 25.5t-25.5 60.5z" />
    <glyph glyph-name="dotlessi" unicode="&#x131;" horiz-adv-x="426" 
d="M153 0v998h120v-998h-120z" />
    <glyph glyph-name="IJ" unicode="&#x132;" horiz-adv-x="1470" 
d="M183 0v1434h126v-1434h-126zM477 219l117 38q87 -161 279 -161q162 0 225 85.5t63 256.5v996h126v-996q0 -458 -414 -458q-87 0 -158 21.5t-117 58t-75 75.5t-46 84z" />
    <glyph glyph-name="ij" unicode="&#x133;" horiz-adv-x="875" 
d="M179 0v998h120v-998h-120zM153 1287q0 35 25.5 60.5t60.5 25.5t60.5 -25.5t25.5 -60.5t-25.5 -60.5t-60.5 -25.5t-60.5 25.5t-25.5 60.5zM248 -506l34 98q60 -20 117 -20q37 0 65 10.5t46.5 25t31.5 44t19.5 53.5t10 68.5t4 73.5t0.5 82v1069h120v-1069q0 -95 -6.5 -162
t-25 -127t-51 -95.5t-86 -56t-128.5 -20.5q-92 0 -151 26zM550 1287q0 35 25.5 60.5t60.5 25.5t60.5 -25.5t25.5 -60.5t-25.5 -60.5t-60.5 -25.5t-60.5 25.5t-25.5 60.5z" />
    <glyph glyph-name="Jcircumflex" unicode="&#x134;" horiz-adv-x="1070" 
d="M113 219l117 38q87 -161 279 -161q162 0 225 85.5t63 256.5v996h126v-996q0 -458 -414 -458q-87 0 -158 21.5t-117 58t-75 75.5t-46 84zM885 1847l252 -311h-107l-169 185l-169 -185h-107l252 311h48z" />
    <glyph glyph-name="jcircumflex" unicode="&#x135;" horiz-adv-x="564" 
d="M-87 -506l34 98q60 -20 117 -20q37 0 65 10.5t46.5 25t31.5 44t19.5 53.5t10 68.5t4 73.5t0.5 82v1069h120v-1069q0 -95 -6.5 -162t-25 -127t-51 -95.5t-86 -56t-128.5 -20.5q-92 0 -151 26zM309 1434l252 -311h-107l-169 185l-169 -185h-107l252 311h48z" />
    <glyph glyph-name="Kcommaaccent" unicode="&#x136;" horiz-adv-x="1337" 
d="M299 685l766 749h162l-631 -616l658 -818h-148l-592 737l-215 -209v-528h-126v1434h126v-749zM432 -532l158 416h150l-189 -416h-119z" />
    <glyph glyph-name="kcommaaccent" unicode="&#x137;" horiz-adv-x="1065" 
d="M273 516l537 482h167l-447 -401l472 -597h-144l-412 521l-173 -154v-367h-120v1516h120v-1000zM304 -532l158 416h150l-189 -416h-119z" />
    <glyph glyph-name="kgreenlandic" unicode="&#x138;" horiz-adv-x="1065" 
d="M273 516l537 482h167l-447 -401l472 -597h-144l-412 521l-173 -154v-367h-120v998h120v-482z" />
    <glyph glyph-name="Lacute" unicode="&#x139;" horiz-adv-x="1170" 
d="M299 1434v-1318h738v-116h-864v1434h126zM176 1536l222 281h174l-255 -281h-141z" />
    <glyph glyph-name="lacute" unicode="&#x13a;" horiz-adv-x="432" 
d="M164 220v1296h120v-1296q0 -20 0.5 -30.5t1.5 -26.5t4.5 -24.5t9 -17.5t15 -13t22.5 -4h45v-104h-45q-36 0 -63.5 7.5t-45.5 18t-30.5 30t-19 35t-10 42t-4 43t-0.5 44.5zM153 1576l222 281h174l-255 -281h-141z" />
    <glyph glyph-name="Lcommaaccent" unicode="&#x13b;" horiz-adv-x="1170" 
d="M299 1434v-1318h738v-116h-864v1434h126zM390 -532l158 416h150l-189 -416h-119z" />
    <glyph glyph-name="lcommaaccent" unicode="&#x13c;" horiz-adv-x="585" 
d="M254 220v1296h120v-1296q0 -20 0.5 -30.5t1.5 -26.5t4.5 -24.5t9 -17.5t15 -13t22.5 -4h45v-104h-45q-36 0 -63.5 7.5t-45.5 18t-30.5 30t-19 35t-10 42t-4 43t-0.5 44.5zM153 -532l158 416h150l-189 -416h-119z" />
    <glyph glyph-name="Lcaron" unicode="&#x13d;" horiz-adv-x="1170" 
d="M299 1434v-1318h738v-116h-864v1434h126zM391 1018l97 416h141l-129 -416h-109z" />
    <glyph glyph-name="lcaron" unicode="&#x13e;" horiz-adv-x="499" 
d="M153 220v1296h120v-1296q0 -20 0.5 -30.5t1.5 -26.5t4.5 -24.5t9 -17.5t15 -13t22.5 -4h45v-104h-45q-36 0 -63.5 7.5t-45.5 18t-30.5 30t-19 35t-10 42t-4 43t-0.5 44.5zM331 1100l97 416h141l-129 -416h-109z" />
    <glyph glyph-name="Ldot" unicode="&#x13f;" horiz-adv-x="1170" 
d="M299 1434v-1318h738v-116h-864v1434h126zM717 744q0 35 25.5 60.5t60.5 25.5t60.5 -25.5t25.5 -60.5t-25.5 -60.5t-60.5 -25.5t-60.5 25.5t-25.5 60.5z" />
    <glyph glyph-name="ldot" unicode="&#x140;" horiz-adv-x="591" 
d="M153 220v1296h120v-1296q0 -20 0.5 -30.5t1.5 -26.5t4.5 -24.5t9 -17.5t15 -13t22.5 -4h45v-104h-45q-36 0 -63.5 7.5t-45.5 18t-30.5 30t-19 35t-10 42t-4 43t-0.5 44.5zM409 795q0 35 25.5 60.5t60.5 25.5t60.5 -25.5t25.5 -60.5t-25.5 -60.5t-60.5 -25.5t-60.5 25.5
t-25.5 60.5z" />
    <glyph glyph-name="Lslash" unicode="&#x141;" horiz-adv-x="1297" 
d="M426 697v-581h738v-116h-864v607l-217 -156v145l217 156v682h126v-592l217 156v-145z" />
    <glyph glyph-name="lslash" unicode="&#x142;" horiz-adv-x="606" 
d="M63 553v135l180 137v691h120v-600l180 138v-134l-180 -138v-562q0 -20 0.5 -30.5t1.5 -26.5t4.5 -24.5t9 -17.5t15 -13t22.5 -4h45v-104h-45q-36 0 -63.5 7.5t-45.5 18t-30.5 30t-19 35t-10 42t-4 43t-0.5 44.5v470z" />
    <glyph glyph-name="Nacute" unicode="&#x143;" horiz-adv-x="1437" 
d="M173 0v1434h150l815 -1252v1252h126v-1434h-151l-814 1252v-1252h-126zM630 1536l222 281h174l-255 -281h-141z" />
    <glyph glyph-name="nacute" unicode="&#x144;" 
d="M153 998h120v-187q33 93 119 150t196 57q212 0 323.5 -120.5t111.5 -341.5v-556h-120v556q0 168 -76.5 263t-238.5 95t-238.5 -95t-76.5 -263v-556h-120v998zM520 1153l222 281h174l-255 -281h-141z" />
    <glyph glyph-name="Ncommaaccent" unicode="&#x145;" horiz-adv-x="1437" 
d="M173 0v1434h150l815 -1252v1252h126v-1434h-151l-814 1252v-1252h-126zM491 -532l158 416h150l-189 -416h-119z" />
    <glyph glyph-name="ncommaaccent" unicode="&#x146;" 
d="M153 998h120v-187q33 93 119 150t196 57q212 0 323.5 -120.5t111.5 -341.5v-556h-120v556q0 168 -76.5 263t-238.5 95t-238.5 -95t-76.5 -263v-556h-120v998zM362 -532l158 416h150l-189 -416h-119z" />
    <glyph glyph-name="Ncaron" unicode="&#x147;" horiz-adv-x="1437" 
d="M173 0v1434h150l815 -1252v1252h126v-1434h-151l-814 1252v-1252h-126zM994 1847l-252 -311h-48l-252 311h107l169 -185l169 185h107z" />
    <glyph glyph-name="ncaron" unicode="&#x148;" 
d="M153 998h120v-187q33 93 119 150t196 57q212 0 323.5 -120.5t111.5 -341.5v-556h-120v556q0 168 -76.5 263t-238.5 95t-238.5 -95t-76.5 -263v-556h-120v998zM864 1434l-252 -311h-48l-252 311h107l169 -185l169 185h107z" />
    <glyph glyph-name="napostrophe" unicode="&#x149;" horiz-adv-x="1369" 
d="M346 998h120v-187q33 93 119 150t196 57q212 0 323.5 -120.5t111.5 -341.5v-556h-120v556q0 168 -76.5 263t-238.5 95t-238.5 -95t-76.5 -263v-556h-120v998zM153 1018l158 416h150l-189 -416h-119z" />
    <glyph glyph-name="Eng" unicode="&#x14a;" horiz-adv-x="1437" 
d="M173 0v1434h150l815 -1252v1252h126v-1508q0 -458 -374 -458q-94 0 -179.5 43.5t-147.5 126.5l95 70q94 -124 232 -124q134 0 191 89t57 253v74h-25l-814 1252v-1252h-126z" />
    <glyph glyph-name="eng" unicode="&#x14b;" 
d="M153 998h120v-187q33 93 119 150t196 57q212 0 323.5 -120.5t111.5 -341.5v-627q0 -95 -6.5 -162t-25 -127t-51 -95.5t-86 -56t-128.5 -20.5q-92 0 -151 26l34 98q60 -20 117 -20q37 0 65 10.5t46.5 25t31.5 44t19.5 53.5t10 68.5t4 73.5t0.5 82v627q0 168 -76.5 263
t-238.5 95t-238.5 -95t-76.5 -263v-556h-120v998z" />
    <glyph glyph-name="Omacron" unicode="&#x14c;" horiz-adv-x="1686" 
d="M843 -20q-165 0 -300 57.5t-224 157t-137.5 234t-48.5 288.5t48.5 288.5t137.5 234t224 157t300 57.5t300 -57.5t224 -157t137.5 -234t48.5 -288.5t-48.5 -288.5t-137.5 -234t-224 -157t-300 -57.5zM843 1338q-140 0 -252 -49.5t-182.5 -135.5t-108 -197t-37.5 -239
t37.5 -239t108 -197t182.5 -135.5t252 -49.5t252 49.5t182.5 135.5t108 197t37.5 239t-37.5 239t-108 197t-182.5 135.5t-252 49.5zM500 1536v104h686v-104h-686z" />
    <glyph glyph-name="omacron" unicode="&#x14d;" horiz-adv-x="1252" 
d="M113 499q0 227 143 373t370 146t370 -146t143 -373t-143 -373t-370 -146t-370 146t-143 373zM1015 499q0 185 -103 300t-286 115t-286 -115t-103 -300t103 -300t286 -115t286 115t103 300zM282 1330v104h686v-104h-686z" />
    <glyph glyph-name="Obreve" unicode="&#x14e;" horiz-adv-x="1686" 
d="M843 -20q-165 0 -300 57.5t-224 157t-137.5 234t-48.5 288.5t48.5 288.5t137.5 234t224 157t300 57.5t300 -57.5t224 -157t137.5 -234t48.5 -288.5t-48.5 -288.5t-137.5 -234t-224 -157t-300 -57.5zM843 1338q-140 0 -252 -49.5t-182.5 -135.5t-108 -197t-37.5 -239
t37.5 -239t108 -197t182.5 -135.5t252 -49.5t252 49.5t182.5 135.5t108 197t37.5 239t-37.5 239t-108 197t-182.5 135.5t-252 49.5zM842 1646q167 0 219 131h100q-22 -105 -107.5 -163.5t-211.5 -58.5t-211.5 58.5t-107.5 163.5h100q52 -131 219 -131z" />
    <glyph glyph-name="obreve" unicode="&#x14f;" horiz-adv-x="1252" 
d="M113 499q0 227 143 373t370 146t370 -146t143 -373t-143 -373t-370 -146t-370 146t-143 373zM1015 499q0 185 -103 300t-286 115t-286 -115t-103 -300t103 -300t286 -115t286 115t103 300zM625 1303q167 0 219 131h100q-22 -105 -107.5 -163.5t-211.5 -58.5t-211.5 58.5
t-107.5 163.5h100q52 -131 219 -131z" />
    <glyph glyph-name="Ohungarumlaut" unicode="&#x150;" horiz-adv-x="1686" 
d="M843 -20q-165 0 -300 57.5t-224 157t-137.5 234t-48.5 288.5t48.5 288.5t137.5 234t224 157t300 57.5t300 -57.5t224 -157t137.5 -234t48.5 -288.5t-48.5 -288.5t-137.5 -234t-224 -157t-300 -57.5zM843 1338q-140 0 -252 -49.5t-182.5 -135.5t-108 -197t-37.5 -239
t37.5 -239t108 -197t182.5 -135.5t252 -49.5t252 49.5t182.5 135.5t108 197t37.5 239t-37.5 239t-108 197t-182.5 135.5t-252 49.5zM898 1536l106 346h151l-139 -346h-118zM646 1536l108 346h150l-139 -346h-119z" />
    <glyph glyph-name="ohungarumlaut" unicode="&#x151;" horiz-adv-x="1252" 
d="M113 499q0 227 143 373t370 146t370 -146t143 -373t-143 -373t-370 -146t-370 146t-143 373zM1015 499q0 185 -103 300t-286 115t-286 -115t-103 -300t103 -300t286 -115t286 115t103 300zM685 1170l106 346h151l-139 -346h-118zM433 1170l108 346h150l-139 -346h-119z
" />
    <glyph glyph-name="OE" unicode="&#x152;" horiz-adv-x="2241" 
d="M1146 1387v47h942v-116h-816v-527h768v-116h-768v-559h836v-116h-962v46q-143 -66 -323 -66q-165 0 -300 57.5t-224 157t-137.5 234t-48.5 288.5t48.5 288.5t137.5 234t224 157t300 57.5q178 0 323 -67zM823 1338q-140 0 -252 -49.5t-182.5 -135.5t-108 -197t-37.5 -239
t37.5 -239t108 -197t182.5 -135.5t252 -49.5q185 0 323 87v1067q-135 88 -323 88z" />
    <glyph glyph-name="oe" unicode="&#x153;" horiz-adv-x="2077" 
d="M1489 84q211 0 332 118l80 -78q-150 -144 -412 -144q-148 0 -255 64t-163 181q-65 -115 -180.5 -180t-264.5 -65q-227 0 -370 146t-143 373t143 373t370 146q148 0 264 -65.5t181 -180.5q56 117 162.5 181.5t255.5 64.5q108 0 195.5 -35t151 -104.5t97 -179.5t30.5 -252
h-820q2 -73 23 -136.5t61 -115t107.5 -81.5t154.5 -30zM1015 499q0 185 -103 300t-286 115t-286 -115t-103 -300t103 -300t286 -115t286 115t103 300zM1143 551h692q-2 76 -22.5 140.5t-61 115t-107.5 79t-155 28.5t-155 -28.5t-107.5 -79t-61 -115t-22.5 -140.5z" />
    <glyph glyph-name="Racute" unicode="&#x154;" horiz-adv-x="1353" 
d="M299 0h-126v1434h641q185 0 294.5 -115.5t109.5 -292.5q0 -161 -99 -272.5t-265 -130.5l366 -623h-138l-363 618h-420v-618zM814 1318h-515v-584h515q135 0 205.5 82t70.5 210t-70.5 210t-205.5 82zM529 1536l222 281h174l-255 -281h-141z" />
    <glyph glyph-name="racute" unicode="&#x155;" horiz-adv-x="863" 
d="M153 998h120v-187q33 93 119 150t196 57q121 0 212 -41l-59 -93q-63 30 -153 30q-162 0 -238.5 -95t-76.5 -263v-556h-120v998zM395 1153l222 281h174l-255 -281h-141z" />
    <glyph glyph-name="Rcommaaccent" unicode="&#x156;" horiz-adv-x="1353" 
d="M299 0h-126v1434h641q185 0 294.5 -115.5t109.5 -292.5q0 -161 -99 -272.5t-265 -130.5l366 -623h-138l-363 618h-420v-618zM814 1318h-515v-584h515q135 0 205.5 82t70.5 210t-70.5 210t-205.5 82zM402 -532l158 416h150l-189 -416h-119z" />
    <glyph glyph-name="rcommaaccent" unicode="&#x157;" horiz-adv-x="916" 
d="M206 998h120v-187q33 93 119 150t196 57q121 0 212 -41l-59 -93q-63 30 -153 30q-162 0 -238.5 -95t-76.5 -263v-556h-120v998zM33 -532l158 416h150l-189 -416h-119z" />
    <glyph glyph-name="Rcaron" unicode="&#x158;" horiz-adv-x="1353" 
d="M299 0h-126v1434h641q185 0 294.5 -115.5t109.5 -292.5q0 -161 -99 -272.5t-265 -130.5l366 -623h-138l-363 618h-420v-618zM814 1318h-515v-584h515q135 0 205.5 82t70.5 210t-70.5 210t-205.5 82zM896 1847l-252 -311h-48l-252 311h107l169 -185l169 185h107z" />
    <glyph glyph-name="rcaron" unicode="&#x159;" horiz-adv-x="863" 
d="M153 998h120v-187q33 93 119 150t196 57q121 0 212 -41l-59 -93q-63 30 -153 30q-162 0 -238.5 -95t-76.5 -263v-556h-120v998zM752 1434l-252 -311h-48l-252 311h107l169 -185l169 185h107z" />
    <glyph glyph-name="Sacute" unicode="&#x15a;" horiz-adv-x="1263" 
d="M1080 1334l-65 -96q-158 100 -399 100q-75 0 -136.5 -14t-109.5 -43t-74.5 -78t-26.5 -115q0 -106 86.5 -171.5t290.5 -111.5q134 -30 224.5 -65.5t155.5 -86.5t94.5 -120.5t29.5 -163.5q0 -79 -25.5 -143.5t-70.5 -109.5t-107.5 -76t-135.5 -45.5t-156 -14.5
q-178 0 -319 43t-223 116l65 96q88 -64 211 -101.5t266 -37.5q178 0 271.5 68.5t93.5 204.5q0 129 -84.5 198t-310.5 116q-251 54 -368.5 154.5t-117.5 250.5q0 172 123 269t354 97q303 0 464 -120zM546 1536l222 281h174l-255 -281h-141z" />
    <glyph glyph-name="sacute" unicode="&#x15b;" horiz-adv-x="984" 
d="M843 928l-59 -91q-136 77 -301 77q-118 0 -185.5 -40t-67.5 -120q0 -75 63 -116t214 -69q204 -39 294 -109.5t90 -201.5q0 -134 -100.5 -206t-291.5 -72q-126 0 -232.5 29t-173.5 77l59 91q156 -93 347 -93q272 0 272 174q0 87 -63 131t-222 74q-205 39 -290.5 108.5
t-85.5 182.5q0 118 94.5 191t278.5 73q218 0 360 -90zM406 1153l222 281h174l-255 -281h-141z" />
    <glyph glyph-name="Scircumflex" unicode="&#x15c;" horiz-adv-x="1263" 
d="M1080 1334l-65 -96q-158 100 -399 100q-75 0 -136.5 -14t-109.5 -43t-74.5 -78t-26.5 -115q0 -106 86.5 -171.5t290.5 -111.5q134 -30 224.5 -65.5t155.5 -86.5t94.5 -120.5t29.5 -163.5q0 -79 -25.5 -143.5t-70.5 -109.5t-107.5 -76t-135.5 -45.5t-156 -14.5
q-178 0 -319 43t-223 116l65 96q88 -64 211 -101.5t266 -37.5q178 0 271.5 68.5t93.5 204.5q0 129 -84.5 198t-310.5 116q-251 54 -368.5 154.5t-117.5 250.5q0 172 123 269t354 97q303 0 464 -120zM655 1847l252 -311h-107l-169 185l-169 -185h-107l252 311h48z" />
    <glyph glyph-name="scircumflex" unicode="&#x15d;" horiz-adv-x="984" 
d="M843 928l-59 -91q-136 77 -301 77q-118 0 -185.5 -40t-67.5 -120q0 -75 63 -116t214 -69q204 -39 294 -109.5t90 -201.5q0 -134 -100.5 -206t-291.5 -72q-126 0 -232.5 29t-173.5 77l59 91q156 -93 347 -93q272 0 272 174q0 87 -63 131t-222 74q-205 39 -290.5 108.5
t-85.5 182.5q0 118 94.5 191t278.5 73q218 0 360 -90zM514 1434l252 -311h-107l-169 185l-169 -185h-107l252 311h48z" />
    <glyph glyph-name="Scedilla" unicode="&#x15e;" horiz-adv-x="1263" 
d="M443 -405l39 73q31 -14 68 -22.5t76 -9t67.5 20t34.5 60.5q5 35 -12.5 56t-55 26.5t-72 4.5t-81.5 -6l65 185q-150 9 -268.5 50.5t-190.5 105.5l65 96q88 -64 211 -101.5t266 -37.5q178 0 271.5 68.5t93.5 204.5q0 129 -84.5 198t-310.5 116q-251 54 -368.5 154.5
t-117.5 250.5q0 172 123 269t354 97q303 0 464 -120l-65 -96q-158 100 -399 100q-75 0 -136.5 -14t-109.5 -43t-74.5 -78t-26.5 -115q0 -106 86.5 -171.5t290.5 -111.5q134 -30 224.5 -65.5t155.5 -86.5t94.5 -120.5t29.5 -163.5q0 -96 -37.5 -171t-103.5 -121t-151.5 -70.5
t-187.5 -26.5l-36 -105q93 2 148 -38t47 -122q-7 -72 -53 -113t-107 -48t-122.5 4t-103.5 37z" />
    <glyph glyph-name="scedilla" unicode="&#x15f;" horiz-adv-x="984" 
d="M309 -405l39 73q31 -14 68 -22.5t76 -9t67.5 20t34.5 60.5q5 35 -12.5 56t-55 26.5t-72 4.5t-81.5 -6l65 184q-222 14 -345 104l59 91q156 -93 347 -93q272 0 272 174q0 87 -63 131t-222 74q-205 39 -290.5 108.5t-85.5 182.5q0 118 94.5 191t278.5 73q218 0 360 -90
l-59 -91q-136 77 -301 77q-118 0 -185.5 -40t-67.5 -120q0 -75 63 -116t214 -69q204 -39 294 -109.5t90 -201.5q0 -127 -91 -198.5t-264 -78.5l-36 -106q93 2 148 -38t47 -122q-7 -72 -53 -113t-107 -48t-122.5 4t-103.5 37z" />
    <glyph glyph-name="Scaron" unicode="&#x160;" horiz-adv-x="1263" 
d="M1080 1334l-65 -96q-158 100 -399 100q-75 0 -136.5 -14t-109.5 -43t-74.5 -78t-26.5 -115q0 -106 86.5 -171.5t290.5 -111.5q134 -30 224.5 -65.5t155.5 -86.5t94.5 -120.5t29.5 -163.5q0 -79 -25.5 -143.5t-70.5 -109.5t-107.5 -76t-135.5 -45.5t-156 -14.5
q-178 0 -319 43t-223 116l65 96q88 -64 211 -101.5t266 -37.5q178 0 271.5 68.5t93.5 204.5q0 129 -84.5 198t-310.5 116q-251 54 -368.5 154.5t-117.5 250.5q0 172 123 269t354 97q303 0 464 -120zM889 1847l-252 -311h-48l-252 311h107l169 -185l169 185h107z" />
    <glyph glyph-name="scaron" unicode="&#x161;" horiz-adv-x="984" 
d="M843 928l-59 -91q-136 77 -301 77q-118 0 -185.5 -40t-67.5 -120q0 -75 63 -116t214 -69q204 -39 294 -109.5t90 -201.5q0 -134 -100.5 -206t-291.5 -72q-126 0 -232.5 29t-173.5 77l59 91q156 -93 347 -93q272 0 272 174q0 87 -63 131t-222 74q-205 39 -290.5 108.5
t-85.5 182.5q0 118 94.5 191t278.5 73q218 0 360 -90zM766 1434l-252 -311h-48l-252 311h107l169 -185l169 185h107z" />
    <glyph glyph-name="Tcommaaccent" unicode="&#x162;" horiz-adv-x="1372" 
d="M113 1434h1146v-116h-510v-1318h-126v1318h-510v116zM452 -532l158 416h150l-189 -416h-119z" />
    <glyph glyph-name="tcommaaccent" unicode="&#x163;" horiz-adv-x="856" 
d="M334 -532l158 416h150l-189 -416h-119zM93 894v104h211v299h120v-299h309v-104h-309v-451q0 -54 1 -88.5t5.5 -76.5t12.5 -68t22.5 -52.5t35 -41t50.5 -23.5t69 -9q58 0 112 18l31 -98q-57 -24 -143 -24q-98 0 -160.5 28t-96.5 90t-46.5 142t-12.5 203v451h-211z" />
    <glyph glyph-name="Tcaron" unicode="&#x164;" horiz-adv-x="1372" 
d="M113 1434h1146v-116h-510v-1318h-126v1318h-510v116zM962 1847l-252 -311h-48l-252 311h107l169 -185l169 185h107z" />
    <glyph glyph-name="tcaron" unicode="&#x165;" horiz-adv-x="925" 
d="M93 894v104h211v299h120v-299h309v-104h-309v-451q0 -54 1 -88.5t5.5 -76.5t12.5 -68t22.5 -52.5t35 -41t50.5 -23.5t69 -9q58 0 112 18l31 -98q-57 -24 -143 -24q-98 0 -160.5 28t-96.5 90t-46.5 142t-12.5 203v451h-211zM757 1018l97 416h141l-129 -416h-109z" />
    <glyph glyph-name="Tbar" unicode="&#x166;" horiz-adv-x="1372" 
d="M113 1434h1146v-116h-510v-414h330v-116h-330v-788h-126v788h-330v116h330v414h-510v116z" />
    <glyph glyph-name="tbar" unicode="&#x167;" horiz-adv-x="856" 
d="M93 549v104h211v241h-211v104h211v299h120v-299h309v-104h-309v-241h309v-104h-309v-106q0 -54 1 -88.5t5.5 -76.5t12.5 -68t22.5 -52.5t35 -41t50.5 -23.5t69 -9q58 0 112 18l31 -98q-57 -24 -143 -24q-98 0 -160.5 28t-96.5 90t-46.5 142t-12.5 203v106h-211z" />
    <glyph glyph-name="Utilde" unicode="&#x168;" horiz-adv-x="1468" 
d="M734 96q206 0 320.5 135.5t114.5 362.5v840h126v-840q0 -144 -41.5 -260t-116 -193.5t-177.5 -119t-226 -41.5t-226 41.5t-177.5 119t-116 193.5t-41.5 260v840h126v-840q0 -227 114.5 -362.5t320.5 -135.5zM694 1619q-2 2 -8.5 9t-8.5 9t-7.5 8t-8 7.5t-7.5 5.5
t-8.5 5.5t-8.5 4t-10 3t-10 0.5q-23 0 -35.5 -20.5t-13.5 -41.5l-1 -21h-116q0 8 0.5 21t9 46t24 58.5t50 46.5t82.5 21q12 0 24 -1.5t21 -3.5t19 -6.5t16.5 -7t16 -9.5t13.5 -10t12.5 -11.5l11 -11t11 -11.5t10.5 -11t8.5 -9t8.5 -9t7.5 -8t8 -7.5t7.5 -5.5t8.5 -5.5
t8.5 -4t10 -3t10 -0.5q23 0 35.5 21t13.5 41l1 21h116q0 -8 -0.5 -21t-9 -46t-24 -58.5t-50 -46.5t-82.5 -21q-12 0 -24 1.5t-21 3.5t-19 6.5t-16.5 7t-16 9.5t-13.5 10t-12.5 11.5l-11 11t-11 11.5t-10.5 11z" />
    <glyph glyph-name="utilde" unicode="&#x169;" 
d="M1023 0h-120v187q-33 -93 -119 -150t-196 -57q-212 0 -323.5 120.5t-111.5 341.5v556h120v-556q0 -168 76.5 -263t238.5 -95t238.5 95t76.5 263v556h120v-998zM550 1272q-2 2 -8.5 9t-8.5 9t-7.5 8t-8 7.5t-7.5 5.5t-8.5 5.5t-8.5 4t-10 3t-10 0.5q-23 0 -35.5 -21
t-13.5 -41l-1 -21h-116q0 8 0.5 21t9 46t24 58.5t50 46.5t82.5 21q12 0 24 -1.5t21 -3.5t19 -6.5t16.5 -7t16 -9.5t13.5 -10t12.5 -11.5l11 -11t11 -11.5t10.5 -11t8.5 -9t8.5 -9t7.5 -8t8 -7.5t7.5 -5.5t8.5 -5.5t8.5 -4t10 -3t10 -0.5q23 0 35.5 20.5t13.5 41.5l1 21h116
q0 -8 -0.5 -21t-9 -46t-24 -58.5t-50 -46.5t-82.5 -21q-12 0 -24 1.5t-21 3.5t-19 6.5t-16.5 7t-16 9.5t-13.5 10t-12.5 11.5l-11 11t-11 11.5t-10.5 11z" />
    <glyph glyph-name="Umacron" unicode="&#x16a;" horiz-adv-x="1468" 
d="M734 96q206 0 320.5 135.5t114.5 362.5v840h126v-840q0 -144 -41.5 -260t-116 -193.5t-177.5 -119t-226 -41.5t-226 41.5t-177.5 119t-116 193.5t-41.5 260v840h126v-840q0 -227 114.5 -362.5t320.5 -135.5zM390 1536v104h686v-104h-686z" />
    <glyph glyph-name="umacron" unicode="&#x16b;" 
d="M1023 0h-120v187q-33 -93 -119 -150t-196 -57q-212 0 -323.5 120.5t-111.5 341.5v556h120v-556q0 -168 76.5 -263t238.5 -95t238.5 95t76.5 263v556h120v-998zM246 1330v104h686v-104h-686z" />
    <glyph glyph-name="Ubreve" unicode="&#x16c;" horiz-adv-x="1468" 
d="M734 96q206 0 320.5 135.5t114.5 362.5v840h126v-840q0 -144 -41.5 -260t-116 -193.5t-177.5 -119t-226 -41.5t-226 41.5t-177.5 119t-116 193.5t-41.5 260v840h126v-840q0 -227 114.5 -362.5t320.5 -135.5zM733 1647q167 0 219 131h100q-22 -105 -107.5 -163.5
t-211.5 -58.5t-211.5 58.5t-107.5 163.5h100q52 -131 219 -131z" />
    <glyph glyph-name="ubreve" unicode="&#x16d;" 
d="M1023 0h-120v187q-33 -93 -119 -150t-196 -57q-212 0 -323.5 120.5t-111.5 341.5v556h120v-556q0 -168 76.5 -263t238.5 -95t238.5 95t76.5 263v556h120v-998zM588 1303q167 0 219 131h100q-22 -105 -107.5 -163.5t-211.5 -58.5t-211.5 58.5t-107.5 163.5h100
q52 -131 219 -131z" />
    <glyph glyph-name="Uring" unicode="&#x16e;" horiz-adv-x="1468" 
d="M734 96q206 0 320.5 135.5t114.5 362.5v840h126v-840q0 -144 -41.5 -260t-116 -193.5t-177.5 -119t-226 -41.5t-226 41.5t-177.5 119t-116 193.5t-41.5 260v840h126v-840q0 -227 114.5 -362.5t320.5 -135.5zM553 1715q0 74 53 127t127 53t127 -53t53 -127q0 -73 -53 -126
t-127 -53t-127 52.5t-53 126.5zM637 1715q0 -40 28 -68t68 -28t68 28t28 68t-28 68t-68 28t-68 -28t-28 -68z" />
    <glyph glyph-name="uring" unicode="&#x16f;" 
d="M1023 0h-120v187q-33 -93 -119 -150t-196 -57q-212 0 -323.5 120.5t-111.5 341.5v556h120v-556q0 -168 76.5 -263t238.5 -95t238.5 95t76.5 263v556h120v-998zM408 1274q0 74 53 127t127 53t127 -53t53 -127q0 -73 -53 -126t-127 -53t-127 52.5t-53 126.5zM492 1274
q0 -40 28 -68t68 -28t68 28t28 68t-28 68t-68 28t-68 -28t-28 -68z" />
    <glyph glyph-name="Uhungarumlaut" unicode="&#x170;" horiz-adv-x="1468" 
d="M734 96q206 0 320.5 135.5t114.5 362.5v840h126v-840q0 -144 -41.5 -260t-116 -193.5t-177.5 -119t-226 -41.5t-226 41.5t-177.5 119t-116 193.5t-41.5 260v840h126v-840q0 -227 114.5 -362.5t320.5 -135.5zM789 1536l106 346h151l-139 -346h-118zM537 1536l108 346h150
l-139 -346h-119z" />
    <glyph glyph-name="uhungarumlaut" unicode="&#x171;" 
d="M1023 0h-120v187q-33 -93 -119 -150t-196 -57q-212 0 -323.5 120.5t-111.5 341.5v556h120v-556q0 -168 76.5 -263t238.5 -95t238.5 95t76.5 263v556h120v-998zM644 1170l106 346h151l-139 -346h-118zM392 1170l108 346h150l-139 -346h-119z" />
    <glyph glyph-name="Uogonek" unicode="&#x172;" horiz-adv-x="1468" 
d="M734 96q206 0 320.5 135.5t114.5 362.5v840h126v-840q0 -244 -113.5 -400t-307.5 -199q-22 -6 -44 -16t-49.5 -28.5t-45 -48.5t-18.5 -66q-2 -43 24.5 -67.5t56.5 -30t67 -3.5v-110q-39 -5 -77 0t-72.5 21t-59 41t-35.5 64t-2 87q17 95 115 142q-123 0 -226 41.5
t-177.5 119t-116 193.5t-41.5 260v840h126v-840q0 -227 114.5 -362.5t320.5 -135.5z" />
    <glyph glyph-name="uogonek" unicode="&#x173;" 
d="M918 0h-15v187q-33 -93 -119 -150t-196 -57q-212 0 -323.5 120.5t-111.5 341.5v556h120v-556q0 -168 76.5 -263t238.5 -95t238.5 95t76.5 263v556h120v-998q-14 -3 -35.5 -10.5t-56.5 -25t-59.5 -51t-26.5 -77.5q-2 -43 24.5 -67.5t56.5 -30t67 -3.5v-110q-39 -5 -77 0
t-72.5 21t-59 41t-35.5 64t-2 87q8 44 33 77.5t57 51t50 24t31 9.5z" />
    <glyph glyph-name="Wcircumflex" unicode="&#x174;" horiz-adv-x="2006" 
d="M1923 1434l-451 -1434h-117l-352 1224l-352 -1224h-117l-451 1434h140l369 -1197l344 1197h134l344 -1197l369 1197h140zM1027 1847l252 -311h-107l-169 185l-169 -185h-107l252 311h48z" />
    <glyph glyph-name="wcircumflex" unicode="&#x175;" horiz-adv-x="1534" 
d="M1025 0l-258 812l-258 -812h-120l-326 998h128l256 -833l265 833h110l265 -833l256 833h128l-326 -998h-120zM791 1434l252 -311h-107l-169 185l-169 -185h-107l252 311h48z" />
    <glyph glyph-name="Ycircumflex" unicode="&#x176;" horiz-adv-x="1408" 
d="M233 1434l471 -705l471 705h150l-558 -836v-598h-126v598l-558 836h150zM728 1847l252 -311h-107l-169 185l-169 -185h-107l252 311h48z" />
    <glyph glyph-name="ycircumflex" unicode="&#x177;" horiz-adv-x="1084" 
d="M481 0l-418 998h130l349 -856l349 856h130l-539 -1287q-21 -49 -34 -76.5t-37 -64.5t-47 -55.5t-59 -32.5t-79 -14q-97 0 -163 36l46 92q55 -25 107 -25q14 0 26.5 3t22.5 6t20 11.5t17 13.5t15.5 19t13 20.5t13 24.5t12 25.5t13 29.5t12.5 30zM566 1434l252 -311h-107
l-169 185l-169 -185h-107l252 311h48z" />
    <glyph glyph-name="Ydieresis" unicode="&#x178;" horiz-adv-x="1408" 
d="M233 1434l471 -705l471 705h150l-558 -836v-598h-126v598l-558 836h150zM447 1622q0 35 25.5 60.5t60.5 25.5t60.5 -25.5t25.5 -60.5t-25.5 -60.5t-60.5 -25.5t-60.5 25.5t-25.5 60.5zM789 1622q0 35 25.5 60.5t60.5 25.5t60.5 -25.5t25.5 -60.5t-25.5 -60.5t-60.5 -25.5
t-60.5 25.5t-25.5 60.5z" />
    <glyph glyph-name="Zacute" unicode="&#x179;" horiz-adv-x="1384" 
d="M338 116h883v-116h-1068v71l893 1247h-866v116h1051v-71zM608 1536l222 281h174l-255 -281h-141z" />
    <glyph glyph-name="zacute" unicode="&#x17a;" horiz-adv-x="1093" 
d="M133 0v61l649 833h-613v104h791v-60l-649 -834h649v-104h-827zM453 1153l222 281h174l-255 -281h-141z" />
    <glyph glyph-name="Zdotaccent" unicode="&#x17b;" horiz-adv-x="1384" 
d="M338 116h883v-116h-1068v71l893 1247h-866v116h1051v-71zM606 1642q0 35 25.5 60.5t60.5 25.5t60.5 -25.5t25.5 -60.5t-25.5 -60.5t-60.5 -25.5t-60.5 25.5t-25.5 60.5z" />
    <glyph glyph-name="zdotaccent" unicode="&#x17c;" horiz-adv-x="1093" 
d="M133 0v61l649 833h-613v104h791v-60l-649 -834h649v-104h-827zM460 1287q0 35 25.5 60.5t60.5 25.5t60.5 -25.5t25.5 -60.5t-25.5 -60.5t-60.5 -25.5t-60.5 25.5t-25.5 60.5z" />
    <glyph glyph-name="Zcaron" unicode="&#x17d;" horiz-adv-x="1384" 
d="M338 116h883v-116h-1068v71l893 1247h-866v116h1051v-71zM968 1847l-252 -311h-48l-252 311h107l169 -185l169 185h107z" />
    <glyph glyph-name="zcaron" unicode="&#x17e;" horiz-adv-x="1093" 
d="M133 0v61l649 833h-613v104h791v-60l-649 -834h649v-104h-827zM822 1434l-252 -311h-48l-252 311h107l169 -185l169 185h107z" />
    <glyph glyph-name="longs" unicode="&#x17f;" horiz-adv-x="713" 
d="M273 1073v-1073h-120v1073q0 94 8 162.5t29.5 128t58 95.5t95 56.5t139.5 20.5q101 0 167 -34l-37 -94q-63 24 -130 24q-48 0 -83 -10t-58 -33.5t-37 -50.5t-21 -72t-9 -87t-2 -106z" />
    <glyph glyph-name="uni0180" unicode="&#x180;" horiz-adv-x="1351" 
d="M368 0h-120v1172h-185v104h185v240h120v-240h292v-104h-292v-391q41 97 144.5 167t228.5 70q219 0 358 -144.5t139 -374.5t-139 -374.5t-358 -144.5q-125 0 -228.5 70t-144.5 167v-217zM741 914q-170 0 -271.5 -117t-101.5 -298t101.5 -298t271.5 -117t271.5 117
t101.5 298t-101.5 298t-271.5 117z" />
    <glyph glyph-name="uni0181" unicode="&#x181;" horiz-adv-x="1659" 
d="M1055 0h-609v1318h-57q-42 0 -68.5 -5t-55 -22.5t-42.5 -59t-14 -106.5h-126q0 50 8 92t19.5 72t31.5 53.5t37.5 38.5t43.5 26t44.5 16t45.5 7.5t40.5 3t35.5 0.5h666q198 0 310 -105t112 -266q0 -122 -61 -198.5t-152 -113.5q50 -19 92.5 -46t83 -68t63.5 -100.5
t23 -132.5q0 -85 -30 -158t-87 -128t-148 -86.5t-206 -31.5zM572 116h483q166 0 254.5 73.5t88.5 214.5q0 138 -94 213t-249 75h-483v-576zM572 808h483q130 0 212 64.5t82 190.5q0 129 -76.5 192t-217.5 63h-483v-510z" />
    <glyph glyph-name="uni0182" unicode="&#x182;" horiz-adv-x="1254" 
d="M173 1434h855v-116h-729v-520h440q177 0 279.5 -111t102.5 -288t-102.5 -288t-279.5 -111h-566v1434zM299 116h440q128 0 192 77.5t64 205.5t-64 205.5t-192 77.5h-440v-566z" />
    <glyph glyph-name="uni0183" unicode="&#x183;" horiz-adv-x="1296" 
d="M293 0h-120v1434h864v-104h-744v-549q41 97 144.5 167t228.5 70q219 0 358 -144.5t139 -374.5t-139 -374.5t-358 -144.5q-125 0 -228.5 70t-144.5 167v-217zM666 914q-170 0 -271.5 -117t-101.5 -298t101.5 -298t271.5 -117t271.5 117t101.5 298t-101.5 298t-271.5 117z
" />
    <glyph glyph-name="uni0184" unicode="&#x184;" horiz-adv-x="1277" 
d="M307 1434h14v-598h439q188 0 296 -119t108 -299t-108 -299t-296 -119h-565v1034h-185zM321 116h439q135 0 205.5 87t70.5 215t-70.5 215t-205.5 87h-439v-604z" />
    <glyph glyph-name="uni0185" unicode="&#x185;" horiz-adv-x="1298" 
d="M315 0h-120v1116h-185l297 400h8v-735q41 97 144.5 167t228.5 70q219 0 358 -144.5t139 -374.5t-139 -374.5t-358 -144.5q-125 0 -228.5 70t-144.5 167v-217zM688 914q-170 0 -271.5 -117t-101.5 -298t101.5 -298t271.5 -117t271.5 117t101.5 298t-101.5 298t-271.5 117z
" />
    <glyph glyph-name="uni0186" unicode="&#x186;" horiz-adv-x="1410" 
d="M1147 717q0 128 -37.5 239t-108 197t-182.5 135.5t-252 49.5q-230 0 -385 -104l-69 97q167 123 454 123q165 0 300 -57.5t224 -157t137.5 -234t48.5 -288.5t-48.5 -288.5t-137.5 -234t-224 -157t-300 -57.5q-287 0 -454 123l69 97q155 -104 385 -104q140 0 252 49.5
t182.5 135.5t108 197t37.5 239z" />
    <glyph glyph-name="uni0187" unicode="&#x187;" horiz-adv-x="1481" 
d="M263 717q0 -128 37.5 -239t108 -197t182.5 -135.5t252 -49.5q230 0 385 104l69 -97q-167 -123 -454 -123q-165 0 -300 57.5t-224 157t-137.5 234t-48.5 288.5t48.5 288.5t137.5 234t224 157t300 57.5q201 0 306 -50v65q0 74 53 128t166 54v-116q-1 -1 -10 0.5t-23 -2.5
t-27.5 -9.5t-23 -20.5t-9.5 -36v-260q-95 70 -198.5 100.5t-233.5 30.5q-140 0 -252 -49.5t-182.5 -135.5t-108 -197t-37.5 -239z" />
    <glyph glyph-name="uni0188" unicode="&#x188;" horiz-adv-x="1173" 
d="M237 499q0 -185 103 -300t286 -115q180 0 295 106l80 -76q-147 -134 -375 -134q-227 0 -370 146t-143 373t143 373t370 146q148 0 243 -49v45q0 80 49.5 134.5t161.5 54.5v-104q-47 0 -69 -19.5t-22 -67.5v-228q-158 130 -363 130q-183 0 -286 -115t-103 -300z" />
    <glyph glyph-name="uni0189" unicode="&#x189;" horiz-adv-x="1562" 
d="M83 659v116h210v659h432q179 0 316 -55t220.5 -153t125.5 -226.5t42 -282.5q0 -123 -26 -230t-81 -197t-137 -154t-199 -100t-261 -36h-432v659h-210zM419 659v-543h306q154 0 267.5 46t179.5 129.5t97.5 189.5t31.5 236t-31.5 236t-97.5 189.5t-179.5 129.5t-267.5 46
h-306v-543h297v-116h-297z" />
    <glyph glyph-name="uni018A" unicode="&#x18a;" horiz-adv-x="1715" 
d="M1582 717q0 -123 -26 -230t-81 -197t-137 -154t-199 -100t-261 -36h-432v1318h-57q-42 0 -68.5 -5t-55 -22.5t-42.5 -59t-14 -106.5h-126q0 50 8 92t19.5 72t31.5 53.5t37.5 38.5t43.5 26t44.5 16t45.5 7.5t40.5 3t35.5 0.5h489q179 0 316 -55t220.5 -153t125.5 -226.5
t42 -282.5zM572 1318v-1202h306q154 0 267.5 46t179.5 129.5t97.5 189.5t31.5 236t-31.5 236t-97.5 189.5t-179.5 129.5t-267.5 46h-306z" />
    <glyph glyph-name="uni018B" unicode="&#x18b;" horiz-adv-x="1214" 
d="M206 1434h855v-1434h-566q-177 0 -279.5 111t-102.5 288t102.5 288t279.5 111h440v520h-729v116zM495 116h440v566h-440q-128 0 -192 -77.5t-64 -205.5t64 -205.5t192 -77.5z" />
    <glyph glyph-name="uni018C" unicode="&#x18c;" horiz-adv-x="1256" 
d="M1103 0h-120v217q-41 -97 -144.5 -167t-228.5 -70q-219 0 -358 144.5t-139 374.5t139 374.5t358 144.5q125 0 228.5 -70t144.5 -167v549h-744v104h864v-1434zM610 914q-170 0 -271.5 -117t-101.5 -298t101.5 -298t271.5 -117t271.5 117t101.5 298t-101.5 298t-271.5 117z
" />
    <glyph glyph-name="uni018D" unicode="&#x18d;" horiz-adv-x="1251" 
d="M113 499q0 225 145.5 372t367.5 147q220 0 366 -147t146 -372t-146 -372t-366 -147q-23 0 -67 4l467 -460v-56h-761v103h563l-555 542q-76 70 -118 169.5t-42 216.5zM237 499q0 -177 106.5 -296t282.5 -119q175 0 281.5 119t106.5 296t-106.5 296t-281.5 119
q-176 0 -282.5 -119t-106.5 -296z" />
    <glyph glyph-name="uni018E" unicode="&#x18e;" horiz-adv-x="1236" 
d="M201 791h756v527h-814v116h940v-1434h-950v116h824v559h-756v116z" />
    <glyph glyph-name="uni018F" unicode="&#x18f;" horiz-adv-x="1602" 
d="M803 1454q159 0 285.5 -54t209.5 -152t127 -233t44 -298t-44 -298t-127 -233t-209.5 -152t-285.5 -54q-324 0 -501.5 210.5t-167.5 587.5h1212q-40 560 -543 560q-279 0 -488 -145l-67 100q82 66 221 113.5t334 47.5zM1346 662h-1086q17 -286 159 -426t384 -140t384 140
t159 426z" />
    <glyph glyph-name="uni0190" unicode="&#x190;" horiz-adv-x="1222" 
d="M1017 235l92 -73q-23 -24 -44 -43t-64.5 -47t-91.5 -46.5t-122 -32t-159 -13.5q-103 0 -194 26t-163.5 76t-115 133t-42.5 188q0 78 30 143t79 107t100.5 68t105.5 40q-111 23 -190.5 110t-79.5 213q0 171 129 270.5t341 99.5q69 0 132 -10.5t108 -27.5t83 -37.5
t62 -41.5t41 -38t24 -27l8 -11l-90 -72q-4 6 -13 16t-42 36t-71.5 45.5t-103.5 35.5t-138 16q-94 0 -163 -21t-106.5 -58t-55 -80.5t-17.5 -94.5q0 -271 481 -271v-116q-526 0 -526 -294q0 -141 105 -224t282 -83q73 0 137 12.5t101.5 26.5t74.5 38.5t47.5 34t28.5 27.5z
" />
    <glyph glyph-name="uni0191" unicode="&#x191;" horiz-adv-x="1321" 
d="M354 791h756v-116h-756v-900v-3q0 -16 -0.5 -30t-6 -47t-15.5 -59.5t-32.5 -59.5t-53 -55t-80.5 -37.5t-113 -15.5v117q175 0 175 188v1661h940v-116h-814v-527z" />
    <glyph glyph-name="florin" unicode="&#x192;" horiz-adv-x="1144" 
d="M226 882l20 116h279l23 136q3 19 6.5 33t15 47.5t26 59t42 57.5t61 53t84.5 35.5t111 14.5h147l-22 -116h-134q-27 0 -50.5 -4.5t-41 -11.5t-33 -19t-26 -22t-20 -26.5t-14.5 -26t-10.5 -27t-7 -24t-4.5 -21.5l-3 -15l-21 -123h282l-20 -116h-282l-193 -1113
q-4 -24 -7 -38.5t-15 -50t-26.5 -59t-42.5 -55t-62 -51t-86.5 -33.5t-114.5 -14h-144l23 116h130q185 0 217 192q1 4 1 5l191 1101h-279z" />
    <glyph glyph-name="uni0193" unicode="&#x193;" horiz-adv-x="1601" 
d="M843 96q133 0 242 33.5t177 87.5v448h-382v116h508v-630q-207 -171 -545 -171q-165 0 -300 57.5t-224 157t-137.5 234t-48.5 288.5t48.5 288.5t137.5 234t224 157t300 57.5q241 0 417 -92q52 265 288 265v-116q-51 0 -87.5 -23.5t-52 -56.5t-24 -66t-8.5 -57l-1 -23
l-70 -86q-180 139 -462 139q-140 0 -252 -49.5t-182.5 -135.5t-108 -197t-37.5 -239t37.5 -239t108 -197t182.5 -135.5t252 -49.5z" />
    <glyph glyph-name="uni0194" unicode="&#x194;" horiz-adv-x="1472" 
d="M223 1434l513 -1279l513 1279h140l-584 -1434q61 -111 85.5 -174.5t24.5 -129.5q0 -65 -17.5 -112.5t-45.5 -71t-57 -34t-59 -10.5t-59 10.5t-57 34t-45.5 71t-17.5 112.5q0 66 24.5 129.5t85.5 174.5l-584 1434h140zM736 -416q30 0 45 32t15 77q0 97 -60 186
q-60 -89 -60 -186q0 -45 15 -77t45 -32z" />
    <glyph glyph-name="uni0195" unicode="&#x195;" horiz-adv-x="1926" 
d="M1338 84q162 0 238.5 95t76.5 263v556h120v-556q0 -221 -111.5 -341.5t-323.5 -120.5t-323.5 120.5t-111.5 341.5v114q0 168 -76.5 263t-238.5 95t-238.5 -95t-76.5 -263v-556h-120v1516h120v-705q33 93 119 150t196 57q212 0 323.5 -120.5t111.5 -341.5v-114
q0 -168 76.5 -263t238.5 -95z" />
    <glyph glyph-name="uni0196" unicode="&#x196;" horiz-adv-x="550" 
d="M183 220v1214h126v-1214q0 -24 0.5 -35.5t3 -27.5t8 -23t15.5 -12.5t26 -5.5h45v-116h-45q-49 0 -84 14t-53 33.5t-28 52.5t-12 57.5t-2 62.5z" />
    <glyph glyph-name="uni0197" unicode="&#x197;" horiz-adv-x="780" 
d="M143 736v116h184v582h126v-582h184v-116h-184v-736h-126v736h-184z" />
    <glyph glyph-name="uni0198" unicode="&#x198;" horiz-adv-x="1338" 
d="M300 685l766 749h162l-631 -616l658 -818h-148l-592 737l-215 -209v-528h-126v1127v5q0 19 0.5 34t6 49t16 59.5t32.5 57t53 52.5t81 35.5t112 14.5v-116q-37 0 -66.5 -9t-47.5 -20.5t-31 -32.5t-18.5 -34.5t-8.5 -38t-3 -31v-25.5v-442z" />
    <glyph glyph-name="uni0199" unicode="&#x199;" horiz-adv-x="1065" 
d="M273 516l537 482h167l-447 -401l472 -597h-144l-412 521l-173 -154v-367h-120v1069q0 95 6.5 162t25 127t51 95.5t86 56t128.5 20.5q92 0 151 -26l-34 -98q-60 20 -117 20q-37 0 -65 -10.5t-46.5 -25t-31.5 -44t-19.5 -53.5t-10 -68.5t-4 -73.5t-0.5 -82v-553z" />
    <glyph glyph-name="uni019A" unicode="&#x19a;" horiz-adv-x="612" 
d="M63 793v104h183v619h120v-619h183v-104h-183v-573q0 -20 0.5 -30.5t1.5 -26.5t4.5 -24.5t9 -17.5t15 -13t22.5 -4h45v-104h-45q-36 0 -63.5 7.5t-45.5 18t-30.5 30t-19 35t-10 42t-4 43t-0.5 44.5v573h-183z" />
    <glyph glyph-name="uni019B" unicode="&#x19b;" horiz-adv-x="1144" 
d="M93 0l418 998l-60 147l-219 -97l-42 95l222 99q-3 8 -13 30.5t-13 30t-12 26t-13.5 25t-13 20.5t-15.5 19t-17 13.5t-20 11.5t-22.5 6t-26.5 3q-52 0 -107 -25l-46 92q66 36 163 36q43 0 79 -14t59 -32.5t47 -55.5t37 -64.5t34 -76.5l222 99l43 -95l-225 -101l499 -1190
h-130l-349 856l-349 -856h-130z" />
    <glyph glyph-name="uni019C" unicode="&#x19c;" horiz-adv-x="1760" 
d="M1607 1434v-1434h-126v140q-83 -160 -272 -160q-122 0 -203.5 67.5t-127.5 169.5q-85 -237 -330 -237q-190 0 -292.5 140t-102.5 384v930h126v-930q0 -83 14.5 -153.5t45 -129t84 -92t125.5 -33.5q58 0 104 23t76.5 61.5t50.5 91.5t29 110.5t9 121.5v930h126v-930
q0 -83 14 -153.5t43.5 -129t83 -92t125.5 -33.5q71 0 125 34t85 93t46.5 129.5t15.5 151.5v930h126z" />
    <glyph glyph-name="uni019D" unicode="&#x19d;" horiz-adv-x="1492" 
d="M228 1434h150l815 -1252v1252h126v-1434h-151l-814 1252v-1477v-3q0 -16 -0.5 -30t-6 -47t-15.5 -59.5t-32.5 -59.5t-53 -55t-80.5 -37.5t-113 -15.5v117q175 0 175 188v1661z" />
    <glyph glyph-name="uni019E" unicode="&#x19e;" 
d="M273 556v-556h-120v998h120v-187q41 95 124 151t191 56q212 0 323.5 -120.5t111.5 -341.5v-1088h-120v1088q0 168 -76.5 263t-238.5 95t-238.5 -95t-76.5 -263z" />
    <glyph glyph-name="uni019F" unicode="&#x19f;" horiz-adv-x="1686" 
d="M843 -20q-165 0 -300 57.5t-224 157t-137.5 234t-48.5 288.5t48.5 288.5t137.5 234t224 157t300 57.5t300 -57.5t224 -157t137.5 -234t48.5 -288.5t-48.5 -288.5t-137.5 -234t-224 -157t-300 -57.5zM843 96q132 0 239 44t177.5 121.5t112 178.5t49.5 219h-1156
q8 -118 49 -219t111.5 -178.5t178 -121.5t239.5 -44zM843 1338q-132 0 -239.5 -44t-178 -121.5t-111.5 -178.5t-49 -219h1156q-8 118 -49.5 219t-112 178.5t-177.5 121.5t-239 44z" />
    <glyph glyph-name="Ohorn" unicode="&#x1a0;" horiz-adv-x="1686" 
d="M843 -20q-165 0 -300 57.5t-224 157t-137.5 234t-48.5 288.5t48.5 288.5t137.5 234t224 157t300 57.5q204 0 363 -88q18 5 36 15.5t42 32t39 61.5t15 92h123q0 -200 -155 -270q119 -100 183 -250.5t64 -329.5q0 -154 -48.5 -288.5t-137.5 -234t-224 -157t-300 -57.5z
M843 1338q-140 0 -252 -49.5t-182.5 -135.5t-108 -197t-37.5 -239t37.5 -239t108 -197t182.5 -135.5t252 -49.5t252 49.5t182.5 135.5t108 197t37.5 239t-37.5 239t-108 197t-182.5 135.5t-252 49.5z" />
    <glyph glyph-name="ohorn" unicode="&#x1a1;" horiz-adv-x="1253" 
d="M113 499q0 227 143 373t370 146q181 0 314 -98q136 46 136 205h114q0 -202 -177 -271q126 -143 126 -355q0 -227 -143 -373t-370 -146t-370 146t-143 373zM1015 499q0 185 -103 300t-286 115t-286 -115t-103 -300t103 -300t286 -115t286 115t103 300z" />
    <glyph glyph-name="uni01A2" unicode="&#x1a2;" horiz-adv-x="2121" 
d="M823 -20q-165 0 -300 57.5t-224 157t-137.5 234t-48.5 288.5t48.5 288.5t137.5 234t224 157t300 57.5q271 0 458 -152q61 75 142.5 113.5t170.5 38.5q374 0 374 -458v-996h-126v996q0 164 -57 253t-191 89t-229 -120q168 -202 168 -501q0 -154 -48.5 -288.5t-137.5 -234
t-224 -157t-300 -57.5zM823 1338q-140 0 -252 -49.5t-182.5 -135.5t-108 -197t-37.5 -239t37.5 -239t108 -197t182.5 -135.5t252 -49.5t252 49.5t182.5 135.5t108 197t37.5 239t-37.5 239t-108 197t-182.5 135.5t-252 49.5z" />
    <glyph glyph-name="uni01A3" unicode="&#x1a3;" horiz-adv-x="1659" 
d="M113 499q0 225 145.5 372t367.5 147q159 0 284 -81q60 44 137 62.5t142 18.5q94 0 156.5 -29.5t97.5 -91.5t49 -142.5t14 -197.5v-1089h-120v1089q0 60 -3.5 105.5t-15.5 95.5t-33 82t-57.5 53t-87.5 21q-63 0 -104.5 -12t-87.5 -37q141 -146 141 -366q0 -225 -146 -372
t-366 -147q-222 0 -367.5 147t-145.5 372zM237 499q0 -177 106.5 -296t282.5 -119q175 0 281.5 119t106.5 296t-106.5 296t-281.5 119q-176 0 -282.5 -119t-106.5 -296z" />
    <glyph glyph-name="uni01A4" unicode="&#x1a4;" horiz-adv-x="1647" 
d="M572 0h-126v1318h-57q-42 0 -68.5 -5t-55 -22.5t-42.5 -59t-14 -106.5h-126q0 50 8 92t19.5 72t31.5 53.5t37.5 38.5t43.5 26t44.5 16t45.5 7.5t40.5 3t35.5 0.5h653q200 0 326 -114.5t126 -314.5q0 -199 -126.5 -313.5t-325.5 -114.5h-470v-577zM1042 1318h-470v-625
h470q151 0 237.5 83.5t86.5 228.5q0 146 -86.5 229.5t-237.5 83.5z" />
    <glyph glyph-name="uni01A5" unicode="&#x1a5;" horiz-adv-x="1300" 
d="M153 998h120v-217q41 97 144.5 167t228.5 70q154 0 275 -77q13 86 82 149t184 63v-121q-48 0 -83.5 -15.5t-54 -42t-27.5 -52.5t-12 -55q133 -144 133 -368q0 -230 -139 -374.5t-358 -144.5q-125 0 -228.5 70t-144.5 167v-749h-120v1530zM646 84q170 0 271.5 117
t101.5 298t-101.5 298t-271.5 117t-271.5 -117t-101.5 -298t101.5 -298t271.5 -117z" />
    <glyph glyph-name="uni01A6" unicode="&#x1a6;" horiz-adv-x="1353" 
d="M299 0h-126v1434h126v-202h515q185 0 294.5 -115.5t109.5 -292.5q0 -161 -99 -272.5t-265 -130.5l366 -623h-138l-363 618h-420v-416zM814 1116h-515v-584h515q135 0 205.5 82t70.5 210t-70.5 210t-205.5 82z" />
    <glyph glyph-name="uni01A7" unicode="&#x1a7;" horiz-adv-x="1223" 
d="M228 1238l-65 96q161 120 464 120q231 0 354 -97t123 -269q0 -150 -117.5 -250.5t-368.5 -154.5q-226 -47 -310.5 -116t-84.5 -198q0 -136 93.5 -204.5t271.5 -68.5q143 0 266 37.5t211 101.5l65 -96q-82 -73 -223 -116t-319 -43q-83 0 -156 14.5t-135.5 45.5t-107.5 76
t-70.5 109.5t-25.5 143.5q0 94 29.5 163.5t94.5 120.5t155.5 86.5t224.5 65.5q204 46 290.5 111.5t86.5 171.5q0 66 -26.5 115t-74.5 78t-109.5 43t-136.5 14q-241 0 -399 -100z" />
    <glyph glyph-name="uni01A8" unicode="&#x1a8;" horiz-adv-x="984" 
d="M200 837l-59 91q143 90 360 90q184 0 278.5 -73t94.5 -191q0 -113 -85.5 -182.5t-290.5 -108.5q-159 -30 -222 -74t-63 -131q0 -174 272 -174q191 0 347 93l59 -91q-67 -48 -173.5 -77t-232.5 -29q-191 0 -291.5 72t-100.5 206q0 131 90 201.5t294 109.5q151 28 214 69
t63 116q0 80 -67.5 120t-185.5 40q-165 0 -301 -77z" />
    <glyph glyph-name="uni01A9" unicode="&#x1a9;" horiz-adv-x="1333" 
d="M183 1434h997v-116h-795l440 -601l-440 -601h795v-116h-1007v68l486 649l-476 650v67z" />
    <glyph glyph-name="uni01AA" unicode="&#x1aa;" horiz-adv-x="645" 
d="M314 220v999q-13 -4 -41 -4q-66 0 -113 46.5t-47 113.5t47 114t113 47q67 0 114 -47t47 -114v-1155q0 -20 0.5 -30.5t1.5 -26.5t4.5 -24.5t9 -17.5t15 -13t22.5 -4h45v-104h-45q-36 0 -63.5 7.5t-45.5 18t-30.5 30t-19 35t-10 42t-4 43t-0.5 44.5zM221 1375
q0 -22 15 -37.5t37 -15.5q23 0 38 15t15 38t-15.5 38.5t-37.5 15.5t-37 -15.5t-15 -38.5z" />
    <glyph glyph-name="uni01AB" unicode="&#x1ab;" horiz-adv-x="892" 
d="M93 894v104h211v299h120v-299h309v-104h-309v-451q0 -54 1 -88.5t5.5 -76.5t12.5 -68t22.5 -52.5t35 -41t50.5 -23.5t69 -9t95.5 11.5t82.5 28.5v-115q0 -122 -31 -190q-66 -149 -270 -149v104q51 0 86.5 14.5t53.5 34t28 52t11.5 54t1.5 55.5q-36 -4 -58 -4
q-98 0 -160.5 28t-96.5 90t-46.5 142t-12.5 203v451h-211z" />
    <glyph glyph-name="uni01AC" unicode="&#x1ac;" horiz-adv-x="1372" 
d="M419 1434h840v-116h-510v-1318h-126v1318h-204q-172 0 -172 -193h-134q0 64 13.5 114.5t33.5 82t51 54.5t56 34t60 17t51.5 6.5t40.5 0.5z" />
    <glyph glyph-name="uni01AD" unicode="&#x1ad;" horiz-adv-x="859" 
d="M93 894v104h211v136v6q0 27 0.5 44t6.5 51t16 57t32 52.5t53 47t79.5 30t110.5 12.5v-104q-37 0 -65.5 -7.5t-47 -18t-31.5 -28.5t-19.5 -33t-10 -38t-4 -36t-0.5 -35v-136h309v-104h-309v-451q0 -49 1 -82t5.5 -74t12.5 -68t22.5 -55t35 -44t50.5 -26t69 -10
q58 0 111 20l35 -97q-76 -27 -146 -27q-98 0 -160.5 28t-96.5 90t-46.5 142t-12.5 203v451h-211z" />
    <glyph glyph-name="uni01AE" unicode="&#x1ae;" horiz-adv-x="1372" 
d="M113 1434h1146v-116h-510v-1318q0 -26 1 -42.5t11 -47.5t28 -50t55.5 -34t90.5 -15v-116q-80 0 -140 21t-92 51.5t-51 74.5t-24 80t-5 78v1318h-510v116z" />
    <glyph glyph-name="Uhorn" unicode="&#x1af;" horiz-adv-x="1516" 
d="M734 96q206 0 320.5 135.5t114.5 362.5v840h88q7 0 19 1t43 10.5t54.5 26.5t43 54.5t19.5 89.5h127q0 -55 -15 -101.5t-38.5 -75.5t-52 -52t-57 -35t-52 -19t-38.5 -9l-15 -2v-728q0 -144 -41.5 -260t-116 -193.5t-177.5 -119t-226 -41.5t-226 41.5t-177.5 119
t-116 193.5t-41.5 260v840h126v-840q0 -227 114.5 -362.5t320.5 -135.5z" />
    <glyph glyph-name="uhorn" unicode="&#x1b0;" horiz-adv-x="1350" 
d="M1023 0h-120v187q-33 -93 -119 -150t-196 -57q-212 0 -323.5 120.5t-111.5 341.5v556h120v-556q0 -168 76.5 -263t238.5 -95t238.5 95t76.5 263v556h120q7 0 19 1t42 10t52.5 25.5t41.5 52.5t19 86h120q0 -58 -15 -104.5t-42.5 -75t-55.5 -48t-66.5 -30t-61 -14.5
t-53.5 -7v-894z" />
    <glyph glyph-name="uni01B1" unicode="&#x1b1;" horiz-adv-x="1660" 
d="M830 -20q-201 0 -351.5 89t-228 241t-77.5 345q0 110 36.5 217t96.5 190.5t126.5 147t137.5 108.5h-375v116h539v-103q-37 -17 -86 -52t-111.5 -98t-113.5 -137t-86.5 -177.5t-35.5 -211.5q0 -160 59.5 -285t181 -199.5t288.5 -74.5t288.5 74.5t181 199.5t59.5 285
q0 108 -35.5 211.5t-86.5 177.5t-113.5 137t-111.5 98t-86 52v103h539v-116h-375q71 -45 137.5 -108.5t126.5 -147t96.5 -190.5t36.5 -217q0 -193 -77.5 -345t-228 -241t-351.5 -89z" />
    <glyph glyph-name="uni01B2" unicode="&#x1b2;" horiz-adv-x="1255" 
d="M221 1434l493 -1233q334 737 334 973q0 140 -150 140v120q138 0 206 -62.5t68 -197.5q0 -150 -100 -421t-320 -753h-88l-581 1434h138z" />
    <glyph glyph-name="uni01B3" unicode="&#x1b3;" horiz-adv-x="1477" 
d="M1121 1129l-354 -531v-598h-126v598l-558 836h152l469 -703l312 467q58 87 90 121q111 115 288 115v-116q-43 0 -78.5 -10t-58.5 -21.5t-48 -39t-37.5 -44.5t-38.5 -56q-3 -4 -4 -6t-3.5 -5.5t-4.5 -6.5z" />
    <glyph glyph-name="uni01B4" unicode="&#x1b4;" horiz-adv-x="1170" 
d="M542 142l263 646q10 23 15 33t21 37.5t30 43.5t39 39t51.5 35.5t64.5 22t81 9.5v-104q-56 0 -97 -26.5t-54 -47.5t-31 -62q-2 -2 -2.5 -4t-1.5 -4l-318 -760l-121 -289q-42 -94 -68 -131q-77 -112 -188 -112q-86 0 -163 36l46 92q56 -25 107 -25q17 0 33.5 6.5t29.5 16
t26.5 25.5t22 28.5t19 32.5t15 29t12 26.5t7.5 18.5l100 246l-418 998h130z" />
    <glyph glyph-name="uni01B5" unicode="&#x1b5;" horiz-adv-x="1384" 
d="M338 116h883v-116h-1068v71l432 603h-285v116h368l378 528h-866v116h1051v-71l-411 -573h289v-116h-372z" />
    <glyph glyph-name="uni01B6" unicode="&#x1b6;" horiz-adv-x="1093" 
d="M133 0v61l310 398h-211v104h292l258 331h-613v104h791v-60l-292 -375h229v-104h-310l-276 -355h649v-104h-827z" />
    <glyph glyph-name="uni01B7" unicode="&#x1b7;" horiz-adv-x="1216" 
d="M133 215l95 73q143 -192 377 -192q157 0 253.5 85.5t96.5 259.5q0 176 -112.5 253.5t-371.5 77.5v88l391 458h-674v116h871v-68l-424 -499q68 -3 130 -18.5t121 -48.5t102 -80t69 -118.5t26 -160.5q0 -213 -127 -337t-351 -124q-77 0 -146 15.5t-118 39t-91.5 56.5
t-68.5 62t-48 62z" />
    <glyph glyph-name="uni01B8" unicode="&#x1b8;" 
d="M968 288l95 -73q-22 -33 -48 -62t-68.5 -62t-91.5 -56.5t-118 -39t-146 -15.5q-224 0 -351 124t-127 337q0 89 26 160.5t69 118.5t102 80t121 48.5t130 18.5l-424 499v68h871v-116h-674l391 -458v-88q-259 0 -371.5 -77.5t-112.5 -253.5q0 -174 96.5 -259.5t253.5 -85.5
q234 0 377 192z" />
    <glyph glyph-name="uni01B9" unicode="&#x1b9;" horiz-adv-x="1140" 
d="M948 -278l79 -74q-148 -180 -432 -180q-70 0 -137.5 16.5t-130.5 54t-110 91.5t-75.5 135t-28.5 179q0 81 21.5 148.5t54 111.5t80.5 79t90 54t94 32t82 17.5t64 7.5l-420 544v60h791v-104h-613l390 -505v-90q-53 0 -91.5 -1.5t-95.5 -9t-98 -21t-86.5 -40t-74 -63
t-47.5 -93t-19 -127.5q0 -77 20.5 -140.5t54.5 -105.5t81 -71t98 -42t106 -13q215 0 353 150z" />
    <glyph glyph-name="uni01BA" unicode="&#x1ba;" horiz-adv-x="1083" 
d="M488 -88q44 0 76.5 1.5t72.5 7t68.5 15t57 26.5t46 41.5t28.5 60t11 80.5q0 32 -7.5 59t-21 47t-33 36.5t-43 27t-50.5 19.5t-56.5 13.5t-61 7.5t-63 3.5t-63 1.5t-62.5 0h-11h-10.5h-11.5v90l370 445h-611v104h791v-60l-400 -484q24 0 41.5 -0.5t55 -3.5t67 -8t69.5 -16
t70.5 -26t62.5 -39t52.5 -53.5t34 -71.5t13.5 -92q0 -80 -29 -141t-74.5 -97.5t-111 -59t-129.5 -30.5t-138 -8q-223 0 -223 -116q0 -62 53 -91t165 -29q59 0 118 17v-105q-48 -16 -124 -16q-170 0 -251 61.5t-81 166.5q0 95 81.5 155.5t261.5 60.5z" />
    <glyph glyph-name="uni01BB" unicode="&#x1bb;" horiz-adv-x="1236" 
d="M347 553v116h329l86 94q96 107 133.5 180.5t37.5 148.5q0 110 -74.5 178t-231.5 68q-63 0 -118 -18.5t-90 -43.5t-64 -59.5t-42 -57.5t-23 -46l-119 39q7 19 16.5 38.5t29.5 51t43.5 58.5t61 56.5t80 50t101 34t124.5 13.5q197 0 314.5 -96.5t117.5 -265.5
q0 -106 -52 -197t-170 -226h187v-116h-293l-400 -437h752v-116h-930v92l418 461h-224z" />
    <glyph glyph-name="uni01BC" unicode="&#x1bc;" horiz-adv-x="1318" 
d="M1095 1434v-116h-674l-26 -464q117 66 309 66q120 0 213 -36.5t151 -101t87.5 -149t29.5 -183.5t-29.5 -183.5t-87.5 -149t-151 -101t-213 -36.5q-73 0 -138.5 9.5t-112 25t-86.5 34t-65 37t-42.5 34t-25.5 24.5l-7 10l77 90q5 -6 16 -16t48.5 -35.5t80 -45t112 -35.5
t143.5 -16q91 0 160 27t111 75.5t63 112t21 139.5t-21 139.5t-63 112t-111 75.5t-160 27q-71 0 -142.5 -12.5t-123 -30.5t-93 -36t-62.5 -31l-21 -12l37 636h-166v116h962z" />
    <glyph glyph-name="uni01BD" unicode="&#x1bd;" horiz-adv-x="956" 
d="M810 998v-104h-461l-16 -264q82 35 176 35q96 0 166.5 -27t110.5 -75t58.5 -106.5t18.5 -129.5t-19 -131t-58.5 -110t-110.5 -78t-166 -28q-215 0 -345 134l67 82q112 -112 278 -112q123 0 178.5 68.5t55.5 174.5q0 101 -56 167.5t-178 66.5q-51 0 -101.5 -11.5
t-85.5 -28.5t-63 -34t-41 -29l-14 -11l27 447h-138v104h717z" />
    <glyph glyph-name="uni01BE" unicode="&#x1be;" horiz-adv-x="1142" 
d="M113 107l103 62q119 -193 344 -193q166 0 254.5 72t88.5 194q0 154 -117 233t-323 86v196h-216v116h216v125h126v-125h216v-116h-216v-105q123 -17 211.5 -58t137 -98.5t70 -119.5t21.5 -134q0 -59 -16.5 -113.5t-53 -104t-90 -85.5t-133 -57.5t-176.5 -21.5
q-83 0 -156 21t-119 49t-85.5 66t-56.5 62.5t-30 48.5z" />
    <glyph glyph-name="uni01BF" unicode="&#x1bf;" horiz-adv-x="1114" 
d="M153 -532v1530h120v-143q42 90 122 139.5t180 49.5q191 0 308.5 -106.5t117.5 -301.5q0 -104 -31 -194.5t-85.5 -157t-125 -119t-153 -86.5t-166 -53.5t-167.5 -25.5v-532h-120zM575 940q-122 0 -212 -103t-90 -277v-468q64 6 128 21t134.5 42.5t130.5 71t108.5 100
t76.5 136.5t28 173q0 145 -79.5 224.5t-224.5 79.5z" />
    <glyph glyph-name="uni01C0" unicode="&#x1c0;" horiz-adv-x="432" 
d="M153 0v1434h126v-1434h-126z" />
    <glyph glyph-name="uni01C1" unicode="&#x1c1;" horiz-adv-x="702" 
d="M423 0v1434h126v-1434h-126zM153 0v1434h126v-1434h-126z" />
    <glyph glyph-name="uni01C2" unicode="&#x1c2;" horiz-adv-x="929" 
d="M527 632h269v-116h-269v-516h-126v516h-268v116h268v180h-268v116h268v506h126v-506h269v-116h-269v-180z" />
    <glyph glyph-name="uni01C3" unicode="&#x1c3;" horiz-adv-x="486" 
d="M190 316l-10 1118h126l-10 -1118h-106zM153 80q0 38 26.5 64t63.5 26t63.5 -26t26.5 -64t-26.5 -64t-63.5 -26t-63.5 26t-26.5 64z" />
    <glyph glyph-name="uni01C4" unicode="&#x1c4;" horiz-adv-x="2590" 
d="M1289 717q0 -123 -26 -230t-81 -197t-137 -154t-199 -100t-261 -36h-432v1434h432q179 0 316 -55t220.5 -153t125.5 -226.5t42 -282.5zM279 1318v-1202h306q154 0 267.5 46t179.5 129.5t97.5 189.5t31.5 236t-31.5 236t-97.5 189.5t-179.5 129.5t-267.5 46h-306z
M1564 116h883v-116h-1068v71l893 1247h-866v116h1051v-71zM2194 1847l-252 -311h-48l-252 311h107l169 -185l169 185h107z" />
    <glyph glyph-name="uni01C5" unicode="&#x1c5;" horiz-adv-x="2379" 
d="M1289 717q0 -123 -26 -230t-81 -197t-137 -154t-199 -100t-261 -36h-432v1434h432q179 0 316 -55t220.5 -153t125.5 -226.5t42 -282.5zM279 1318v-1202h306q154 0 267.5 46t179.5 129.5t97.5 189.5t31.5 236t-31.5 236t-97.5 189.5t-179.5 129.5t-267.5 46h-306zM1419 0
v61l649 833h-613v104h791v-60l-649 -834h649v-104h-827zM2108 1434l-252 -311h-48l-252 311h107l169 -185l169 185h107z" />
    <glyph glyph-name="uni01C6" unicode="&#x1c6;" horiz-adv-x="2202" 
d="M1103 0h-120v217q-41 -97 -144.5 -167t-228.5 -70q-219 0 -358 144.5t-139 374.5t139 374.5t358 144.5q125 0 228.5 -70t144.5 -167v735h120v-1516zM610 914q-170 0 -271.5 -117t-101.5 -298t101.5 -298t271.5 -117t271.5 117t101.5 298t-101.5 298t-271.5 117zM1242 0
v61l649 833h-613v104h791v-60l-649 -834h649v-104h-827zM1931 1434l-252 -311h-48l-252 311h107l169 -185l169 185h107z" />
    <glyph glyph-name="uni01C7" unicode="&#x1c7;" horiz-adv-x="2051" 
d="M279 1434v-1318h738v-116h-864v1434h126zM1088 219l117 38q87 -161 279 -161q162 0 225 85.5t63 256.5v996h126v-996q0 -458 -414 -458q-87 0 -158 21.5t-117 58t-75 75.5t-46 84z" />
    <glyph glyph-name="uni01C8" unicode="&#x1c8;" horiz-adv-x="1576" 
d="M279 1434v-1318h738v-116h-864v1434h126zM949 -506l34 98q60 -20 117 -20q37 0 65 10.5t46.5 25t31.5 44t19.5 53.5t10 68.5t4 73.5t0.5 82v1069h120v-1069q0 -95 -6.5 -162t-25 -127t-51 -95.5t-86 -56t-128.5 -20.5q-92 0 -151 26zM1251 1287q0 35 25.5 60.5t60.5 25.5
t60.5 -25.5t25.5 -60.5t-25.5 -60.5t-60.5 -25.5t-60.5 25.5t-25.5 60.5z" />
    <glyph glyph-name="uni01C9" unicode="&#x1c9;" horiz-adv-x="900" 
d="M153 220v1296h120v-1296q0 -20 0.5 -30.5t1.5 -26.5t4.5 -24.5t9 -17.5t15 -13t22.5 -4h45v-104h-45q-36 0 -63.5 7.5t-45.5 18t-30.5 30t-19 35t-10 42t-4 43t-0.5 44.5zM273 -506l34 98q60 -20 117 -20q37 0 65 10.5t46.5 25t31.5 44t19.5 53.5t10 68.5t4 73.5t0.5 82
v1069h120v-1069q0 -95 -6.5 -162t-25 -127t-51 -95.5t-86 -56t-128.5 -20.5q-92 0 -151 26zM575 1287q0 35 25.5 60.5t60.5 25.5t60.5 -25.5t25.5 -60.5t-25.5 -60.5t-60.5 -25.5t-60.5 25.5t-25.5 60.5z" />
    <glyph glyph-name="uni01CA" unicode="&#x1ca;" horiz-adv-x="2362" 
d="M173 0v1434h150l815 -1252v1252h126v-1434h-151l-814 1252v-1252h-126zM1379 219l117 38q87 -161 279 -161q162 0 225 85.5t63 256.5v996h126v-996q0 -458 -414 -458q-87 0 -158 21.5t-117 58t-75 75.5t-46 84z" />
    <glyph glyph-name="uni01CB" unicode="&#x1cb;" horiz-adv-x="1895" 
d="M173 0v1434h150l815 -1252v1252h126v-1434h-151l-814 1252v-1252h-126zM1248 -506l34 98q60 -20 117 -20q37 0 65 10.5t46.5 25t31.5 44t19.5 53.5t10 68.5t4 73.5t0.5 82v1069h120v-1069q0 -95 -6.5 -162t-25 -127t-51 -95.5t-86 -56t-128.5 -20.5q-93 0 -151 26z
M1550 1287q0 35 25.5 60.5t60.5 25.5t60.5 -25.5t25.5 -60.5t-25.5 -60.5t-60.5 -25.5t-60.5 25.5t-25.5 60.5z" />
    <glyph glyph-name="uni01CC" unicode="&#x1cc;" horiz-adv-x="1590" 
d="M153 998h120v-187q33 93 119 150t196 57q212 0 323.5 -120.5t111.5 -341.5v-556h-120v556q0 168 -76.5 263t-238.5 95t-238.5 -95t-76.5 -263v-556h-120v998zM963 -506l34 98q60 -20 117 -20q37 0 65 10.5t46.5 25t31.5 44t19.5 53.5t10 68.5t4 73.5t0.5 82v1069h120
v-1069q0 -95 -6.5 -162t-25 -127t-51 -95.5t-86 -56t-128.5 -20.5q-92 0 -151 26zM1265 1287q0 35 25.5 60.5t60.5 25.5t60.5 -25.5t25.5 -60.5t-25.5 -60.5t-60.5 -25.5t-60.5 25.5t-25.5 60.5z" />
    <glyph glyph-name="uni01CD" unicode="&#x1cd;" horiz-adv-x="1490" 
d="M408 455l-191 -455h-134l607 1434h110l607 -1434h-134l-191 455h-674zM745 1255l-288 -684h576zM1021 1847l-252 -311h-48l-252 311h107l169 -185l169 185h107z" />
    <glyph glyph-name="uni01CE" unicode="&#x1ce;" horiz-adv-x="1126" 
d="M594 914q-72 0 -168.5 -22.5t-165.5 -57.5l-50 94q76 42 178 66t206 24q95 0 162.5 -20t109.5 -54.5t66 -92t32.5 -121t8.5 -153.5v-577h-120v225q-35 -114 -133.5 -179.5t-235.5 -65.5q-78 0 -143.5 18.5t-117.5 55.5t-81 99t-29 143q0 70 27.5 126.5t72.5 94
t107.5 64.5t129 41t140.5 20t138 5t125 -7q0 149 -56.5 211.5t-202.5 62.5zM237 296q0 -104 69 -158t188 -54q160 0 259.5 101t99.5 252v111q-63 5 -126.5 5t-135.5 -6t-133 -24.5t-112 -46.5t-80 -74t-29 -106zM853 1434l-252 -311h-48l-252 311h107l169 -185l169 185h107z
" />
    <glyph glyph-name="uni01CF" unicode="&#x1cf;" horiz-adv-x="532" 
d="M203 0v1434h126v-1434h-126zM542 1847l-252 -311h-48l-252 311h107l169 -185l169 185h107z" />
    <glyph glyph-name="uni01D0" unicode="&#x1d0;" horiz-adv-x="472" 
d="M176 0v998h120v-998h-120zM512 1434l-252 -311h-48l-252 311h107l169 -185l169 185h107z" />
    <glyph glyph-name="uni01D1" unicode="&#x1d1;" horiz-adv-x="1686" 
d="M843 -20q-165 0 -300 57.5t-224 157t-137.5 234t-48.5 288.5t48.5 288.5t137.5 234t224 157t300 57.5t300 -57.5t224 -157t137.5 -234t48.5 -288.5t-48.5 -288.5t-137.5 -234t-224 -157t-300 -57.5zM843 1338q-140 0 -252 -49.5t-182.5 -135.5t-108 -197t-37.5 -239
t37.5 -239t108 -197t182.5 -135.5t252 -49.5t252 49.5t182.5 135.5t108 197t37.5 239t-37.5 239t-108 197t-182.5 135.5t-252 49.5zM1119 1847l-252 -311h-48l-252 311h107l169 -185l169 185h107z" />
    <glyph glyph-name="uni01D2" unicode="&#x1d2;" horiz-adv-x="1252" 
d="M113 499q0 227 143 373t370 146t370 -146t143 -373t-143 -373t-370 -146t-370 146t-143 373zM1015 499q0 185 -103 300t-286 115t-286 -115t-103 -300t103 -300t286 -115t286 115t103 300zM901 1434l-252 -311h-48l-252 311h107l169 -185l169 185h107z" />
    <glyph glyph-name="uni01D3" unicode="&#x1d3;" horiz-adv-x="1468" 
d="M734 96q206 0 320.5 135.5t114.5 362.5v840h126v-840q0 -144 -41.5 -260t-116 -193.5t-177.5 -119t-226 -41.5t-226 41.5t-177.5 119t-116 193.5t-41.5 260v840h126v-840q0 -227 114.5 -362.5t320.5 -135.5zM1009 1847l-252 -311h-48l-252 311h107l169 -185l169 185h107z
" />
    <glyph glyph-name="uni01D4" unicode="&#x1d4;" 
d="M1023 0h-120v187q-33 -93 -119 -150t-196 -57q-212 0 -323.5 120.5t-111.5 341.5v556h120v-556q0 -168 76.5 -263t238.5 -95t238.5 95t76.5 263v556h120v-998zM864 1434l-252 -311h-48l-252 311h107l169 -185l169 185h107z" />
    <glyph glyph-name="uni01D5" unicode="&#x1d5;" horiz-adv-x="1468" 
d="M734 96q206 0 320.5 135.5t114.5 362.5v840h126v-840q0 -144 -41.5 -260t-116 -193.5t-177.5 -119t-226 -41.5t-226 41.5t-177.5 119t-116 193.5t-41.5 260v840h126v-840q0 -227 114.5 -362.5t320.5 -135.5zM476 1642q0 35 25.5 60.5t60.5 25.5t60.5 -25.5t25.5 -60.5
t-25.5 -60.5t-60.5 -25.5t-60.5 25.5t-25.5 60.5zM818 1642q0 35 25.5 60.5t60.5 25.5t60.5 -25.5t25.5 -60.5t-25.5 -60.5t-60.5 -25.5t-60.5 25.5t-25.5 60.5zM390 1817v104h686v-104h-686z" />
    <glyph glyph-name="uni01D6" unicode="&#x1d6;" 
d="M1023 0h-120v187q-33 -93 -119 -150t-196 -57q-212 0 -323.5 120.5t-111.5 341.5v556h120v-556q0 -168 76.5 -263t238.5 -95t238.5 95t76.5 263v556h120v-998zM331 1287q0 35 25.5 60.5t60.5 25.5t60.5 -25.5t25.5 -60.5t-25.5 -60.5t-60.5 -25.5t-60.5 25.5t-25.5 60.5z
M673 1287q0 35 25.5 60.5t60.5 25.5t60.5 -25.5t25.5 -60.5t-25.5 -60.5t-60.5 -25.5t-60.5 25.5t-25.5 60.5zM245 1462v104h686v-104h-686z" />
    <glyph glyph-name="uni01D7" unicode="&#x1d7;" horiz-adv-x="1468" 
d="M475 1642q0 35 25.5 60.5t60.5 25.5t60.5 -25.5t25.5 -60.5t-25.5 -60.5t-60.5 -25.5t-60.5 25.5t-25.5 60.5zM817 1642q0 35 25.5 60.5t60.5 25.5t60.5 -25.5t25.5 -60.5t-25.5 -60.5t-60.5 -25.5t-60.5 25.5t-25.5 60.5zM652 1818l222 281h174l-255 -281h-141zM734 96
q206 0 320.5 135.5t114.5 362.5v840h126v-840q0 -144 -41.5 -260t-116 -193.5t-177.5 -119t-226 -41.5t-226 41.5t-177.5 119t-116 193.5t-41.5 260v840h126v-840q0 -227 114.5 -362.5t320.5 -135.5z" />
    <glyph glyph-name="uni01D8" unicode="&#x1d8;" 
d="M1023 0h-120v187q-33 -93 -119 -150t-196 -57q-212 0 -323.5 120.5t-111.5 341.5v556h120v-556q0 -168 76.5 -263t238.5 -95t238.5 95t76.5 263v556h120v-998zM509 1463l222 281h174l-255 -281h-141zM331 1287q0 35 25.5 60.5t60.5 25.5t60.5 -25.5t25.5 -60.5
t-25.5 -60.5t-60.5 -25.5t-60.5 25.5t-25.5 60.5zM673 1287q0 35 25.5 60.5t60.5 25.5t60.5 -25.5t25.5 -60.5t-25.5 -60.5t-60.5 -25.5t-60.5 25.5t-25.5 60.5z" />
    <glyph glyph-name="uni01D9" unicode="&#x1d9;" horiz-adv-x="1468" 
d="M734 96q206 0 320.5 135.5t114.5 362.5v840h126v-840q0 -144 -41.5 -260t-116 -193.5t-177.5 -119t-226 -41.5t-226 41.5t-177.5 119t-116 193.5t-41.5 260v840h126v-840q0 -227 114.5 -362.5t320.5 -135.5zM476 1642q0 35 25.5 60.5t60.5 25.5t60.5 -25.5t25.5 -60.5
t-25.5 -60.5t-60.5 -25.5t-60.5 25.5t-25.5 60.5zM818 1642q0 35 25.5 60.5t60.5 25.5t60.5 -25.5t25.5 -60.5t-25.5 -60.5t-60.5 -25.5t-60.5 25.5t-25.5 60.5z" />
    <glyph glyph-name="uni01DA" unicode="&#x1da;" 
d="M1023 0h-120v187q-33 -93 -119 -150t-196 -57q-212 0 -323.5 120.5t-111.5 341.5v556h120v-556q0 -168 76.5 -263t238.5 -95t238.5 95t76.5 263v556h120v-998zM331 1287q0 35 25.5 60.5t60.5 25.5t60.5 -25.5t25.5 -60.5t-25.5 -60.5t-60.5 -25.5t-60.5 25.5t-25.5 60.5z
M673 1287q0 35 25.5 60.5t60.5 25.5t60.5 -25.5t25.5 -60.5t-25.5 -60.5t-60.5 -25.5t-60.5 25.5t-25.5 60.5z" />
    <glyph glyph-name="uni01DB" unicode="&#x1db;" horiz-adv-x="1468" 
d="M475 1642q0 35 25.5 60.5t60.5 25.5t60.5 -25.5t25.5 -60.5t-25.5 -60.5t-60.5 -25.5t-60.5 25.5t-25.5 60.5zM817 1642q0 35 25.5 60.5t60.5 25.5t60.5 -25.5t25.5 -60.5t-25.5 -60.5t-60.5 -25.5t-60.5 25.5t-25.5 60.5zM586 2099l222 -281h-141l-255 281h174zM734 96
q206 0 320.5 135.5t114.5 362.5v840h126v-840q0 -144 -41.5 -260t-116 -193.5t-177.5 -119t-226 -41.5t-226 41.5t-177.5 119t-116 193.5t-41.5 260v840h126v-840q0 -227 114.5 -362.5t320.5 -135.5z" />
    <glyph glyph-name="uni01DC" unicode="&#x1dc;" 
d="M1023 0h-120v187q-33 -93 -119 -150t-196 -57q-212 0 -323.5 120.5t-111.5 341.5v556h120v-556q0 -168 76.5 -263t238.5 -95t238.5 95t76.5 263v556h120v-998zM443 1744l222 -281h-141l-255 281h174zM331 1287q0 35 25.5 60.5t60.5 25.5t60.5 -25.5t25.5 -60.5
t-25.5 -60.5t-60.5 -25.5t-60.5 25.5t-25.5 60.5zM673 1287q0 35 25.5 60.5t60.5 25.5t60.5 -25.5t25.5 -60.5t-25.5 -60.5t-60.5 -25.5t-60.5 25.5t-25.5 60.5z" />
    <glyph glyph-name="uni01DD" unicode="&#x1dd;" horiz-adv-x="1175" 
d="M588 914q-211 0 -332 -118l-80 78q150 144 412 144q223 0 348.5 -141t125.5 -378t-125.5 -378t-348.5 -141q-108 0 -195.5 35t-151 104.5t-97 179.5t-30.5 252h820q-2 73 -23 136.5t-61 115t-107.5 81.5t-154.5 30zM934 447h-692q2 -76 22.5 -140.5t61 -115t107.5 -79
t155 -28.5t155 28.5t107.5 79t61 115t22.5 140.5z" />
    <glyph glyph-name="uni01DE" unicode="&#x1de;" horiz-adv-x="1490" 
d="M408 455l-191 -455h-134l607 1434h110l607 -1434h-134l-191 455h-674zM745 1255l-288 -684h576zM488 1642q0 35 25.5 60.5t60.5 25.5t60.5 -25.5t25.5 -60.5t-25.5 -60.5t-60.5 -25.5t-60.5 25.5t-25.5 60.5zM830 1642q0 35 25.5 60.5t60.5 25.5t60.5 -25.5t25.5 -60.5
t-25.5 -60.5t-60.5 -25.5t-60.5 25.5t-25.5 60.5zM402 1817v104h686v-104h-686z" />
    <glyph glyph-name="uni01DF" unicode="&#x1df;" horiz-adv-x="1126" 
d="M594 914q-72 0 -168.5 -22.5t-165.5 -57.5l-50 94q76 42 178 66t206 24q95 0 162.5 -20t109.5 -54.5t66 -92t32.5 -121t8.5 -153.5v-577h-120v225q-35 -114 -133.5 -179.5t-235.5 -65.5q-78 0 -143.5 18.5t-117.5 55.5t-81 99t-29 143q0 70 27.5 126.5t72.5 94
t107.5 64.5t129 41t140.5 20t138 5t125 -7q0 149 -56.5 211.5t-202.5 62.5zM237 296q0 -104 69 -158t188 -54q160 0 259.5 101t99.5 252v111q-63 5 -126.5 5t-135.5 -6t-133 -24.5t-112 -46.5t-80 -74t-29 -106zM324 1287q0 35 25.5 60.5t60.5 25.5t60.5 -25.5t25.5 -60.5
t-25.5 -60.5t-60.5 -25.5t-60.5 25.5t-25.5 60.5zM666 1287q0 35 25.5 60.5t60.5 25.5t60.5 -25.5t25.5 -60.5t-25.5 -60.5t-60.5 -25.5t-60.5 25.5t-25.5 60.5zM238 1462v104h686v-104h-686z" />
    <glyph glyph-name="uni01E0" unicode="&#x1e0;" horiz-adv-x="1490" 
d="M408 455l-191 -455h-134l607 1434h110l607 -1434h-134l-191 455h-674zM745 1255l-288 -684h576zM659 1642q0 35 25.5 60.5t60.5 25.5t60.5 -25.5t25.5 -60.5t-25.5 -60.5t-60.5 -25.5t-60.5 25.5t-25.5 60.5zM402 1817v104h686v-104h-686z" />
    <glyph glyph-name="uni01E1" unicode="&#x1e1;" horiz-adv-x="1126" 
d="M594 914q-72 0 -168.5 -22.5t-165.5 -57.5l-50 94q76 42 178 66t206 24q95 0 162.5 -20t109.5 -54.5t66 -92t32.5 -121t8.5 -153.5v-577h-120v225q-35 -114 -133.5 -179.5t-235.5 -65.5q-78 0 -143.5 18.5t-117.5 55.5t-81 99t-29 143q0 70 27.5 126.5t72.5 94
t107.5 64.5t129 41t140.5 20t138 5t125 -7q0 149 -56.5 211.5t-202.5 62.5zM237 296q0 -104 69 -158t188 -54q160 0 259.5 101t99.5 252v111q-63 5 -126.5 5t-135.5 -6t-133 -24.5t-112 -46.5t-80 -74t-29 -106zM495 1287q0 35 25.5 60.5t60.5 25.5t60.5 -25.5t25.5 -60.5
t-25.5 -60.5t-60.5 -25.5t-60.5 25.5t-25.5 60.5zM238 1462v104h686v-104h-686z" />
    <glyph glyph-name="uni01E2" unicode="&#x1e2;" horiz-adv-x="2152" 
d="M1175 791h756v-116h-756v-559h824v-116h-950v521h-467l-351 -521h-148l963 1434h933v-116h-804v-527zM1049 1218l-390 -581h390v581zM1046 1536v104h686v-104h-686z" />
    <glyph glyph-name="uni01E3" unicode="&#x1e3;" horiz-adv-x="1915" 
d="M1327 84q211 0 332 118l80 -78q-150 -144 -412 -144q-144 0 -248.5 60t-162.5 171q-151 -231 -432 -231q-78 0 -143.5 18.5t-117.5 55.5t-81 99t-29 143q0 70 27.5 126.5t72.5 94t107.5 64.5t129 41t140.5 20t138 5t125 -7q0 149 -56.5 211.5t-202.5 62.5
q-72 0 -168.5 -22.5t-165.5 -57.5l-50 94q76 42 178 66t206 24q150 0 231.5 -47.5t115.5 -141.5q127 189 386 189q108 0 195.5 -35t151 -104.5t97 -179.5t30.5 -252h-820q2 -73 23 -136.5t61 -115t107.5 -81.5t154.5 -30zM237 296q0 -104 69 -158t188 -54q160 0 259.5 101
t99.5 252v111q-63 5 -126.5 5t-135.5 -6t-133 -24.5t-112 -46.5t-80 -74t-29 -106zM981 551h692q-2 76 -22.5 140.5t-61 115t-107.5 79t-155 28.5t-155 -28.5t-107.5 -79t-61 -115t-22.5 -140.5zM611 1330v104h686v-104h-686z" />
    <glyph glyph-name="uni01E4" unicode="&#x1e4;" horiz-adv-x="1651" 
d="M843 96q133 0 242 33.5t177 87.5v184h-382v116h382v148h-382v116h508v-264h150v-116h-150v-250q-207 -171 -545 -171q-165 0 -300 57.5t-224 157t-137.5 234t-48.5 288.5t48.5 288.5t137.5 234t224 157t300 57.5q169 0 305.5 -45t226.5 -124l-70 -86q-180 139 -462 139
q-140 0 -252 -49.5t-182.5 -135.5t-108 -197t-37.5 -239t37.5 -239t108 -197t182.5 -135.5t252 -49.5z" />
    <glyph glyph-name="uni01E5" unicode="&#x1e5;" horiz-adv-x="1273" 
d="M692 -256v104h276q15 67 15 152v217q-41 -97 -144.5 -167t-228.5 -70q-219 0 -358 144.5t-139 374.5t139 374.5t358 144.5q125 0 228.5 -70t144.5 -167v217h120v-998q0 -77 -13 -152h180v-104h-207q-101 -276 -449 -276q-259 0 -401 110l68 84q143 -90 333 -90
q234 0 319 172h-241zM610 914q-170 0 -271.5 -117t-101.5 -298t101.5 -298t271.5 -117t271.5 117t101.5 298t-101.5 298t-271.5 117z" />
    <glyph glyph-name="Gcaron" unicode="&#x1e6;" horiz-adv-x="1541" 
d="M843 96q133 0 242 33.5t177 87.5v448h-382v116h508v-630q-207 -171 -545 -171q-165 0 -300 57.5t-224 157t-137.5 234t-48.5 288.5t48.5 288.5t137.5 234t224 157t300 57.5q169 0 305.5 -45t226.5 -124l-70 -86q-180 139 -462 139q-140 0 -252 -49.5t-182.5 -135.5
t-108 -197t-37.5 -239t37.5 -239t108 -197t182.5 -135.5t252 -49.5zM1131 1847l-252 -311h-48l-252 311h107l169 -185l169 185h107z" />
    <glyph glyph-name="gcaron" unicode="&#x1e7;" horiz-adv-x="1256" 
d="M983 998h120v-998q0 -123 -27.5 -217.5t-72.5 -153t-110 -96t-132.5 -51.5t-146.5 -14q-259 0 -401 110l68 84q143 -90 333 -90q369 0 369 428v217q-41 -97 -144.5 -167t-228.5 -70q-219 0 -358 144.5t-139 374.5t139 374.5t358 144.5q125 0 228.5 -70t144.5 -167v217z
M610 914q-170 0 -271.5 -117t-101.5 -298t101.5 -298t271.5 -117t271.5 117t101.5 298t-101.5 298t-271.5 117zM885 1434l-252 -311h-48l-252 311h107l169 -185l169 185h107z" />
    <glyph glyph-name="uni01E8" unicode="&#x1e8;" horiz-adv-x="1337" 
d="M299 685l766 749h162l-631 -616l658 -818h-148l-592 737l-215 -209v-528h-126v1434h126v-749zM895 1847l-252 -311h-48l-252 311h107l169 -185l169 185h107z" />
    <glyph glyph-name="uni01E9" unicode="&#x1e9;" horiz-adv-x="1065" 
d="M273 516l537 482h167l-447 -401l472 -597h-144l-412 521l-173 -154v-367h-120v1516h120v-1000zM785 1847l-252 -311h-48l-252 311h107l169 -185l169 185h107z" />
    <glyph glyph-name="uni01EA" unicode="&#x1ea;" horiz-adv-x="1686" 
d="M843 -20q-165 0 -300 57.5t-224 157t-137.5 234t-48.5 288.5t48.5 288.5t137.5 234t224 157t300 57.5t300 -57.5t224 -157t137.5 -234t48.5 -288.5q0 -272 -142 -468.5t-393 -250.5q-19 -4 -41.5 -13t-53.5 -27.5t-51.5 -50t-22.5 -71.5q-2 -43 24.5 -67.5t56.5 -30
t67 -3.5v-110q-39 -5 -77 0t-72.5 21t-59 41t-35.5 64t-2 87q17 94 116 143q-4 0 -12 -0.5t-12 -0.5zM843 1338q-140 0 -252 -49.5t-182.5 -135.5t-108 -197t-37.5 -239t37.5 -239t108 -197t182.5 -135.5t252 -49.5t252 49.5t182.5 135.5t108 197t37.5 239t-37.5 239
t-108 197t-182.5 135.5t-252 49.5z" />
    <glyph glyph-name="uni01EB" unicode="&#x1eb;" horiz-adv-x="1252" 
d="M113 499q0 227 143 373t370 146t370 -146t143 -373q0 -192 -104 -328.5t-279 -175.5q-23 -7 -44 -17t-48 -28.5t-44.5 -48t-18.5 -65.5q-2 -43 24.5 -67.5t56.5 -30t67 -3.5v-110q-39 -5 -77 0t-72.5 21t-59 41t-35.5 64t-2 87q17 96 116 142q-225 3 -365.5 148.5
t-140.5 370.5zM1015 499q0 185 -103 300t-286 115t-286 -115t-103 -300t103 -300t286 -115t286 115t103 300z" />
    <glyph glyph-name="uni01EC" unicode="&#x1ec;" horiz-adv-x="1686" 
d="M843 -20q-165 0 -300 57.5t-224 157t-137.5 234t-48.5 288.5t48.5 288.5t137.5 234t224 157t300 57.5t300 -57.5t224 -157t137.5 -234t48.5 -288.5q0 -272 -142 -468.5t-393 -250.5q-19 -4 -41.5 -13t-53.5 -27.5t-51.5 -50t-22.5 -71.5q-2 -43 24.5 -67.5t56.5 -30
t67 -3.5v-110q-39 -5 -77 0t-72.5 21t-59 41t-35.5 64t-2 87q17 94 116 143q-4 0 -12 -0.5t-12 -0.5zM843 1338q-140 0 -252 -49.5t-182.5 -135.5t-108 -197t-37.5 -239t37.5 -239t108 -197t182.5 -135.5t252 -49.5t252 49.5t182.5 135.5t108 197t37.5 239t-37.5 239
t-108 197t-182.5 135.5t-252 49.5zM500 1536v104h686v-104h-686z" />
    <glyph glyph-name="uni01ED" unicode="&#x1ed;" horiz-adv-x="1252" 
d="M113 499q0 227 143 373t370 146t370 -146t143 -373q0 -192 -104 -328.5t-279 -175.5q-23 -7 -44 -17t-48 -28.5t-44.5 -48t-18.5 -65.5q-2 -43 24.5 -67.5t56.5 -30t67 -3.5v-110q-39 -5 -77 0t-72.5 21t-59 41t-35.5 64t-2 87q17 96 116 142q-225 3 -365.5 148.5
t-140.5 370.5zM1015 499q0 185 -103 300t-286 115t-286 -115t-103 -300t103 -300t286 -115t286 115t103 300zM282 1330v104h686v-104h-686z" />
    <glyph glyph-name="uni01EE" unicode="&#x1ee;" 
d="M113 215l95 73q143 -192 377 -192q157 0 253.5 85.5t96.5 259.5q0 176 -112.5 253.5t-371.5 77.5v88l391 458h-674v116h871v-68l-424 -499q68 -3 130 -18.5t121 -48.5t102 -80t69 -118.5t26 -160.5q0 -213 -127 -337t-351 -124q-77 0 -146 15.5t-118 39t-91.5 56.5
t-68.5 62t-48 62zM864 1847l-252 -311h-48l-252 311h107l169 -185l169 185h107z" />
    <glyph glyph-name="uni01EF" unicode="&#x1ef;" horiz-adv-x="1140" 
d="M113 -352l79 74q138 -150 353 -150q55 0 106 13t98 42t81 71t54.5 105.5t20.5 140.5q0 71 -19 127.5t-47.5 93t-74 63t-86.5 40t-98 21t-95.5 9t-91.5 1.5v90l390 505h-613v104h791v-60l-420 -544q34 -3 64 -7.5t82 -17.5t94 -32t90 -54t80.5 -79t54 -111.5t21.5 -148.5
q0 -98 -28.5 -179t-75.5 -135t-110 -91.5t-130.5 -54t-137.5 -16.5q-284 0 -432 180zM847 1434l-252 -311h-48l-252 311h107l169 -185l169 185h107z" />
    <glyph glyph-name="uni01F0" unicode="&#x1f0;" horiz-adv-x="504" 
d="M-140 -506l34 98q60 -20 117 -20q37 0 65 10.5t46.5 25t31.5 44t19.5 53.5t10 68.5t4 73.5t0.5 82v1069h120v-1069q0 -95 -6.5 -162t-25 -127t-51 -95.5t-86 -56t-128.5 -20.5q-93 0 -151 26zM524 1434l-252 -311h-48l-252 311h107l169 -185l169 185h107z" />
    <glyph glyph-name="uni01F1" unicode="&#x1f1;" horiz-adv-x="2563" 
d="M1289 717q0 -123 -26 -230t-81 -197t-137 -154t-199 -100t-261 -36h-432v1434h432q179 0 316 -55t220.5 -153t125.5 -226.5t42 -282.5zM279 1318v-1202h306q154 0 267.5 46t179.5 129.5t97.5 189.5t31.5 236t-31.5 236t-97.5 189.5t-179.5 129.5t-267.5 46h-306z
M1537 116h883v-116h-1068v71l893 1247h-866v116h1051v-71z" />
    <glyph glyph-name="uni01F2" unicode="&#x1f2;" horiz-adv-x="2359" 
d="M1289 717q0 -123 -26 -230t-81 -197t-137 -154t-199 -100t-261 -36h-432v1434h432q179 0 316 -55t220.5 -153t125.5 -226.5t42 -282.5zM279 1318v-1202h306q154 0 267.5 46t179.5 129.5t97.5 189.5t31.5 236t-31.5 236t-97.5 189.5t-179.5 129.5t-267.5 46h-306zM1399 0
v61l649 833h-613v104h791v-60l-649 -834h649v-104h-827z" />
    <glyph glyph-name="uni01F3" unicode="&#x1f3;" horiz-adv-x="2205" 
d="M1103 0h-120v217q-41 -97 -144.5 -167t-228.5 -70q-219 0 -358 144.5t-139 374.5t139 374.5t358 144.5q125 0 228.5 -70t144.5 -167v735h120v-1516zM610 914q-170 0 -271.5 -117t-101.5 -298t101.5 -298t271.5 -117t271.5 117t101.5 298t-101.5 298t-271.5 117zM1245 0
v61l649 833h-613v104h791v-60l-649 -834h649v-104h-827z" />
    <glyph glyph-name="uni01F4" unicode="&#x1f4;" horiz-adv-x="1541" 
d="M843 96q133 0 242 33.5t177 87.5v448h-382v116h508v-630q-207 -171 -545 -171q-165 0 -300 57.5t-224 157t-137.5 234t-48.5 288.5t48.5 288.5t137.5 234t224 157t300 57.5q169 0 305.5 -45t226.5 -124l-70 -86q-180 139 -462 139q-140 0 -252 -49.5t-182.5 -135.5
t-108 -197t-37.5 -239t37.5 -239t108 -197t182.5 -135.5t252 -49.5zM766 1536l222 281h174l-255 -281h-141z" />
    <glyph glyph-name="uni01F5" unicode="&#x1f5;" horiz-adv-x="1256" 
d="M983 998h120v-998q0 -123 -27.5 -217.5t-72.5 -153t-110 -96t-132.5 -51.5t-146.5 -14q-259 0 -401 110l68 84q143 -90 333 -90q369 0 369 428v217q-41 -97 -144.5 -167t-228.5 -70q-219 0 -358 144.5t-139 374.5t139 374.5t358 144.5q125 0 228.5 -70t144.5 -167v217z
M610 914q-170 0 -271.5 -117t-101.5 -298t101.5 -298t271.5 -117t271.5 117t101.5 298t-101.5 298t-271.5 117zM539 1153l222 281h174l-255 -281h-141z" />
    <glyph glyph-name="uni01F6" unicode="&#x1f6;" horiz-adv-x="2135" 
d="M1106 1434h126v-992q0 -168 76.5 -263t238.5 -95t238.5 95t76.5 263v556h120v-556q0 -221 -111.5 -341.5t-323.5 -120.5q-213 0 -327 121t-114 341v234h-827v-676h-126v1434h126v-642h827v642z" />
    <glyph glyph-name="uni01F7" unicode="&#x1f7;" horiz-adv-x="1120" 
d="M153 0v1434h126v-149q39 92 124.5 140.5t177.5 48.5q195 0 310.5 -110.5t115.5 -307.5q0 -104 -31 -194.5t-85.5 -157t-125 -119t-153 -86.5t-166 -53.5t-167.5 -25.5v-420h-126zM581 1358q-122 0 -212 -102t-90 -276v-458q73 4 150.5 23t159.5 61.5t146 101t105 149.5
t41 199q0 140 -78.5 221t-221.5 81z" />
    <glyph glyph-name="uni01F8" unicode="&#x1f8;" horiz-adv-x="1437" 
d="M173 0v1434h150l815 -1252v1252h126v-1434h-151l-814 1252v-1252h-126zM584 1817l222 -281h-141l-255 281h174z" />
    <glyph glyph-name="uni01F9" unicode="&#x1f9;" 
d="M153 998h120v-187q33 93 119 150t196 57q212 0 323.5 -120.5t111.5 -341.5v-556h-120v556q0 168 -76.5 263t-238.5 95t-238.5 -95t-76.5 -263v-556h-120v998zM455 1434l222 -281h-141l-255 281h174z" />
    <glyph glyph-name="Aringacute" unicode="&#x1fa;" horiz-adv-x="1490" 
d="M609 1833l204 225h174l-178 -175q51 -20 83.5 -66t32.5 -102q0 -73 -53 -126t-127 -53t-127 52.5t-53 126.5q0 66 44 118zM649 1715q0 -40 28 -68t68 -28t68 28t28 68t-28 68t-68 28t-68 -28t-28 -68zM408 455l-191 -455h-134l607 1434h110l607 -1434h-134l-191 455h-674
zM745 1255l-288 -684h576z" />
    <glyph glyph-name="aringacute" unicode="&#x1fb;" horiz-adv-x="1126" 
d="M446 1432l204 225h174l-178 -175q51 -20 83.5 -66t32.5 -102q0 -73 -53 -126t-127 -53t-127 52.5t-53 126.5q0 66 44 118zM486 1314q0 -40 28 -68t68 -28t68 28t28 68t-28 68t-68 28t-68 -28t-28 -68zM594 914q-72 0 -168.5 -22.5t-165.5 -57.5l-50 94q76 42 178 66
t206 24q95 0 162.5 -20t109.5 -54.5t66 -92t32.5 -121t8.5 -153.5v-577h-120v225q-35 -114 -133.5 -179.5t-235.5 -65.5q-78 0 -143.5 18.5t-117.5 55.5t-81 99t-29 143q0 70 27.5 126.5t72.5 94t107.5 64.5t129 41t140.5 20t138 5t125 -7q0 149 -56.5 211.5t-202.5 62.5z
M237 296q0 -104 69 -158t188 -54q160 0 259.5 101t99.5 252v111q-63 5 -126.5 5t-135.5 -6t-133 -24.5t-112 -46.5t-80 -74t-29 -106z" />
    <glyph glyph-name="AEacute" unicode="&#x1fc;" horiz-adv-x="2152" 
d="M1175 791h756v-116h-756v-559h824v-116h-950v521h-467l-351 -521h-148l963 1434h933v-116h-804v-527zM1049 1218l-390 -581h390v581zM1092 1536l222 281h174l-255 -281h-141z" />
    <glyph glyph-name="aeacute" unicode="&#x1fd;" horiz-adv-x="1915" 
d="M1327 84q211 0 332 118l80 -78q-150 -144 -412 -144q-144 0 -248.5 60t-162.5 171q-151 -231 -432 -231q-78 0 -143.5 18.5t-117.5 55.5t-81 99t-29 143q0 70 27.5 126.5t72.5 94t107.5 64.5t129 41t140.5 20t138 5t125 -7q0 149 -56.5 211.5t-202.5 62.5
q-72 0 -168.5 -22.5t-165.5 -57.5l-50 94q76 42 178 66t206 24q150 0 231.5 -47.5t115.5 -141.5q127 189 386 189q108 0 195.5 -35t151 -104.5t97 -179.5t30.5 -252h-820q2 -73 23 -136.5t61 -115t107.5 -81.5t154.5 -30zM237 296q0 -104 69 -158t188 -54q160 0 259.5 101
t99.5 252v111q-63 5 -126.5 5t-135.5 -6t-133 -24.5t-112 -46.5t-80 -74t-29 -106zM981 551h692q-2 76 -22.5 140.5t-61 115t-107.5 79t-155 28.5t-155 -28.5t-107.5 -79t-61 -115t-22.5 -140.5zM885 1153l222 281h174l-255 -281h-141z" />
    <glyph glyph-name="Oslashacute" unicode="&#x1fe;" horiz-adv-x="1686" 
d="M843 -20q-145 0 -273 46l-43 -87h-137l69 140q-156 94 -241 262.5t-85 375.5q0 154 48.5 288.5t137.5 234t224 157t300 57.5q144 0 268 -45l43 86h135l-68 -138q159 -94 245.5 -262.5t86.5 -377.5q0 -154 -48.5 -288.5t-137.5 -234t-224 -157t-300 -57.5zM843 96
q140 0 252 49.5t182.5 135.5t108 197t37.5 239q0 170 -65.5 310.5t-189.5 221.5l-546 -1116q100 -37 221 -37zM843 1338q-140 0 -252 -49.5t-182.5 -135.5t-108 -197t-37.5 -239q0 -169 64 -308.5t186 -220.5l546 1114q-100 36 -216 36zM765 1536l222 281h174l-255 -281
h-141z" />
    <glyph glyph-name="oslashacute" unicode="&#x1ff;" horiz-adv-x="1252" 
d="M113 499q0 227 143 373t370 146q90 0 176 -27l24 48h133l-49 -99q108 -67 168.5 -182t60.5 -259q0 -227 -143 -373t-370 -146q-91 0 -177 27l-23 -48h-132l48 98q-108 67 -168.5 182.5t-60.5 259.5zM626 914q-183 0 -286 -115t-103 -300q0 -112 39 -201.5t114 -143.5
l365 742q-64 18 -129 18zM1015 499q0 112 -39.5 201t-113.5 143l-366 -741q58 -18 130 -18q183 0 286 115t103 300zM545 1153l222 281h174l-255 -281h-141z" />
    <glyph glyph-name="uni0200" unicode="&#x200;" horiz-adv-x="1490" 
d="M408 455l-191 -455h-134l607 1434h110l607 -1434h-134l-191 455h-674zM745 1255l-288 -684h576zM461 1817l222 -281h-141l-255 281h174zM719 1817l222 -281h-141l-255 281h174z" />
    <glyph glyph-name="uni0201" unicode="&#x201;" horiz-adv-x="1126" 
d="M594 914q-72 0 -168.5 -22.5t-165.5 -57.5l-50 94q76 42 178 66t206 24q95 0 162.5 -20t109.5 -54.5t66 -92t32.5 -121t8.5 -153.5v-577h-120v225q-35 -114 -133.5 -179.5t-235.5 -65.5q-78 0 -143.5 18.5t-117.5 55.5t-81 99t-29 143q0 70 27.5 126.5t72.5 94
t107.5 64.5t129 41t140.5 20t138 5t125 -7q0 149 -56.5 211.5t-202.5 62.5zM237 296q0 -104 69 -158t188 -54q160 0 259.5 101t99.5 252v111q-63 5 -126.5 5t-135.5 -6t-133 -24.5t-112 -46.5t-80 -74t-29 -106zM296 1434l222 -281h-141l-255 281h174zM554 1434l222 -281
h-141l-255 281h174z" />
    <glyph glyph-name="uni0202" unicode="&#x202;" horiz-adv-x="1490" 
d="M745 1667q-167 0 -219 -131h-100q22 105 107.5 163.5t211.5 58.5t211.5 -58.5t107.5 -163.5h-100q-52 131 -219 131zM408 455l-191 -455h-134l607 1434h110l607 -1434h-134l-191 455h-674zM745 1255l-288 -684h576z" />
    <glyph glyph-name="uni0203" unicode="&#x203;" horiz-adv-x="1126" 
d="M581 1343q-167 0 -219 -131h-100q22 105 107.5 163.5t211.5 58.5t211.5 -58.5t107.5 -163.5h-100q-52 131 -219 131zM594 914q-72 0 -168.5 -22.5t-165.5 -57.5l-50 94q76 42 178 66t206 24q95 0 162.5 -20t109.5 -54.5t66 -92t32.5 -121t8.5 -153.5v-577h-120v225
q-35 -114 -133.5 -179.5t-235.5 -65.5q-78 0 -143.5 18.5t-117.5 55.5t-81 99t-29 143q0 70 27.5 126.5t72.5 94t107.5 64.5t129 41t140.5 20t138 5t125 -7q0 149 -56.5 211.5t-202.5 62.5zM237 296q0 -104 69 -158t188 -54q160 0 259.5 101t99.5 252v111q-63 5 -126.5 5
t-135.5 -6t-133 -24.5t-112 -46.5t-80 -74t-29 -106z" />
    <glyph glyph-name="uni0204" unicode="&#x204;" horiz-adv-x="1276" 
d="M299 791h756v-116h-756v-559h824v-116h-950v1434h940v-116h-814v-527zM372 1817l222 -281h-141l-255 281h174zM630 1817l222 -281h-141l-255 281h174z" />
    <glyph glyph-name="uni0205" unicode="&#x205;" horiz-adv-x="1175" 
d="M587 84q211 0 332 118l80 -78q-150 -144 -412 -144q-223 0 -348.5 141t-125.5 378t125.5 378t348.5 141q108 0 195.5 -35t151 -104.5t97 -179.5t30.5 -252h-820q2 -73 23 -136.5t61 -115t107.5 -81.5t154.5 -30zM241 551h692q-2 76 -22.5 140.5t-61 115t-107.5 79
t-155 28.5t-155 -28.5t-107.5 -79t-61 -115t-22.5 -140.5zM306 1434l222 -281h-141l-255 281h174zM564 1434l222 -281h-141l-255 281h174z" />
    <glyph glyph-name="uni0206" unicode="&#x206;" horiz-adv-x="1276" 
d="M648 1667q-167 0 -219 -131h-100q22 105 107.5 163.5t211.5 58.5t211.5 -58.5t107.5 -163.5h-100q-52 131 -219 131zM299 791h756v-116h-756v-559h824v-116h-950v1434h940v-116h-814v-527z" />
    <glyph glyph-name="uni0207" unicode="&#x207;" horiz-adv-x="1175" 
d="M592 1343q-167 0 -219 -131h-100q22 105 107.5 163.5t211.5 58.5t211.5 -58.5t107.5 -163.5h-100q-52 131 -219 131zM587 84q211 0 332 118l80 -78q-150 -144 -412 -144q-223 0 -348.5 141t-125.5 378t125.5 378t348.5 141q108 0 195.5 -35t151 -104.5t97 -179.5
t30.5 -252h-820q2 -73 23 -136.5t61 -115t107.5 -81.5t154.5 -30zM241 551h692q-2 76 -22.5 140.5t-61 115t-107.5 79t-155 28.5t-155 -28.5t-107.5 -79t-61 -115t-22.5 -140.5z" />
    <glyph glyph-name="uni0208" unicode="&#x208;" horiz-adv-x="514" 
d="M206 0v1434h126v-1434h-126zM-6 1817l222 -281h-141l-255 281h174zM252 1817l222 -281h-141l-255 281h174z" />
    <glyph glyph-name="uni0209" unicode="&#x209;" horiz-adv-x="534" 
d="M226 0v998h120v-998h-120zM1 1434l222 -281h-141l-255 281h174zM259 1434l222 -281h-141l-255 281h174z" />
    <glyph glyph-name="uni020A" unicode="&#x20a;" horiz-adv-x="518" 
d="M259 1667q-167 0 -219 -131h-100q22 105 107.5 163.5t211.5 58.5t211.5 -58.5t107.5 -163.5h-100q-52 131 -219 131zM196 0v1434h126v-1434h-126z" />
    <glyph glyph-name="uni020B" unicode="&#x20b;" horiz-adv-x="458" 
d="M229 1343q-167 0 -219 -131h-100q22 105 107.5 163.5t211.5 58.5t211.5 -58.5t107.5 -163.5h-100q-52 131 -219 131zM169 0v998h120v-998h-120z" />
    <glyph glyph-name="uni020C" unicode="&#x20c;" horiz-adv-x="1686" 
d="M843 -20q-165 0 -300 57.5t-224 157t-137.5 234t-48.5 288.5t48.5 288.5t137.5 234t224 157t300 57.5t300 -57.5t224 -157t137.5 -234t48.5 -288.5t-48.5 -288.5t-137.5 -234t-224 -157t-300 -57.5zM843 1338q-140 0 -252 -49.5t-182.5 -135.5t-108 -197t-37.5 -239
t37.5 -239t108 -197t182.5 -135.5t252 -49.5t252 49.5t182.5 135.5t108 197t37.5 239t-37.5 239t-108 197t-182.5 135.5t-252 49.5zM561 1817l222 -281h-141l-255 281h174zM819 1817l222 -281h-141l-255 281h174z" />
    <glyph glyph-name="uni020D" unicode="&#x20d;" horiz-adv-x="1252" 
d="M113 499q0 227 143 373t370 146t370 -146t143 -373t-143 -373t-370 -146t-370 146t-143 373zM1015 499q0 185 -103 300t-286 115t-286 -115t-103 -300t103 -300t286 -115t286 115t103 300zM346 1434l222 -281h-141l-255 281h174zM604 1434l222 -281h-141l-255 281h174z
" />
    <glyph glyph-name="uni020E" unicode="&#x20e;" horiz-adv-x="1686" 
d="M843 1667q-167 0 -219 -131h-100q22 105 107.5 163.5t211.5 58.5t211.5 -58.5t107.5 -163.5h-100q-52 131 -219 131zM843 -20q-165 0 -300 57.5t-224 157t-137.5 234t-48.5 288.5t48.5 288.5t137.5 234t224 157t300 57.5t300 -57.5t224 -157t137.5 -234t48.5 -288.5
t-48.5 -288.5t-137.5 -234t-224 -157t-300 -57.5zM843 1338q-140 0 -252 -49.5t-182.5 -135.5t-108 -197t-37.5 -239t37.5 -239t108 -197t182.5 -135.5t252 -49.5t252 49.5t182.5 135.5t108 197t37.5 239t-37.5 239t-108 197t-182.5 135.5t-252 49.5z" />
    <glyph glyph-name="uni020F" unicode="&#x20f;" horiz-adv-x="1252" 
d="M625 1343q-167 0 -219 -131h-100q22 105 107.5 163.5t211.5 58.5t211.5 -58.5t107.5 -163.5h-100q-52 131 -219 131zM113 499q0 227 143 373t370 146t370 -146t143 -373t-143 -373t-370 -146t-370 146t-143 373zM1015 499q0 185 -103 300t-286 115t-286 -115t-103 -300
t103 -300t286 -115t286 115t103 300z" />
    <glyph glyph-name="uni0210" unicode="&#x210;" horiz-adv-x="1353" 
d="M299 0h-126v1434h641q185 0 294.5 -115.5t109.5 -292.5q0 -161 -99 -272.5t-265 -130.5l366 -623h-138l-363 618h-420v-618zM814 1318h-515v-584h515q135 0 205.5 82t70.5 210t-70.5 210t-205.5 82zM332 1817l222 -281h-141l-255 281h174zM590 1817l222 -281h-141
l-255 281h174z" />
    <glyph glyph-name="uni0211" unicode="&#x211;" horiz-adv-x="864" 
d="M154 998h120v-187q33 93 119 150t196 57q121 0 212 -41l-59 -93q-63 30 -153 30q-162 0 -238.5 -95t-76.5 -263v-556h-120v998zM227 1434l222 -281h-141l-255 281h174zM485 1434l222 -281h-141l-255 281h174z" />
    <glyph glyph-name="uni0212" unicode="&#x212;" horiz-adv-x="1353" 
d="M619 1667q-167 0 -219 -131h-100q22 105 107.5 163.5t211.5 58.5t211.5 -58.5t107.5 -163.5h-100q-52 131 -219 131zM299 0h-126v1434h641q185 0 294.5 -115.5t109.5 -292.5q0 -161 -99 -272.5t-265 -130.5l366 -623h-138l-363 618h-420v-618zM814 1318h-515v-584h515
q135 0 205.5 82t70.5 210t-70.5 210t-205.5 82z" />
    <glyph glyph-name="uni0213" unicode="&#x213;" horiz-adv-x="863" 
d="M475 1343q-167 0 -219 -131h-100q22 105 107.5 163.5t211.5 58.5t211.5 -58.5t107.5 -163.5h-100q-52 131 -219 131zM153 998h120v-187q33 93 119 150t196 57q121 0 212 -41l-59 -93q-63 30 -153 30q-162 0 -238.5 -95t-76.5 -263v-556h-120v998z" />
    <glyph glyph-name="uni0214" unicode="&#x214;" horiz-adv-x="1468" 
d="M734 96q206 0 320.5 135.5t114.5 362.5v840h126v-840q0 -144 -41.5 -260t-116 -193.5t-177.5 -119t-226 -41.5t-226 41.5t-177.5 119t-116 193.5t-41.5 260v840h126v-840q0 -227 114.5 -362.5t320.5 -135.5zM462 1817l222 -281h-141l-255 281h174zM720 1817l222 -281
h-141l-255 281h174z" />
    <glyph glyph-name="uni0215" unicode="&#x215;" horiz-adv-x="1187" 
d="M1034 0h-120v187q-33 -93 -119 -150t-196 -57q-212 0 -323.5 120.5t-111.5 341.5v556h120v-556q0 -168 76.5 -263t238.5 -95t238.5 95t76.5 263v556h120v-998zM327 1434l222 -281h-141l-255 281h174zM585 1434l222 -281h-141l-255 281h174z" />
    <glyph glyph-name="uni0216" unicode="&#x216;" horiz-adv-x="1468" 
d="M733 1667q-167 0 -219 -131h-100q22 105 107.5 163.5t211.5 58.5t211.5 -58.5t107.5 -163.5h-100q-52 131 -219 131zM734 96q206 0 320.5 135.5t114.5 362.5v840h126v-840q0 -144 -41.5 -260t-116 -193.5t-177.5 -119t-226 -41.5t-226 41.5t-177.5 119t-116 193.5
t-41.5 260v840h126v-840q0 -227 114.5 -362.5t320.5 -135.5z" />
    <glyph glyph-name="uni0217" unicode="&#x217;" 
d="M587 1343q-167 0 -219 -131h-100q22 105 107.5 163.5t211.5 58.5t211.5 -58.5t107.5 -163.5h-100q-52 131 -219 131zM1023 0h-120v187q-33 -93 -119 -150t-196 -57q-212 0 -323.5 120.5t-111.5 341.5v556h120v-556q0 -168 76.5 -263t238.5 -95t238.5 95t76.5 263v556h120
v-998z" />
    <glyph glyph-name="Scommaaccent" unicode="&#x218;" horiz-adv-x="1263" 
d="M1080 1334l-65 -96q-158 100 -399 100q-75 0 -136.5 -14t-109.5 -43t-74.5 -78t-26.5 -115q0 -106 86.5 -171.5t290.5 -111.5q134 -30 224.5 -65.5t155.5 -86.5t94.5 -120.5t29.5 -163.5q0 -79 -25.5 -143.5t-70.5 -109.5t-107.5 -76t-135.5 -45.5t-156 -14.5
q-178 0 -319 43t-223 116l65 96q88 -64 211 -101.5t266 -37.5q178 0 271.5 68.5t93.5 204.5q0 129 -84.5 198t-310.5 116q-251 54 -368.5 154.5t-117.5 250.5q0 172 123 269t354 97q303 0 464 -120zM424 -532l158 416h150l-189 -416h-119z" />
    <glyph glyph-name="scommaaccent" unicode="&#x219;" horiz-adv-x="984" 
d="M843 928l-59 -91q-136 77 -301 77q-118 0 -185.5 -40t-67.5 -120q0 -75 63 -116t214 -69q204 -39 294 -109.5t90 -201.5q0 -134 -100.5 -206t-291.5 -72q-126 0 -232.5 29t-173.5 77l59 91q156 -93 347 -93q272 0 272 174q0 87 -63 131t-222 74q-205 39 -290.5 108.5
t-85.5 182.5q0 118 94.5 191t278.5 73q218 0 360 -90zM270 -532l158 416h150l-189 -416h-119z" />
    <glyph glyph-name="uni021A" unicode="&#x21a;" horiz-adv-x="1372" 
d="M113 1434h1146v-116h-510v-1318h-126v1318h-510v116zM452 -532l158 416h150l-189 -416h-119z" />
    <glyph glyph-name="uni021B" unicode="&#x21b;" horiz-adv-x="856" 
d="M93 894v104h211v299h120v-299h309v-104h-309v-451q0 -54 1 -88.5t5.5 -76.5t12.5 -68t22.5 -52.5t35 -41t50.5 -23.5t69 -9q58 0 112 18l31 -98q-57 -24 -143 -24q-98 0 -160.5 28t-96.5 90t-46.5 142t-12.5 203v451h-211zM317 -532l158 416h150l-189 -416h-119z" />
    <glyph glyph-name="uni021C" unicode="&#x21c;" horiz-adv-x="1051" 
d="M133 -116l-20 116q103 2 196 14.5t187 43.5t162 77.5t110.5 122t42.5 171.5q0 85 -35 142.5t-94 82t-136.5 32t-163.5 -7.5l-15 116q58 8 113.5 22t117.5 42t106.5 64.5t71.5 92t21 122.5q-8 86 -67 143t-186 57q-108 0 -190.5 -56.5t-108.5 -155.5l-122 31
q24 92 88 160.5t149.5 103t182.5 34.5q159 0 264.5 -81t115.5 -222q6 -77 -16.5 -142.5t-64.5 -112t-87 -77.5t-96 -53q50 -8 97 -31.5t88 -62t66.5 -99.5t26.5 -136q2 -91 -24.5 -167.5t-72.5 -130t-106.5 -96.5t-127.5 -69t-134 -45t-128 -27.5t-108 -13t-75 -4.5h-28z
" />
    <glyph glyph-name="uni021D" unicode="&#x21d;" horiz-adv-x="901" 
d="M128 -263l-15 104q554 24 554 327q0 124 -92 178t-256 33l-8 104q24 1 62 8.5t88.5 28t93 49.5t72 77t29.5 107q0 71 -44 116t-137 45q-172 0 -246 -163l-103 52q53 110 138 162.5t210 52.5q137 0 219.5 -69.5t82.5 -180.5q0 -214 -221 -310q105 -21 167.5 -95.5
t64.5 -189.5q1 -77 -25 -141.5t-69 -108.5t-101.5 -78t-118.5 -54t-126.5 -32.5t-118.5 -17t-100 -4.5z" />
    <glyph glyph-name="uni021E" unicode="&#x21e;" horiz-adv-x="1425" 
d="M1126 792v642h126v-1434h-126v676h-827v-676h-126v1434h126v-642h827zM988 1847l-252 -311h-48l-252 311h107l169 -185l169 185h107z" />
    <glyph glyph-name="uni021F" unicode="&#x21f;" 
d="M273 556v-556h-120v1516h120v-705q33 93 119 150t196 57q212 0 323.5 -120.5t111.5 -341.5v-556h-120v556q0 168 -76.5 263t-238.5 95t-238.5 -95t-76.5 -263zM864 1847l-252 -311h-48l-252 311h107l169 -185l169 185h107z" />
    <glyph glyph-name="uni0220" unicode="&#x220;" 
d="M273 992v-992h-120v1434h120v-187q41 95 124 151t191 56q212 0 323.5 -120.5t111.5 -341.5v-1524h-120v1524q0 168 -76.5 263t-238.5 95t-238.5 -95t-76.5 -263z" />
    <glyph glyph-name="uni0221" unicode="&#x221;" horiz-adv-x="1284" 
d="M983 0v217q-41 -97 -144.5 -167t-228.5 -70q-219 0 -358 144.5t-139 374.5t139 374.5t358 144.5q125 0 228.5 -70t144.5 -167v735h120v-1490q25 28 68.5 44.5t87.5 16.5q94 0 143 -48.5t49 -119.5q0 -85 -60 -144t-164 -59q-120 0 -177 79q-12 -19 -26 -45t-22 -42
l-8 -17l-102 54q39 92 100 169q-9 25 -9 86zM610 914q-170 0 -271.5 -117t-101.5 -298t101.5 -298t271.5 -117t271.5 117t101.5 298t-101.5 298t-271.5 117zM1227 -169q54 0 82 22.5t28 59.5q0 60 -80 60q-33 0 -69 -21.5t-63 -55.5q3 -25 31.5 -45t70.5 -20z" />
    <glyph glyph-name="uni0222" unicode="&#x222;" horiz-adv-x="1136" 
d="M568 -20q-205 0 -330 121.5t-125 322.5q0 127 63.5 231t165.5 161q-96 65 -138.5 156.5t-42.5 216.5q0 179 116 316l107 -68q-97 -112 -97 -248q0 -151 69 -236t212 -85t212 85t69 236q0 136 -97 248l107 68q116 -137 116 -316q0 -125 -42.5 -216.5t-138.5 -156.5
q102 -57 165.5 -161t63.5 -231q0 -201 -125 -322.5t-330 -121.5zM568 96q153 0 241 90t88 238t-88 238t-241 90t-241 -90t-88 -238t88 -238t241 -90z" />
    <glyph glyph-name="uni0223" unicode="&#x223;" horiz-adv-x="950" 
d="M475 -20q-165 0 -263.5 96t-98.5 259q0 99 50.5 183.5t129.5 123.5q-152 90 -152 291q0 144 101 260l103 -64q-84 -101 -84 -196q0 -111 53 -177t161 -66t161 66t53 177q0 95 -84 196l103 64q101 -116 101 -260q0 -201 -152 -291q79 -39 129.5 -123.5t50.5 -183.5
q0 -163 -98.5 -259t-263.5 -96zM475 84q122 0 182 66t60 185q0 113 -59 182t-183 69t-183 -69t-59 -182q0 -119 60 -185t182 -66z" />
    <glyph glyph-name="uni0224" unicode="&#x224;" horiz-adv-x="1384" 
d="M1221 116v-116q-7 -1 -18.5 -4t-41.5 -15.5t-53.5 -29.5t-43 -47.5t-21.5 -67.5q-2 -43 24.5 -67.5t56.5 -30t67 -3.5v-110q-39 -5 -77 0t-72.5 21t-59 41t-35.5 64t-2 87q8 44 33 77.5t57 51t50 24t31 9.5h-963v71l893 1247h-866v116h1051v-71l-893 -1247h883z" />
    <glyph glyph-name="uni0225" unicode="&#x225;" horiz-adv-x="1093" 
d="M133 0v61l649 833h-613v104h791v-60l-649 -834h649v-104q-14 -3 -35.5 -10.5t-56.5 -25t-59.5 -51t-26.5 -77.5q-2 -43 24.5 -67.5t56.5 -30t67 -3.5v-110q-39 -5 -77 0t-72.5 21t-59 41t-35.5 64t-2 87q8 44 33 77.5t57 51t50 24t31 9.5h-722z" />
    <glyph glyph-name="uni0226" unicode="&#x226;" horiz-adv-x="1490" 
d="M408 455l-191 -455h-134l607 1434h110l607 -1434h-134l-191 455h-674zM745 1255l-288 -684h576zM659 1642q0 35 25.5 60.5t60.5 25.5t60.5 -25.5t25.5 -60.5t-25.5 -60.5t-60.5 -25.5t-60.5 25.5t-25.5 60.5z" />
    <glyph glyph-name="uni0227" unicode="&#x227;" horiz-adv-x="1126" 
d="M594 914q-72 0 -168.5 -22.5t-165.5 -57.5l-50 94q76 42 178 66t206 24q95 0 162.5 -20t109.5 -54.5t66 -92t32.5 -121t8.5 -153.5v-577h-120v225q-35 -114 -133.5 -179.5t-235.5 -65.5q-78 0 -143.5 18.5t-117.5 55.5t-81 99t-29 143q0 70 27.5 126.5t72.5 94
t107.5 64.5t129 41t140.5 20t138 5t125 -7q0 149 -56.5 211.5t-202.5 62.5zM237 296q0 -104 69 -158t188 -54q160 0 259.5 101t99.5 252v111q-63 5 -126.5 5t-135.5 -6t-133 -24.5t-112 -46.5t-80 -74t-29 -106zM495 1287q0 35 25.5 60.5t60.5 25.5t60.5 -25.5t25.5 -60.5
t-25.5 -60.5t-60.5 -25.5t-60.5 25.5t-25.5 60.5z" />
    <glyph glyph-name="uni0228" unicode="&#x228;" horiz-adv-x="1276" 
d="M465 -405l39 73q31 -14 68 -22.5t76 -9t67.5 20t34.5 60.5q5 35 -12.5 56t-55 26.5t-72 4.5t-81.5 -6l71 202h-427v1434h940v-116h-814v-527h756v-116h-756v-559h824v-116h-424l-43 -125q93 2 148 -38t47 -122q-7 -72 -53 -113t-107 -48t-122.5 4t-103.5 37z" />
    <glyph glyph-name="uni0229" unicode="&#x229;" horiz-adv-x="1175" 
d="M411 -405l39 73q31 -14 68 -22.5t76 -9t67.5 20t34.5 60.5q5 35 -12.5 56t-55 26.5t-72 4.5t-81.5 -6l65 184q-202 15 -314.5 153.5t-112.5 363.5q0 237 125.5 378t348.5 141q108 0 195.5 -35t151 -104.5t97 -179.5t30.5 -252h-820q2 -73 23 -136.5t61 -115t107.5 -81.5
t154.5 -30q211 0 332 118l80 -78q-136 -130 -360 -142l-37 -107q93 2 148 -38t47 -122q-7 -72 -53 -113t-107 -48t-122.5 4t-103.5 37zM241 551h692q-2 76 -22.5 140.5t-61 115t-107.5 79t-155 28.5t-155 -28.5t-107.5 -79t-61 -115t-22.5 -140.5z" />
    <glyph glyph-name="uni022A" unicode="&#x22a;" horiz-adv-x="1686" 
d="M843 -20q-165 0 -300 57.5t-224 157t-137.5 234t-48.5 288.5t48.5 288.5t137.5 234t224 157t300 57.5t300 -57.5t224 -157t137.5 -234t48.5 -288.5t-48.5 -288.5t-137.5 -234t-224 -157t-300 -57.5zM843 1338q-140 0 -252 -49.5t-182.5 -135.5t-108 -197t-37.5 -239
t37.5 -239t108 -197t182.5 -135.5t252 -49.5t252 49.5t182.5 135.5t108 197t37.5 239t-37.5 239t-108 197t-182.5 135.5t-252 49.5zM586 1642q0 35 25.5 60.5t60.5 25.5t60.5 -25.5t25.5 -60.5t-25.5 -60.5t-60.5 -25.5t-60.5 25.5t-25.5 60.5zM928 1642q0 35 25.5 60.5
t60.5 25.5t60.5 -25.5t25.5 -60.5t-25.5 -60.5t-60.5 -25.5t-60.5 25.5t-25.5 60.5zM500 1817v104h686v-104h-686z" />
    <glyph glyph-name="uni022B" unicode="&#x22b;" horiz-adv-x="1252" 
d="M113 499q0 227 143 373t370 146t370 -146t143 -373t-143 -373t-370 -146t-370 146t-143 373zM1015 499q0 185 -103 300t-286 115t-286 -115t-103 -300t103 -300t286 -115t286 115t103 300zM368 1287q0 35 25.5 60.5t60.5 25.5t60.5 -25.5t25.5 -60.5t-25.5 -60.5
t-60.5 -25.5t-60.5 25.5t-25.5 60.5zM710 1287q0 35 25.5 60.5t60.5 25.5t60.5 -25.5t25.5 -60.5t-25.5 -60.5t-60.5 -25.5t-60.5 25.5t-25.5 60.5zM282 1462v104h686v-104h-686z" />
    <glyph glyph-name="uni022C" unicode="&#x22c;" horiz-adv-x="1686" 
d="M843 -20q-165 0 -300 57.5t-224 157t-137.5 234t-48.5 288.5t48.5 288.5t137.5 234t224 157t300 57.5t300 -57.5t224 -157t137.5 -234t48.5 -288.5t-48.5 -288.5t-137.5 -234t-224 -157t-300 -57.5zM843 1338q-140 0 -252 -49.5t-182.5 -135.5t-108 -197t-37.5 -239
t37.5 -239t108 -197t182.5 -135.5t252 -49.5t252 49.5t182.5 135.5t108 197t37.5 239t-37.5 239t-108 197t-182.5 135.5t-252 49.5zM803 1597q-2 2 -8.5 9t-8.5 9t-7.5 8t-8 7.5t-7.5 5.5t-8.5 5.5t-8.5 4t-10 3t-10 0.5q-23 0 -35.5 -20.5t-13.5 -41.5l-1 -21h-116
q0 8 0.5 21t9 46t24 58.5t50 46.5t82.5 21q12 0 24 -1.5t21 -3.5t19 -6.5t16.5 -7t16 -9.5t13.5 -10t12.5 -11.5l11 -11t11 -11.5t10.5 -11t8.5 -9t8.5 -9t7.5 -8t8 -7.5t7.5 -5.5t8.5 -5.5t8.5 -4t10 -3t10 -0.5q23 0 35.5 21t13.5 41l1 21h116q0 -8 -0.5 -21t-9 -46
t-24 -58.5t-50 -46.5t-82.5 -21q-12 0 -24 1.5t-21 3.5t-19 6.5t-16.5 7t-16 9.5t-13.5 10t-12.5 11.5l-11 11t-11 11.5t-10.5 11zM500 1817v104h686v-104h-686z" />
    <glyph glyph-name="uni022D" unicode="&#x22d;" horiz-adv-x="1252" 
d="M113 499q0 227 143 373t370 146t370 -146t143 -373t-143 -373t-370 -146t-370 146t-143 373zM1015 499q0 185 -103 300t-286 115t-286 -115t-103 -300t103 -300t286 -115t286 115t103 300zM585 1242q-2 2 -8.5 9t-8.5 9t-7.5 8t-8 7.5t-7.5 5.5t-8.5 5.5t-8.5 4t-10 3
t-10 0.5q-23 0 -35.5 -21t-13.5 -41l-1 -21h-116q0 8 0.5 21t9 46t24 58.5t50 46.5t82.5 21q12 0 24 -1.5t21 -3.5t19 -6.5t16.5 -7t16 -9.5t13.5 -10t12.5 -11.5l11 -11t11 -11.5t10.5 -11t8.5 -9t8.5 -9t7.5 -8t8 -7.5t7.5 -5.5t8.5 -5.5t8.5 -4t10 -3t10 -0.5
q23 0 35.5 20.5t13.5 41.5l1 21h116q0 -8 -0.5 -21t-9 -46t-24 -58.5t-50 -46.5t-82.5 -21q-12 0 -24 1.5t-21 3.5t-19 6.5t-16.5 7t-16 9.5t-13.5 10t-12.5 11.5l-11 11t-11 11.5t-10.5 11zM282 1462v104h686v-104h-686z" />
    <glyph glyph-name="uni022E" unicode="&#x22e;" horiz-adv-x="1686" 
d="M843 -20q-165 0 -300 57.5t-224 157t-137.5 234t-48.5 288.5t48.5 288.5t137.5 234t224 157t300 57.5t300 -57.5t224 -157t137.5 -234t48.5 -288.5t-48.5 -288.5t-137.5 -234t-224 -157t-300 -57.5zM843 1338q-140 0 -252 -49.5t-182.5 -135.5t-108 -197t-37.5 -239
t37.5 -239t108 -197t182.5 -135.5t252 -49.5t252 49.5t182.5 135.5t108 197t37.5 239t-37.5 239t-108 197t-182.5 135.5t-252 49.5zM756 1630q0 35 25.5 60.5t60.5 25.5t60.5 -25.5t25.5 -60.5t-25.5 -60.5t-60.5 -25.5t-60.5 25.5t-25.5 60.5z" />
    <glyph glyph-name="uni022F" unicode="&#x22f;" horiz-adv-x="1252" 
d="M113 499q0 227 143 373t370 146t370 -146t143 -373t-143 -373t-370 -146t-370 146t-143 373zM1015 499q0 185 -103 300t-286 115t-286 -115t-103 -300t103 -300t286 -115t286 115t103 300zM539 1287q0 35 25.5 60.5t60.5 25.5t60.5 -25.5t25.5 -60.5t-25.5 -60.5
t-60.5 -25.5t-60.5 25.5t-25.5 60.5z" />
    <glyph glyph-name="uni0230" unicode="&#x230;" horiz-adv-x="1686" 
d="M843 -20q-165 0 -300 57.5t-224 157t-137.5 234t-48.5 288.5t48.5 288.5t137.5 234t224 157t300 57.5t300 -57.5t224 -157t137.5 -234t48.5 -288.5t-48.5 -288.5t-137.5 -234t-224 -157t-300 -57.5zM843 1338q-140 0 -252 -49.5t-182.5 -135.5t-108 -197t-37.5 -239
t37.5 -239t108 -197t182.5 -135.5t252 -49.5t252 49.5t182.5 135.5t108 197t37.5 239t-37.5 239t-108 197t-182.5 135.5t-252 49.5zM757 1642q0 35 25.5 60.5t60.5 25.5t60.5 -25.5t25.5 -60.5t-25.5 -60.5t-60.5 -25.5t-60.5 25.5t-25.5 60.5zM500 1817v104h686v-104h-686z
" />
    <glyph glyph-name="uni0231" unicode="&#x231;" horiz-adv-x="1252" 
d="M113 499q0 227 143 373t370 146t370 -146t143 -373t-143 -373t-370 -146t-370 146t-143 373zM1015 499q0 185 -103 300t-286 115t-286 -115t-103 -300t103 -300t286 -115t286 115t103 300zM539 1287q0 35 25.5 60.5t60.5 25.5t60.5 -25.5t25.5 -60.5t-25.5 -60.5
t-60.5 -25.5t-60.5 25.5t-25.5 60.5zM282 1462v104h686v-104h-686z" />
    <glyph glyph-name="uni0232" unicode="&#x232;" horiz-adv-x="1408" 
d="M233 1434l471 -705l471 705h150l-558 -836v-598h-126v598l-558 836h150zM361 1536v104h686v-104h-686z" />
    <glyph glyph-name="uni0233" unicode="&#x233;" horiz-adv-x="1084" 
d="M481 0l-418 998h130l349 -856l349 856h130l-539 -1287q-21 -49 -34 -76.5t-37 -64.5t-47 -55.5t-59 -32.5t-79 -14q-97 0 -163 36l46 92q55 -25 107 -25q14 0 26.5 3t22.5 6t20 11.5t17 13.5t15.5 19t13 20.5t13 24.5t12 25.5t13 29.5t12.5 30zM199 1330v104h686v-104
h-686z" />
    <glyph glyph-name="uni0234" unicode="&#x234;" horiz-adv-x="775" 
d="M244 238v1278h120v-1252q25 28 68.5 44.5t87.5 16.5q94 0 143 -48.5t49 -119.5q0 -85 -60 -144t-164 -59q-120 0 -177 79q-12 -19 -26 -45t-22 -42l-8 -17l-102 54q39 92 100 169q-9 25 -9 86zM488 69q54 0 82 22.5t28 59.5q0 60 -80 60q-33 0 -69 -21.5t-63 -55.5
q3 -25 31.5 -45t70.5 -20z" />
    <glyph glyph-name="uni0235" unicode="&#x235;" horiz-adv-x="1184" 
d="M153 998h120v-187q33 93 119 150t196 57q212 0 323.5 -120.5t111.5 -341.5v-530q25 28 68.5 44.5t87.5 16.5q94 0 143 -48.5t49 -119.5q0 -85 -60 -144t-164 -59q-120 0 -177 79q-12 -19 -26 -45t-22 -42l-8 -17l-102 54q39 92 100 169q-9 25 -9 86v556q0 168 -76.5 263
t-238.5 95t-238.5 -95t-76.5 -263v-556h-120v998zM1147 -169q54 0 82 22.5t28 59.5q0 60 -80 60q-33 0 -69 -21.5t-63 -55.5q3 -25 31.5 -45t70.5 -20z" />
    <glyph glyph-name="uni0236" unicode="&#x236;" horiz-adv-x="865" 
d="M580 325q94 0 143 -48.5t49 -119.5q0 -85 -60 -144t-164 -59q-120 0 -177 79q-12 -19 -26 -45t-22 -42l-8 -17l-102 54q39 92 100 169q-9 25 -9 86v656h-211v104h211v299h120v-299h309v-104h-309v-630q25 28 68.5 44.5t87.5 16.5zM548 69q54 0 82 22.5t28 59.5
q0 60 -80 60q-33 0 -69 -21.5t-63 -55.5q3 -25 31.5 -45t70.5 -20z" />
    <glyph glyph-name="uni0237" unicode="&#x237;" horiz-adv-x="454" 
d="M-147 -506l34 98q60 -20 117 -20q37 0 65 10.5t46.5 25t31.5 44t19.5 53.5t10 68.5t4 73.5t0.5 82v1069h120v-1069q0 -95 -6.5 -162t-25 -127t-51 -95.5t-86 -56t-128.5 -20.5q-92 0 -151 26z" />
    <glyph glyph-name="uni0238" unicode="&#x238;" horiz-adv-x="2086" 
d="M1103 0h-120v217q-40 -96 -147 -166.5t-226 -70.5q-214 0 -355.5 145.5t-141.5 373.5t141.5 373.5t355.5 145.5q119 0 226 -70.5t147 -166.5v735h120v-735q40 96 147 166.5t226 70.5q214 0 355.5 -145.5t141.5 -373.5t-141.5 -373.5t-355.5 -145.5q-119 0 -226 70.5
t-147 166.5v-217zM1476 914q-159 0 -266 -119t-107 -296t107 -296t266 -119t266 119t107 296t-107 296t-266 119zM610 914q-159 0 -266 -119t-107 -296t107 -296t266 -119t266 119t107 296t-107 296t-266 119z" />
    <glyph glyph-name="uni0239" unicode="&#x239;" horiz-adv-x="2086" 
d="M983 998h120v-217q40 96 147 166.5t226 70.5q214 0 355.5 -145.5t141.5 -373.5t-141.5 -373.5t-355.5 -145.5q-119 0 -226 70.5t-147 166.5v-749h-120v749q-40 -96 -147 -166.5t-226 -70.5q-214 0 -355.5 145.5t-141.5 373.5t141.5 373.5t355.5 145.5q119 0 226 -70.5
t147 -166.5v217zM1476 84q159 0 266 119t107 296t-107 296t-266 119t-266 -119t-107 -296t107 -296t266 -119zM610 84q159 0 266 119t107 296t-107 296t-266 119t-266 -119t-107 -296t107 -296t266 -119z" />
    <glyph glyph-name="uni023A" unicode="&#x23a;" horiz-adv-x="1490" 
d="M408 455l-191 -455h-134l607 1434h110l93 -221l198 494h132l-262 -654l446 -1053h-134l-191 455h-361l-292 -729h-132l292 729h-181zM745 1255l-288 -684h178l194 483zM767 571h266l-136 323z" />
    <glyph glyph-name="uni023B" unicode="&#x23b;" horiz-adv-x="1410" 
d="M1003 1443l106 264h132l-117 -291q99 -30 173 -85l-69 -97q-65 43 -149 70l-467 -1167q102 -41 231 -41q230 0 385 104l69 -97q-167 -123 -454 -123q-148 0 -275 47l-121 -301h-132l142 355q-155 94 -239.5 261.5t-84.5 374.5q0 154 48.5 288.5t137.5 234t224 157
t300 57.5q85 0 160 -11zM263 717q0 -166 61 -303t179 -219l455 1135q-58 8 -115 8q-140 0 -252 -49.5t-182.5 -135.5t-108 -197t-37.5 -239z" />
    <glyph glyph-name="uni023C" unicode="&#x23c;" horiz-adv-x="1084" 
d="M727 1011l79 197h116l-89 -223q85 -31 158 -91l-67 -84q-59 48 -131 74l-309 -778q62 -22 142 -22q169 0 298 104l67 -84q-150 -124 -365 -124q-95 0 -181 28l-76 -193h-117l95 239q-110 67 -172 183t-62 262q0 227 143 373t370 146q45 0 101 -7zM237 499
q0 -231 150 -343l300 754q-40 4 -61 4q-183 0 -286 -115t-103 -300z" />
    <glyph glyph-name="uni023D" unicode="&#x23d;" horiz-adv-x="1357" 
d="M486 679v-563h738v-116h-864v679h-307v116h307v639h126v-639h307v-116h-307z" />
    <glyph glyph-name="uni023E" unicode="&#x23e;" horiz-adv-x="1342" 
d="M1054 1434h205v-116h-251l-259 -647v-671h-126v357l-253 -631h-132l385 960v632h-510v116h809l110 273h132zM749 1318v-317l127 317h-127z" />
    <glyph glyph-name="uni023F" unicode="&#x23f;" horiz-adv-x="987" 
d="M846 928l-59 -91q-136 77 -301 77q-118 0 -185.5 -40t-67.5 -120q0 -75 63 -116t214 -69q204 -39 294 -109.5t90 -201.5q0 -134 -100.5 -206t-291.5 -72q-162 0 -292 47q-1 -50 12 -95t42.5 -85.5t85 -64.5t130.5 -24q51 0 96 11t73.5 25.5t56 37t39 36t26.5 32.5
l107 -60q-21 -33 -51 -63.5t-78 -63t-118 -52.5t-151 -20q-93 0 -165.5 29t-115.5 74.5t-69 105.5t-33 119t-1 117l59 91q156 -93 347 -93q272 0 272 174q0 87 -63 131t-222 74q-205 39 -290.5 108.5t-85.5 182.5q0 118 94.5 191t278.5 73q218 0 360 -90z" />
    <glyph glyph-name="uni0240" unicode="&#x240;" horiz-adv-x="1093" 
d="M133 0v61l649 833h-613v104h791v-60l-649 -834h649v-104h-706q1 -116 78 -184t201 -68q188 0 314 129l93 -78q-26 -29 -59 -55t-83 -53t-118.5 -43.5t-146.5 -16.5q-89 0 -160.5 23.5t-115 61t-72.5 87t-40.5 98.5t-11.5 99z" />
    <glyph glyph-name="uni0241" unicode="&#x241;" horiz-adv-x="1142" 
d="M216 1145l-103 62q13 24 30 48.5t56.5 62.5t85.5 66t119 49t156 21q97 0 176.5 -21.5t133 -57.5t90 -85.5t53 -104t16.5 -113.5q0 -72 -21.5 -134t-70 -119.5t-137 -98.5t-211.5 -58v-662h-126v753q206 7 323 86t117 233q0 122 -88.5 194t-254.5 72q-225 0 -344 -193z
" />
    <glyph glyph-name="uni0242" unicode="&#x242;" horiz-adv-x="1142" 
d="M216 709l-103 62q13 24 30 48.5t56.5 62.5t85.5 66t119 49t156 21q97 0 176.5 -21.5t133 -57.5t90 -85.5t53 -104t16.5 -113.5q0 -72 -21.5 -134t-70 -119.5t-137 -98.5t-211.5 -58v-758h-126v849q206 7 323 86t117 233q0 122 -88.5 194t-254.5 72q-225 0 -344 -193z" />
    <glyph glyph-name="uni0243" unicode="&#x243;" horiz-adv-x="1482" 
d="M53 349v116h216v969h609q198 0 310 -105t112 -266q0 -122 -61 -198.5t-152 -113.5q50 -19 92.5 -46t83 -68t63.5 -100.5t23 -132.5q0 -85 -30 -158t-87 -128t-148 -86.5t-206 -31.5h-609v349h-216zM395 116h483q166 0 254.5 73.5t88.5 214.5q0 138 -94 213t-249 75h-483
v-227h216v-116h-216v-233zM395 808h483q130 0 212 64.5t82 190.5q0 129 -76.5 192t-217.5 63h-483v-510z" />
    <glyph glyph-name="uni0244" unicode="&#x244;" horiz-adv-x="1727" 
d="M113 716v116h190v602h126v-602h870v602h126v-602h189v-116h-189v-122q0 -144 -41.5 -260t-116 -193.5t-177.5 -119t-226 -41.5t-226 41.5t-177.5 119t-116 193.5t-41.5 260v122h-190zM864 96q206 0 320.5 135.5t114.5 362.5v122h-870v-122q0 -227 114.5 -362.5
t320.5 -135.5z" />
    <glyph glyph-name="uni0245" unicode="&#x245;" horiz-adv-x="1490" 
d="M1273 0l-528 1255l-528 -1255h-134l607 1434h110l607 -1434h-134z" />
    <glyph glyph-name="uni0246" unicode="&#x246;" horiz-adv-x="1276" 
d="M736 791h319v-116h-366l-224 -559h658v-116h-704l-110 -274h-132l110 274h-114v1434h688l110 273h132l-110 -273h120v-116h-166zM299 1318v-527h305l211 527h-516zM299 675v-559h34l224 559h-258z" />
    <glyph glyph-name="uni0247" unicode="&#x247;" horiz-adv-x="1175" 
d="M587 84q211 0 332 118l80 -78q-150 -144 -412 -144q-79 0 -146 18l-72 -183h-117l89 223q-111 62 -169.5 181t-58.5 280q0 237 125.5 378t348.5 141q68 0 137 -16l82 206h116l-98 -245q117 -62 179 -192t58 -324h-441l-139 -350q46 -13 106 -13zM587 914
q-88 0 -155 -28.5t-107.5 -79t-61 -115t-22.5 -140.5h304l140 352q-47 11 -98 11zM661 551h272q-5 220 -149 311zM382 142l121 305h-262q2 -96 37 -176.5t104 -128.5z" />
    <glyph glyph-name="uni0248" unicode="&#x248;" horiz-adv-x="1223" 
d="M113 219l117 38q87 -161 279 -161q162 0 225 85.5t63 256.5v350h-270v116h270v530h126v-530h270v-116h-270v-350q0 -458 -414 -458q-87 0 -158 21.5t-117 58t-75 75.5t-46 84z" />
    <glyph glyph-name="uni0249" unicode="&#x249;" horiz-adv-x="659" 
d="M-47 -506l34 98q60 -20 117 -20q37 0 65 10.5t46.5 25t31.5 44t19.5 53.5t10 68.5t4 73.5t0.5 82v677h-225v104h225v288h120v-288h225v-104h-225v-677q0 -95 -6.5 -162t-25 -127t-51 -95.5t-86 -56t-128.5 -20.5q-92 0 -151 26zM255 1287q0 35 25.5 60.5t60.5 25.5
t60.5 -25.5t25.5 -60.5t-25.5 -60.5t-60.5 -25.5t-60.5 25.5t-25.5 60.5z" />
    <glyph glyph-name="uni024A" unicode="&#x24a;" horiz-adv-x="1714" 
d="M823 -20q-165 0 -300 57.5t-224 157t-137.5 234t-48.5 288.5t48.5 288.5t137.5 234t224 157t300 57.5t300 -57.5t224 -157t137.5 -234t48.5 -288.5v-605q0 -53 0.5 -82t4 -73.5t10 -68.5t19.5 -53.5t31.5 -44t46.5 -25t65 -10.5q57 0 117 20l34 -98q-59 -26 -151 -26
q-75 0 -128.5 20.5t-86 56t-51 95.5t-25 127t-6.5 162v169q-91 -141 -242 -221t-348 -80zM823 1338q-140 0 -252 -49.5t-182.5 -135.5t-108 -197t-37.5 -239t37.5 -239t108 -197t182.5 -135.5t252 -49.5t252 49.5t182.5 135.5t108 197t37.5 239t-37.5 239t-108 197
t-182.5 135.5t-252 49.5z" />
    <glyph glyph-name="uni024B" unicode="&#x24b;" horiz-adv-x="1284" 
d="M983 998h120v-1069q0 -53 0.5 -82t4 -73.5t10 -68.5t19.5 -53.5t31.5 -44t46.5 -25t65 -10.5q57 0 117 20l34 -98q-59 -26 -151 -26q-75 0 -128.5 20.5t-86 56t-51 95.5t-25 127t-6.5 162v288q-41 -97 -144.5 -167t-228.5 -70q-219 0 -358 144.5t-139 374.5t139 374.5
t358 144.5q125 0 228.5 -70t144.5 -167v217zM610 914q-170 0 -271.5 -117t-101.5 -298t101.5 -298t271.5 -117t271.5 117t101.5 298t-101.5 298t-271.5 117z" />
    <glyph glyph-name="uni024C" unicode="&#x24c;" horiz-adv-x="1499" 
d="M445 0h-126v618h-266v116h266v700h641q185 0 294.5 -115.5t109.5 -292.5q0 -161 -99 -272.5t-265 -130.5l366 -623h-138l-363 618h-420v-618zM960 1318h-515v-584h515q135 0 205.5 82t70.5 210t-70.5 210t-205.5 82z" />
    <glyph glyph-name="uni024D" unicode="&#x24d;" horiz-adv-x="969" 
d="M33 390v104h226v504h120v-187q33 93 119 150t196 57q121 0 212 -41l-59 -93q-63 30 -153 30q-162 0 -238.5 -95t-76.5 -263v-62h226v-104h-226v-390h-120v390h-226z" />
    <glyph glyph-name="uni024E" unicode="&#x24e;" horiz-adv-x="1408" 
d="M150 998v116h146l-213 320h150l214 -320h514l214 320h150l-214 -320h148v-116h-225l-267 -400v-598h-126v598l-267 400h-224zM524 998l180 -269l179 269h-359z" />
    <glyph glyph-name="uni024F" unicode="&#x24f;" horiz-adv-x="1240" 
d="M63 492v104h246l-168 402h130l164 -402h370l164 402h130l-169 -402h247v-104h-290l-327 -781q-21 -49 -34 -76.5t-37 -64.5t-47 -55.5t-59 -32.5t-79 -14q-97 0 -163 36l46 92q55 -25 107 -25q14 0 26.5 3t22.5 6t20 11.5t17 13.5t15.5 19t13 20.5t13 24.5t12 25.5
t13 29.5t12.5 30l100 246l-206 492h-290zM477 492l143 -350l142 350h-285z" />
    <glyph glyph-name="uni0250" unicode="&#x250;" horiz-adv-x="1126" 
d="M532 84q72 0 168.5 22.5t165.5 57.5l50 -94q-76 -42 -178 -66t-206 -24q-95 0 -162.5 20t-109.5 54.5t-66 92t-32.5 121t-8.5 153.5v577h120v-225q35 114 133.5 179.5t235.5 65.5q78 0 143.5 -18.5t117.5 -55.5t81 -99t29 -143q0 -70 -27.5 -126.5t-72.5 -94
t-107.5 -64.5t-129 -41t-140.5 -20t-138 -5t-125 7q0 -149 56.5 -211.5t202.5 -62.5zM889 702q0 104 -69 158t-188 54q-160 0 -259.5 -101t-99.5 -252v-111q63 -5 126.5 -5t135.5 6t133 24.5t112 46.5t80 74t29 106z" />
    <glyph glyph-name="uni0251" unicode="&#x251;" horiz-adv-x="1256" 
d="M983 998h120v-998h-120v217q-41 -97 -144.5 -167t-228.5 -70q-219 0 -358 144.5t-139 374.5t139 374.5t358 144.5q125 0 228.5 -70t144.5 -167v217zM610 914q-170 0 -271.5 -117t-101.5 -298t101.5 -298t271.5 -117t271.5 117t101.5 298t-101.5 298t-271.5 117z" />
    <glyph glyph-name="uni0252" unicode="&#x252;" horiz-adv-x="1256" 
d="M153 998h120v-217q41 97 144.5 167t228.5 70q219 0 358 -144.5t139 -374.5t-139 -374.5t-358 -144.5q-125 0 -228.5 70t-144.5 167v-217h-120v998zM646 914q-170 0 -271.5 -117t-101.5 -298t101.5 -298t271.5 -117t271.5 117t101.5 298t-101.5 298t-271.5 117z" />
    <glyph glyph-name="uni0253" unicode="&#x253;" horiz-adv-x="1256" 
d="M646 1018q219 0 358 -144.5t139 -374.5t-139 -374.5t-358 -144.5q-125 0 -228.5 70t-144.5 167v-217h-120v1075q0 95 6.5 162t25 127t51 95.5t86 56t128.5 20.5q92 0 151 -26l-34 -98q-60 20 -117 20q-37 0 -65 -10.5t-46.5 -25t-31.5 -44t-19.5 -53.5t-10 -68.5
t-4 -73.5t-0.5 -82v-294q41 97 144.5 167t228.5 70zM646 914q-170 0 -271.5 -117t-101.5 -298t101.5 -298t271.5 -117t271.5 117t101.5 298t-101.5 298t-271.5 117z" />
    <glyph glyph-name="uni0254" unicode="&#x254;" horiz-adv-x="1084" 
d="M847 499q0 185 -103 300t-286 115q-169 0 -298 -104l-67 84q150 124 365 124q227 0 370 -146t143 -373t-143 -373t-370 -146q-215 0 -365 124l67 84q129 -104 298 -104q183 0 286 115t103 300z" />
    <glyph glyph-name="uni0255" unicode="&#x255;" horiz-adv-x="1098" 
d="M237 499q0 -177 92 -287q156 227 405 227q120 0 195.5 -51t75.5 -161q0 -67 -32.5 -116.5t-88 -77t-120 -40.5t-138.5 -13q-146 0 -261 63q-25 -54 -44 -112.5t-25 -90.5l-7 -31l-109 35q21 130 90 268q-75 71 -116 170t-41 217q0 227 143 373t370 146q215 0 365 -124
l-67 -84q-129 104 -298 104q-183 0 -286 -115t-103 -300zM732 331q-189 0 -315 -195q87 -52 209 -52q120 0 191.5 35.5t71.5 107.5q0 35 -13.5 57t-39 31.5t-48.5 12.5t-56 3z" />
    <glyph glyph-name="uni0256" unicode="&#x256;" horiz-adv-x="1264" 
d="M983 1516h120v-1587q0 -53 0.5 -82t4 -73.5t10 -68.5t19.5 -53.5t31.5 -44t46.5 -25t65 -10.5q57 0 117 20l34 -98q-59 -26 -151 -26q-75 0 -128.5 20.5t-86 56t-51 95.5t-25 127t-6.5 162v288q-41 -97 -144.5 -167t-228.5 -70q-219 0 -358 144.5t-139 374.5t139 374.5
t358 144.5q125 0 228.5 -70t144.5 -167v735zM610 914q-170 0 -271.5 -117t-101.5 -298t101.5 -298t271.5 -117t271.5 117t101.5 298t-101.5 298t-271.5 117z" />
    <glyph glyph-name="uni0257" unicode="&#x257;" horiz-adv-x="1314" 
d="M983 781v294q0 95 6.5 162t25 127t51 95.5t86 56t128.5 20.5q92 0 151 -26l-34 -98q-60 20 -117 20q-37 0 -65 -10.5t-46.5 -25t-31.5 -44t-19.5 -53.5t-10 -68.5t-4 -73.5t-0.5 -82v-1075h-120v217q-41 -97 -144.5 -167t-228.5 -70q-219 0 -358 144.5t-139 374.5
t139 374.5t358 144.5q125 0 228.5 -70t144.5 -167zM610 914q-170 0 -271.5 -117t-101.5 -298t101.5 -298t271.5 -117t271.5 117t101.5 298t-101.5 298t-271.5 117z" />
    <glyph glyph-name="uni0258" unicode="&#x258;" horiz-adv-x="1175" 
d="M588 84q87 0 154.5 30t107.5 81.5t61 115t23 136.5h-820q-3 142 30.5 252t97 179.5t151 104.5t195.5 35q223 0 348.5 -141t125.5 -378t-125.5 -378t-348.5 -141q-262 0 -412 144l80 78q121 -118 332 -118zM242 551h692q-2 76 -22.5 140.5t-61 115t-107.5 79t-155 28.5
t-155 -28.5t-107.5 -79t-61 -115t-22.5 -140.5z" />
    <glyph glyph-name="uni0259" unicode="&#x259;" horiz-adv-x="1175" 
d="M588 914q-211 0 -332 -118l-80 78q150 144 412 144q223 0 348.5 -141t125.5 -378t-125.5 -378t-348.5 -141q-108 0 -195.5 35t-151 104.5t-97 179.5t-30.5 252h820q-2 73 -23 136.5t-61 115t-107.5 81.5t-154.5 30zM934 447h-692q2 -76 22.5 -140.5t61 -115t107.5 -79
t155 -28.5t155 28.5t107.5 79t61 115t22.5 140.5z" />
    <glyph glyph-name="uni025A" unicode="&#x25a;" horiz-adv-x="1395" 
d="M573 914q-211 0 -332 -118l-82 79q137 143 414 143q183 0 297 -98.5t155 -260.5l235 33l-6 -11q-6 -11 -10 -19.5t-10.5 -24t-10 -28.5t-5.5 -29.5t0 -29.5t9 -26t20 -21.5t34.5 -14t50.5 -5.5v-112q-5 0 -12.5 0.5t-30 4.5t-43 10t-44 20t-40 32.5t-26 48.5t-5.5 67
l-90 -14q9 -267 -116.5 -413.5t-331.5 -146.5q-106 0 -191.5 30.5t-151 94.5t-101.5 171.5t-36 251.5l789 113q-66 273 -329 273zM913 522l-669 -96q15 -156 98 -249t251 -93q165 0 250.5 126.5t69.5 311.5z" />
    <glyph glyph-name="uni025B" unicode="&#x25b;" horiz-adv-x="1022" 
d="M836 178l73 -77q-4 -5 -13 -13t-43 -29t-75.5 -37t-113.5 -29t-154 -13q-73 0 -140.5 17t-126.5 52.5t-94.5 98.5t-35.5 146q0 93 60 158t150 82q-70 23 -122.5 82t-52.5 145q0 122 99.5 189.5t262.5 67.5q71 0 135 -13t105.5 -32t72.5 -38t45 -32l13 -13l-73 -77
q-5 4 -13.5 11t-38 24.5t-62 30.5t-82.5 24t-102 11q-116 0 -179 -43.5t-63 -109.5q0 -35 13.5 -62.5t33 -46t52 -32t60.5 -20.5t68 -11t66.5 -5t62.5 -2v-104q-51 -1 -90.5 -3t-88 -8.5t-83.5 -19.5t-66 -32.5t-47 -50t-16 -70.5q0 -57 24 -99.5t64.5 -65.5t87.5 -34
t101 -11q62 0 118 9.5t92.5 23.5t64 28t39.5 23z" />
    <glyph glyph-name="uni025C" unicode="&#x25c;" horiz-adv-x="1022" 
d="M113 101l73 77q4 -4 12.5 -10t39 -22.5t65 -29t91 -22.5t118.5 -10q54 0 101 11t87.5 34t64.5 65.5t24 99.5q0 40 -16 70.5t-47 50t-66 32.5t-83.5 19.5t-88 8.5t-90.5 3v104q36 1 62.5 2t66.5 5t68 11t60.5 20.5t52 32t33 46t13.5 62.5q0 66 -63 109.5t-179 43.5
q-52 0 -101.5 -10.5t-83.5 -25t-61 -29.5t-40 -25l-12 -11l-73 77q5 5 14.5 13.5t43.5 31t73 39t104 30.5t136 14q163 0 262.5 -67.5t99.5 -189.5q0 -86 -52.5 -145t-122.5 -82q90 -17 150 -82t60 -158q0 -83 -35.5 -146t-94.5 -98.5t-126.5 -52.5t-140.5 -17
q-82 0 -153.5 12.5t-114.5 30.5t-74.5 35.5t-43.5 29.5z" />
    <glyph glyph-name="uni025D" unicode="&#x25d;" horiz-adv-x="1129" 
d="M113 101l73 77q4 -4 12.5 -10t39 -22.5t65 -29t91 -22.5t118.5 -10q54 0 101 11t87.5 34t64.5 65.5t24 99.5q0 40 -16 70.5t-47 50t-66 32.5t-83.5 19.5t-88 8.5t-90.5 3v104q36 1 62.5 2t66.5 5t68 11t60.5 20.5t52 32t33 46t13.5 62.5q0 66 -63 109.5t-179 43.5
q-52 0 -101.5 -10.5t-83.5 -25t-61 -29.5t-40 -25l-12 -11l-73 77q5 5 14.5 13.5t43.5 31t73 39t104 30.5t136 14q163 0 262.5 -67.5t99.5 -189.5q0 -10 -2 -30l142 13q-1 -1 -8 -16.5t-10 -25t-9 -28t-5.5 -31.5t2 -30t12 -28.5t26 -22t42.5 -16t62 -5.5v-112h-14.5t-36 3
t-50 9t-52 20t-47.5 33t-30.5 50.5t-7.5 71.5l-73 -7q-46 -52 -116 -75q90 -17 150 -82t60 -158q0 -83 -35.5 -146t-94.5 -98.5t-126.5 -52.5t-140.5 -17q-82 0 -153.5 12.5t-114.5 30.5t-74.5 35.5t-43.5 29.5z" />
    <glyph glyph-name="uni025E" unicode="&#x25e;" horiz-adv-x="1067" 
d="M113 499q0 231 125 375t336 144q158 0 251.5 -71t93.5 -183q0 -77 -46 -136t-117 -89q198 -71 198 -246q0 -80 -33 -142t-88.5 -98.5t-121 -54.5t-137.5 -18q-124 0 -215 39.5t-143.5 111.5t-77.5 163.5t-25 204.5zM233 499q0 -415 341 -415q51 0 96.5 12t82.5 36
t59 65.5t22 95.5q0 59 -29 98.5t-83.5 58.5t-109.5 26t-131 8v104q66 1 116.5 8t99.5 25t75.5 54t26.5 89q0 56 -58 103t-167 47q-160 0 -250.5 -115.5t-90.5 -299.5z" />
    <glyph glyph-name="uni025F" unicode="&#x25f;" horiz-adv-x="542" 
d="M-157 -506l34 98q60 -20 117 -20q37 0 65 10.5t46.5 25t31.5 44t19.5 53.5t10 68.5t4 73.5t0.5 82v71h-188v104h188v894h120v-894h188v-104h-188v-71q0 -95 -6.5 -162t-25 -127t-51 -95.5t-86 -56t-128.5 -20.5q-92 0 -151 26z" />
    <glyph glyph-name="uni0260" unicode="&#x260;" horiz-adv-x="1284" 
d="M1103 1075v-1075q0 -123 -27.5 -217.5t-72.5 -153t-110 -96t-132.5 -51.5t-146.5 -14q-259 0 -401 110l68 84q143 -90 333 -90q369 0 369 428v217q-41 -97 -144.5 -167t-228.5 -70q-219 0 -358 144.5t-139 374.5t139 374.5t358 144.5q125 0 228.5 -70t144.5 -167v294
q0 95 6.5 162t25 127t51 95.5t86 56t128.5 20.5q92 0 151 -26l-34 -98q-60 20 -117 20q-37 0 -65 -10.5t-46.5 -25t-31.5 -44t-19.5 -53.5t-10 -68.5t-4 -73.5t-0.5 -82zM610 914q-170 0 -271.5 -117t-101.5 -298t101.5 -298t271.5 -117t271.5 117t101.5 298t-101.5 298
t-271.5 117z" />
    <glyph glyph-name="uni0261" unicode="&#x261;" horiz-adv-x="1256" 
d="M983 998h120v-998q0 -123 -27.5 -217.5t-72.5 -153t-110 -96t-132.5 -51.5t-146.5 -14q-259 0 -401 110l68 84q143 -90 333 -90q369 0 369 428v217q-41 -97 -144.5 -167t-228.5 -70q-219 0 -358 144.5t-139 374.5t139 374.5t358 144.5q125 0 228.5 -70t144.5 -167v217z
M610 914q-170 0 -271.5 -117t-101.5 -298t101.5 -298t271.5 -117t271.5 117t101.5 298t-101.5 298t-271.5 117z" />
    <glyph glyph-name="uni0262" unicode="&#x262;" horiz-adv-x="1114" 
d="M593 477v102h386v-471q-150 -128 -380 -128q-211 0 -348.5 146.5t-137.5 372.5q0 225 137.5 372t348.5 147q227 0 382 -117l-66 -78q-74 52 -149 72t-167 20q-164 0 -265 -118.5t-101 -297.5t101 -297.5t265 -118.5q153 0 260 72v322h-266z" />
    <glyph glyph-name="uni0263" unicode="&#x263;" horiz-adv-x="1132" 
d="M566 -532q-19 0 -39 4t-46.5 18t-46 37.5t-33.5 67t-14 101.5q0 66 24.5 129.5t85.5 174.5l-434 998h133l370 -873l370 873h133l-434 -998q61 -111 85.5 -174.5t24.5 -129.5q0 -58 -14 -101.5t-33.5 -67t-46 -37.5t-46.5 -18t-39 -4zM566 -420q30 0 45 34t15 79
q0 39 -18.5 97.5t-41.5 88.5q-23 -30 -41.5 -88.5t-18.5 -97.5q0 -45 15 -79t45 -34z" />
    <glyph glyph-name="uni0264" unicode="&#x264;" horiz-adv-x="1128" 
d="M564 -40q-53 0 -97 34t-44 104q0 68 75 165l-435 735h134l367 -637l367 637h134l-435 -735q75 -97 75 -165q0 -70 -44 -104t-97 -34zM564 65q29 0 29 39q0 31 -29 62q-29 -31 -29 -62q0 -39 29 -39z" />
    <glyph glyph-name="uni0265" unicode="&#x265;" 
d="M903 442v556h120v-1530h-120v719q-33 -93 -119 -150t-196 -57q-212 0 -323.5 120.5t-111.5 341.5v556h120v-556q0 -168 76.5 -263t238.5 -95t238.5 95t76.5 263z" />
    <glyph glyph-name="uni0266" unicode="&#x266;" 
d="M273 1075v-264q33 93 119 150t196 57q212 0 323.5 -120.5t111.5 -341.5v-556h-120v556q0 168 -76.5 263t-238.5 95q-158 0 -234 -90.5t-81 -251.5v-572h-120v1075q0 95 6.5 162t25 127t51 95.5t86 56t128.5 20.5q92 0 151 -26l-34 -98q-60 20 -117 20q-37 0 -65 -10.5
t-46.5 -25t-31.5 -44t-19.5 -53.5t-10 -68.5t-4 -73.5t-0.5 -82z" />
    <glyph glyph-name="uni0267" unicode="&#x267;" 
d="M903 -71v627q0 168 -76.5 263t-238.5 95q-158 0 -234 -90.5t-81 -251.5v-572h-120v1075q0 95 6.5 162t25 127t51 95.5t86 56t128.5 20.5q92 0 151 -26l-34 -98q-60 20 -117 20q-37 0 -65 -10.5t-46.5 -25t-31.5 -44t-19.5 -53.5t-10 -68.5t-4 -73.5t-0.5 -82v-264
q33 93 119 150t196 57q212 0 323.5 -120.5t111.5 -341.5v-627q0 -95 -6.5 -162t-25 -127t-51 -95.5t-86 -56t-128.5 -20.5q-92 0 -151 26l34 98q60 -20 117 -20q37 0 65 10.5t46.5 25t31.5 44t19.5 53.5t10 68.5t4 73.5t0.5 82z" />
    <glyph glyph-name="uni0268" unicode="&#x268;" horiz-adv-x="666" 
d="M63 542v104h210v352h120v-352h210v-104h-210v-542h-120v542h-210zM247 1287q0 35 25.5 60.5t60.5 25.5t60.5 -25.5t25.5 -60.5t-25.5 -60.5t-60.5 -25.5t-60.5 25.5t-25.5 60.5z" />
    <glyph glyph-name="uni0269" unicode="&#x269;" horiz-adv-x="484" 
d="M153 220v778h120v-778q0 -20 0.5 -30.5t1.5 -26.5t4.5 -24.5t9 -17.5t15 -13t22.5 -4h45v-104h-45q-36 0 -63.5 7.5t-45.5 18t-30.5 30t-19 35t-10 42t-4 43t-0.5 44.5z" />
    <glyph glyph-name="uni026A" unicode="&#x26a;" horiz-adv-x="426" 
d="M153 0v998h120v-998h-120z" />
    <glyph glyph-name="uni026B" unicode="&#x26b;" horiz-adv-x="692" 
d="M285 1010v506h120v-603q30 -30 57 -30q23 0 35.5 20.5t13.5 41.5l1 21h116q0 -8 -0.5 -21t-9 -46t-24 -58.5t-50 -46.5t-82.5 -21q-31 0 -57 8v-561q0 -20 0.5 -30.5t1.5 -26.5t4.5 -24.5t9 -17.5t15 -13t22.5 -4h45v-104h-45q-36 0 -63.5 7.5t-45.5 18t-30.5 30t-19 35
t-10 42t-4 43t-0.5 44.5v659q-29 29 -55 29q-23 0 -35.5 -21t-13.5 -41l-1 -21h-116q0 8 0.5 21t9 46t24 58.5t50 46.5t82.5 21q29 0 55 -8z" />
    <glyph glyph-name="uni026C" unicode="&#x26c;" horiz-adv-x="629" 
d="M301 1014v502h120v-702h145v-114h-145v-480q0 -20 0.5 -30.5t1.5 -26.5t4.5 -24.5t9 -17.5t15 -13t22.5 -4h45v-104h-45q-36 0 -63.5 7.5t-45.5 18t-30.5 30t-19 35t-10 42t-4 43t-0.5 44.5v480h-17q-24 0 -47.5 3.5t-50 14.5t-46.5 27.5t-33.5 45.5t-13.5 66
q0 44 19.5 75.5t52 48t66 24.5t70.5 9zM221 857q0 -19 16 -31t47 -12h17v87q-80 -3 -80 -44z" />
    <glyph glyph-name="uni026D" unicode="&#x26d;" horiz-adv-x="454" 
d="M153 1516h120v-1587q0 -53 0.5 -82t4 -73.5t10 -68.5t19.5 -53.5t31.5 -44t46.5 -25t65 -10.5q57 0 117 20l34 -98q-59 -26 -151 -26q-75 0 -128.5 20.5t-86 56t-51 95.5t-25 127t-6.5 162v1587z" />
    <glyph glyph-name="uni026E" unicode="&#x26e;" horiz-adv-x="1243" 
d="M153 220v1296h120v-518h791v-60l-420 -544q34 -3 64 -7.5t82 -17.5t94 -32t90 -54t80.5 -79t54 -111.5t21.5 -148.5q0 -98 -28.5 -179t-75.5 -135t-110 -91.5t-130.5 -54t-137.5 -16.5q-284 0 -432 180l79 74q138 -150 353 -150q55 0 106 13t98 42t81 71t54.5 105.5
t20.5 140.5q0 71 -19 127.5t-47.5 93t-74 63t-86.5 40t-98 21t-95.5 9t-91.5 1.5v90l390 505h-613v-674q0 -20 0.5 -30.5t1.5 -26.5t4.5 -24.5t9 -17.5t15 -13t22.5 -4h45v-104h-45q-36 0 -63.5 7.5t-45.5 18t-30.5 30t-19 35t-10 42t-4 43t-0.5 44.5z" />
    <glyph glyph-name="uni026F" unicode="&#x26f;" horiz-adv-x="1770" 
d="M1617 998v-998h-120v167q-25 -78 -100 -132.5t-176 -54.5q-269 0 -359 227q-12 -39 -35.5 -75.5t-60.5 -72t-93.5 -57.5t-123.5 -22q-192 0 -294 116t-102 347v555h120v-555q0 -165 67 -262t209 -97q143 0 209.5 97t66.5 262v555h120v-555q0 -165 67 -262t209 -97
q143 0 209.5 97t66.5 262v555h120z" />
    <glyph glyph-name="uni0270" unicode="&#x270;" horiz-adv-x="1770" 
d="M1617 998v-1530h-120v699q-25 -78 -100 -132.5t-176 -54.5q-269 0 -359 227q-12 -39 -35.5 -75.5t-60.5 -72t-93.5 -57.5t-123.5 -22q-192 0 -294 116t-102 347v555h120v-555q0 -165 67 -262t209 -97q143 0 209.5 97t66.5 262v555h120v-555q0 -165 67 -262t209 -97
q143 0 209.5 97t66.5 262v555h120z" />
    <glyph glyph-name="uni0271" unicode="&#x271;" horiz-adv-x="1770" 
d="M153 0v998h120v-167q25 78 100 132.5t176 54.5q269 0 359 -227q12 39 35.5 75.5t60.5 72t93.5 57.5t123.5 22q192 0 294 -116t102 -347v-1087h-120v1087q0 165 -67 262t-209 97q-143 0 -209.5 -97t-66.5 -262v-555h-120v555q0 165 -67 262t-209 97q-143 0 -209.5 -97
t-66.5 -262v-555h-120z" />
    <glyph glyph-name="uni0272" unicode="&#x272;" horiz-adv-x="1204" 
d="M301 572v-643q0 -95 -6.5 -162t-25 -127t-51 -95.5t-86 -56t-128.5 -20.5q-92 0 -151 26l34 98q60 -20 117 -20q37 0 65 10.5t46.5 25t31.5 44t19.5 53.5t10 68.5t4 73.5t0.5 82v1069h120v-187q33 93 119 150t196 57q212 0 323.5 -120.5t111.5 -341.5v-556h-120v556
q0 168 -76.5 263t-238.5 95q-158 0 -234 -90.5t-81 -251.5z" />
    <glyph glyph-name="uni0273" unicode="&#x273;" horiz-adv-x="1204" 
d="M903 -71v627q0 168 -76.5 263t-238.5 95t-238.5 -95t-76.5 -263v-556h-120v998h120v-187q33 93 119 150t196 57q212 0 323.5 -120.5t111.5 -341.5v-627q0 -53 0.5 -82t4 -73.5t10 -68.5t19.5 -53.5t31.5 -44t46.5 -25t65 -10.5q57 0 117 20l34 -98q-59 -26 -151 -26
q-75 0 -128.5 20.5t-86 56t-51 95.5t-25 127t-6.5 162z" />
    <glyph glyph-name="uni0274" unicode="&#x274;" horiz-adv-x="1162" 
d="M153 0v998h127l609 -817v817h120v-998h-127l-609 817v-817h-120z" />
    <glyph glyph-name="uni0275" unicode="&#x275;" horiz-adv-x="1252" 
d="M113 499q0 227 143 373t370 146t370 -146t143 -373t-143 -373t-370 -146t-370 146t-143 373zM626 84q171 0 272.5 101t114.5 267h-774q13 -167 114.5 -267.5t272.5 -100.5zM626 914q-168 0 -269.5 -98t-116.5 -260h772q-16 162 -117 260t-269 98z" />
    </font>
</defs>
</svg>
