<?xml version="1.0" standalone="no"?>
<!DOCTYPE svg PUBLIC "-//W3C//DTD SVG 1.1//EN" "http://www.w3.org/Graphics/SVG/1.1/DTD/svg11.dtd" >
<svg xmlns="http://www.w3.org/2000/svg" xmlns:xlink="http://www.w3.org/1999/xlink" version="1.1">
<metadata>
Created by FontForge 20170731 at Fri Jan 22 00:04:38 2021
 By Aleksey,,,
Copyright   2001 Luc(as) de Groot, published by LucasFonts, www.lucasfonts.com   All rights reserved
</metadata>
<defs>
<font id="PelikanTheSans-Italic" horiz-adv-x="1126" >
  <font-face 
    font-family="PelikanTheSans"
    font-weight="500"
    font-style="italic"
    font-stretch="normal"
    units-per-em="2048"
    panose-1="0 0 0 0 0 0 0 0 0 0"
    ascent="1638"
    descent="-410"
    x-height="1018"
    cap-height="1382"
    bbox="-362 -614 2090 1755"
    underline-thickness="40"
    underline-position="-312"
    slope="11"
    unicode-range="U+0020-FB02"
  />
<missing-glyph 
 />
    <glyph glyph-name=".notdef" 
 />
    <glyph glyph-name=".null" horiz-adv-x="0" 
 />
    <glyph glyph-name="nonmarkingreturn" horiz-adv-x="682" 
 />
    <glyph glyph-name="space" unicode=" " horiz-adv-x="446" 
 />
    <glyph glyph-name="exclam" unicode="!" horiz-adv-x="643" 
d="M629 1440l-238 -1096h-151l176 1096h213zM391 106q0 -54 -36 -89t-89 -35q-52 0 -85.5 34t-33.5 82q0 53 37 89t90 36q51 0 84 -34.5t33 -82.5z" />
    <glyph glyph-name="quotedbl" unicode="&#x22;" horiz-adv-x="733" 
d="M811 1432l-119 -471h-133l62 471h190zM475 1432l-119 -471h-131l60 471h190z" />
    <glyph glyph-name="numbersign" unicode="#" 
d="M1155 971l-25 -127h-190l-102 -344h178l-25 -127h-190l-113 -373h-139l110 373h-299l-110 -373h-141l112 373h-180l25 127h192l102 344h-180l25 127h192l107 360h139l-104 -360h299l104 360h141l-106 -360h178zM799 844h-299l-101 -344h299z" />
    <glyph glyph-name="dollar" unicode="$" 
d="M999 1282l-34 -162q-110 35 -230 35q-132 0 -205 -55t-73 -137q0 -46 26 -83t67 -62.5t90.5 -50.5t99.5 -53.5t91 -64t67 -90t26 -123.5q0 -142 -114.5 -255.5t-297.5 -139.5l-41 -215h-137l39 207q-120 0 -240 30l37 173q44 -18 117 -33t143 -15q132 0 213.5 62
t81.5 145q0 51 -25.5 91.5t-66 67.5t-90 52t-98.5 53t-89.5 62t-66 87.5t-25.5 121.5q0 139 109 242.5t284 125.5l37 197h140l-37 -188q91 -2 202 -25z" />
    <glyph glyph-name="percent" unicode="%" horiz-adv-x="1505" 
d="M784 1128q0 -96 -31.5 -176.5t-83.5 -132t-116 -80t-131 -28.5q-120 0 -181 58.5t-61 166.5q0 95 32 175t84.5 131.5t116.5 80.5t130 29q118 0 179.5 -58.5t61.5 -165.5zM1460 1280l-1251 -1323l-100 90l1251 1323zM1395 397q0 -95 -32 -175.5t-84 -132.5t-116 -80.5
t-131 -28.5q-119 0 -180 59t-61 166q0 95 32 175.5t84 132t116 80t130 28.5q119 0 180.5 -58t61.5 -166zM637 1110q0 117 -109 117q-83 0 -140.5 -79t-57.5 -196q0 -60 25.5 -89t80.5 -29q83 0 142 79t59 197zM1247 381q0 59 -26 88t-82 29q-81 0 -140 -79t-59 -196
q0 -62 26 -90.5t83 -28.5q81 0 139.5 79t58.5 198z" />
    <glyph glyph-name="ampersand" unicode="&#x26;" horiz-adv-x="1595" 
d="M1470 918q-25 -180 -103 -340.5t-191 -280.5q110 -107 241 -209l-127 -127q-130 102 -250 213q-123 -95 -269 -144.5t-296 -49.5q-194 0 -291.5 94.5t-97.5 238.5q0 70 22.5 135.5t55 115.5t86 102.5t99 88t110.5 81.5q-123 197 -123 313q0 147 112 252.5t287 105.5
q149 0 223 -65.5t74 -175.5q0 -55 -19 -107.5t-47.5 -94t-77 -88t-90.5 -79t-106 -78.5q123 -173 363 -413q87 91 149.5 225t83.5 287h182zM848 1241q0 57 -33.5 91t-97.5 34q-89 0 -144 -56t-55 -141q0 -82 92 -229q60 42 92 67.5t71.5 65t57 80.5t17.5 88zM920 285
q-251 259 -373 430q-62 -44 -103.5 -79.5t-82.5 -81t-61.5 -96.5t-20.5 -106q0 -93 58.5 -154t178.5 -61q218 0 404 148z" />
    <glyph glyph-name="quotesingle" unicode="'" horiz-adv-x="399" 
d="M475 1432l-119 -471h-131l60 471h190z" />
    <glyph glyph-name="parenleft" unicode="(" horiz-adv-x="608" 
d="M768 1534q-202 -254 -335.5 -599t-133.5 -659q0 -368 109 -638l-144 -66q-141 327 -141 692q0 338 136.5 687t383.5 651z" />
    <glyph glyph-name="parenright" unicode=")" horiz-adv-x="608" 
d="M532 909q0 -338 -136.5 -686.5t-383.5 -650.5l-125 68q202 254 335.5 598.5t133.5 658.5q0 369 -108 639l143 66q141 -327 141 -693z" />
    <glyph glyph-name="asterisk" unicode="*" horiz-adv-x="749" 
d="M819 1268l-225 -84l186 -105l-86 -110l-159 143l-25 -235l-137 18l67 217l-194 -125l-51 123l223 84l-187 104l84 111l160 -141l25 233l137 -18l-70 -217l201 127z" />
    <glyph glyph-name="plus" unicode="+" 
d="M1077 686l-30 -154h-392l-77 -411h-175l78 411h-387l29 154h389l78 410h174l-78 -410h391z" />
    <glyph glyph-name="comma" unicode="," horiz-adv-x="458" 
d="M168 231q71 0 104 -62q43 -79 -12 -197q-67 -146 -262 -285l-68 77q76 65 115 120t41.5 96.5t-16.5 78.5q-19 38 -14 76.5t36.5 67t75.5 28.5z" />
    <glyph glyph-name="hyphen" unicode="-" horiz-adv-x="671" 
d="M610 664l-30 -152h-480l29 152h481z" />
    <glyph glyph-name="period" unicode="." horiz-adv-x="462" 
d="M295 115q0 -57 -37.5 -95t-91.5 -38q-51 0 -86 36t-35 86q0 55 38 93.5t91 38.5q51 0 86 -36.5t35 -84.5z" />
    <glyph glyph-name="slash" unicode="/" horiz-adv-x="878" 
d="M1075 1550l-1063 -1880h-182l1065 1880h180z" />
    <glyph glyph-name="zero" unicode="0" horiz-adv-x="1171" 
d="M1157 971q0 -110 -17.5 -223.5t-52 -225t-90.5 -208.5t-126.5 -171.5t-166.5 -117.5t-206 -43q-191 0 -285 109.5t-94 318.5q0 137 25.5 274.5t79.5 266.5t130 228.5t186 159.5t238 60q191 0 285 -110t94 -318zM965 971q0 135 -51.5 205.5t-151.5 70.5q-70 0 -131.5 -32
t-106.5 -85t-82 -124.5t-61 -148.5t-40 -159t-23 -153.5t-7 -134.5q0 -128 54 -199.5t155 -71.5q86 0 160 53.5t125.5 140.5t88 196.5t54 222.5t17.5 219z" />
    <glyph glyph-name="one" unicode="1" horiz-adv-x="706" 
d="M707 1382l-263 -1382h-188l229 1194l-274 -104v176l354 116h142z" />
    <glyph glyph-name="two" unicode="2" horiz-adv-x="1005" 
d="M983 1096q0 -72 -20.5 -142t-48.5 -123.5t-81 -120t-92 -108t-108 -110.5l-318 -320l2 -2q119 6 547 6l-35 -176h-788l29 156l362 360q193 194 269.5 310t76.5 233q0 81 -49.5 129.5t-138.5 48.5q-145 0 -291 -90v174q170 80 336 80q168 0 258 -81.5t90 -223.5z" />
    <glyph glyph-name="three" unicode="3" horiz-adv-x="1003" 
d="M936 1112q-8 -121 -86.5 -220.5t-208.5 -146.5v-4q97 -18 151 -101t48 -187q-11 -195 -180 -332t-408 -137q-126 0 -197 20l39 168q79 -29 168 -29q165 0 273.5 89.5t111.5 218.5q1 37 -10.5 68t-40 60t-76.5 44.5t-120 22t-171 -6.5l29 149q230 -1 355 83.5t128 213.5
q2 70 -43.5 115t-140.5 45q-122 0 -248 -63l6 164q138 55 293 55q95 0 163.5 -25t104 -67.5t50 -91.5t10.5 -105z" />
    <glyph glyph-name="four" unicode="4" horiz-adv-x="1091" 
d="M1061 506l-31 -170h-217l-63 -336h-179l64 336h-590l8 158l717 888h244l-168 -876h215zM805 1202l-2 -2l-565 -702q121 6 432 6z" />
    <glyph glyph-name="five" unicode="5" horiz-adv-x="927" 
d="M971 1382l-35 -176h-455l-67 -354q190 -2 303.5 -83.5t113.5 -246.5q0 -109 -48 -207.5t-132.5 -171.5t-208.5 -116t-268 -43q-88 0 -149 10l38 170q71 -19 142 -19q197 0 312.5 98t115.5 244q0 53 -23.5 93.5t-64 64t-94.5 37.5t-115 15t-125 -3l131 688h629z" />
    <glyph glyph-name="six" unicode="6" horiz-adv-x="1157" 
d="M1122 1393l-30 -164q-51 10 -131 10q-385 0 -553 -440q-24 -61 -27 -74v-4q129 151 346 151q88 0 157 -27.5t110 -74.5t62 -103.5t21 -119.5q0 -157 -79 -288t-212 -205t-288 -74q-176 0 -266.5 102t-90.5 289q0 62 10 134.5t30.5 158t56.5 170.5t83.5 168t116 154.5
t149 126t187 85.5t227.5 31q81 0 121 -6zM885 510q0 94 -53 151.5t-156 57.5q-147 0 -247.5 -104t-100.5 -250q0 -41 11 -79.5t33.5 -73.5t62.5 -56t93 -21q150 0 253.5 110t103.5 265z" />
    <glyph glyph-name="seven" unicode="7" horiz-adv-x="913" 
d="M1038 1382l-30 -159q-176 -270 -351 -606.5t-282 -616.5h-207q127 312 309 654.5t324 551.5q-59 -4 -602 -4l34 180h805z" />
    <glyph glyph-name="eight" unicode="8" horiz-adv-x="1105" 
d="M1085 1122q0 -42 -11 -81t-27 -70t-45 -63t-53.5 -54t-64.5 -49.5t-66.5 -43.5t-69.5 -42q109 -75 164 -155t55 -185q0 -115 -72 -207t-191 -142t-258 -50q-185 0 -279.5 76t-94.5 214q0 134 91 238.5t271 200.5q-103 72 -149.5 145t-46.5 164q0 164 137 276.5t350 112.5
q175 0 267.5 -79t92.5 -206zM895 1100q0 72 -52.5 117t-144.5 45q-120 0 -193 -66.5t-73 -163.5q0 -64 46 -116t136 -115q144 79 212.5 146.5t68.5 152.5zM772 358q0 74 -46 136t-157 135q-153 -81 -228 -160.5t-75 -179.5q0 -71 55.5 -114.5t155.5 -43.5q119 0 207 66.5
t88 160.5z" />
    <glyph glyph-name="nine" unicode="9" horiz-adv-x="1167" 
d="M1126 1026q0 -75 -11 -161t-39.5 -189t-71.5 -199t-111.5 -187t-154.5 -158.5t-207.5 -108.5t-262.5 -41q-110 0 -174 12l35 172q77 -23 166 -23q90 0 169.5 25.5t136.5 66t105 96.5t78 111t52 115q27 78 38 98v2q-61 -75 -152 -116t-194 -41q-86 0 -153 26.5t-107 73
t-60 104.5t-20 125q0 153 70 284t198.5 210.5t288.5 79.5q180 0 280.5 -101t100.5 -276zM928 1030q0 97 -56.5 157t-152.5 60q-92 0 -170.5 -57t-122 -145t-43.5 -181q0 -92 48.5 -146t146.5 -54q152 0 251 102t99 264z" />
    <glyph glyph-name="colon" unicode=":" horiz-adv-x="583" 
d="M494 711q0 -55 -37.5 -92t-91.5 -37q-52 0 -88.5 36t-36.5 87q0 55 38 93t91 38t89 -36.5t36 -88.5zM379 113q0 -55 -37.5 -93t-91.5 -38q-52 0 -88.5 36t-36.5 86q0 55 38 93.5t91 38.5q52 0 88.5 -36.5t36.5 -86.5z" />
    <glyph glyph-name="semicolon" unicode=";" horiz-adv-x="583" 
d="M494 711q0 -55 -37.5 -92t-91.5 -37q-52 0 -88.5 36t-36.5 87q0 55 38 93t91 38t89 -36.5t36 -88.5zM254 231q71 0 104 -62q43 -79 -12 -197q-67 -146 -262 -285l-68 77q76 65 115 120t41.5 96.5t-16.5 78.5q-19 38 -14 76.5t36.5 67t75.5 28.5z" />
    <glyph glyph-name="less" unicode="&#x3c;" 
d="M1020 1073l-612 -455l448 -460l-133 -119l-551 594l741 567z" />
    <glyph glyph-name="equal" unicode="=" 
d="M1081 860l-26 -153h-899l28 153h897zM1016 510l-29 -152h-899l31 152h897z" />
    <glyph glyph-name="greater" unicode="&#x3e;" 
d="M1004 606l-742 -567l-106 127l610 455l-447 460l134 119z" />
    <glyph glyph-name="question" unicode="?" horiz-adv-x="894" 
d="M870 1083q0 -70 -26 -130t-67 -103t-90 -84t-95.5 -82.5t-83.5 -87.5t-54.5 -110.5t-7.5 -141.5h-180q-12 87 3.5 161t50.5 125.5t79.5 96.5t91.5 83t86.5 74t65 81t25.5 94q0 90 -94.5 149.5t-251.5 77.5l55 168q234 -20 363.5 -124t129.5 -247zM434 106q0 -54 -36 -89
t-89 -35q-52 0 -85.5 34t-33.5 82q0 53 37 89t90 36q50 0 83.5 -34.5t33.5 -82.5z" />
    <glyph glyph-name="at" unicode="@" horiz-adv-x="1974" 
d="M1833 907q0 -181 -64.5 -327.5t-182 -231t-265.5 -84.5q-121 0 -170.5 65.5t-26.5 157.5h-6q-37 -75 -130.5 -149t-188.5 -74q-181 0 -181 219q0 77 17 157t56.5 161.5t96.5 145t146 103.5t196 40q139 0 250 -29l-120 -436q-60 -209 94 -209q136 0 224.5 133.5
t88.5 343.5q0 73 -17.5 138.5t-57 125.5t-98 103t-147 68.5t-198.5 25.5q-164 0 -312 -70t-251.5 -187t-164.5 -274.5t-61 -326.5q0 -242 143.5 -380.5t416.5 -138.5q169 0 350 54l10 -150q-183 -57 -393 -57q-335 0 -517 173t-182 478q0 205 77.5 394.5t209 328t314 221
t382.5 82.5q166 0 294.5 -46.5t207.5 -128.5t119.5 -188t40.5 -231zM1200 948q-50 13 -108 13q-80 0 -153 -61.5t-117 -163.5t-44 -214q0 -106 70 -106q83 0 173.5 110.5t147.5 313.5z" />
    <glyph glyph-name="A" unicode="A" horiz-adv-x="1239" 
d="M1122 0h-198l-50 324h-577l-174 -324h-197l758 1382h205zM854 473l-86 508q-10 64 -23 190h-2q-66 -138 -92 -186l-276 -512h479z" />
    <glyph glyph-name="B" unicode="B" horiz-adv-x="1142" 
d="M1112 1122q0 -147 -81 -247.5t-206 -143.5v-2q96 -21 151.5 -92t55.5 -164q0 -98 -40 -184t-114.5 -152t-190 -104.5t-257.5 -38.5q-49 0 -179 2.5t-171 3.5l262 1382q343 7 387 7q193 0 288 -70t95 -197zM915 1081q0 76 -52 116t-183 40q-68 0 -182 -4l-86 -447
q39 -2 118 -2q173 0 279 78.5t106 218.5zM836 457q0 186 -295 186q-123 0 -156 -2l-92 -483q64 -11 168 -11q177 0 276 89.5t99 220.5z" />
    <glyph glyph-name="C" unicode="C" horiz-adv-x="1150" 
d="M1210 1354l-51 -170q-140 49 -282 49q-116 0 -212 -44t-160 -116.5t-108.5 -169.5t-64 -200t-19.5 -211q0 -79 17 -138.5t56 -106t107.5 -71t165.5 -24.5q163 0 318 67l6 -164q-183 -71 -377 -71q-115 0 -203 26.5t-143 70t-89.5 106.5t-48 128.5t-13.5 143.5
q0 147 32 283.5t98 255.5t158.5 207.5t223 139t282.5 50.5q170 0 307 -41z" />
    <glyph glyph-name="D" unicode="D" horiz-adv-x="1359" 
d="M1331 887q0 -139 -34 -268t-106.5 -243.5t-176.5 -199.5t-253.5 -134.5t-328.5 -49.5q-83 0 -196.5 4t-155.5 4l262 1380q14 0 165.5 4.5t231.5 4.5q305 0 448.5 -133t143.5 -369zM1133 868q0 83 -21 147t-68 115t-131 78t-202 27q-56 0 -215 -6l-203 -1065
q77 -12 166 -12q141 0 256.5 43t191.5 113.5t128.5 164.5t75 193t22.5 202z" />
    <glyph glyph-name="E" unicode="E" horiz-adv-x="1005" 
d="M1038 1382l-30 -155h-512l-84 -439h489l-29 -151h-489l-90 -479h514l-31 -158h-696l262 1382h696z" />
    <glyph glyph-name="F" unicode="F" horiz-adv-x="940" 
d="M1032 1382l-31 -155h-505l-84 -449h479l-29 -151h-481l-119 -627h-182l262 1382h690z" />
    <glyph glyph-name="G" unicode="G" horiz-adv-x="1368" 
d="M1350 1343l-54 -178q-172 74 -344 74q-186 0 -335 -96.5t-230.5 -258.5t-81.5 -356q0 -58 13 -112t43 -104t75 -86.5t113.5 -58.5t152.5 -22q134 0 265 41l98 519h184l-123 -646q-211 -77 -454 -77q-278 0 -422 143.5t-144 384.5q0 192 67.5 359t183.5 283t276 182.5
t340 66.5q209 0 377 -58z" />
    <glyph glyph-name="H" unicode="H" horiz-adv-x="1400" 
d="M1399 1382l-264 -1382h-183l121 637h-690l-123 -637h-184l262 1382h184l-110 -585h690l112 585h185z" />
    <glyph glyph-name="I" unicode="I" horiz-adv-x="526" 
d="M524 1382l-262 -1382h-182l262 1382h182z" />
    <glyph glyph-name="J" unicode="J" horiz-adv-x="657" 
d="M662 1382l-197 -1032q-34 -177 -130 -270.5t-276 -93.5q-85 0 -151 16l33 164q63 -23 125 -23q88 0 141.5 49t77.5 170l192 1020h185z" />
    <glyph glyph-name="K" unicode="K" horiz-adv-x="1128" 
d="M1245 1382l-659 -684l403 -698h-231l-367 684l-129 -684h-184l262 1382h184l-125 -651l607 651h239z" />
    <glyph glyph-name="L" unicode="L" horiz-adv-x="854" 
d="M778 162l-30 -162h-668l262 1382h182l-229 -1220h483z" />
    <glyph glyph-name="M" unicode="M" horiz-adv-x="1779" 
d="M1651 1382l-60 -1382h-190l37 788q10 230 22 351h-4q-56 -136 -115 -250l-456 -889h-197l-113 831q-26 177 -26 308h-2q-61 -215 -107 -359l-241 -780h-195l461 1382h221l119 -870q18 -129 22 -274h2q53 121 125 262l459 882h238z" />
    <glyph glyph-name="N" unicode="N" horiz-adv-x="1396" 
d="M1399 1382l-264 -1382h-215l-355 846q-58 135 -102 293q-46 -296 -86 -514l-117 -625h-182l262 1382h219l348 -827q50 -116 109 -303q7 41 37 220t47 273l117 637h182z" />
    <glyph glyph-name="O" unicode="O" horiz-adv-x="1415" 
d="M1391 899q0 -193 -63 -364.5t-170 -292.5t-253.5 -191.5t-308.5 -70.5q-246 0 -370 131t-124 372q0 185 61 354t165 293.5t251.5 198.5t313.5 74q240 0 369 -131.5t129 -372.5zM1192 879q0 169 -83.5 263.5t-246.5 94.5q-160 0 -289.5 -100t-200.5 -266t-71 -361
q0 -170 83 -266.5t239 -96.5q154 0 285 96.5t207.5 265.5t76.5 370z" />
    <glyph glyph-name="P" unicode="P" horiz-adv-x="1048" 
d="M1087 1057q0 -151 -85.5 -274.5t-225 -191t-301.5 -67.5q-60 0 -113 6l-100 -530h-184l262 1382q229 9 334 9q200 0 306.5 -89t106.5 -245zM893 1030q0 207 -254 207q-61 0 -143 -4l-103 -543q41 -8 111 -8q158 0 273.5 100t115.5 248z" />
    <glyph glyph-name="Q" unicode="Q" horiz-adv-x="1415" 
d="M1192 879q0 169 -83.5 263.5t-246.5 94.5q-160 0 -289.5 -100t-200.5 -266t-71 -361q0 -170 83.5 -266.5t238.5 -96.5q154 0 285 96.5t207.5 265.5t76.5 370zM938 98q46 -1 114.5 -15.5t117 -20t161.5 5.5l-31 -160q-107 -17 -203.5 -8t-153 27t-134 35.5t-147.5 17.5
h-66q-246 0 -370 131t-124 372q0 186 60.5 355t164.5 293.5t252 198t314 73.5q240 0 369 -131.5t129 -372.5q0 -283 -128.5 -502.5t-324.5 -298.5z" />
    <glyph glyph-name="R" unicode="R" horiz-adv-x="1110" 
d="M1081 1087q0 -96 -39 -177.5t-106.5 -137.5t-153 -91t-182.5 -46q17 -28 44.5 -78.5t37.5 -67.5l272 -489h-221l-327 621h-27l-117 -621h-182l262 1382q141 9 330 9q207 0 308 -79t101 -225zM887 1059q0 92 -58 135t-186 43q-71 0 -145 -4l-90 -471q46 -4 110 -4
q161 0 265 80t104 221z" />
    <glyph glyph-name="S" unicode="S" horiz-adv-x="929" 
d="M915 1382l-34 -168q-90 33 -193 33q-144 0 -220.5 -67.5t-76.5 -159.5q0 -50 23.5 -93t60.5 -75.5t82 -63.5t90 -65t82 -72.5t60.5 -94t23.5 -122.5q0 -194 -154 -324t-393 -130q-138 0 -227 30l35 180q103 -45 209 -45q157 0 245 70t88 188q0 48 -23 89t-60 72t-82 60.5
t-89.5 63t-81.5 72t-60 94.5t-23 123q0 86 33.5 162.5t96.5 135.5t161 93.5t219 34.5q106 0 208 -21z" />
    <glyph glyph-name="T" unicode="T" horiz-adv-x="1036" 
d="M1169 1382l-28 -157h-389l-236 -1225h-182l233 1225h-391l29 157h964z" />
    <glyph glyph-name="U" unicode="U" horiz-adv-x="1386" 
d="M1386 1382l-165 -876q-99 -526 -631 -526q-99 0 -175 17.5t-125.5 50.5t-81.5 77.5t-44 102t-11 119t15 134.5l170 901h184l-174 -909q-32 -172 28.5 -255t239.5 -83q182 0 284 89.5t142 301.5l164 856h180z" />
    <glyph glyph-name="V" unicode="V" horiz-adv-x="1239" 
d="M1386 1382l-759 -1382h-209l-225 1382h196l135 -888q25 -174 33 -287h4q44 104 150 301l477 874h198z" />
    <glyph glyph-name="W" unicode="W" horiz-adv-x="1914" 
d="M2017 1382l-620 -1382h-230l-80 930q-9 121 -6 239h-2q-42 -125 -94 -237l-428 -932h-223l-94 1382h188l57 -903q8 -128 2 -264h2q70 184 105 258l424 909h211l86 -917q11 -110 8 -248h2q38 113 88 227l412 938h192z" />
    <glyph glyph-name="X" unicode="X" horiz-adv-x="1200" 
d="M1292 1382l-544 -671l321 -711h-221l-238 569l-448 -569h-223l585 719l-293 663h207l224 -524l413 524h217z" />
    <glyph glyph-name="Y" unicode="Y" horiz-adv-x="1077" 
d="M1227 1382l-600 -884l-95 -498h-184l94 498l-254 884h193l127 -467q30 -106 57 -239h2q31 56 166 266l287 440h207z" />
    <glyph glyph-name="Z" unicode="Z" horiz-adv-x="1060" 
d="M1135 1382l-29 -143l-750 -950q-59 -74 -102 -121q41 4 338 4h319l-32 -172h-881l27 139l712 914q36 44 144 166q-157 -5 -287 -5h-344l33 168h852z" />
    <glyph glyph-name="bracketleft" unicode="[" horiz-adv-x="645" 
d="M778 1579l-28 -141h-226l-325 -1700h229l-29 -146h-397l379 1987h397z" />
    <glyph glyph-name="backslash" unicode="\" horiz-adv-x="886" 
d="M745 -330h-165l-351 1880h160z" />
    <glyph glyph-name="bracketright" unicode="]" horiz-adv-x="645" 
d="M682 1579l-379 -1987h-397l28 146h228l323 1700h-227l27 141h397z" />
    <glyph glyph-name="asciicircum" unicode="^" 
d="M999 772l-141 -70l-186 543l-379 -543l-117 68l449 612h145z" />
    <glyph glyph-name="underscore" unicode="_" 
d="M977 -365l-27 -145h-1126l26 145h1127z" />
    <glyph glyph-name="grave" unicode="`" horiz-adv-x="741" 
d="M668 1262l-88 -95l-281 240l111 117z" />
    <glyph glyph-name="a" unicode="a" horiz-adv-x="1101" 
d="M1030 1004q-138 -722 -188 -1004h-183q24 119 119 414l-4 2q-204 -436 -475 -436q-227 0 -227 309q0 115 23.5 221.5t74 202.5t124 167t181 112.5t236.5 41.5q162 0 319 -30zM825 870q-78 19 -145 19q-87 0 -159.5 -34.5t-120 -91.5t-80.5 -131.5t-47.5 -152
t-14.5 -155.5q0 -187 104 -187q69 0 144.5 67t135.5 167t105.5 212t63.5 205z" />
    <glyph glyph-name="b" unicode="b" horiz-adv-x="1101" 
d="M1040 729q0 -115 -23.5 -221.5t-74.5 -202.5t-124.5 -167t-181 -112.5t-237.5 -41.5q-161 0 -317 34l280 1477h183l-96 -496q-19 -100 -113 -391l4 -2q84 196 204.5 314t268.5 118q227 0 227 -309zM854 694q0 187 -104 187q-69 0 -144 -67t-135 -167t-105 -211t-63 -203
l-16 -86q64 -18 145 -18q108 0 192 52t132.5 137t73 181t24.5 195z" />
    <glyph glyph-name="c" unicode="c" horiz-adv-x="843" 
d="M872 1004l-41 -160q-86 39 -186 39q-75 0 -138.5 -32.5t-107 -85.5t-74 -121.5t-45 -140.5t-14.5 -143q0 -215 213 -215q122 0 223 48v-156q-135 -53 -274 -53q-354 0 -354 335q0 196 68.5 357.5t203 259.5t311.5 98q110 0 215 -30z" />
    <glyph glyph-name="d" unicode="d" horiz-adv-x="1101" 
d="M1124 1495l-215 -1126q-2 -14 -33 -181t-34 -188h-180q22 121 116 414l-4 2q-204 -436 -475 -436q-227 0 -227 309q0 115 23.5 221.5t74 202.5t124 167t181 112.5t236.5 41.5q67 0 143 -12l88 473h182zM825 870q-78 19 -145 19q-87 0 -159.5 -34.5t-120 -91.5
t-80.5 -131.5t-47.5 -152t-14.5 -155.5q0 -187 104 -187q69 0 144.5 67t135.5 167t105.5 212t63.5 205z" />
    <glyph glyph-name="e" unicode="e" horiz-adv-x="976" 
d="M934 805q0 -164 -166.5 -254t-493.5 -102q-10 -52 -10 -119q0 -117 47 -158t172 -41q145 0 285 57l6 -143q-157 -63 -354 -63q-176 0 -259 79t-83 250q0 147 40.5 279.5t111.5 231t176.5 156.5t228.5 58q153 0 226 -65.5t73 -165.5zM752 782q0 54 -37.5 84.5t-100.5 30.5
q-116 0 -197.5 -87.5t-119.5 -225.5q235 9 345 57t110 141z" />
    <glyph glyph-name="f" unicode="f" horiz-adv-x="694" 
d="M958 1489l-45 -152q-79 21 -143 21q-111 0 -174 -64.5t-88 -206.5l-12 -69h276l-31 -144h-274l-176 -925q-46 -246 -161.5 -357.5t-305.5 -111.5q-94 0 -176 18l45 156q71 -21 143 -21q112 0 176 69.5t97 242.5l178 929h-207l31 144h202l15 72q37 210 150 313.5
t310 103.5q84 0 170 -18z" />
    <glyph glyph-name="g" unicode="g" horiz-adv-x="1097" 
d="M1030 1004l-209 -1098q-82 -428 -592 -428q-155 0 -274 39l43 178q120 -57 272 -57q163 0 255.5 72t125.5 241q21 111 44 195.5t79 259.5h-4q-203 -426 -471 -426q-227 0 -227 309q0 115 23.5 221.5t74.5 202.5t124.5 167t180.5 112.5t236 41.5q162 0 319 -30zM825 870
q-78 19 -145 19q-87 0 -159.5 -34.5t-120 -91.5t-80.5 -131.5t-47.5 -152t-14.5 -155.5q0 -187 104 -187q69 0 144.5 67t135.5 167t105.5 212t63.5 205z" />
    <glyph glyph-name="h" unicode="h" horiz-adv-x="1153" 
d="M1024 692l-133 -692h-180l125 651q23 120 0.5 175t-91.5 55q-67 0 -141.5 -66t-134 -165.5t-105 -212t-63.5 -208.5l-43 -229h-180l284 1495h181l-92 -477q-23 -133 -115 -402h4q38 85 85 157.5t106 133.5t131 96t149 35q138 0 190.5 -91t22.5 -255z" />
    <glyph glyph-name="i" unicode="i" horiz-adv-x="520" 
d="M545 1348q0 -54 -37 -90.5t-88 -36.5t-84 32.5t-33 79.5q0 54 37.5 90.5t89.5 36.5q50 0 82.5 -33t32.5 -79zM453 1018l-195 -1018h-180l194 1018h181z" />
    <glyph glyph-name="j" unicode="j" horiz-adv-x="528" 
d="M553 1348q0 -54 -37.5 -90.5t-89.5 -36.5q-50 0 -82.5 32.5t-32.5 79.5q0 54 37 90.5t88 36.5q50 0 83.5 -33.5t33.5 -78.5zM461 1018l-219 -1145q-38 -201 -134.5 -297t-283.5 -96q-75 0 -131 16l37 160q61 -23 114 -23q101 0 147 59t77 218l213 1108h180z" />
    <glyph glyph-name="k" unicode="k" horiz-adv-x="972" 
d="M979 965l-434 -408l307 -557h-221l-271 539l-102 -539h-180l284 1495h181l-174 -911l477 485z" />
    <glyph glyph-name="l" unicode="l" horiz-adv-x="520" 
d="M543 1495l-285 -1495h-180l284 1495h181z" />
    <glyph glyph-name="m" unicode="m" horiz-adv-x="1763" 
d="M1632 692l-131 -692h-182l125 651q45 232 -82 232q-80 0 -172.5 -97.5t-165.5 -249.5t-102 -307l-43 -229h-181l125 651q23 120 2.5 176t-86.5 56q-79 0 -171 -97.5t-165 -249.5t-102 -307l-43 -229h-180l102 530q5 27 46 249t44 239h179q-24 -136 -113 -402h4
q29 67 64 126t79.5 114t93 95t107 63.5t119.5 23.5q98 0 151.5 -51.5t53.5 -146.5q0 -71 -50 -226l5 -2q37 86 83 159.5t104 135t129 96.5t146 35q135 0 186.5 -91.5t20.5 -254.5z" />
    <glyph glyph-name="n" unicode="n" horiz-adv-x="1153" 
d="M1024 692l-133 -692h-180l125 651q23 120 0.5 175t-91.5 55q-67 0 -141.5 -66t-134 -165.5t-105 -212t-63.5 -208.5l-43 -229h-180l102 530q5 27 46 249t44 239h179q-23 -131 -113 -402h4q38 85 85 157.5t106 133.5t131 96t149 35q138 0 190.5 -91t22.5 -255z" />
    <glyph glyph-name="o" unicode="o" horiz-adv-x="1103" 
d="M1044 670q0 -153 -50 -284t-132.5 -218.5t-190 -136.5t-222.5 -49q-373 0 -373 362q0 149 45.5 278.5t124.5 220t188 142t232 51.5q193 0 285.5 -98t92.5 -268zM852 649q0 232 -215 232q-108 0 -194.5 -73.5t-132.5 -188.5t-46 -244q0 -117 51 -176.5t164 -59.5
q152 0 262.5 145.5t110.5 364.5z" />
    <glyph glyph-name="p" unicode="p" horiz-adv-x="1101" 
d="M1040 729q0 -115 -23.5 -221.5t-74.5 -202t-124.5 -166t-181 -112t-237.5 -41.5q-73 0 -143 12l-94 -504h-180l198 1036q4 23 45 244.5t45 243.5h181q-27 -134 -115 -408l4 -2q84 194 204.5 312t268.5 118q227 0 227 -309zM854 694q0 187 -104 187q-69 0 -144 -67
t-135 -167t-105 -211t-63 -203l-16 -77q77 -25 147 -25q86 0 158 34.5t119.5 91t80.5 130.5t47.5 151.5t14.5 155.5z" />
    <glyph glyph-name="q" unicode="q" horiz-adv-x="1101" 
d="M1030 1004l-287 -1510h-180l90 469q31 172 125 451l-4 2q-204 -436 -475 -436q-227 0 -227 309q0 115 23.5 221.5t74 202.5t124 167t181 112.5t236.5 41.5q162 0 319 -30zM825 870q-78 19 -145 19q-87 0 -159.5 -34.5t-120 -91.5t-80.5 -131.5t-47.5 -152t-14.5 -155.5
q0 -187 104 -187q69 0 144.5 67t135.5 167t105.5 212t63.5 205z" />
    <glyph glyph-name="r" unicode="r" horiz-adv-x="714" 
d="M780 1036l-37 -178q-67 19 -140 -36t-132 -153t-104.5 -215t-65.5 -225l-43 -229h-180l102 530q50 264 90 488h176q-25 -136 -104 -375l4 -2q47 102 89.5 172.5t95.5 129t115.5 82t133.5 11.5z" />
    <glyph glyph-name="s" unicode="s" horiz-adv-x="780" 
d="M723 1022l-33 -150q-77 25 -153 25q-97 0 -150 -41t-53 -108q0 -44 32 -84.5t77 -74t90.5 -70t77.5 -90t32 -116.5q0 -65 -28.5 -123.5t-81.5 -105.5t-138 -74.5t-190 -27.5q-103 0 -174 14l32 166q85 -29 166 -29q103 0 163.5 41t60.5 119q0 38 -23 71.5t-57 58t-74 56
t-74 62.5t-57 79.5t-23 106.5q0 136 106 222.5t298 86.5q85 0 174 -14z" />
    <glyph glyph-name="t" unicode="t" horiz-adv-x="745" 
d="M770 1018l-29 -144h-276l-100 -532q-21 -118 -2 -159.5t94 -41.5q71 0 141 17l-12 -154q-98 -20 -191 -20q-154 0 -203 76.5t-16 252.5l109 561h-207l28 144h205l64 330l190 43l-71 -373h276z" />
    <glyph glyph-name="u" unicode="u" horiz-adv-x="1153" 
d="M1085 1018l-102 -531q-9 -40 -47.5 -248t-42.5 -239h-180q34 167 112 401h-4q-38 -85 -84.5 -157t-105 -133t-130.5 -96t-149 -35q-138 0 -191 91.5t-22 254.5l131 692h183l-125 -651q-23 -120 -1.5 -175t89.5 -55q67 0 141.5 66t134.5 165t106 211.5t64 208.5l43 230
h180z" />
    <glyph glyph-name="v" unicode="v" horiz-adv-x="966" 
d="M1034 1001l-545 -1001h-188l-180 1018h194l95 -598q15 -97 22 -197h2l430 838z" />
    <glyph glyph-name="w" unicode="w" horiz-adv-x="1585" 
d="M1645 1004l-504 -1004h-207l-80 578q-13 104 -16 204h-2q-235 -488 -385 -782h-199l-113 1018h193l49 -543q16 -188 16 -254h2q227 475 389 797h191l74 -541q12 -104 22 -258h2q156 341 398 840z" />
    <glyph glyph-name="x" unicode="x" horiz-adv-x="1050" 
d="M1092 973l-451 -469l264 -504h-215l-188 383l-402 -436l-143 100l463 475l-252 496h209l180 -379l397 430z" />
    <glyph glyph-name="y" unicode="y" horiz-adv-x="995" 
d="M1042 1008q-428 -997 -778 -1344q-184 -184 -366 -184q-87 0 -144 14l31 166q59 -20 129 -20q54 0 113.5 30.5t111.5 85.5q61 65 88 141t27 185q0 398 -150 936h205q52 -200 83.5 -419t31.5 -380q0 -55 -14 -127h2q230 404 460 967z" />
    <glyph glyph-name="z" unicode="z" horiz-adv-x="880" 
d="M872 1018l-26 -129l-584 -723q110 4 260 4h197l-33 -170h-684l25 129l589 729q-118 -4 -249 -4h-191l33 164h663z" />
    <glyph glyph-name="braceleft" unicode="{" horiz-adv-x="686" 
d="M831 1579l-26 -141q-106 0 -155 -53t-77 -197l-45 -238q-52 -278 -245 -303v-4q86 -12 120.5 -88.5t8.5 -210.5l-70 -356q-28 -144 1 -197t132 -53l-26 -146h-37q-166 0 -221 102t-17 298l72 358q23 120 -17 169.5t-153 55.5l28 146q122 6 177 52t79 169l46 240
q35 190 126.5 293.5t260.5 103.5h38z" />
    <glyph glyph-name="bar" unicode="|" horiz-adv-x="571" 
d="M557 1542l-389 -2048h-143l389 2048h143z" />
    <glyph glyph-name="braceright" unicode="}" horiz-adv-x="686" 
d="M684 721l-29 -146q-122 -6 -177 -53.5t-79 -171.5l-67 -356q-39 -209 -129 -304.5t-258 -95.5h-39l26 146q106 0 155 52.5t77 195.5l67 356q53 280 246 305v4q-88 12 -122 87.5t-7 209.5l47 240q28 144 -1 196t-132 52l27 143h33q321 0 239 -397l-47 -242
q-24 -120 15 -167.5t155 -53.5z" />
    <glyph glyph-name="asciitilde" unicode="~" 
d="M1139 1176q-7 -148 -87.5 -234t-207.5 -86q-63 0 -110.5 23t-76.5 56.5t-53.5 66.5t-56 56t-70.5 23q-61 0 -97 -50t-44 -132h-137q7 148 87.5 235t207.5 87q63 0 110.5 -23.5t76 -57t53 -67t56 -57t70.5 -23.5q61 0 97 50.5t44 132.5h138z" />
    <glyph glyph-name="nbspace" unicode="&#xa0;" horiz-adv-x="446" 
 />
    <glyph glyph-name="exclamdown" unicode="&#xa1;" horiz-adv-x="643" 
d="M504 920q0 -54 -36 -89.5t-89 -35.5q-52 0 -85.5 34t-33.5 82q0 53 37 89t90 36q51 0 84 -34t33 -82zM414 674l-178 -1096h-213l237 1096h154z" />
    <glyph glyph-name="cent" unicode="&#xa2;" 
d="M1061 1104l-64 -152q-104 52 -223 52q-173 0 -283 -119.5t-110 -302.5q0 -217 256 -217q134 0 262 61l25 -147q-130 -59 -265 -68l-38 -211h-146l41 211q-330 29 -330 336q0 254 143 411.5t365 188.5l35 184h145l-36 -178q114 -3 223 -49z" />
    <glyph glyph-name="sterling" unicode="&#xa3;" 
d="M1083 1317l-57 -158q-109 41 -211 41q-51 0 -92.5 -14t-69.5 -36.5t-49 -59t-33 -74t-19.5 -88t-10 -95t-2.5 -102.5h327l-26 -143h-308q-1 -148 -50.5 -244t-166.5 -188q90 4 162 4h445l-31 -160h-836l25 127q115 86 171 152.5t75.5 134t19.5 174.5h-217l27 143h196
q1 70 6 129t19 124.5t36 117t59.5 100t87 80.5t121 51t159.5 19q130 0 243 -35z" />
    <glyph glyph-name="currency" unicode="&#xa4;" 
d="M1147 1120l-197 -198q31 -48 31 -136q0 -207 -137 -352l131 -213l-150 -98l-125 221q-88 -49 -184 -49q-81 0 -137 27l-182 -199l-125 104l184 185q-41 59 -41 161q0 99 37 193t113 166l-121 198l151 95l113 -207q75 37 172 37q100 0 158 -35l192 207zM815 758
q0 73 -40.5 116.5t-125.5 43.5q-82 0 -144 -48t-91 -119t-29 -151q0 -77 39.5 -122.5t122.5 -45.5q78 0 141 50.5t95 124t32 151.5z" />
    <glyph glyph-name="yen" unicode="&#xa5;" 
d="M1221 1331l-502 -725h293l-23 -125h-340l-26 -143h338l-23 -125h-340l-39 -213h-186l41 213h-336l22 125h338l27 143h-338l25 125h294l-215 725h197l115 -411q26 -95 53 -230h2q46 82 150 242l268 399h205z" />
    <glyph glyph-name="brokenbar" unicode="&#xa6;" horiz-adv-x="571" 
d="M557 1542l-143 -754h-144l144 754h143zM313 268l-145 -774h-143l145 774h143z" />
    <glyph glyph-name="section" unicode="&#xa7;" horiz-adv-x="1042" 
d="M930 1491l-37 -156q-74 21 -129 21q-61 0 -105.5 -19.5t-67 -51t-32.5 -63t-10 -63.5q0 -46 33.5 -100.5t80.5 -109t94.5 -115t81 -139t33.5 -160.5q0 -99 -55 -189t-160 -158q41 -74 41 -153q0 -72 -29 -138.5t-82 -119t-135 -84t-180 -31.5q-90 0 -170 23l37 157
q77 -26 148 -26q59 0 104 19.5t69.5 50.5t36 63.5t11.5 64.5q0 37 -18 76.5t-46.5 77.5t-63.5 78t-70 84.5t-63.5 90t-46.5 101.5t-18 113q0 204 217 354q-45 83 -45 162q0 42 13 87.5t45 94t78 87t119.5 63t162.5 24.5q86 0 158 -16zM700 504q0 30 -9.5 62.5t-21.5 58
t-37 62.5t-42.5 60t-53 67.5t-53.5 68.5q-127 -81 -127 -217q0 -29 10 -61.5t20 -56t38 -63t42 -57.5t54 -67.5t53 -65.5q127 79 127 209z" />
    <glyph glyph-name="dieresis" unicode="&#xa8;" horiz-adv-x="1095" 
d="M928 1346q0 -50 -33 -82.5t-80 -32.5q-46 0 -77 31t-31 75q0 47 34 80t80 33q45 0 76 -31t31 -73zM535 1346q0 -50 -33 -82.5t-80 -32.5q-46 0 -77.5 30.5t-31.5 73.5q0 49 34 82t81 33q45 0 76 -31t31 -73z" />
    <glyph glyph-name="copyright" unicode="&#xa9;" horiz-adv-x="1517" 
d="M1481 719q0 -151 -58.5 -285.5t-156.5 -229t-228.5 -149.5t-271.5 -55q-140 0 -263.5 51t-210.5 138.5t-137.5 208t-50.5 255.5q0 120 37.5 231.5t105.5 198.5t157 152t196.5 100t220.5 35q137 0 260 -50.5t210.5 -137.5t138.5 -207.5t51 -255.5zM1335 713
q0 104 -40.5 200t-110 165.5t-166 111t-203.5 41.5q-112 0 -215 -43.5t-179.5 -118.5t-122.5 -182t-46 -228q0 -105 40.5 -201t110 -166t166 -111.5t203.5 -41.5q112 0 215 44t179.5 119t122.5 182.5t46 228.5zM1049 1024l-41 -129q-57 31 -140 31q-52 0 -94.5 -21
t-69.5 -54t-45.5 -76.5t-26 -86.5t-7.5 -86q0 -147 141 -147q86 0 166 30l4 -127q-98 -34 -203 -34q-134 0 -201 66t-67 185q0 130 49.5 237.5t146 173t220.5 65.5q99 0 168 -27z" />
    <glyph glyph-name="ordfeminine" unicode="&#xaa;" horiz-adv-x="788" 
d="M834 1376q-107 -557 -125 -674h-150q13 62 62 205h-3q-52 -104 -125 -160.5t-161 -56.5q-172 0 -172 209q0 99 28.5 187.5t82 158t138.5 110t191 40.5q125 0 234 -19zM735 578l-26 -146h-592l26 146h592zM666 1262q-44 10 -97 10q-77 0 -137 -51t-89.5 -127t-29.5 -160
q0 -60 17 -85.5t53 -25.5q85 0 164 115t108 268z" />
    <glyph glyph-name="guillemotleft" unicode="&#xab;" horiz-adv-x="1011" 
d="M961 891l-256 -289l161 -291l-147 -73l-197 372l312 359zM555 895l-242 -293l146 -297l-150 -72l-178 377l295 363z" />
    <glyph glyph-name="logicalnot" unicode="&#xac;" 
d="M1024 686l-90 -475h-162l62 321h-740l29 154h901z" />
    <glyph glyph-name="registered" unicode="&#xae;" horiz-adv-x="1128" 
d="M1122 1106q0 -130 -66 -239.5t-173.5 -170.5t-227.5 -61q-181 0 -302.5 121t-121.5 299q0 134 66.5 244.5t173.5 170.5t229 60q180 0 301 -121t121 -303zM999 1100q0 129 -88 223t-215 94q-136 0 -237 -100.5t-101 -247.5q0 -132 88 -226.5t216 -94.5q136 0 236.5 102
t100.5 250zM870 1219q0 -61 -39 -102.5t-100 -55.5q16 -23 29 -62l57 -145h-112l-70 193h-14l-37 -193h-97l88 467h152q143 0 143 -102zM762 1202q0 22 -13 31.5t-42 9.5h-48l-24 -127h29q44 0 71 25t27 61z" />
    <glyph glyph-name="macron" unicode="&#xaf;" horiz-adv-x="792" 
d="M823 1401l-24 -139h-506l24 139h506z" />
    <glyph glyph-name="degree" unicode="&#xb0;" horiz-adv-x="753" 
d="M803 1268q0 -133 -87.5 -208t-205.5 -75q-120 0 -187 66.5t-67 173.5q0 88 44.5 153.5t109.5 96t137 30.5q126 0 191 -66.5t65 -170.5zM657 1255q0 50 -28 90.5t-90 40.5q-59 0 -98.5 -41t-39.5 -108q0 -61 32.5 -96t90.5 -35t95.5 40.5t37.5 108.5z" />
    <glyph glyph-name="plusminus" unicode="&#xb1;" 
d="M1106 840l-29 -152h-389l-78 -403h-174l78 403h-391l29 152h389l77 401h175l-76 -401h389zM973 154l-31 -154h-946l31 154h946z" />
    <glyph glyph-name="twosuperior" unicode="&#xb2;" horiz-adv-x="636" 
d="M643 1194q0 -70 -38 -128t-128 -126l-112 -84h241l-24 -127h-443l21 109l172 133q83 65 113 105t30 83q0 29 -20 47.5t-58 18.5q-65 0 -121 -37l-28 112q98 48 194 48q99 0 150 -42.5t51 -111.5z" />
    <glyph glyph-name="threesuperior" unicode="&#xb3;" horiz-adv-x="1171" 
d="M621 1214q0 -120 -121 -172q43 -6 66.5 -35t23.5 -73q0 -96 -83 -158.5t-233 -62.5q-71 0 -129 16l31 109q62 -17 100 -17q150 0 150 107q0 80 -190 55l16 98h39q89 0 130.5 30t41.5 77q0 24 -19 39.5t-59 15.5q-52 0 -113 -26l-18 98q81 33 178 33q95 0 142 -37.5
t47 -96.5z" />
    <glyph glyph-name="acute" unicode="&#xb4;" horiz-adv-x="780" 
d="M698 1397l-331 -230l-70 103l313 254z" />
    <glyph glyph-name="mu" unicode="&#xb5;" horiz-adv-x="1261" 
d="M1157 133q-93 -151 -239 -151q-148 0 -148 143q0 68 31 160l-4 2q-45 -108 -164.5 -205.5t-235.5 -97.5q-89 0 -141 61l-76 -551h-192l291 1524h180l-125 -651q-21 -113 7.5 -171.5t90.5 -58.5q53 0 116.5 41.5t123.5 113.5t109.5 180t72.5 230l59 316h181l-138 -719
q-18 -101 -10 -133.5t43 -32.5q53 0 98 72z" />
    <glyph glyph-name="paragraph" unicode="&#xb6;" horiz-adv-x="1157" 
d="M1204 1382l-24 -143h-144l-272 -1436h-309l26 144h148l272 1435h303zM750 1382l-166 -876q-186 0 -280.5 93.5t-94.5 252.5q0 97 36.5 191t103.5 170t171.5 122.5t229.5 46.5z" />
    <glyph glyph-name="periodcentered" unicode="&#xb7;" horiz-adv-x="479" 
d="M395 614q0 -57 -41 -97t-96 -40q-53 0 -90 37.5t-37 89.5q0 56 40.5 95.5t96.5 39.5q54 0 90.5 -36.5t36.5 -88.5z" />
    <glyph glyph-name="cedilla" unicode="&#xb8;" horiz-adv-x="802" 
d="M408 -82q41 -66 39 -135t-35.5 -132t-100.5 -132h-157q66 70 96.5 122t30.5 106.5t-37 113.5z" />
    <glyph glyph-name="onesuperior" unicode="&#xb9;" horiz-adv-x="618" 
d="M578 1331l-115 -602h-152l88 469l-153 -65l-8 118l200 80h140z" />
    <glyph glyph-name="ordmasculine" unicode="&#xba;" horiz-adv-x="841" 
d="M858 1151q0 -110 -35 -199.5t-93.5 -145.5t-131.5 -86t-152 -30q-258 0 -258 244q0 125 48 230.5t141 171t213 65.5q140 0 204 -66.5t64 -183.5zM721 578l-29 -146h-571l29 146h571zM692 1128q0 138 -121 138q-46 0 -84.5 -20t-63 -52t-41 -73t-23.5 -80.5t-7 -77.5
q0 -136 117 -136q98 0 160.5 87.5t62.5 213.5z" />
    <glyph glyph-name="guillemotright" unicode="&#xbb;" horiz-adv-x="1011" 
d="M948 598l-295 -362l-129 77l242 293l-143 297l149 72zM557 598l-311 -358l-127 77l256 289l-162 291l147 74z" />
    <glyph glyph-name="onequarter" unicode="&#xbc;" horiz-adv-x="1419" 
d="M578 1331l-115 -602h-152l88 469l-153 -65l-8 118l200 80h140zM1378 1280l-1251 -1323l-100 90l1249 1323zM1255 227l-22 -114h-100l-23 -113h-139l22 113h-291l11 106l299 383h213l-72 -375h102zM1067 500l-215 -273h162z" />
    <glyph glyph-name="onehalf" unicode="&#xbd;" horiz-adv-x="1427" 
d="M1270 463q0 -70 -38.5 -127.5t-127.5 -124.5l-113 -86h242l-27 -125h-440l20 106l172 136q83 63 113.5 103.5t30.5 82.5q0 31 -20 49.5t-58 18.5q-62 0 -121 -39l-29 114q96 47 195 47t150 -43t51 -112zM1378 1280l-1251 -1323l-100 90l1249 1323zM578 1331l-115 -602
h-152l88 469l-153 -65l-8 118l200 80h140z" />
    <glyph glyph-name="threequarters" unicode="&#xbe;" horiz-adv-x="1421" 
d="M1071 500l-215 -273h162zM1260 227l-23 -114h-100l-23 -113h-139l22 113h-290l10 106l299 383h213l-72 -375h103zM1380 1280l-1251 -1323l-100 90l1249 1323zM623 1214q0 -121 -119 -172q43 -6 66.5 -35t23.5 -73q0 -96 -82.5 -158.5t-232.5 -62.5q-71 0 -129 16l30 109
q62 -17 101 -17q149 0 149 107q0 80 -190 55l16 98h39q88 0 130 30t42 77q0 24 -19 39.5t-59 15.5q-55 0 -113 -26l-18 98q81 33 176 33q96 0 142.5 -37t46.5 -97z" />
    <glyph glyph-name="questiondown" unicode="&#xbf;" horiz-adv-x="894" 
d="M715 920q0 -53 -37 -89t-90 -36q-52 0 -85.5 34t-33.5 82q0 53 37 89t90 36q52 0 85.5 -34t33.5 -82zM639 674q12 -87 -3.5 -161t-50.5 -125.5t-80 -96.5t-92 -83t-86.5 -74t-65 -81t-25.5 -94q0 -90 95 -149.5t251 -77.5l-54 -168q-235 19 -364 123t-129 247
q0 70 26 130t67 103.5t90 84t95.5 82t83.5 88t54.5 111t7.5 141.5h180z" />
    <glyph glyph-name="Agrave" unicode="&#xc0;" horiz-adv-x="1239" 
d="M1122 0h-198l-50 324h-577l-174 -324h-197l758 1382h205zM854 473l-86 508q-10 64 -23 190h-2q-66 -138 -92 -186l-276 -512h479zM909 1591l-45 -106l-387 114l64 144z" />
    <glyph glyph-name="Aacute" unicode="&#xc1;" horiz-adv-x="1239" 
d="M1122 0h-198l-50 324h-577l-174 -324h-197l758 1382h205zM854 473l-86 508q-10 64 -23 190h-2q-66 -138 -92 -186l-276 -512h479zM1090 1599l-398 -114l-26 106l389 152z" />
    <glyph glyph-name="Acircumflex" unicode="&#xc2;" horiz-adv-x="1239" 
d="M1122 0h-198l-50 324h-577l-174 -324h-197l758 1382h205zM854 473l-86 508q-10 64 -23 190h-2q-66 -138 -92 -186l-276 -512h479zM1116 1585l-59 -102l-250 129l-287 -129l-41 98l342 174z" />
    <glyph glyph-name="Atilde" unicode="&#xc3;" horiz-adv-x="1239" 
d="M1122 0h-198l-50 324h-577l-174 -324h-197l758 1382h205zM854 473l-86 508q-10 64 -23 190h-2q-66 -138 -92 -186l-276 -512h479zM1161 1655q-89 -150 -231 -150q-46 0 -85.5 16.5t-63 37t-53.5 37t-58 16.5q-72 0 -131 -92l-90 67q90 152 231 152q46 0 85.5 -16.5
t63 -37t53.5 -37t58 -16.5q68 0 131 90z" />
    <glyph glyph-name="Adieresis" unicode="&#xc4;" horiz-adv-x="1239" 
d="M1122 0h-198l-50 324h-577l-174 -324h-197l758 1382h205zM854 473l-86 508q-10 64 -23 190h-2q-66 -138 -92 -186l-276 -512h479zM1126 1604q0 -44 -30.5 -75.5t-73.5 -31.5q-41 0 -69.5 28.5t-28.5 69.5q0 44 30.5 75.5t73.5 31.5q42 0 70 -28t28 -70zM698 1604
q0 -44 -31 -75.5t-73 -31.5q-43 0 -71.5 28.5t-28.5 69.5q0 44 31.5 75.5t74.5 31.5q42 0 70 -28t28 -70z" />
    <glyph glyph-name="Aring" unicode="&#xc5;" horiz-adv-x="1239" 
d="M1122 0h-198l-50 324h-577l-174 -324h-197l725 1323q-84 54 -84 160q0 103 73.5 171t170.5 68q93 0 155 -61t62 -152q0 -66 -36 -119.5t-93 -80.5zM911 1503q0 45 -30 78t-76 33q-48 0 -83.5 -36t-35.5 -87q0 -46 30 -78.5t75 -32.5q48 0 84 35.5t36 87.5zM852 473
l-82 494q-19 105 -25 202h-4q-47 -106 -100 -204l-266 -492h477z" />
    <glyph glyph-name="AE" unicode="&#xc6;" horiz-adv-x="1550" 
d="M1583 1382l-29 -155h-503l-84 -439h483l-29 -151h-483l-92 -479h522l-29 -158h-702l63 330h-446l-231 -330h-203l973 1382h790zM872 1227h-6q-83 -144 -186 -287l-330 -461h381z" />
    <glyph glyph-name="Ccedilla" unicode="&#xc7;" horiz-adv-x="1150" 
d="M1210 1354l-51 -170q-140 49 -282 49q-116 0 -212 -44t-160 -116.5t-108.5 -169.5t-64 -200t-19.5 -211q0 -79 17 -138.5t56 -106t107.5 -71t165.5 -24.5q163 0 318 67l6 -164q-183 -71 -377 -71q-115 0 -203 26.5t-143 70t-89.5 106.5t-48 128.5t-13.5 143.5
q0 147 32 283.5t98 255.5t158.5 207.5t223 139t282.5 50.5q170 0 307 -41zM608 -82q39 -67 38.5 -135t-34 -131.5t-100.5 -132.5h-158q66 70 96.5 122t30.5 106.5t-37 113.5z" />
    <glyph glyph-name="Egrave" unicode="&#xc8;" horiz-adv-x="1005" 
d="M1038 1382l-30 -155h-512l-84 -439h489l-29 -151h-489l-90 -479h514l-31 -158h-696l262 1382h696zM846 1591l-45 -106l-387 114l63 144z" />
    <glyph glyph-name="Eacute" unicode="&#xc9;" horiz-adv-x="1005" 
d="M1038 1382l-30 -155h-512l-84 -439h489l-29 -151h-489l-90 -479h514l-31 -158h-696l262 1382h696zM1001 1599l-397 -114l-26 106l389 152z" />
    <glyph glyph-name="Ecircumflex" unicode="&#xca;" horiz-adv-x="1005" 
d="M1038 1382l-30 -155h-512l-84 -439h489l-29 -151h-489l-90 -479h514l-31 -158h-696l262 1382h696zM1036 1585l-59 -102l-250 129l-287 -129l-41 98l342 174z" />
    <glyph glyph-name="Edieresis" unicode="&#xcb;" horiz-adv-x="1005" 
d="M1038 1382l-30 -155h-512l-84 -439h489l-29 -151h-489l-90 -479h514l-31 -158h-696l262 1382h696zM1026 1604q0 -44 -30.5 -75.5t-73.5 -31.5q-41 0 -70 28.5t-29 69.5q0 44 31 75.5t74 31.5q42 0 70 -28t28 -70zM598 1604q0 -44 -31 -75.5t-73 -31.5q-43 0 -72 28.5
t-29 69.5q0 44 32 75.5t75 31.5q42 0 70 -28t28 -70z" />
    <glyph glyph-name="Igrave" unicode="&#xcc;" horiz-adv-x="526" 
d="M524 1382l-262 -1382h-182l262 1382h182zM584 1591l-45 -106l-387 114l63 144z" />
    <glyph glyph-name="Iacute" unicode="&#xcd;" horiz-adv-x="526" 
d="M524 1382l-262 -1382h-182l262 1382h182zM756 1599l-398 -114l-26 106l389 152z" />
    <glyph glyph-name="Icircumflex" unicode="&#xce;" horiz-adv-x="526" 
d="M524 1382l-262 -1382h-182l262 1382h182zM782 1585l-59 -102l-250 129l-287 -129l-41 98l342 174z" />
    <glyph glyph-name="Idieresis" unicode="&#xcf;" horiz-adv-x="526" 
d="M524 1382l-262 -1382h-182l262 1382h182zM780 1604q0 -44 -30.5 -75.5t-73.5 -31.5q-41 0 -69.5 28.5t-28.5 69.5q0 44 30.5 75.5t73.5 31.5q42 0 70 -28t28 -70zM352 1604q0 -44 -31 -75.5t-73 -31.5q-43 0 -72 28.5t-29 69.5q0 44 32 75.5t75 31.5q42 0 70 -28t28 -70z
" />
    <glyph glyph-name="Eth" unicode="&#xd0;" horiz-adv-x="1386" 
d="M1350 887q0 -139 -34 -268t-106.5 -243.5t-176.5 -199.5t-253.5 -134.5t-328.5 -49.5q-81 0 -195 4t-158 4l121 639h-194l26 143h197l112 598q18 0 167 4.5t229 4.5q156 0 272 -36t185.5 -103.5t103 -157.5t33.5 -205zM1153 868q0 83 -21 147t-68 115t-131.5 78
t-203.5 27q-54 0 -213 -6l-86 -447h287l-29 -143h-285l-90 -475q77 -12 166 -12q141 0 256.5 43t191.5 113.5t128.5 164.5t75 193t22.5 202z" />
    <glyph glyph-name="Ntilde" unicode="&#xd1;" horiz-adv-x="1396" 
d="M1399 1382l-264 -1382h-215l-355 846q-58 135 -102 293q-46 -296 -86 -514l-117 -625h-182l262 1382h219l348 -827q50 -116 109 -303q7 41 37 220t47 273l117 637h182zM1262 1655q-89 -150 -232 -150q-46 0 -85.5 16.5t-63 37t-53.5 37t-58 16.5q-72 0 -131 -92l-90 67
q90 152 231 152q46 0 85.5 -16.5t63 -37t53.5 -37t58 -16.5q68 0 131 90z" />
    <glyph glyph-name="Ograve" unicode="&#xd2;" horiz-adv-x="1415" 
d="M1391 899q0 -193 -63 -364.5t-170 -292.5t-253.5 -191.5t-308.5 -70.5q-246 0 -370 131t-124 372q0 185 61 354t165 293.5t251.5 198.5t313.5 74q240 0 369 -131.5t129 -372.5zM1192 879q0 169 -83.5 263.5t-246.5 94.5q-160 0 -289.5 -100t-200.5 -266t-71 -361
q0 -170 83 -266.5t239 -96.5q154 0 285 96.5t207.5 265.5t76.5 370zM1042 1591l-45 -106l-387 114l64 144z" />
    <glyph glyph-name="Oacute" unicode="&#xd3;" horiz-adv-x="1415" 
d="M1391 899q0 -193 -63 -364.5t-170 -292.5t-253.5 -191.5t-308.5 -70.5q-246 0 -370 131t-124 372q0 185 61 354t165 293.5t251.5 198.5t313.5 74q240 0 369 -131.5t129 -372.5zM1192 879q0 169 -83.5 263.5t-246.5 94.5q-160 0 -289.5 -100t-200.5 -266t-71 -361
q0 -170 83 -266.5t239 -96.5q154 0 285 96.5t207.5 265.5t76.5 370zM1239 1599l-397 -114l-27 106l389 152z" />
    <glyph glyph-name="Ocircumflex" unicode="&#xd4;" horiz-adv-x="1415" 
d="M1391 899q0 -193 -63 -364.5t-170 -292.5t-253.5 -191.5t-308.5 -70.5q-246 0 -370 131t-124 372q0 185 61 354t165 293.5t251.5 198.5t313.5 74q240 0 369 -131.5t129 -372.5zM1192 879q0 169 -83.5 263.5t-246.5 94.5q-160 0 -289.5 -100t-200.5 -266t-71 -361
q0 -170 83 -266.5t239 -96.5q154 0 285 96.5t207.5 265.5t76.5 370zM1260 1585l-60 -102l-250 129l-286 -129l-41 98l342 174z" />
    <glyph glyph-name="Otilde" unicode="&#xd5;" horiz-adv-x="1415" 
d="M1391 899q0 -193 -63 -364.5t-170 -292.5t-253.5 -191.5t-308.5 -70.5q-246 0 -370 131t-124 372q0 185 61 354t165 293.5t251.5 198.5t313.5 74q240 0 369 -131.5t129 -372.5zM1192 879q0 169 -83.5 263.5t-246.5 94.5q-160 0 -289.5 -100t-200.5 -266t-71 -361
q0 -170 83 -266.5t239 -96.5q154 0 285 96.5t207.5 265.5t76.5 370zM1313 1655q-89 -150 -232 -150q-46 0 -85.5 16.5t-63 37t-53.5 37t-58 16.5q-72 0 -131 -92l-90 67q90 152 231 152q46 0 85.5 -16.5t63.5 -37t54 -37t58 -16.5q68 0 131 90z" />
    <glyph glyph-name="Odieresis" unicode="&#xd6;" horiz-adv-x="1415" 
d="M1391 899q0 -193 -63 -364.5t-170 -292.5t-253.5 -191.5t-308.5 -70.5q-246 0 -370 131t-124 372q0 185 61 354t165 293.5t251.5 198.5t313.5 74q240 0 369 -131.5t129 -372.5zM1192 879q0 169 -83.5 263.5t-246.5 94.5q-160 0 -289.5 -100t-200.5 -266t-71 -361
q0 -170 83 -266.5t239 -96.5q154 0 285 96.5t207.5 265.5t76.5 370zM1270 1604q0 -44 -31 -75.5t-74 -31.5q-41 0 -69.5 28.5t-28.5 69.5q0 44 30.5 75.5t73.5 31.5t71 -28t28 -70zM842 1604q0 -44 -31.5 -75.5t-73.5 -31.5q-43 0 -71.5 28.5t-28.5 69.5q0 44 31.5 75.5
t74.5 31.5t71 -28t28 -70z" />
    <glyph glyph-name="multiply" unicode="&#xd7;" 
d="M1102 948l-410 -344l279 -346l-123 -100l-277 344l-409 -344l-94 110l413 346l-280 347l123 98l278 -342l408 342z" />
    <glyph glyph-name="Oslash" unicode="&#xd8;" horiz-adv-x="1415" 
d="M1391 899q0 -193 -63 -364.5t-170 -292.5t-253.5 -191.5t-308.5 -70.5q-82 0 -160 20l-110 -207l-133 55l110 201q-201 122 -201 434q0 186 60.5 355t164.5 293.5t252 198t314 73.5q67 0 143 -17l105 191l131 -53l-103 -185q222 -119 222 -440zM1196 881q0 197 -117 286
l-555 -1007q57 -15 133 -8q146 11 269.5 109t196.5 262t73 358zM950 1229q-65 11 -119 8q-152 -10 -275 -112t-191 -265t-68 -352q0 -192 104 -277z" />
    <glyph glyph-name="Ugrave" unicode="&#xd9;" horiz-adv-x="1386" 
d="M1386 1382l-165 -876q-99 -526 -631 -526q-99 0 -175 17.5t-125.5 50.5t-81.5 77.5t-44 102t-11 119t15 134.5l170 901h184l-174 -909q-32 -172 28.5 -255t239.5 -83q182 0 284 89.5t142 301.5l164 856h180zM999 1591l-45 -106l-387 114l64 144z" />
    <glyph glyph-name="Uacute" unicode="&#xda;" horiz-adv-x="1386" 
d="M1386 1382l-165 -876q-99 -526 -631 -526q-99 0 -175 17.5t-125.5 50.5t-81.5 77.5t-44 102t-11 119t15 134.5l170 901h184l-174 -909q-32 -172 28.5 -255t239.5 -83q182 0 284 89.5t142 301.5l164 856h180zM1217 1599l-398 -114l-26 106l389 152z" />
    <glyph glyph-name="Ucircumflex" unicode="&#xdb;" horiz-adv-x="1386" 
d="M1386 1382l-165 -876q-99 -526 -631 -526q-99 0 -175 17.5t-125.5 50.5t-81.5 77.5t-44 102t-11 119t15 134.5l170 901h184l-174 -909q-32 -172 28.5 -255t239.5 -83q182 0 284 89.5t142 301.5l164 856h180zM1214 1585l-59 -102l-250 129l-287 -129l-40 98l342 174z" />
    <glyph glyph-name="Udieresis" unicode="&#xdc;" horiz-adv-x="1386" 
d="M1386 1382l-165 -876q-99 -526 -631 -526q-99 0 -175 17.5t-125.5 50.5t-81.5 77.5t-44 102t-11 119t15 134.5l170 901h184l-174 -909q-32 -172 28.5 -255t239.5 -83q182 0 284 89.5t142 301.5l164 856h180zM1192 1604q0 -44 -31 -75.5t-74 -31.5q-41 0 -69.5 28.5
t-28.5 69.5q0 44 31 75.5t74 31.5q42 0 70 -28t28 -70zM764 1604q0 -44 -31.5 -75.5t-73.5 -31.5q-43 0 -71.5 28.5t-28.5 69.5q0 44 32 75.5t75 31.5q42 0 70 -28t28 -70z" />
    <glyph glyph-name="Yacute" unicode="&#xdd;" horiz-adv-x="1077" 
d="M1227 1382l-600 -884l-95 -498h-184l94 498l-254 884h193l127 -467q30 -106 57 -239h2q31 56 166 266l287 440h207zM1042 1599l-397 -114l-27 106l390 152z" />
    <glyph glyph-name="Thorn" unicode="&#xde;" horiz-adv-x="1058" 
d="M1085 836q0 -111 -44 -212t-124.5 -179t-203.5 -124.5t-271 -46.5q-72 0 -127 9l-53 -283h-184l262 1382h184l-39 -208q110 4 177 4q210 0 316.5 -91.5t106.5 -250.5zM891 805q0 103 -68.5 161t-212.5 58q-99 0 -155 -10l-111 -576q57 -8 131 -8q193 0 304.5 109
t111.5 266z" />
    <glyph glyph-name="germandbls" unicode="&#xdf;" horiz-adv-x="1161" 
d="M1106 1266q0 -61 -18.5 -111t-48 -83t-65.5 -61t-72 -52.5t-65.5 -49.5t-48 -60t-18.5 -77q0 -46 26 -90t62.5 -80.5t73 -76t62.5 -94t26 -116.5q0 -141 -116 -237t-310 -96q-99 0 -170 14l33 164q85 -29 157 -29q101 0 158 44t57 120q0 40 -18 78t-45.5 66.5t-59 63
t-59 67t-45.5 79.5t-18 99q0 58 18.5 105.5t48 79.5t65 60t71 53t65 51.5t48 63t18.5 80.5q0 54 -39.5 87.5t-112.5 33.5q-246 0 -309 -328l-207 -1089q-50 -255 -161.5 -361t-305.5 -106q-59 0 -145 16l40 154q70 -17 129 -17q111 0 169 66.5t92 247.5l204 1079
q94 481 516 481q148 0 233 -65.5t85 -173.5z" />
    <glyph glyph-name="agrave" unicode="&#xe0;" horiz-adv-x="1101" 
d="M1030 1004q-138 -722 -188 -1004h-183q24 119 119 414l-4 2q-204 -436 -475 -436q-227 0 -227 309q0 115 23.5 221.5t74 202.5t124 167t181 112.5t236.5 41.5q162 0 319 -30zM825 870q-78 19 -145 19q-87 0 -159.5 -34.5t-120 -91.5t-80.5 -131.5t-47.5 -152
t-14.5 -155.5q0 -187 104 -187q69 0 144.5 67t135.5 167t105.5 212t63.5 205zM874 1262l-88 -95l-280 240l110 117z" />
    <glyph glyph-name="aacute" unicode="&#xe1;" horiz-adv-x="1101" 
d="M1030 1004q-138 -722 -188 -1004h-183q24 119 119 414l-4 2q-204 -436 -475 -436q-227 0 -227 309q0 115 23.5 221.5t74 202.5t124 167t181 112.5t236.5 41.5q162 0 319 -30zM825 870q-78 19 -145 19q-87 0 -159.5 -34.5t-120 -91.5t-80.5 -131.5t-47.5 -152
t-14.5 -155.5q0 -187 104 -187q69 0 144.5 67t135.5 167t105.5 212t63.5 205zM1061 1397l-332 -230l-70 103l314 254z" />
    <glyph glyph-name="acircumflex" unicode="&#xe2;" horiz-adv-x="1101" 
d="M1030 1004q-138 -722 -188 -1004h-183q24 119 119 414l-4 2q-204 -436 -475 -436q-227 0 -227 309q0 115 23.5 221.5t74 202.5t124 167t181 112.5t236.5 41.5q162 0 319 -30zM825 870q-78 19 -145 19q-87 0 -159.5 -34.5t-120 -91.5t-80.5 -131.5t-47.5 -152
t-14.5 -155.5q0 -187 104 -187q69 0 144.5 67t135.5 167t105.5 212t63.5 205zM1032 1257l-88 -90l-170 174l-229 -174l-70 86l324 271z" />
    <glyph glyph-name="atilde" unicode="&#xe3;" horiz-adv-x="1101" 
d="M1030 1004q-138 -722 -188 -1004h-183q24 119 119 414l-4 2q-204 -436 -475 -436q-227 0 -227 309q0 115 23.5 221.5t74 202.5t124 167t181 112.5t236.5 41.5q162 0 319 -30zM825 870q-78 19 -145 19q-87 0 -159.5 -34.5t-120 -91.5t-80.5 -131.5t-47.5 -152
t-14.5 -155.5q0 -187 104 -187q69 0 144.5 67t135.5 167t105.5 212t63.5 205zM1104 1376q-41 -76 -101 -117.5t-129 -41.5q-44 0 -82 17.5t-59.5 38.5t-49.5 38.5t-56 17.5q-65 0 -127 -96l-90 74q42 76 100 116.5t127 40.5q43 0 81.5 -17t61.5 -38t52 -38t57 -17
q67 0 125 94z" />
    <glyph glyph-name="adieresis" unicode="&#xe4;" horiz-adv-x="1101" 
d="M1030 1004q-138 -722 -188 -1004h-183q24 119 119 414l-4 2q-204 -436 -475 -436q-227 0 -227 309q0 115 23.5 221.5t74 202.5t124 167t181 112.5t236.5 41.5q162 0 319 -30zM825 870q-78 19 -145 19q-87 0 -159.5 -34.5t-120 -91.5t-80.5 -131.5t-47.5 -152
t-14.5 -155.5q0 -187 104 -187q69 0 144.5 67t135.5 167t105.5 212t63.5 205zM1047 1346q0 -50 -33 -82.5t-80 -32.5q-46 0 -77.5 31t-31.5 75q0 47 34.5 80t80.5 33q45 0 76 -31t31 -73zM653 1346q0 -50 -32.5 -82.5t-79.5 -32.5q-46 0 -77.5 30.5t-31.5 73.5q0 49 34 82
t81 33q45 0 75.5 -31t30.5 -73z" />
    <glyph glyph-name="aring" unicode="&#xe5;" horiz-adv-x="1101" 
d="M1030 1004q-138 -722 -188 -1004h-183q24 119 119 414l-4 2q-204 -436 -475 -436q-227 0 -227 309q0 115 23.5 221.5t74 202.5t124 167t181 112.5t236.5 41.5q162 0 319 -30zM825 870q-78 19 -145 19q-87 0 -159.5 -34.5t-120 -91.5t-80.5 -131.5t-47.5 -152
t-14.5 -155.5q0 -187 104 -187q69 0 144.5 67t135.5 167t105.5 212t63.5 205zM1024 1370q0 -100 -73 -168.5t-171 -68.5q-93 0 -155 59t-62 151q0 103 73.5 170.5t170.5 67.5q94 0 155.5 -60t61.5 -151zM905 1364q0 46 -29 78.5t-75 32.5q-50 0 -85.5 -36.5t-35.5 -88.5
q0 -46 30.5 -78.5t75.5 -32.5q48 0 83.5 36t35.5 89z" />
    <glyph glyph-name="ae" unicode="&#xe6;" horiz-adv-x="1562" 
d="M1522 805q0 -60 -19 -107.5t-65.5 -90.5t-121 -73.5t-190 -51.5t-268.5 -29q-8 -62 -8 -123q0 -116 47.5 -157.5t171.5 -41.5q149 0 289 59v-147q-153 -61 -350 -61q-152 0 -223 58.5t-97 168.5q-53 -93 -161.5 -160t-231.5 -67q-129 0 -192.5 59.5t-63.5 157.5
q0 70 22.5 126t66.5 96t101.5 69.5t134.5 48.5t158 29.5t180 15.5l15 67q24 122 -14 182t-158 60q-70 0 -154.5 -23.5t-152.5 -62.5v160q172 71 342 71q135 0 199 -41.5t91 -115.5q58 65 152 110t199 45q154 0 227.5 -65.5t73.5 -165.5zM1337 782q0 55 -37.5 86t-99.5 31
q-114 0 -195.5 -87t-119.5 -224q110 7 185.5 18t139.5 32t95.5 57t31.5 87zM676 453q-109 -7 -184 -18.5t-140.5 -35t-98 -64t-32.5 -99.5q0 -49 33.5 -79t87.5 -30q122 0 216 96t118 230z" />
    <glyph glyph-name="ccedilla" unicode="&#xe7;" horiz-adv-x="843" 
d="M872 1004l-41 -160q-86 39 -186 39q-75 0 -138.5 -32.5t-107 -85.5t-74 -121.5t-45 -140.5t-14.5 -143q0 -215 213 -215q122 0 223 48v-156q-135 -53 -274 -53q-354 0 -354 335q0 196 68.5 357.5t203 259.5t311.5 98q110 0 215 -30zM420 -82q39 -67 38.5 -135t-34 -131.5
t-100.5 -132.5h-158q66 70 96.5 122t30.5 106.5t-37 113.5z" />
    <glyph glyph-name="egrave" unicode="&#xe8;" horiz-adv-x="976" 
d="M934 805q0 -164 -166.5 -254t-493.5 -102q-10 -52 -10 -119q0 -117 47 -158t172 -41q145 0 285 57l6 -143q-157 -63 -354 -63q-176 0 -259 79t-83 250q0 147 40.5 279.5t111.5 231t176.5 156.5t228.5 58q153 0 226 -65.5t73 -165.5zM752 782q0 54 -37.5 84.5t-100.5 30.5
q-116 0 -197.5 -87.5t-119.5 -225.5q235 9 345 57t110 141zM809 1262l-88 -95l-281 240l111 117z" />
    <glyph glyph-name="eacute" unicode="&#xe9;" horiz-adv-x="976" 
d="M934 805q0 -164 -166.5 -254t-493.5 -102q-10 -52 -10 -119q0 -117 47 -158t172 -41q145 0 285 57l6 -143q-157 -63 -354 -63q-176 0 -259 79t-83 250q0 147 40.5 279.5t111.5 231t176.5 156.5t228.5 58q153 0 226 -65.5t73 -165.5zM752 782q0 54 -37.5 84.5t-100.5 30.5
q-116 0 -197.5 -87.5t-119.5 -225.5q235 9 345 57t110 141zM956 1397l-331 -230l-70 103l313 254z" />
    <glyph glyph-name="ecircumflex" unicode="&#xea;" horiz-adv-x="976" 
d="M934 805q0 -164 -166.5 -254t-493.5 -102q-10 -52 -10 -119q0 -117 47 -158t172 -41q145 0 285 57l6 -143q-157 -63 -354 -63q-176 0 -259 79t-83 250q0 147 40.5 279.5t111.5 231t176.5 156.5t228.5 58q153 0 226 -65.5t73 -165.5zM752 782q0 54 -37.5 84.5t-100.5 30.5
q-116 0 -197.5 -87.5t-119.5 -225.5q235 9 345 57t110 141zM942 1257l-88 -90l-170 174l-229 -174l-70 86l324 271z" />
    <glyph glyph-name="edieresis" unicode="&#xeb;" horiz-adv-x="976" 
d="M934 805q0 -164 -166.5 -254t-493.5 -102q-10 -52 -10 -119q0 -117 47 -158t172 -41q145 0 285 57l6 -143q-157 -63 -354 -63q-176 0 -259 79t-83 250q0 147 40.5 279.5t111.5 231t176.5 156.5t228.5 58q153 0 226 -65.5t73 -165.5zM752 782q0 54 -37.5 84.5t-100.5 30.5
q-116 0 -197.5 -87.5t-119.5 -225.5q235 9 345 57t110 141zM999 1346q0 -50 -32.5 -82.5t-79.5 -32.5q-46 0 -77.5 31t-31.5 75q0 47 34.5 80t80.5 33q45 0 75.5 -31t30.5 -73zM606 1346q0 -50 -32.5 -82.5t-79.5 -32.5q-46 0 -77.5 30.5t-31.5 73.5q0 49 34 82t81 33
q45 0 75.5 -31t30.5 -73z" />
    <glyph glyph-name="igrave" unicode="&#xec;" horiz-adv-x="520" 
d="M453 1018l-195 -1018h-180l194 1018h181zM547 1262l-88 -95l-281 240l111 117z" />
    <glyph glyph-name="iacute" unicode="&#xed;" horiz-adv-x="520" 
d="M453 1018l-195 -1018h-180l194 1018h181zM631 1397l-332 -230l-70 103l314 254z" />
    <glyph glyph-name="icircumflex" unicode="&#xee;" horiz-adv-x="520" 
d="M453 1018l-195 -1018h-180l194 1018h181zM678 1257l-88 -90l-170 174l-230 -174l-69 86l323 271z" />
    <glyph glyph-name="idieresis" unicode="&#xef;" horiz-adv-x="520" 
d="M453 1018l-195 -1018h-180l194 1018h181zM729 1346q0 -50 -33 -82.5t-80 -32.5q-46 0 -77 31t-31 75q0 47 34.5 80t80.5 33q45 0 75.5 -31t30.5 -73zM336 1346q0 -50 -33 -82.5t-80 -32.5q-45 0 -76.5 30.5t-31.5 73.5q0 49 33.5 82t80.5 33q45 0 76 -31t31 -73z" />
    <glyph glyph-name="eth" unicode="&#xf0;" horiz-adv-x="1095" 
d="M1098 1378l-211 -88q155 -243 155 -536q0 -215 -72.5 -390.5t-207.5 -278.5t-307 -103q-184 0 -284.5 91.5t-100.5 276.5q0 181 71.5 337t205 251.5t300.5 95.5q164 0 207 -92q-21 66 -41 105q-46 108 -94 174l-227 -95l-60 101l211 88q-47 52 -131 129l180 80
q76 -72 125 -135l225 92zM846 657q0 104 -54.5 165t-158.5 61q-84 0 -156 -43t-118.5 -113t-72.5 -157.5t-26 -178.5q0 -121 57 -187.5t160 -66.5q68 0 125.5 27t96.5 72t68.5 100t46 114.5t24.5 111.5t8 95z" />
    <glyph glyph-name="ntilde" unicode="&#xf1;" horiz-adv-x="1153" 
d="M1024 692l-133 -692h-180l125 651q23 120 0.5 175t-91.5 55q-67 0 -141.5 -66t-134 -165.5t-105 -212t-63.5 -208.5l-43 -229h-180l102 530q5 27 46 249t44 239h179q-23 -131 -113 -402h4q38 85 85 157.5t106 133.5t131 96t149 35q138 0 190.5 -91t22.5 -255zM1073 1376
q-41 -77 -100.5 -118t-128.5 -41q-44 0 -82 17.5t-60 38.5t-50 38.5t-56 17.5q-65 0 -127 -96l-90 74q42 76 100 116.5t127 40.5q43 0 81.5 -17t61.5 -38t52 -38t57 -17q67 0 125 94z" />
    <glyph glyph-name="ograve" unicode="&#xf2;" horiz-adv-x="1103" 
d="M1044 670q0 -153 -50 -284t-132.5 -218.5t-190 -136.5t-222.5 -49q-373 0 -373 362q0 149 45.5 278.5t124.5 220t188 142t232 51.5q193 0 285.5 -98t92.5 -268zM852 649q0 232 -215 232q-108 0 -194.5 -73.5t-132.5 -188.5t-46 -244q0 -117 51 -176.5t164 -59.5
q152 0 262.5 145.5t110.5 364.5zM838 1262l-88 -95l-281 240l111 117z" />
    <glyph glyph-name="oacute" unicode="&#xf3;" horiz-adv-x="1103" 
d="M1044 670q0 -153 -50 -284t-132.5 -218.5t-190 -136.5t-222.5 -49q-373 0 -373 362q0 149 45.5 278.5t124.5 220t188 142t232 51.5q193 0 285.5 -98t92.5 -268zM852 649q0 232 -215 232q-108 0 -194.5 -73.5t-132.5 -188.5t-46 -244q0 -117 51 -176.5t164 -59.5
q152 0 262.5 145.5t110.5 364.5zM1001 1397l-331 -230l-70 103l313 254z" />
    <glyph glyph-name="ocircumflex" unicode="&#xf4;" horiz-adv-x="1103" 
d="M1044 670q0 -153 -50 -284t-132.5 -218.5t-190 -136.5t-222.5 -49q-373 0 -373 362q0 149 45.5 278.5t124.5 220t188 142t232 51.5q193 0 285.5 -98t92.5 -268zM852 649q0 232 -215 232q-108 0 -194.5 -73.5t-132.5 -188.5t-46 -244q0 -117 51 -176.5t164 -59.5
q152 0 262.5 145.5t110.5 364.5zM1008 1257l-88 -90l-170 174l-230 -174l-69 86l323 271z" />
    <glyph glyph-name="otilde" unicode="&#xf5;" horiz-adv-x="1103" 
d="M1044 670q0 -153 -50 -284t-132.5 -218.5t-190 -136.5t-222.5 -49q-373 0 -373 362q0 149 45.5 278.5t124.5 220t188 142t232 51.5q193 0 285.5 -98t92.5 -268zM852 649q0 232 -215 232q-108 0 -194.5 -73.5t-132.5 -188.5t-46 -244q0 -117 51 -176.5t164 -59.5
q152 0 262.5 145.5t110.5 364.5zM1073 1376q-41 -77 -100.5 -118t-128.5 -41q-44 0 -82 17.5t-60 38.5t-50 38.5t-56 17.5q-65 0 -127 -96l-90 74q42 76 100 116.5t127 40.5q43 0 81.5 -17t61.5 -38t52 -38t57 -17q67 0 125 94z" />
    <glyph glyph-name="odieresis" unicode="&#xf6;" horiz-adv-x="1103" 
d="M1044 670q0 -153 -50 -284t-132.5 -218.5t-190 -136.5t-222.5 -49q-373 0 -373 362q0 149 45.5 278.5t124.5 220t188 142t232 51.5q193 0 285.5 -98t92.5 -268zM852 649q0 232 -215 232q-108 0 -194.5 -73.5t-132.5 -188.5t-46 -244q0 -117 51 -176.5t164 -59.5
q152 0 262.5 145.5t110.5 364.5zM1038 1346q0 -50 -32.5 -82.5t-79.5 -32.5q-46 0 -77.5 31t-31.5 75q0 47 34.5 80t80.5 33q45 0 75.5 -31t30.5 -73zM645 1346q0 -50 -33 -82.5t-80 -32.5q-45 0 -76.5 30.5t-31.5 73.5q0 49 34 82t81 33q45 0 75.5 -31t30.5 -73z" />
    <glyph glyph-name="divide" unicode="&#xf7;" 
d="M782 1024q0 -54 -36 -90.5t-87 -36.5q-52 0 -86 35.5t-34 85.5q0 54 36.5 90.5t88.5 36.5q50 0 84 -35.5t34 -85.5zM1077 686l-30 -154h-953l29 154h954zM623 199q0 -54 -36 -90.5t-87 -36.5q-52 0 -86.5 35.5t-34.5 85.5q0 54 36 90t89 36q51 0 85 -35t34 -85z" />
    <glyph glyph-name="oslash" unicode="&#xf8;" horiz-adv-x="1103" 
d="M1044 670q0 -153 -50 -284t-132.5 -218.5t-190 -136.5t-222.5 -49q-76 0 -125 16l-119 -209l-109 55l111 199q-131 85 -131 301q0 195 74 352.5t209 248.5t307 91q48 0 100 -10l115 205l108 -53l-106 -189q161 -88 161 -319zM862 649q0 128 -71 182l-388 -688
q43 -13 95 -10q151 8 257.5 156t106.5 360zM684 883q-18 4 -66 4q-103 -4 -187 -75t-130.5 -185.5t-46.5 -245.5q0 -114 49 -172z" />
    <glyph glyph-name="ugrave" unicode="&#xf9;" horiz-adv-x="1153" 
d="M1085 1018l-102 -531q-9 -40 -47.5 -248t-42.5 -239h-180q34 167 112 401h-4q-38 -85 -84.5 -157t-105 -133t-130.5 -96t-149 -35q-138 0 -191 91.5t-22 254.5l131 692h183l-125 -651q-23 -120 -1.5 -175t89.5 -55q67 0 141.5 66t134.5 165t106 211.5t64 208.5l43 230
h180zM791 1262l-89 -95l-280 240l110 117z" />
    <glyph glyph-name="uacute" unicode="&#xfa;" horiz-adv-x="1153" 
d="M1085 1018l-102 -531q-9 -40 -47.5 -248t-42.5 -239h-180q34 167 112 401h-4q-38 -85 -84.5 -157t-105 -133t-130.5 -96t-149 -35q-138 0 -191 91.5t-22 254.5l131 692h183l-125 -651q-23 -120 -1.5 -175t89.5 -55q67 0 141.5 66t134.5 165t106 211.5t64 208.5l43 230
h180zM999 1397l-331 -230l-70 103l313 254z" />
    <glyph glyph-name="ucircumflex" unicode="&#xfb;" horiz-adv-x="1153" 
d="M1085 1018l-102 -531q-9 -40 -47.5 -248t-42.5 -239h-180q34 167 112 401h-4q-38 -85 -84.5 -157t-105 -133t-130.5 -96t-149 -35q-138 0 -191 91.5t-22 254.5l131 692h183l-125 -651q-23 -120 -1.5 -175t89.5 -55q67 0 141.5 66t134.5 165t106 211.5t64 208.5l43 230
h180zM993 1257l-88 -90l-170 174l-229 -174l-70 86l324 271z" />
    <glyph glyph-name="udieresis" unicode="&#xfc;" horiz-adv-x="1153" 
d="M1085 1018l-102 -531q-9 -40 -47.5 -248t-42.5 -239h-180q34 167 112 401h-4q-38 -85 -84.5 -157t-105 -133t-130.5 -96t-149 -35q-138 0 -191 91.5t-22 254.5l131 692h183l-125 -651q-23 -120 -1.5 -175t89.5 -55q67 0 141.5 66t134.5 165t106 211.5t64 208.5l43 230
h180zM1030 1346q0 -50 -32.5 -82.5t-79.5 -32.5q-46 0 -77.5 31t-31.5 75q0 47 34.5 80t80.5 33q45 0 75.5 -31t30.5 -73zM637 1346q0 -50 -33 -82.5t-80 -32.5q-45 0 -76.5 30.5t-31.5 73.5q0 49 33.5 82t80.5 33q45 0 76 -31t31 -73z" />
    <glyph glyph-name="yacute" unicode="&#xfd;" horiz-adv-x="995" 
d="M1042 1008q-428 -997 -778 -1344q-184 -184 -366 -184q-87 0 -144 14l31 166q59 -20 129 -20q54 0 113.5 30.5t111.5 85.5q61 65 88 141t27 185q0 398 -150 936h205q52 -200 83.5 -419t31.5 -380q0 -55 -14 -127h2q230 404 460 967zM905 1397l-332 -230l-69 103l313 254z
" />
    <glyph glyph-name="thorn" unicode="&#xfe;" horiz-adv-x="1101" 
d="M1040 729q0 -115 -23.5 -221.5t-74.5 -202t-124.5 -166t-181 -112t-237.5 -41.5q-73 0 -143 12l-94 -504h-180l380 2001h183l-78 -408q-44 -218 -129 -473l6 -2q83 191 202.5 308.5t266.5 117.5q227 0 227 -309zM854 694q0 187 -104 187q-69 0 -144 -67t-135 -167
t-105 -211t-63 -203l-16 -77q77 -25 147 -25q86 0 158 34.5t119.5 91t80.5 130.5t47.5 151.5t14.5 155.5z" />
    <glyph glyph-name="ydieresis" unicode="&#xff;" horiz-adv-x="995" 
d="M1042 1008q-428 -997 -778 -1344q-184 -184 -366 -184q-87 0 -144 14l31 166q59 -20 129 -20q54 0 113.5 30.5t111.5 85.5q61 65 88 141t27 185q0 398 -150 936h205q52 -200 83.5 -419t31.5 -380q0 -55 -14 -127h2q230 404 460 967zM915 1346q0 -50 -32.5 -82.5
t-79.5 -32.5q-46 0 -77.5 31t-31.5 75q0 47 34.5 80t80.5 33q45 0 75.5 -31t30.5 -73zM522 1346q0 -50 -32.5 -82.5t-79.5 -32.5q-46 0 -77.5 30.5t-31.5 73.5q0 49 34 82t81 33q45 0 75.5 -31t30.5 -73z" />
    <glyph glyph-name="dotlessi" unicode="&#x131;" horiz-adv-x="520" 
d="M453 1018l-195 -1018h-180l194 1018h181z" />
    <glyph glyph-name="Lslash" unicode="&#x141;" horiz-adv-x="874" 
d="M799 162l-33 -162h-670l111 578l-184 -64l-19 137l232 80l124 651h185l-113 -591l227 75l17 -141l-275 -90l-88 -473h486z" />
    <glyph glyph-name="lslash" unicode="&#x142;" horiz-adv-x="571" 
d="M608 852l10 -141l-215 -72l-120 -639h-183l111 582l-191 -64l-8 137l228 80l147 760h180l-135 -702z" />
    <glyph glyph-name="OE" unicode="&#x152;" horiz-adv-x="1732" 
d="M1765 1382l-30 -155h-512l-84 -439h487l-29 -151h-487l-90 -479h512l-31 -158h-684q-123 -20 -221 -20q-246 0 -370 131t-124 372q0 185 61 354t165 293.5t251.5 198.5t313.5 74q100 0 203 -21h669zM1034 1208q-89 29 -172 29q-160 0 -289.5 -100t-200.5 -266t-71 -361
q0 -170 83 -266.5t239 -96.5q111 0 217 29z" />
    <glyph glyph-name="oe" unicode="&#x153;" horiz-adv-x="1714" 
d="M1673 805q0 -164 -166.5 -254t-492.5 -102q-10 -52 -10 -119q0 -117 47 -158t172 -41q142 0 282 57l8 -143q-157 -63 -354 -63q-132 0 -208.5 46t-100.5 148q-73 -92 -179 -143t-222 -51q-373 0 -373 362q0 149 45.5 278.5t124.5 220t188 142t232 51.5q252 0 331 -194
q146 194 377 194q153 0 226 -65.5t73 -165.5zM1491 782q0 55 -37 85t-100 30q-116 0 -198 -87.5t-120 -225.5q235 9 345 57t110 141zM852 649q0 232 -215 232q-108 0 -194.5 -73.5t-132.5 -188.5t-46 -244q0 -117 51 -176.5t164 -59.5q152 0 262.5 145.5t110.5 364.5z" />
    <glyph glyph-name="Scaron" unicode="&#x160;" horiz-adv-x="929" 
d="M915 1382l-34 -168q-90 33 -193 33q-144 0 -220.5 -67.5t-76.5 -159.5q0 -50 23.5 -93t60.5 -75.5t82 -63.5t90 -65t82 -72.5t60.5 -94t23.5 -122.5q0 -194 -154 -324t-393 -130q-138 0 -227 30l35 180q103 -45 209 -45q157 0 245 70t88 188q0 48 -23 89t-60 72t-82 60.5
t-89.5 63t-81.5 72t-60 94.5t-23 123q0 86 33.5 162.5t96.5 135.5t161 93.5t219 34.5q106 0 208 -21zM1022 1657l-342 -174l-295 170l59 102l248 -129l287 129z" />
    <glyph glyph-name="scaron" unicode="&#x161;" horiz-adv-x="780" 
d="M723 1022l-33 -150q-77 25 -153 25q-97 0 -150 -41t-53 -108q0 -44 32 -84.5t77 -74t90.5 -70t77.5 -90t32 -116.5q0 -65 -28.5 -123.5t-81.5 -105.5t-138 -74.5t-190 -27.5q-103 0 -174 14l32 166q85 -29 166 -29q103 0 163.5 41t60.5 119q0 38 -23 71.5t-57 58t-74 56
t-74 62.5t-57 79.5t-23 106.5q0 136 106 222.5t298 86.5q85 0 174 -14zM850 1438l-324 -271l-233 267l88 90l172 -174l227 174z" />
    <glyph glyph-name="Ydieresis" unicode="&#x178;" horiz-adv-x="1077" 
d="M1227 1382l-600 -884l-95 -498h-184l94 498l-254 884h193l127 -467q30 -106 57 -239h2q31 56 166 266l287 440h207zM1044 1604q0 -44 -30.5 -75.5t-73.5 -31.5q-41 0 -69.5 28.5t-28.5 69.5q0 44 30.5 75.5t73.5 31.5q42 0 70 -28t28 -70zM616 1604q0 -44 -31 -75.5
t-73 -31.5q-43 0 -71.5 28.5t-28.5 69.5q0 44 31.5 75.5t74.5 31.5q42 0 70 -28t28 -70z" />
    <glyph glyph-name="Zcaron" unicode="&#x17d;" horiz-adv-x="1060" 
d="M1135 1382l-29 -143l-750 -950q-59 -74 -102 -121q41 4 338 4h319l-32 -172h-881l27 139l712 914q36 44 144 166q-157 -5 -287 -5h-344l33 168h852zM1098 1657l-342 -174l-295 170l59 102l248 -129l287 129z" />
    <glyph glyph-name="zcaron" unicode="&#x17e;" horiz-adv-x="880" 
d="M872 1018l-26 -129l-584 -723q110 4 260 4h197l-33 -170h-684l25 129l589 729q-118 -4 -249 -4h-191l33 164h663zM897 1438l-324 -271l-233 267l88 90l172 -174l227 174z" />
    <glyph glyph-name="florin" unicode="&#x192;" 
d="M1219 1411l-39 -156q-98 31 -176 31q-100 0 -163.5 -59.5t-101.5 -194.5l-86 -301h305l-22 -143h-320l-143 -518q-58 -205 -176 -301.5t-305 -96.5q-82 0 -182 27l36 156q98 -31 179 -31q98 0 162 59t100 189l145 516h-235l22 143h250l88 309q59 204 174.5 300t304.5 96
q91 0 183 -25z" />
    <glyph glyph-name="circumflex" unicode="&#x2c6;" horiz-adv-x="868" 
d="M811 1257l-88 -90l-170 174l-229 -174l-70 86l324 271z" />
    <glyph glyph-name="caron" unicode="&#x2c7;" horiz-adv-x="868" 
d="M819 1438l-323 -271l-234 267l88 90l172 -174l228 174z" />
    <glyph glyph-name="breve" unicode="&#x2d8;" horiz-adv-x="802" 
d="M852 1473q-19 -117 -96 -196t-203 -79q-85 0 -137 40t-66.5 100.5t-1.5 134.5h121q-8 -59 17.5 -97.5t84.5 -38.5t99.5 36t50.5 100h131z" />
    <glyph glyph-name="dotaccent" unicode="&#x2d9;" horiz-adv-x="567" 
d="M573 1348q0 -55 -36 -91t-88 -36q-50 0 -82.5 32.5t-32.5 79.5q0 55 36.5 91t88.5 36q50 0 82 -33t32 -79z" />
    <glyph glyph-name="ring" unicode="&#x2da;" horiz-adv-x="768" 
d="M788 1348q0 -101 -72.5 -169.5t-170.5 -68.5q-93 0 -155 59.5t-62 151.5q0 103 73 170.5t170 67.5q94 0 155.5 -60t61.5 -151zM670 1341q0 46 -29.5 78.5t-75.5 32.5q-50 0 -85.5 -36.5t-35.5 -88.5q0 -46 31 -78t76 -32q48 0 83.5 35.5t35.5 88.5z" />
    <glyph glyph-name="ogonek" unicode="&#x2db;" horiz-adv-x="581" 
d="M330 0q-114 -64 -163.5 -126t-49.5 -110q0 -49 55 -49q53 0 107 60l75 -82q-105 -127 -248 -127q-87 0 -131.5 41t-44.5 110q0 70 54 149.5t143 133.5h203z" />
    <glyph glyph-name="tilde" unicode="&#x2dc;" horiz-adv-x="995" 
d="M944 1376q-41 -77 -100.5 -118t-128.5 -41q-44 0 -82 17.5t-60 38.5t-50 38.5t-56 17.5q-65 0 -127 -96l-90 74q42 76 100 116.5t127 40.5q43 0 81.5 -17t61.5 -38t52 -38t57 -17q67 0 125 94z" />
    <glyph glyph-name="hungarumlaut" unicode="&#x2dd;" horiz-adv-x="989" 
d="M1049 1417l-312 -250l-84 82l297 275zM684 1436l-297 -269l-86 80l279 289z" />
    <glyph glyph-name="Delta" unicode="&#x394;" horiz-adv-x="1466" 
d="M1321 0h-1335l841 1434h191zM1094 166l-213 1051l-605 -1051h818z" />
    <glyph glyph-name="Omega" unicode="&#x3a9;" horiz-adv-x="1636" 
d="M1436 891q0 -88 -21 -185.5t-66 -203t-129 -202.5t-196 -161h287l-27 -139h-469l27 141q194 119 300.5 316.5t106.5 416.5q0 172 -85 275.5t-251 103.5q-92 0 -173 -31.5t-140.5 -86t-107 -124t-76.5 -148.5t-44.5 -157.5t-15.5 -152.5q0 -135 47 -233t148 -177l-29 -143
h-473l27 139h301q-193 147 -193 420q0 119 31 238t95.5 228t153.5 193.5t214 134.5t268 50q227 0 358.5 -132.5t131.5 -379.5z" />
    <glyph glyph-name="pi" unicode="&#x3c0;" horiz-adv-x="1343" 
d="M1300 1018l-30 -148h-219l-90 -469q-24 -127 -26 -183t17 -76.5t72 -20.5t104 14l-6 -133q-88 -20 -194 -20q-124 0 -158.5 66.5t-5.5 215.5l115 606h-367l-166 -870h-172l166 870h-219l29 148h1150z" />
    <glyph glyph-name="endash" unicode="&#x2013;" 
d="M1163 690l-30 -160h-1127l31 160h1126z" />
    <glyph glyph-name="emdash" unicode="&#x2014;" horiz-adv-x="2048" 
d="M1845 690l-30 -160h-1567l31 160h1566z" />
    <glyph glyph-name="quoteleft" unicode="&#x2018;" horiz-adv-x="489" 
d="M591 1452q-209 -173 -141 -293q35 -54 2.5 -114t-101.5 -60q-71 0 -104 62q-43 81 12 200q67 146 262 285z" />
    <glyph glyph-name="quoteright" unicode="&#x2019;" horiz-adv-x="489" 
d="M424 1518q71 0 104 -62q43 -81 -12 -200q-68 -146 -264 -285l-68 80q77 63 116 117.5t41 95.5t-17 79q-18 38 -13.5 77t36.5 68.5t77 29.5z" />
    <glyph glyph-name="quotesinglbase" unicode="&#x201a;" horiz-adv-x="489" 
d="M170 231q71 0 104 -62q43 -79 -12 -197q-67 -146 -262 -285l-70 77q210 176 142 295q-19 38 -14.5 76.5t36 67t76.5 28.5z" />
    <glyph glyph-name="quotedblleft" unicode="&#x201c;" horiz-adv-x="870" 
d="M978 1454q-207 -174 -139 -293q19 -38 14 -77t-37 -68t-76 -29q-71 0 -104 62q-43 81 12 200q67 146 262 285zM591 1454q-209 -173 -141 -293q19 -38 14.5 -77t-36.5 -68t-77 -29q-71 0 -104 62q-43 81 12 200q67 146 262 285z" />
    <glyph glyph-name="quotedblright" unicode="&#x201d;" horiz-adv-x="870" 
d="M811 1522q71 0 104 -62q43 -81 -12 -200q-68 -146 -264 -285l-68 80q211 175 140 293q-32 56 -0.5 115t100.5 59zM424 1522q71 0 104 -62q43 -81 -12 -200q-68 -146 -264 -285l-68 80q211 175 140 293q-32 56 -0.5 115t100.5 59z" />
    <glyph glyph-name="quotedblbase" unicode="&#x201e;" horiz-adv-x="870" 
d="M559 231q71 0 104 -62q43 -79 -12 -197q-68 -146 -264 -285l-68 77q77 65 116 120t42 96.5t-18 78.5q-18 38 -13 76.5t36.5 67t76.5 28.5zM170 231q71 0 104 -62q43 -79 -12 -197q-67 -146 -262 -285l-70 77q210 176 142 295q-19 38 -14.5 76.5t36 67t76.5 28.5z" />
    <glyph glyph-name="dagger" unicode="&#x2020;" horiz-adv-x="901" 
d="M956 1284l-26 -143h-281l-6 -201l-135 -514h-135l59 514l72 201h-281l27 143h280l21 281h211l-86 -281h280z" />
    <glyph glyph-name="daggerdbl" unicode="&#x2021;" horiz-adv-x="901" 
d="M958 1298l-26 -143h-279l-8 -203l-72 -204h279l-27 -144h-278l-19 -266h-211l84 266h-280l26 144h281l6 204l72 203h-279l25 143h280l19 267h211l-82 -267h278z" />
    <glyph glyph-name="bullet" unicode="&#x2022;" horiz-adv-x="860" 
d="M700 616q0 -106 -74.5 -181t-176.5 -75t-172 71t-70 169q0 107 74.5 181.5t177.5 74.5q101 0 171 -71t70 -169z" />
    <glyph glyph-name="ellipsis" unicode="&#x2026;" horiz-adv-x="1335" 
d="M1151 111q0 -55 -37.5 -92t-89.5 -37q-50 0 -82.5 34.5t-32.5 81.5q0 56 37.5 93.5t89.5 37.5q50 0 82.5 -35t32.5 -83zM721 111q0 -55 -37.5 -92t-89.5 -37q-50 0 -83.5 34.5t-33.5 81.5q0 56 37.5 93.5t89.5 37.5q50 0 83.5 -35t33.5 -83zM289 111q0 -55 -37.5 -92
t-89.5 -37q-50 0 -82.5 34.5t-32.5 81.5q0 56 37 93.5t90 37.5q50 0 82.5 -35t32.5 -83z" />
    <glyph glyph-name="perthousand" unicode="&#x2030;" horiz-adv-x="2066" 
d="M1929 389q0 -168 -97.5 -288.5t-246.5 -120.5q-107 0 -166 53.5t-59 163.5q0 105 42.5 197.5t122.5 151t179 58.5q225 0 225 -215zM760 1135q0 -168 -98 -288t-248 -120q-224 0 -224 215q0 105 42.5 198.5t123 152.5t179.5 59q106 0 165.5 -53t59.5 -164zM1440 1270
l-1309 -1303l-94 92l1309 1305zM1288 389q0 -168 -97.5 -288.5t-246.5 -120.5q-107 0 -166 53.5t-59 163.5q0 105 42.5 197.5t122.5 151t179 58.5q225 0 225 -215zM1786 375q0 55 -23 80.5t-75 25.5q-61 0 -105 -46.5t-62 -106t-18 -119.5q0 -54 24 -79.5t75 -25.5
q62 0 106 46.5t61 105.5t17 119zM616 1122q0 105 -98 105q-61 0 -105 -47t-61.5 -106t-17.5 -118q0 -54 23.5 -80t74.5 -26q47 0 84 26.5t58 68.5t31.5 87.5t10.5 89.5zM1145 375q0 55 -23 80.5t-75 25.5q-61 0 -105 -46.5t-62 -106t-18 -119.5q0 -54 24 -79.5t75 -25.5
q62 0 106 46.5t61 105.5t17 119z" />
    <glyph glyph-name="guilsinglleft" unicode="&#x2039;" horiz-adv-x="628" 
d="M561 891l-250 -289l148 -291l-146 -75l-182 376l303 359z" />
    <glyph glyph-name="guilsinglright" unicode="&#x203a;" horiz-adv-x="628" 
d="M551 594l-303 -358l-129 79l250 289l-148 291l146 76z" />
    <glyph glyph-name="fraction" unicode="&#x2044;" horiz-adv-x="839" 
d="M1116 1331l-1141 -1386l-116 100l1140 1385z" />
    <glyph glyph-name="Euro" unicode="&#x20ac;" 
d="M1184 1296l-62 -151q-105 57 -235 57q-279 0 -410 -319h389l-22 -123h-412q-25 -85 -35 -182h410l-21 -123h-397q-3 -77 8.5 -133.5t43 -100t89 -65t142.5 -21.5q127 0 272 60l31 -146q-163 -69 -344 -69q-125 0 -212.5 33t-136.5 97.5t-69 148.5t-16 196h-181l23 123
h168q9 88 37 182h-170l22 123h187q38 99 92 179.5t130.5 147.5t182.5 104.5t232 37.5q130 0 264 -56z" />
    <glyph glyph-name="trademark" unicode="&#x2122;" horiz-adv-x="1402" 
d="M1380 1382l-20 -575h-139l12 301l8 111l-41 -95l-151 -317h-138l-28 321l-6 91l-21 -76l-111 -336h-129l197 575h174l29 -315l4 -94l33 86l155 323h172zM690 1382l-20 -112h-146l-88 -463h-139l90 463h-149l20 112h432z" />
    <glyph glyph-name="partialdiff" unicode="&#x2202;" horiz-adv-x="1286" 
d="M1206 958q0 -133 -27 -268.5t-84 -262.5t-136.5 -225.5t-193 -158t-245.5 -59.5q-95 0 -168 27.5t-117 76.5t-66 112t-22 138q0 159 72.5 288t197.5 201t277 72q108 0 193 -50.5t112 -139.5q1 20 11.5 107t9.5 138q-8 187 -113.5 293.5t-290.5 106.5l52 151
q257 -7 397.5 -157t140.5 -390zM907 524q0 94 -61 157.5t-182 63.5q-141 0 -236.5 -107t-95.5 -265q0 -107 58.5 -168.5t164.5 -61.5q141 0 246.5 110.5t105.5 270.5z" />
    <glyph glyph-name="product" unicode="&#x220f;" horiz-adv-x="1710" 
d="M1677 1495l-28 -158h-213l-355 -1843h-174l357 1843h-623l-354 -1843h-174l356 1843h-213l31 158h1390z" />
    <glyph glyph-name="summation" unicode="&#x2211;" horiz-adv-x="1359" 
d="M1278 1495l-29 -158h-762l428 -839l-759 -840h802l-32 -164h-1037l27 144l786 874l-421 840l26 143h971z" />
    <glyph glyph-name="minus" unicode="&#x2212;" 
d="M1077 690l-30 -160h-953l31 160h952z" />
    <glyph glyph-name="radical" unicode="&#x221a;" horiz-adv-x="1236" 
d="M1366 1552l-764 -1552h-209l-133 879h-182l28 139h326l76 -592q20 -151 24 -233h5q44 105 96 217l532 1142h201z" />
    <glyph glyph-name="infinity" unicode="&#x221e;" horiz-adv-x="2007" 
d="M1876 686q0 -77 -29 -150.5t-82.5 -133.5t-137.5 -97t-185 -37q-113 0 -222 62t-231 172q-168 -110 -299 -172t-244 -62q-159 0 -237 73.5t-78 197.5q0 178 127 296.5t299 118.5q117 0 227 -61.5t236 -171.5q169 110 300 171.5t241 61.5q159 0 237 -74.5t78 -193.5z
M1694 657q0 60 -39.5 99t-114.5 39q-48 0 -117.5 -29.5t-124 -62.5t-149.5 -95q95 -86 168 -132t143 -46q102 0 168 65.5t66 161.5zM856 614q-102 90 -173 135.5t-140 45.5q-99 0 -165.5 -66.5t-66.5 -159.5q0 -62 39.5 -100.5t112.5 -38.5q69 0 160 46t233 138z" />
    <glyph glyph-name="integral" unicode="&#x222b;" horiz-adv-x="690" 
d="M834 1495l-31 -162q-53 17 -96 17q-52 0 -87 -26.5t-66 -100.5t-56 -207q-28 -148 -77.5 -464t-92.5 -544q-38 -201 -93 -317.5t-130 -165.5t-187 -49q-48 0 -102 14l30 162q46 -17 95 -17q52 0 88 27t66 99.5t55 201.5q26 135 75 456t94 556q39 203 95 320t132 164.5
t189 47.5q53 0 99 -12z" />
    <glyph glyph-name="approxequal" unicode="&#x2248;" 
d="M1087 764q-128 -119 -272 -119q-52 0 -96.5 12.5t-76.5 30.5t-62.5 36.5t-70 31t-85.5 12.5q-99 0 -211 -86l-61 127q143 117 280 117q62 0 117.5 -19.5t90 -43t82.5 -43t97 -19.5q89 0 207 90zM1020 403q-135 -114 -277 -114q-54 0 -99 12.5t-77 30.5t-62 36.5t-68.5 31
t-82.5 12.5q-97 0 -209 -86l-63 127q146 114 274 114q51 0 96 -13t77.5 -31.5t64.5 -36.5t72.5 -31t85.5 -13q96 0 206 90z" />
    <glyph glyph-name="notequal" unicode="&#x2260;" 
d="M1090 860l-29 -153h-336l-117 -197h416l-31 -152h-473l-168 -284h-166l168 284h-272l29 152h331l117 197h-409l26 153h469l172 289h168l-172 -289h277z" />
    <glyph glyph-name="lessequal" unicode="&#x2264;" 
d="M1081 1145l-655 -377l522 -383l-123 -125l-655 518l817 498zM924 154l-31 -154h-848l31 154h848z" />
    <glyph glyph-name="greaterequal" unicode="&#x2265;" 
d="M1059 758l-819 -498l-93 129l654 379l-525 383l123 125zM924 154l-31 -154h-848l31 154h848z" />
    <glyph glyph-name="lozenge" unicode="&#x25ca;" horiz-adv-x="1243" 
d="M1225 686l-625 -704h-115l-364 716l627 703h110zM1028 680l-266 518l-445 -502l265 -510z" />
    <glyph glyph-name="Acute" unicode="&#xf6c9;" horiz-adv-x="780" 
d="M809 1599l-397 -114l-27 106l389 152z" />
    <glyph glyph-name="Caron" unicode="&#xf6ca;" horiz-adv-x="868" 
d="M971 1657l-342 -174l-295 170l59 102l248 -129l287 129z" />
    <glyph glyph-name="Dieresis" unicode="&#xf6cb;" horiz-adv-x="1095" 
d="M1057 1604q0 -44 -31 -75.5t-74 -31.5q-41 0 -69.5 28.5t-28.5 69.5q0 44 30.5 75.5t73.5 31.5q42 0 70.5 -28t28.5 -70zM629 1604q0 -44 -31.5 -75.5t-73.5 -31.5q-43 0 -71.5 28.5t-28.5 69.5q0 44 31.5 75.5t74.5 31.5q42 0 70.5 -28t28.5 -70z" />
    <glyph glyph-name="Grave" unicode="&#xf6ce;" horiz-adv-x="741" 
d="M784 1591l-45 -106l-387 114l64 144z" />
    <glyph glyph-name="apple" unicode="&#xf8ff;" horiz-adv-x="2131" 
d="M311 1362q56 60 88 86l170 -197q-11 -9 -33.5 -31t-29.5 -28zM1112 1425q-46 3 -90 0l-16 254q63 3 122 0zM1565 1253l168 193q48 -40 88 -88l-193 -166q-34 38 -63 61zM2087 756q6 -64 0 -125l-258 18q3 44 0 88zM1563 692q0 -102 -38.5 -192.5t-101.5 -151.5v-158
l-32 -10l65 -151l-61 -17l61 -147l-63 -15l20 -51l-59 -139h-105q-6 -37 -58.5 -63.5t-123.5 -26.5q-72 0 -123.5 26.5t-56.5 63.5h-107l-102 250l63 16l-63 152l70 18l-39 94v160q-63 64 -100.5 153.5t-37.5 188.5q0 135 66 249t180 180.5t250 66.5q134 0 248 -66.5
t181 -180.5t67 -249zM813 393h119l-33 281q-16 -4 -29.5 -8.5t-26.5 -9.5t-18 -7q-18 -6 -27 16t-5 48t16 30q139 41 258 41t262 -41q10 -3 13 -29t-5 -48.5t-26 -16.5q-25 12 -80 25l-29 -281h121q59 51 97 129.5t38 169.5q0 163 -115 278t-276 115q-163 0 -278 -115
t-115 -278q0 -87 36 -165.5t103 -133.5zM1155 686q-35 6 -88 6q-57 0 -92 -6l31 -293h122zM1323 309h-514v-110l33 -78l481 121v67zM1329 74l-33 84l-493 -127l33 -80zM1331 -88l-33 76l-495 -125l53 -127h424l29 65l-15 29l-151 -39l-25 68zM1042 731v2h-4l4 12h-2l-4 -12
q0 -2 2 -2h4zM1053 741h-2l-2 -6q-2 -4 -2 0l2 6h-2l-3 -6q-1 -4 1 -4q4 0 6 4zM1059 731v2q-3 -1 -3 1q1 4 5 5v2q-5 2 -7 -5q-2 -5 2 -5h3zM1065 727q-4 11 6 21q-3 0 -5.5 -5.5t-3 -10t2.5 -5.5zM1075 735l-2 -4h2l2 10q-7 1 -9 -7q0 -4 2 -3.5t5 4.5zM1075 739z
M1079 731q4 0 5 1.5t-1 3.5q-2 3 2 3v2q-5 0 -3.5 -4t-2.5 -4v-2zM1083 727q6 0 9 14q1 7 -2 7q4 -10 -7 -21zM45 756l262 -19q-3 -45 0 -90l-262 -18q-3 65 0 127z" />
    <glyph glyph-name="fi" unicode="&#xfb01;" horiz-adv-x="1177" 
d="M1147 1470l-64 -153q-109 39 -231 39q-293 0 -344 -273l-12 -65h614l-195 -1018h-180l166 874h-434l-174 -925q-46 -246 -161.5 -357.5t-305.5 -111.5q-94 0 -176 18l45 156q71 -21 143 -21q112 0 176 69.5t97 242.5l176 929h-205l29 144h206l7 45q69 444 540 444
q148 0 283 -37z" />
    <glyph glyph-name="fl" unicode="&#xfb02;" horiz-adv-x="1175" 
d="M1196 1477l-281 -1477h-180l256 1343q-85 15 -166 15q-136 0 -211 -57t-98 -181l-20 -102h270l-31 -144h-268l-174 -925q-46 -246 -161.5 -357.5t-305.5 -111.5q-94 0 -176 18l45 156q71 -21 143 -21q112 0 176 69.5t97 242.5l176 929h-205l29 144h204l21 110
q72 379 508 379q179 0 352 -30z" />
    <glyph glyph-name="Circumflex" horiz-adv-x="868" 
d="M958 1585l-59 -102l-250 129l-287 -129l-40 98l342 174z" />
    <glyph glyph-name="Tilde" horiz-adv-x="995" 
d="M1087 1655q-89 -150 -231 -150q-46 0 -85.5 16.5t-63 37t-53.5 37t-58 16.5q-72 0 -131 -92l-90 67q90 152 231 152q46 0 85.5 -16.5t63 -37t53.5 -37t58 -16.5q68 0 131 90z" />
    <glyph glyph-name="LuFo" horiz-adv-x="368" 
d="M369 -246v-368h-369v368h369zM328 -287h-287v-286h287v286zM82 -532v204h41v-164h82v-40h-123zM164 -328h123v-204h-41v81h-82v41h82v41h-82v41z" />
    </font>
</defs>
</svg>
